<svg width="40" height="40" viewBox="0 0 40 40" fill="none" xmlns="http://www.w3.org/2000/svg">
<rect x="1" y="1" width="38" height="38" rx="11" stroke="#EAE9E3" stroke-width="2"/>
<path d="M20.0001 13.4375C20.0012 13.0626 19.9273 12.6912 19.7828 12.3452C19.6382 11.9992 19.426 11.6856 19.1584 11.4228C18.8909 11.16 18.5736 10.9534 18.2251 10.8151C17.8765 10.6768 17.5039 10.6096 17.129 10.6174C16.7541 10.6252 16.3845 10.7079 16.0421 10.8606C15.6996 11.0133 15.3911 11.233 15.1348 11.5067C14.8785 11.7804 14.6795 12.1025 14.5495 12.4543C14.4195 12.806 14.3612 13.1801 14.3779 13.5547M20.0001 13.4375V25.625M20.0001 13.4375C19.999 13.0626 20.0729 12.6912 20.2174 12.3452C20.3619 11.9992 20.5742 11.6856 20.8417 11.4228C21.1092 11.16 21.4266 10.9534 21.7751 10.8151C22.1236 10.6768 22.4963 10.6096 22.8712 10.6174C23.2461 10.6252 23.6156 10.7079 23.9581 10.8606C24.3005 11.0133 24.609 11.233 24.8653 11.5067C25.1216 11.7804 25.3207 12.1025 25.4506 12.4543C25.5806 12.806 25.639 13.1801 25.6223 13.5547M14.3779 13.5547C13.8268 13.6964 13.3152 13.9617 12.8818 14.3303C12.4485 14.699 12.1047 15.1615 11.8765 15.6827C11.6483 16.2039 11.5417 16.7703 11.5648 17.3388C11.5879 17.9073 11.7401 18.4631 12.0098 18.9641M14.3779 13.5547C14.3964 14.0082 14.5244 14.4505 14.751 14.8438M12.0098 18.9641C11.5356 19.3494 11.1627 19.8446 10.9235 20.4069C10.6844 20.9691 10.5862 21.5812 10.6376 22.19C10.689 22.7988 10.8883 23.3859 11.2183 23.9001C11.5483 24.4143 11.9989 24.84 12.531 25.1404M12.0098 18.9641C12.1813 18.8244 12.3648 18.7011 12.5582 18.5938M12.531 25.1404C12.4653 25.6487 12.5045 26.1651 12.6462 26.6577C12.7879 27.1503 13.0291 27.6086 13.3549 28.0044C13.6806 28.4001 14.0841 28.7249 14.5403 28.9586C14.9965 29.1923 15.4957 29.33 16.0072 29.3632C16.5187 29.3964 17.0316 29.3243 17.5142 29.1516C17.9968 28.9788 18.4388 28.7089 18.813 28.3586C19.1872 28.0083 19.4855 27.585 19.6897 27.1148C19.8939 26.6446 19.9995 26.1376 20.0001 25.625M12.531 25.1404C13.0938 25.4578 13.729 25.6253 14.3751 25.625M20.0001 25.625C20.0006 26.1376 20.1062 26.6446 20.3104 27.1148C20.5146 27.585 20.813 28.0083 21.1872 28.3586C21.5614 28.7089 22.0034 28.9788 22.486 29.1516C22.9685 29.3243 23.4814 29.3964 23.9929 29.3632C24.5044 29.33 25.0037 29.1923 25.4599 28.9586C25.9161 28.7249 26.3195 28.4001 26.6453 28.0044C26.971 27.6086 27.2122 27.1503 27.3539 26.6577C27.4956 26.1651 27.5348 25.6487 27.4691 25.1404M25.6223 13.5547C26.1733 13.6964 26.6849 13.9617 27.1183 14.3303C27.5517 14.699 27.8955 15.1615 28.1237 15.6827C28.3518 16.2039 28.4584 16.7703 28.4353 17.3388C28.4122 17.9073 28.2601 18.4631 27.9904 18.9641M25.6223 13.5547C25.6034 14.0083 25.476 14.4506 25.2491 14.8438M27.9904 18.9641C28.4646 19.3494 28.8375 19.8446 29.0766 20.4069C29.3158 20.9691 29.4139 21.5812 29.3625 22.19C29.3112 22.7988 29.1118 23.3859 28.7818 23.9001C28.4518 24.4143 28.0012 24.84 27.4691 25.1404M27.9904 18.9641C27.8189 18.8244 27.6354 18.7011 27.4419 18.5938M27.4691 25.1404C26.9064 25.4578 26.2712 25.6253 25.6251 25.625M22.8126 20.9375C22.0255 20.6607 21.3382 20.1566 20.8376 19.4891C20.3369 18.8216 20.0455 18.0207 20.0001 17.1875C19.9546 18.0207 19.6632 18.8216 19.1626 19.4891C18.662 20.1566 17.9747 20.6607 17.1876 20.9375" stroke="#94D388" stroke-width="2" stroke-linecap="round" stroke-linejoin="round"/>
</svg>
