<svg width="40" height="40" viewBox="0 0 40 40" fill="none" xmlns="http://www.w3.org/2000/svg">
<rect x="1" y="1" width="38" height="38" rx="11" stroke="#EAE9E3" stroke-width="2"/>
<path d="M17 22H12C11.4477 22 11 22.4477 11 23V28C11 28.5523 11.4477 29 12 29H17C17.5523 29 18 28.5523 18 28V23C18 22.4477 17.5523 22 17 22Z" stroke="#F3AADB" stroke-width="2" stroke-linecap="round" stroke-linejoin="round"/>
<path d="M16.3 18.0001C16.1711 18.0072 16.0427 17.9784 15.9291 17.9171C15.8155 17.8557 15.7211 17.7641 15.6564 17.6525C15.5916 17.5408 15.5589 17.4134 15.562 17.2843C15.5651 17.1552 15.6039 17.0295 15.674 16.9211L19.4 11.0001C19.4585 10.8947 19.5433 10.8062 19.6461 10.7432C19.749 10.6801 19.8663 10.6448 19.9868 10.6404C20.1074 10.6361 20.227 10.663 20.334 10.7185C20.4411 10.774 20.532 10.8562 20.598 10.9571L24.3 16.9001C24.3729 17.0049 24.4159 17.1277 24.4241 17.2551C24.4323 17.3825 24.4055 17.5098 24.3466 17.6231C24.2877 17.7364 24.1989 17.8314 24.0898 17.8979C23.9808 17.9643 23.8557 17.9997 23.728 18.0001H16.3Z" stroke="#F5C356" stroke-width="2" stroke-linecap="round" stroke-linejoin="round"/>
<path d="M25.5 29C27.433 29 29 27.433 29 25.5C29 23.567 27.433 22 25.5 22C23.567 22 22 23.567 22 25.5C22 27.433 23.567 29 25.5 29Z" stroke="#94D388" stroke-width="2" stroke-linecap="round" stroke-linejoin="round"/>
</svg>
