<svg width="40" height="40" viewBox="0 0 40 40" fill="none" xmlns="http://www.w3.org/2000/svg">
<rect x="1" y="1" width="38" height="38" rx="11" stroke="#EAE9E3" stroke-width="2"/>
<path d="M14 17H12.5C11.837 17 11.2011 16.7366 10.7322 16.2678C10.2634 15.7989 10 15.163 10 14.5C10 13.837 10.2634 13.2011 10.7322 12.7322C11.2011 12.2634 11.837 12 12.5 12H14M14 17V10H26V17M14 17C14 18.5913 14.6321 20.1174 15.7574 21.2426C16.8826 22.3679 18.4087 23 20 23C21.5913 23 23.1174 22.3679 24.2426 21.2426C25.3679 20.1174 26 18.5913 26 17M26 17H27.5C28.163 17 28.7989 16.7366 29.2678 16.2678C29.7366 15.7989 30 15.163 30 14.5C30 13.837 29.7366 13.2011 29.2678 12.7322C28.7989 12.2634 28.163 12 27.5 12H26M12 30H28M18 22.66V25C18 25.55 17.53 25.98 17.03 26.21C15.85 26.75 15 28.24 15 30M22 22.66V25C22 25.55 22.47 25.98 22.97 26.21C24.15 26.75 25 28.24 25 30" stroke="#94D388" stroke-width="2" stroke-linecap="round" stroke-linejoin="round"/>
</svg>
