<svg width="40" height="40" viewBox="0 0 40 40" fill="none" xmlns="http://www.w3.org/2000/svg">
<rect x="1" y="1" width="38" height="38" rx="11" stroke="#EAE9E3" stroke-width="2"/>
<path d="M30 18V24M14 20.5V24C14 24.7956 14.6322 25.5587 15.7574 26.1213C16.8826 26.6839 18.4087 27 20 27C21.5913 27 23.1174 26.6839 24.2427 26.1213C25.3679 25.5587 26 24.7956 26 24V20.5M29.42 18.922C29.599 18.843 29.7509 18.7133 29.8569 18.5488C29.9629 18.3843 30.0184 18.1924 30.0163 17.9967C30.0143 17.8011 29.9549 17.6103 29.8456 17.4481C29.7362 17.2858 29.5816 17.1592 29.401 17.084L20.83 13.18C20.5694 13.0611 20.2864 12.9996 20 12.9996C19.7136 12.9996 19.4306 13.0611 19.17 13.18L10.6 17.08C10.422 17.158 10.2705 17.2861 10.1642 17.4488C10.0578 17.6115 10.0012 17.8016 10.0012 17.996C10.0012 18.1903 10.0578 18.3805 10.1642 18.5432C10.2705 18.7059 10.422 18.834 10.6 18.912L19.17 22.82C19.4306 22.9388 19.7136 23.0003 20 23.0003C20.2864 23.0003 20.5694 22.9388 20.83 22.82L29.42 18.922Z" stroke="#F5C356" stroke-width="2" stroke-linecap="round" stroke-linejoin="round"/>
</svg>
