<svg width="40" height="40" viewBox="0 0 40 40" fill="none" xmlns="http://www.w3.org/2000/svg">
<rect x="1" y="1" width="38" height="38" rx="11" stroke="#EAE9E3" stroke-width="2"/>
<path d="M20 13C21.5 11.5 22.74 11 24.5 11C25.9587 11 27.3576 11.5795 28.3891 12.6109C29.4205 13.6424 30 15.0413 30 16.5C30 18.79 28.49 20.54 27 22L20 29L13 22C11.5 20.55 10 18.8 10 16.5C10 15.0413 10.5795 13.6424 11.6109 12.6109C12.6424 11.5795 14.0413 11 15.5 11C17.26 11 18.5 11.5 20 13ZM20 13L17.04 15.96C16.8368 16.1617 16.6756 16.4016 16.5655 16.6659C16.4555 16.9302 16.3988 17.2137 16.3988 17.5C16.3988 17.7863 16.4555 18.0698 16.5655 18.3341C16.6756 18.5984 16.8368 18.8383 17.04 19.04C17.86 19.86 19.17 19.89 20.04 19.11L22.11 17.21C22.6289 16.7392 23.3044 16.4784 24.005 16.4784C24.7056 16.4784 25.3811 16.7392 25.9 17.21L28.86 19.87M26 23L24 21M23 26L21 24" stroke="#F3AADB" stroke-width="2" stroke-linecap="round" stroke-linejoin="round"/>
<path d="M20 13L17.04 15.96C16.8368 16.1617 16.6756 16.4016 16.5655 16.6659C16.4555 16.9302 16.3988 17.2137 16.3988 17.5C16.3988 17.7863 16.4555 18.0698 16.5655 18.3341C16.6756 18.5984 16.8368 18.8383 17.04 19.04C17.86 19.86 19.17 19.89 20.04 19.11L22.11 17.21C22.6289 16.7392 23.3044 16.4784 24.005 16.4784C24.7056 16.4784 25.3812 16.7392 25.9 17.21L28.86 19.87" stroke="#F5C356" stroke-width="2" stroke-linecap="round" stroke-linejoin="round"/>
</svg>
