<svg width="66" height="94" viewBox="0 0 66 94" fill="none" xmlns="http://www.w3.org/2000/svg">
<path d="M66 94H0C1.375 84.2592 2.15218 74.3982 3.1087 64.5973C3.8261 57.3819 4.54349 50.1665 5.2011 42.9511C5.79892 36.9383 6.45653 30.7451 9.68479 25.5139C12.8533 20.4632 18.3532 16.8555 24.4511 15.4124C24.9891 13.4883 25.8859 11.5642 26.4837 10.2414C27.6793 7.65584 29.3533 5.25071 31.3261 3.14622C31.9837 2.42468 33.6576 0.199942 34.6141 0.0195568C36.288 -0.281084 38.2609 2.96585 38.3805 4.16841C38.5 5.25072 38.3207 6.33302 38.1413 7.41533C37.962 8.37738 37.6631 9.7002 38.0815 10.542C39.8152 9.94072 42.0272 6.81405 44 7.17482C45.913 7.47546 46.0924 9.45969 45.9728 10.9028C45.9728 10.9629 45.9728 11.023 45.9728 11.0832C45.6739 13.6687 44.5978 15.8934 42.6848 17.6371C47.2283 19.922 51.0544 23.3493 53.625 27.5583C57.5109 33.8116 58.4674 41.2675 59.3641 48.4228C60.9185 60.9295 61.4565 73.9172 63.8478 86.1833C64.5652 88.7688 65.2228 91.4145 66 94Z" fill="#6D5757"/>
<path d="M54.8804 94H12.7935C14.1685 91.655 15.8424 89.4302 17.6956 87.3859C26.0054 78.4869 37.9022 76.9837 47.288 84.8605C50.337 87.446 52.8478 90.5727 54.8804 94Z" fill="#EFECE1"/>
<path d="M41.8474 70.0691C40.6518 70.2495 39.755 70.3697 38.6191 70.1893C38.2007 70.0691 38.1409 70.0089 37.9615 70.0691C36.9452 70.3697 37.1844 73.0755 37.0648 73.8571C36.7659 75.3603 36.0485 76.623 34.9724 77.7053C32.1028 80.4712 29.1735 76.9237 28.5757 73.8571C28.3963 73.0755 28.6952 70.4298 27.6789 70.0691C27.4996 70.0089 27.38 70.0691 26.9615 70.1893C25.8257 70.4298 24.9887 70.3096 23.7333 70.0691C21.7605 69.7684 15.842 67.7241 20.3257 65.8601C21.1626 65.4993 22.1191 65.3791 22.9561 65.0784C27.6789 63.3347 27.7985 55.8187 34.0757 57.0212C37.7224 57.7428 38.7985 63.6353 42.5648 65.0784C43.4018 65.3791 44.3583 65.4993 45.1952 65.8601C49.7387 67.7241 43.8202 69.7684 41.8474 70.0691Z" fill="#EE8C1D"/>
<path d="M30.5487 74.3387C30.3095 72.8956 30.0106 71.5127 29.7715 70.0696C31.8041 70.0696 33.8367 70.0696 35.8095 70.0696C36.0486 70.0696 34.3747 75.6615 34.016 76.2027C32.4617 78.4274 30.9073 76.0824 30.5487 74.3387Z" fill="#D03F16"/>
<path d="M20.8044 47.0998C20.8044 50.2866 20.3261 53.1727 19.6087 55.3975C18.5326 54.5557 16.7391 54.0145 14.7065 54.0145C13.6902 54.0145 12.7337 54.1348 11.8967 54.4354C11.2989 52.3911 11 49.8657 11 47.0998C11 40.1249 13.212 34.4728 15.9022 34.4728C18.5924 34.4728 20.8044 40.1249 20.8044 47.0998Z" fill="#010202"/>
<path d="M14.2877 44.9952C15.1462 44.9952 15.8421 44.2953 15.8421 43.4319C15.8421 42.5685 15.1462 41.8686 14.2877 41.8686C13.4293 41.8686 12.7334 42.5685 12.7334 43.4319C12.7334 44.2953 13.4293 44.9952 14.2877 44.9952Z" fill="white"/>
<path d="M53.3856 47.0998C53.3856 49.9258 53.0269 52.5714 52.3693 54.6759C51.353 54.255 50.0976 54.0145 48.7823 54.0145C47.1682 54.0145 45.6737 54.3753 44.5976 54.9766C43.94 52.812 43.5215 50.1062 43.5215 47.0998C43.5215 40.1249 45.7334 34.4728 48.4237 34.4728C51.1737 34.4728 53.3856 40.1249 53.3856 47.0998Z" fill="#010202"/>
<path d="M50.0978 43.793C50.9562 43.793 51.6521 43.093 51.6521 42.2296C51.6521 41.3662 50.9562 40.6663 50.0978 40.6663C49.2393 40.6663 48.5435 41.3662 48.5435 42.2296C48.5435 43.093 49.2393 43.793 50.0978 43.793Z" fill="white"/>
<path opacity="0.83" d="M8.48926 30.5649C13.8697 30.2642 18.7121 27.9192 22.299 23.8906C20.8642 29.6028 13.7501 33.0301 8.48926 30.5649Z" fill="#453431"/>
<path opacity="0.83" d="M55.239 30.5649C49.9183 33.0301 42.8042 29.6028 41.4292 23.8906C45.0162 27.9192 49.8585 30.2642 55.239 30.5649Z" fill="#453431"/>
<path opacity="0.45" d="M11.2391 65.138C13.7153 65.138 15.7228 64.0612 15.7228 62.7328C15.7228 61.4045 13.7153 60.3277 11.2391 60.3277C8.76279 60.3277 6.75537 61.4045 6.75537 62.7328C6.75537 64.0612 8.76279 65.138 11.2391 65.138Z" fill="#F0B3D2"/>
<path opacity="0.45" d="M54.2825 65.138C56.7588 65.138 58.7662 64.0612 58.7662 62.7328C58.7662 61.4045 56.7588 60.3277 54.2825 60.3277C51.8062 60.3277 49.7988 61.4045 49.7988 62.7328C49.7988 64.0612 51.8062 65.138 54.2825 65.138Z" fill="#F0B3D2"/>
</svg>
