<svg width="130" height="131" viewBox="0 0 130 131" fill="none" xmlns="http://www.w3.org/2000/svg">
<mask id="mask0_2272_12765" style="mask-type:luminance" maskUnits="userSpaceOnUse" x="-30" y="0" width="160" height="162">
<path d="M49.848 0.745117C93.8481 0.745117 129.494 36.6687 129.494 80.9489C129.494 125.229 93.8481 161.102 49.848 161.102C5.84805 161.102 -29.7975 125.229 -29.7975 80.9489C-29.7975 36.6687 5.84805 0.745117 49.848 0.745117Z" fill="white"/>
</mask>
<g mask="url(#mask0_2272_12765)">
<path d="M129.494 0.745117H-29.7975V161.051H129.494V0.745117Z" fill="#F1F2F0"/>
</g>
<path fill-rule="evenodd" clip-rule="evenodd" d="M67.0632 63.6241C68.2278 59.9043 73.1392 61.7387 71.924 65.1527C71.8734 65.1018 71.8227 65.0508 71.8227 65.0508L71.5189 64.6432C71.1139 64.0827 70.962 63.726 70 63.4202C68.6329 62.9107 68.0253 63.3693 67.0632 63.6241ZM59.4683 44.0062C58.2531 43.1909 58.3037 42.9362 56.5822 43.4967C54.6582 44.1081 55.2151 43.4967 53.9493 42.8852C52.3797 42.1209 52.4303 43.5986 50.962 43.4457C49.443 43.2929 50.3544 41.8661 50.5569 40.7451C48.8354 40.8979 48.9367 40.3374 47.9746 40.4393C47.5696 40.4903 46.6582 41.0508 45.8987 41.3565C35.2658 45.5349 30.0506 53.6368 28.1265 64.796C25.8987 65.5094 26.5569 65.9171 24.9873 66.7833C24.7848 64.5922 24.5316 62.3502 22.5063 61.9935C19.5189 61.433 17.0379 64.2355 15.2151 65.6113C12.1772 67.9043 11.3164 68.9234 7.67084 68.312C7.7721 69.6368 8.93666 71.1145 10.2531 71.8788C11.7721 72.7451 12.886 73.1527 15.1139 73.1527C17.443 73.1018 20.5822 72.2355 22.405 71.1145C23.367 70.503 23.2658 70.1973 24.3291 69.9935C24.5316 71.2674 24.5316 72.2865 25.8987 72.6941C27.0632 72.9999 28.1772 72.4393 28.7848 71.7769C30.3544 70.1973 29.8481 67.5476 29.8481 65.3056C31.6708 63.7769 35.5189 63.0126 38.4556 62.503C45.6455 61.3311 56.6329 63.3183 63.8734 65.1527C65.9493 65.6623 66.1012 65.6113 66.6075 67.7005C64.3797 69.382 63.6202 70.7069 65.1392 74.3247C66.7088 78.0954 66.6582 77.9425 65.3924 81.6113C67.8227 80.8979 69.2911 78.9107 70.0506 76.5158C70.5063 75.14 70.8607 73.7132 70.3544 72.0827C69.7468 70.1464 68.3797 69.8916 68.7848 68.9744C70.2025 67.5476 71.6202 68.0572 73.1392 69.0763L76.8354 71.8279C77.5443 72.5413 77.8987 72.6432 78.6076 73.3056C79.6202 74.2737 81.7974 77.1782 82.3037 79.0635C82.7088 80.7451 84.2784 82.019 86.1012 81.1527C87.1645 80.6432 87.0126 79.9807 87.9746 79.726C88.886 79.4712 89.8987 79.726 90.405 80.1846C91.0126 80.7451 91.3164 81.3056 92.0253 81.8151C94.1012 83.3948 96.9367 84.261 98.7088 82.4266C97.5949 81.6623 96.9873 82.5795 95.924 80.6432C95.3671 79.6241 95.1645 78.4521 94.4556 77.6368C92.0253 74.9362 88.3797 77.6878 87.7215 77.5349C86.4557 76.7706 87.367 76.21 85.5949 75.7514C84.5822 75.4967 83.7215 75.8534 82.8101 76.0572C83.1645 74.4776 83.7721 74.3247 85.4936 74.1209C86.7088 66.4266 85.8481 58.019 82.5569 51.8024C79.6202 46.2992 74.3037 41.9171 68.0759 40.1846L67.8734 40.5922C67.1139 42.1718 66.7088 41.1018 65.443 42.2228C64.2784 43.2419 63.7721 43.6495 62.3037 42.5285L61.5443 43.4967C59.924 43.5986 60.6835 43.6495 59.4683 44.0062Z" fill="#F1F2F0"/>
<path fill-rule="evenodd" clip-rule="evenodd" d="M97.3924 42.9873C96.7341 41.7134 95.924 39.7261 94.7088 38.707C93.8481 37.9936 93.0379 38.1974 92.3291 39.0127C91.7721 39.9809 93.1392 45.9936 93.4936 47.6752C93.6455 48.3885 94 49.2548 93.8987 49.9681C93.5949 51.7006 92.0253 49.3567 90.1519 48.5414C88.7848 47.9299 86.5569 47.6752 85.5443 49C85.443 50.4777 87.0632 51.5987 87.8734 53.0255C88.886 54.656 89.3924 55.6242 90.1519 57.4586C91.0632 59.6497 90.962 60.2611 92.7341 61.3822C95.7721 63.2675 98.8101 61.0255 101.342 72.6943C103.165 81.0509 101.899 87.6242 99.2152 95.3694C98.6582 97.0509 98.1519 98.5796 97.4936 100.159C94.6582 107.14 95.4683 107.293 99.8734 113.968C100.835 115.395 101.696 116.312 103.215 117.382C104.481 118.248 106.202 119.217 108.329 119.064C108.785 118.248 108.886 118.096 109.494 117.382C112.025 114.427 115.013 106.274 116.025 102.401C117.899 95.4204 118.962 87.828 116.987 80.7452C116.076 77.3822 115.468 74.2739 114.405 71.0637C112.734 66.0191 109.747 61.535 111.468 57.7643C113.797 52.6178 113.24 53.6879 114.405 47.7261C114.759 45.9936 115.367 43.6497 113.443 42.9363C111.671 43.8535 111.873 46.2994 110.658 47.2166C109.646 47.9809 109.696 47.2166 109.747 46.4013C109.949 43.0892 112.228 36.9745 108.177 37.535C107.013 38.1465 106.81 42.121 105.797 43.9045C105.038 45.2293 104.785 44.6178 104.43 43.7006L103.418 40.2357C103.013 39.0637 102.304 36.3631 101.646 35.8025C98.2025 32.8471 99.519 40.8471 99.2152 43.8535C99.1645 46.5032 97.7974 43.7516 97.3924 42.9873Z" fill="white"/>
<path fill-rule="evenodd" clip-rule="evenodd" d="M-2.96206 36.5668C-3.01269 36.1592 -3.11396 35.7516 -3.21522 35.3949C-3.41776 34.4777 -3.72155 33.9172 -3.97472 32.949C-4.32915 31.5732 -4.83548 28.9235 -6.96206 29.8407C-9.13928 30.7579 -6.45573 36.2611 -6.50636 39.1656C-6.50636 40.0318 -6.81016 40.2356 -7.51902 39.5732C-8.02535 39.1146 -8.17725 38.4012 -8.48105 37.535C-10 33.6624 -12.7342 34.4777 -11.6203 39.6751C-11.2152 41.5605 -10.9114 42.9872 -10.4051 44.7197C-7.97472 52.9235 -5.39244 51.4968 -9.69624 63.828C-10.7089 66.7834 -11.6709 70.0446 -12.6836 73.1019C-14.8102 79.5223 -15.7216 87.2165 -13.9494 94.0955C-13.2405 96.8981 -11.4684 100.414 -9.89877 102.248C-7.72156 104.796 1.69617 101.382 4.68351 99.0382C5.08857 98.7324 5.08857 98.7325 5.54427 98.4267C6.25313 97.9172 6.65819 97.5095 6.55692 96.2356C6.40503 94.8598 5.54427 92.9235 5.13921 91.5987C2.25313 82.4777 1.2911 74.07 3.16452 64.5414L5.18984 57.5095C5.54427 56.4395 5.69617 56.3375 6.70882 55.777C9.94933 54.7579 11.7721 55.1656 13.4936 49.4586C14.5569 45.8917 19.7721 45.535 18.6076 43.242C17.9493 41.9681 14.8101 42.121 13.2911 42.6305C11.7721 43.0891 10.405 44.8726 9.08857 44.1592C8.63287 43.293 10.3544 39.4713 10.6582 37.9426C11.0633 35.9044 12.4303 32.0828 9.39237 32.2356C8.63288 32.6942 6.91136 35.3949 5.99996 36.8726C5.84806 37.0764 5.7468 37.2802 5.64553 37.4331C4.53161 39.1656 4.17718 37.9426 4.07591 36.1082C3.97465 34.5796 4.07591 32.5923 3.97465 31.7261C3.82275 30.1974 3.82275 29.0254 2.65819 28.5668C-0.430416 27.3949 0.126546 33.2547 -0.784847 36.6178C-1.34181 38.4012 -2.60763 38.656 -2.96206 36.5668Z" fill="white"/>
<path fill-rule="evenodd" clip-rule="evenodd" d="M53.6455 98.5795C52.6835 98.019 46.9114 99.7515 42.962 96.5413C40.0253 94.1464 38.8101 89.9681 42.7088 87.5222C48.481 83.9044 61.5949 86.5541 59.0126 94.7579C59.1139 94.605 59.1645 94.605 59.3164 94.2993C63.2151 87.6241 49.0379 81.8152 41.7468 85.8407C39.7215 86.9617 37.3924 88.5923 37.8481 91.9553C38.2025 94.5031 40.5822 96.4394 42.5569 97.5095C47.9746 100.363 46.9114 97.4076 49.1392 100.923C50.3038 102.809 52.6329 104.236 55.1645 104.898C59.0126 105.866 62.6582 103.573 63.3164 103.726C64.1265 105.56 62.3544 108.923 57.2405 107.599C57.5443 109.943 61.3417 110.248 63.2658 109.025C66.3038 107.089 64.7341 103.675 64.8354 102.554C64.886 101.841 68.0253 97.7642 68.9873 93.2802C69.1392 92.6687 69.2405 91.9553 69.3417 91.3948C69.5443 90.4267 69.5949 90.2228 70 89.7642C71.5696 90.1209 72.5316 92.1592 73.1392 93.8916C73.3924 91.7006 72.0253 88.5923 70.5569 87.6751C70.0506 87.3693 69.8987 87.2674 69.6962 87.8279C69.2911 88.898 69.443 90.5286 69.1392 91.6496C68.7341 93.0763 68.3291 93.9935 67.7721 95.1146C65.6455 99.7006 61.0379 102.86 55.7721 102.656C53.6962 102.554 49.5443 101.076 49.3924 99.4458C50.4557 99.5477 52.7341 99.2929 53.6455 98.5795Z" fill="#F1F2F0"/>
<path fill-rule="evenodd" clip-rule="evenodd" d="M25.3924 78.6559C21.7468 77.5858 18.4557 83.6495 21.0379 86.554C22.7595 88.5412 24.5822 86.8597 24.3797 84.5158C24.2278 82.9871 23.6202 82.6814 24.481 81.2037C24.9873 80.3374 25.5949 80.0826 25.3924 78.6559Z" fill="#F1F2F0"/>
<path fill-rule="evenodd" clip-rule="evenodd" d="M84.2278 91.2928C83.2151 93.6367 84.4303 95.5221 86.5063 94.0953C89.5949 91.9043 87.6708 84.6176 84.7848 86.1972C84.0759 88.745 85.9999 87.2164 84.2278 91.2928Z" fill="#F1F2F0"/>
<path fill-rule="evenodd" clip-rule="evenodd" d="M38.5063 72.3374C39.7215 71.726 39.2658 71.1655 40.6329 70.503C41.4936 70.0954 42.3544 70.1464 42.9114 69.4839C43.1645 69.1782 43.1139 69.1272 42.7595 68.9234C41.2911 67.9043 38.405 68.8215 38.5063 72.3374Z" fill="#F1F2F0"/>
<path fill-rule="evenodd" clip-rule="evenodd" d="M57.5949 96.3885C58.2531 96.3375 58.2025 96.2356 58.962 95.0127C58.2531 95.4203 57.8987 95.6751 57.5949 96.3885Z" fill="#F1F2F0"/>
<path fill-rule="evenodd" clip-rule="evenodd" d="M46.7595 77.9425C46.9114 80.2865 43.0632 82.2737 41.8481 79.4202C40.6835 76.8215 43.1645 73.6113 45.3417 75.14C44.6329 75.14 44.0253 75.7514 43.8227 76.5158C43.1139 79.0635 45.8987 79.3693 46.7595 77.9425Z" fill="white"/>
<path fill-rule="evenodd" clip-rule="evenodd" d="M46.7595 77.9426C46.9114 80.2866 43.0633 82.2738 41.8481 79.4203C40.6835 76.8216 43.1645 73.6114 45.3417 75.1401C44.6329 75.1401 44.0253 75.7515 43.8228 76.5159C43.1139 79.0636 45.8987 79.3694 46.7595 77.9426ZM46.5569 75.242C44.5316 71.9299 40.481 75.1401 40.9873 78.8089C41.3417 81.4076 43.9747 82.7834 46 80.6942C47.3164 79.4203 47.4683 76.7197 46.5569 75.242Z" fill="#F1F2F0"/>
<path fill-rule="evenodd" clip-rule="evenodd" d="M-2.55702 112.592C0.936651 112.032 2.91134 111.777 5.59488 110.248C10.2531 107.65 10.6075 105.815 11.6708 105.611C12.3291 105.509 13.1898 106.07 16.2784 107.65C23.9746 111.522 31.6202 110.248 32.9367 110.605C33.7974 111.064 34.7088 112.185 35.3164 112.745C44.8354 121.866 61.848 122.885 72.5822 115.497C74.5063 114.172 74.4556 114.07 75.5189 114.274C77.1392 114.58 77.7974 114.936 79.6708 114.732C82.405 114.478 85.1392 113.204 87.367 113.102C88.0253 113.764 89.2911 115.904 89.7468 116.72L92.3797 120.083C95.1645 123.14 95.0632 122.63 96.9367 124.516C98.5063 126.095 100.683 126.044 94.0506 131.344C91.8227 133.127 87.8734 136.134 85.4936 137.509C82.4556 139.344 78.8607 140.974 75.5189 142.248C60.9873 147.752 43.1645 150.146 27.1139 142.197C23.6202 140.312 17.6455 136.388 12.5316 131.802C6.8607 126.707 2.05058 120.745 -0.784868 115.701C-1.39246 114.783 -2.25322 113.509 -2.55702 112.592ZM57.5949 96.3884C57.8987 95.6751 58.2531 95.4203 58.962 95.0126C58.2025 96.2356 58.2531 96.3375 57.5949 96.3884ZM84.7848 86.1973C87.6202 84.6177 89.5443 91.9553 86.5063 94.0954C84.4303 95.5731 83.2151 93.6878 84.2278 91.2929C85.9999 87.2165 84.0759 88.7451 84.7848 86.1973ZM53.6455 98.5795C52.6835 99.2929 50.4556 99.5477 49.3417 99.2929C49.4936 100.974 53.6455 102.452 55.7215 102.503C60.9367 102.707 65.5442 99.5477 67.7215 94.9617C68.2278 93.8407 68.6835 92.9235 69.0885 91.4967C69.443 90.2738 69.1898 88.3375 69.848 87.2674C71.5189 87.4203 73.3923 91.2419 73.0886 93.7388C72.481 92.0063 71.5189 89.968 69.9493 89.6114C69.4936 90.07 69.443 90.2738 69.2911 91.2419C69.1898 91.8025 69.0885 92.4649 68.9366 93.1273C68.0253 97.6623 64.8354 101.688 64.7848 102.401C64.6835 103.573 66.3037 106.987 63.2151 108.873C61.2911 110.095 57.5442 109.79 57.1898 107.446C62.2531 108.771 64.0253 105.408 63.2658 103.573C62.6075 103.42 58.962 105.713 55.1139 104.745C52.6329 104.134 50.2531 102.656 49.0886 100.771C46.9113 97.2547 47.924 100.261 42.5063 97.3566C40.5316 96.2865 38.1518 94.3502 37.7974 91.8024C37.3417 88.4394 39.6708 86.8088 41.6962 85.6878C48.9873 81.6623 63.2151 87.5222 59.2658 94.1464C59.1139 94.4521 59.0632 94.4521 58.962 94.605C61.5442 86.4521 48.4303 83.8024 42.6582 87.3693C38.8101 89.7642 39.9746 93.9935 42.9113 96.3884C46.9113 99.7515 52.7341 98.019 53.6455 98.5795ZM25.3923 78.6559C25.5949 80.0317 24.9367 80.3375 24.4303 81.2037C23.5696 82.6814 24.1772 82.9872 24.3291 84.5158C24.5822 86.8598 22.7594 88.5413 20.9873 86.554C18.5063 83.6496 21.7468 77.5859 25.3923 78.6559ZM49.7974 78.6559C49.3417 76.1082 50.7594 73.8661 52.2784 72.898C56.2784 70.3502 59.1139 79.3184 54.405 81.8152C51.8734 83.14 50.2025 80.6432 49.7974 78.6559ZM46.962 78.4012C45.9493 84.0572 39.924 81.9681 41.1392 76.9744C42.3037 72.2356 47.924 73.2547 46.962 78.4012ZM38.5063 72.3375C38.405 68.5668 41.7974 67.8024 43.1139 69.1782C42.5569 70.1464 41.5949 69.9935 40.6329 70.4521C39.2658 71.1145 39.7215 71.726 38.5063 72.3375ZM53.9999 67.0891C56.0253 65.5604 59.0126 68.0572 59.2658 70.4012C57.7974 69.7388 58.3544 68.312 55.5189 67.9553C55.2151 67.9044 54.9113 67.9553 54.6582 67.8024C53.3923 67.2929 54.405 67.5477 53.9999 67.0891ZM59.4683 44.0063C60.6835 43.6496 59.8734 43.5986 61.6961 43.5477L62.4556 42.5795C63.924 43.7515 64.4303 43.2929 65.5949 42.2738C66.8607 41.2037 67.2151 42.2738 68.0253 40.6432L68.2278 40.2356C74.4556 41.9681 79.7721 46.3502 82.7088 51.8534C85.9999 58.019 86.8607 66.4776 85.6455 74.1719C83.924 74.3757 83.367 74.5286 82.962 76.1082C83.8734 75.9553 84.7341 75.5477 85.7468 75.8024C87.5189 76.261 86.5569 76.8216 87.8734 77.5859C88.5316 77.7388 92.1772 75.0381 94.6075 77.6878C95.367 78.5031 95.5189 79.6751 96.0759 80.6942C97.1898 82.6305 97.7468 81.6623 98.8607 82.4776C97.0885 84.312 94.2531 83.4458 92.1771 81.8661C91.4683 81.3566 91.2151 80.7451 90.5569 80.2356C89.9999 79.777 89.0379 79.5222 88.1265 79.777C87.1645 80.0317 87.3164 80.6942 86.2531 81.2037C84.4303 82.07 82.8607 80.847 82.4556 79.1145C81.9999 77.1782 79.7721 74.3247 78.7594 73.3566C78.1012 72.6942 77.6961 72.5923 76.9873 71.8789L73.2911 69.1273C71.7721 68.1082 70.3544 67.5986 68.9366 69.0254C68.5316 69.9935 69.9493 70.2483 70.5063 72.1337C71.0126 73.7642 70.6582 75.191 70.2025 76.5668C69.3923 78.9617 67.9746 80.9489 65.5442 81.6623C66.8101 77.9935 66.8607 78.1464 65.2911 74.3757C63.8227 70.7579 64.5316 69.433 66.7594 67.7515C66.2531 65.6623 66.1012 65.7133 64.0253 65.2037C56.7848 63.3693 45.7468 61.3821 38.6075 62.554C35.6708 63.0126 31.8227 63.8279 29.9999 65.3566C29.9999 67.5986 30.4556 70.2483 28.9366 71.8279C28.2784 72.4903 27.1645 73.0509 26.0506 72.7451C24.6835 72.3375 24.6835 71.3184 24.481 70.0445C23.4177 70.2483 23.5189 70.554 22.5569 71.1655C20.7341 72.2865 17.5949 73.2037 15.2658 73.2037C13.0379 73.2547 11.924 72.7961 10.405 71.9298C9.03792 71.1655 7.92399 69.6878 7.82273 68.363C11.5189 68.9744 12.3291 67.9553 15.367 65.6623C17.1898 64.2865 19.6708 61.484 22.6582 62.0445C24.6835 62.4012 24.9366 64.6432 25.1392 66.8343C26.7088 65.968 26.0506 65.6114 28.2784 64.847C30.2025 53.6878 35.367 45.5859 46.0506 41.4075C46.8101 41.1018 47.7215 40.5413 48.1265 40.4903C49.0886 40.3884 48.9873 40.9489 50.7088 40.7961C50.5063 41.9171 49.5949 43.3439 51.1139 43.4967C52.5822 43.6496 52.5316 42.1719 54.1012 42.9362C55.367 43.5477 54.8101 44.1591 56.7341 43.5477C58.3544 42.9362 58.2531 43.191 59.4683 44.0063ZM66.405 35.14C65.7468 35.5477 66.3037 35.14 65.7974 35.7005C65.2911 36.312 65.9493 35.9553 65.1392 36.312C64.0759 36.7706 64.3291 36.0063 63.4683 37.1273C63.2658 37.3821 63.4177 37.3311 63.0126 37.7388C61.4936 37.3821 62.405 36.312 61.0379 37.1782C59.924 37.8407 60.8354 38.2483 59.7721 38.8088C59.1139 37.8916 59.6202 37.5859 58.7088 37.3311C57.6961 37.0254 57.9493 37.9935 57.2911 36.4649C55.5189 36.4139 55.8227 37.2292 55.3164 35.2929C54.3037 35.2929 53.848 35.5986 53.0379 35.191C53.5443 34.019 53.5443 34.8343 53.9493 33.9171C51.8227 32.6432 53.443 33.9171 52.3291 32.1337C51.0632 31.6241 48.886 31.5222 48.3797 30.0954L51.4683 29.5349C51.367 28.6687 51.1645 28.8725 50.6075 28.0572L51.3164 26.2738C50.4556 25.9681 50.1518 25.9171 49.6455 24.898L51.367 24.9489C51.6708 22.9617 51.0632 25.1018 52.1265 22.7579C52.481 21.9935 52.1265 22.5031 52.2784 21.3821C55.7215 20.5158 55.4177 19.0891 55.7215 18.5286L56.886 19.8024C58.6582 19.5477 56.481 19.191 58.7594 19.3438H60.6329C60.886 18.6814 60.6329 18.8853 61.1392 18.1719C62.0506 18.8343 61.7468 18.9872 62.6582 19.191C63.5189 19.3948 63.1645 18.5795 63.8227 20.1591C64.4303 21.6368 63.6708 20.6687 65.0379 21.0254C68.6835 21.9935 65.9999 21.0763 67.8734 22.7579C68.9873 23.777 67.9746 23.9298 70.2531 26.2738C69.5442 28.312 69.3923 25.1018 69.7468 29.1273C69.848 30.1973 69.848 29.1273 69.5949 29.9935C68.886 32.847 69.5442 31.9298 68.2278 33.2037C67.4683 33.9681 68.0253 34.1719 66.6582 34.8853L66.405 35.14ZM53.2404 12.261L52.0253 11.8024L51.6202 12.9235C49.3923 12.6177 50.6582 12.9744 49.2911 13.9426C48.0253 13.9426 47.8227 13.433 46.6582 13.6878L46.7594 16.3375L44.4303 16.898L44.3797 19.9044C42.5063 20.4139 40.7848 18.5795 40.1772 19.2419C39.2151 20.7196 41.9493 22.9617 42.3037 24.9489L41.1898 25.8661C41.6962 27.5477 41.9493 26.6814 42.2531 28.9235L40.7848 29.484C40.6835 31.5731 41.848 31.3693 42.6075 32.4394C41.848 33.3566 41.443 32.7961 40.9873 33.9171C41.6961 35.4967 42.6075 34.8853 43.9746 35.5477C43.9746 36.363 43.5696 36.4649 43.4683 37.2292C43.2151 39.3693 45.3923 36.8725 46.4556 39.1655L45.7468 39.8279C43.7215 41.1528 40.3291 42.019 36.481 45.7388C29.9493 51.9553 28.4303 57.4585 27.6202 60.9744C27.4683 61.5349 26.2531 66.019 25.9493 62.9107C25.8987 62.4012 25.8987 61.7897 25.2911 61.0763C22.2531 57.3566 16.5822 62.0954 14.2531 63.6241C8.58222 67.4967 7.11387 65.1528 5.54425 65.6623C4.83539 73.0508 12.6835 77.1782 20.8354 74.07C22.1518 73.5604 22.1012 73.1528 23.5189 72.7451C24.0253 73.2547 24.1265 73.7642 24.8354 74.1719C25.6455 74.7324 26.0506 74.4267 26.7088 74.9872L26.3544 76.0063C24.7341 75.4458 24.9367 74.6305 22.5569 74.5795C15.367 74.4266 11.4177 86.3502 16.8354 90.9872C20.0759 93.7897 23.8227 89.9171 24.886 89.8661C25.2404 93.7387 25.3417 96.4903 26.8101 99.9553C27.4177 101.433 27.9746 102.605 28.6835 104.032C29.0379 104.694 29.7974 105.662 30.3544 106.478C31.367 108.108 29.7974 107.65 28.2784 107.65C20.9873 107.446 14.0506 103.726 10.962 99.7515C8.27843 96.2865 7.72146 102.197 -2.86082 104.541C-4.48107 104.898 -7.16461 105.153 -8.5317 105.764C-8.58233 107.497 -5.34183 113.153 -4.43044 114.885C-1.74689 119.726 -1.74689 119.166 0.987285 122.987C3.11387 125.994 4.58222 127.573 7.0126 130.172C9.94931 133.331 13.3923 136.134 16.7848 138.63L19.8227 140.567C29.8987 146.885 42.3037 150.095 54.6075 149.229C63.0126 148.669 69.9999 147.344 76.8354 144.643C81.6455 142.758 85.7468 140.72 89.848 137.968C95.8734 133.943 98.1518 132.363 102.709 127.471C103.063 127.064 103.165 127.064 103.519 126.554C105.949 123.548 106.456 122.834 104.734 121.458C101.494 118.809 100.582 118.452 97.6455 114.885C95.0632 111.777 94.2531 109.331 93.5949 107.904C92.8354 106.172 91.9746 106.07 88.7848 108.108C85.443 110.248 81.5442 111.369 77.3417 111.216C77.4936 110.758 79.924 108.261 80.9873 106.223C81.9999 104.337 82.7088 102.554 83.6708 98.4267C86.0506 99.2419 87.7721 100.72 90.405 98.7833C95.367 95.5731 96.0759 86.4012 90.8101 83.191C90.0506 82.7324 88.9873 82.7324 88.1265 82.5286C87.7721 82.4267 87.5189 82.3247 87.3164 82.07C89.2405 80.3884 89.6961 81.5095 90.962 82.8852C94.5569 86.7069 100.987 85.6368 101.899 80.847C97.2404 80.847 97.9999 78.8088 96.0759 76.1591C95.367 75.191 94.5569 74.4776 92.8354 74.2738C89.9493 73.9681 87.3164 76.9235 87.924 72.4394C88.0759 71.3184 87.9746 70.5031 88.0253 69.3821C88.3291 63.4712 87.0632 56.9999 85.0379 51.8534C83.1139 47.0636 77.3923 42.2738 72.7848 40.0317C72.0253 39.6751 71.0126 39.2674 70.3544 38.9107C70.2025 37.3821 70.405 37.3821 71.2151 36.6177C71.7215 36.1591 71.5696 36.1591 72.1772 35.8024L73.3417 35.191C73.443 34.9872 74.0506 31.9298 73.9999 31.777C73.7468 29.8407 74.1518 30.2483 75.0126 28.8725C74.5569 28.0572 74.6075 28.312 73.8987 28.0063C74.1518 26.4267 74.405 26.9872 74.8101 25.8661C74.0506 24.847 73.8987 25.1018 72.6835 24.5923C72.481 22.5031 72.481 23.3184 71.2658 22.0954C72.3797 20.363 73.6455 19.9044 70.7088 19.0891C71.0126 18.1209 71.4683 18.3247 71.2658 17.2547C70.405 16.9489 69.7974 17.3056 68.9366 17.3566C67.924 14.1974 67.7215 17.1528 66.1518 15.4203C65.5949 14.7579 65.848 14.554 65.0885 14.2483C63.924 13.7388 62.1012 14.3502 63.2658 12.6177C63.5189 12.261 64.0253 11.6496 63.6202 11.14C62.962 10.2738 60.886 11.7005 59.367 11.7005C57.8987 11.7005 59.367 11.8534 58.0506 11.2929C55.4683 13.1782 56.3797 10.019 53.7468 9.81519L53.2404 12.261Z" fill="white"/>
<path fill-rule="evenodd" clip-rule="evenodd" d="M56.4303 77.1783C56.7848 79.9808 52.5822 82.6814 50.9113 79.3693C49.3924 76.312 51.9746 72.2865 54.6075 73.9681C53.7974 74.019 53.1898 74.8343 52.9873 75.7515C52.3797 78.8088 55.6202 78.9617 56.4303 77.1783Z" fill="white"/>
<path fill-rule="evenodd" clip-rule="evenodd" d="M56.4303 77.1781C56.7848 79.9807 52.5822 82.6813 50.9113 79.3692C49.3924 76.3119 51.9746 72.2864 54.6075 73.9679C53.7974 74.0189 53.1898 74.8342 52.9873 75.7514C52.3797 78.8087 55.6202 78.9616 56.4303 77.1781ZM56.0253 73.9679C53.443 70.1463 49.0886 74.3246 49.9493 78.7578C50.5569 81.866 53.6962 83.2928 55.8227 80.5921C57.1898 78.9106 57.1898 75.6495 56.0253 73.9679Z" fill="#F1F2F0"/>
<path fill-rule="evenodd" clip-rule="evenodd" d="M56.5822 68.2103C58.2025 68.7708 57.9999 69.8409 59.2151 70.4014C59.0126 68.5161 57.0379 66.5288 55.2151 66.6307C54.7594 66.6307 53.8987 66.8345 53.8481 67.395C53.8481 67.497 53.8987 67.6498 54.0506 67.7008C54.6075 68.0065 55.924 68.0065 56.5822 68.2103Z" fill="#F1F2F0"/>
<path fill-rule="evenodd" clip-rule="evenodd" d="M59.4683 44.0063C60.6835 43.6496 59.8734 43.5987 61.6962 43.5477L62.4557 42.5795C63.924 43.7515 64.4303 43.2929 65.5949 42.2738C66.8607 41.2037 67.2151 42.2738 68.0253 40.6432L68.2278 40.2356C74.4557 41.9681 79.7721 46.3502 82.7088 51.8534C86 58.019 86.8607 66.4776 85.6455 74.1719C83.924 74.3757 83.3671 74.5286 82.962 76.1082C83.8734 75.9553 84.7341 75.5477 85.7468 75.8025C87.5189 76.2611 86.5569 76.8216 87.8734 77.5859C88.5316 77.7388 92.1772 75.0381 94.6076 77.6878C95.367 78.5031 95.5189 79.6751 96.1265 80.6942C97.2405 82.6305 97.7974 81.6623 98.9113 82.4776C97.1392 84.312 94.3037 83.4458 92.2278 81.8662C91.5189 81.3566 91.2658 80.7452 90.6076 80.2356C90.0506 79.777 89.0886 79.5222 88.1772 79.777C87.2151 80.0318 87.3671 80.6942 86.3038 81.2037C84.481 82.07 82.9114 80.8471 82.5063 79.1146C82.0506 77.1783 79.8227 74.3248 78.8101 73.3566C78.1518 72.6942 77.7468 72.5923 77.0379 71.8789L73.3417 69.1273C71.8227 68.1082 70.405 67.5987 68.9873 69.0254C68.5822 69.9936 70 70.2483 70.5569 72.1337C71.0633 73.7643 70.7088 75.191 70.2531 76.5668C69.443 78.9617 68.0253 80.949 65.5949 81.6623C66.8607 77.9936 66.9114 78.1464 65.3417 74.3757C63.8734 70.7579 64.5822 69.433 66.8101 67.7515C66.3038 65.6623 66.1519 65.7133 64.0759 65.2037C56.8354 63.3694 45.7974 61.3821 38.6582 62.5541C35.7215 63.0127 31.8734 63.828 30.0506 65.3566C30.0506 67.5987 30.5063 70.2483 28.9873 71.828C28.3291 72.4904 27.2152 73.0509 26.1012 72.7452C24.7341 72.3375 24.7341 71.3184 24.5316 70.0445C23.4683 70.2483 23.5696 70.5541 22.6076 71.1655C20.7848 72.2865 17.6455 73.2037 15.3164 73.2037C13.0886 73.2547 11.9746 72.7961 10.4557 71.9299C9.08857 71.1655 7.97465 69.6878 7.87338 68.363C11.5696 68.9744 12.3797 67.9553 15.4683 65.6623C17.2911 64.2865 19.7215 61.484 22.7595 62.0445C24.7848 62.4012 25.0379 64.6432 25.2405 66.8343C26.8101 65.9681 26.1519 65.6114 28.3797 64.8471C30.3038 53.6878 35.4683 45.5859 46.1519 41.4076C46.9114 41.1018 47.8227 40.5413 48.2278 40.4904C49.1898 40.3885 49.0886 40.949 50.8101 40.7961C50.6076 41.9171 49.6962 43.3439 51.2151 43.4967C52.6835 43.6496 52.6329 42.1719 54.2025 42.9362C55.4683 43.5477 54.9114 44.1592 56.8354 43.5477C58.3038 42.9872 58.2531 43.191 59.4683 44.0063Z" fill="#F1F2F0"/>
<path fill-rule="evenodd" clip-rule="evenodd" d="M60.7341 19.3948H58.8607C56.5822 19.1909 58.7594 19.5476 56.9873 19.8534L55.8227 18.5795C55.5189 19.14 55.7721 20.6177 52.3797 21.433C52.2278 22.5031 52.5316 22.0445 52.2278 22.8088C51.1645 25.1018 51.7721 23.0126 51.4683 24.9999L49.7468 24.9489C50.2025 25.9171 50.5569 25.968 51.4177 26.3247L50.7088 28.1081C51.2658 28.9234 51.4683 28.6687 51.5696 29.5859L48.481 30.1464C48.9367 31.5731 51.1645 31.675 52.4303 32.1846C53.5443 33.968 51.924 32.6941 54.0506 33.968C53.5949 34.8852 53.6455 34.019 53.1392 35.2419C53.9493 35.6495 54.405 35.3438 55.4177 35.3438C55.9746 37.3311 55.6202 36.4648 57.3924 36.5158C58.0506 38.0445 57.7974 37.0763 58.8101 37.382C59.7215 37.6878 59.2151 37.9425 59.8734 38.8597C60.9367 38.2483 60.0759 37.8916 61.1392 37.2292C62.5063 36.3629 61.5949 37.433 63.1139 37.7897C63.5696 37.382 63.367 37.433 63.5696 37.1782C64.4303 36.0572 64.1772 36.8215 65.2405 36.3629C66.0506 36.0062 65.3923 36.3629 65.8987 35.7515C66.405 35.14 65.848 35.5476 66.5063 35.1909L66.8607 35.0381C68.2278 34.2738 67.6202 34.1209 68.4303 33.3566C69.7468 32.0317 69.0886 32.9999 69.7974 30.1464C69.9999 29.3311 69.9999 30.4011 69.9493 29.2801C69.5949 25.3056 69.7468 28.4648 70.4556 26.4266C68.1265 24.0827 69.1898 23.9298 68.0759 22.9107C66.2025 21.2292 68.886 22.1464 65.2405 21.1782C63.8734 20.8215 64.6329 21.7387 64.0253 20.312C63.367 18.7324 63.7215 19.5476 62.8607 19.3438C61.9493 19.14 62.2531 18.9362 61.3417 18.3247C60.7341 18.8852 60.9873 18.7323 60.7341 19.3948Z" fill="#F1F2F0"/>
<path fill-rule="evenodd" clip-rule="evenodd" d="M-2.50638 112.592C0.987293 112.032 2.96198 111.777 5.64552 110.248C10.3037 107.65 10.6582 105.815 11.7215 105.611C12.3797 105.51 13.2405 106.07 16.3291 107.65C24.0253 111.522 31.6708 110.248 32.9873 110.605C33.848 111.064 34.7594 112.185 35.367 112.745C44.886 121.866 61.8987 122.885 72.6329 115.497C74.5569 114.172 74.5063 114.07 75.5696 114.274C77.1898 114.58 77.8481 114.936 79.7215 114.732C82.4557 114.478 85.1898 113.204 87.4177 113.102C88.0759 113.764 89.3417 115.904 89.7974 116.72L92.4303 120.083C95.2151 123.14 95.1139 122.631 96.9873 124.516C98.5569 126.096 100.734 126.045 94.1012 131.344C91.8734 133.127 87.924 136.134 85.5443 137.51C82.5063 139.344 78.9113 140.975 75.5696 142.248C61.0379 147.752 43.2151 150.146 27.1645 142.197C23.6708 140.312 17.6962 136.389 12.5822 131.803C6.91135 126.707 2.10122 120.745 -0.734226 115.701C-1.34182 114.732 -2.20258 113.51 -2.50638 112.592Z" fill="#F1F2F0"/>
<path fill-rule="evenodd" clip-rule="evenodd" d="M31.3164 116.261C30.8607 115.497 30.1519 114.579 29.5443 113.968C28.6835 113.051 27.9746 113.051 27.367 113.407C25.8481 114.63 30.2025 119.318 30.962 120.083C33.5949 122.732 35.924 125.28 39.8734 127.165C44.886 129.56 46.8607 130.07 52.7848 130.63C61.3924 131.446 70.1519 129.255 76.481 123.14C78.3544 121.306 80.4303 118.707 80.7341 117.178C80.7341 117.025 80.7848 116.923 80.7848 116.821C80.7848 115.853 79.8227 115.649 79.1139 116.006C78.5569 116.261 78.1518 117.076 77.7468 117.739C76.1772 120.286 75.4683 120.286 73.7468 121.968C71.0632 124.006 68.1265 125.484 65.1392 126.503C61.7468 127.675 58.3544 128.032 54.962 127.981C50.3038 127.981 45.6962 127.114 41.8987 125.28C38.7088 123.802 33.0379 119.114 31.3164 116.261Z" fill="white"/>
<path fill-rule="evenodd" clip-rule="evenodd" d="M32.8354 117.229C33.5949 118.096 34.9113 119.268 35.8227 119.981C38.2531 121.917 41.3923 123.701 43.8734 124.669C46.8607 125.892 52.4809 126.809 56.0253 126.809C62.8607 126.86 69.3417 124.516 74.2025 120.185C74.5063 119.879 75.2151 119.318 75.4683 118.962C75.7215 118.503 75.8227 117.943 75.5696 117.688C75.3164 117.382 74.7088 117.433 74.3544 117.586C73.1392 118.096 71.4683 119.675 70.4556 120.236C66.0506 122.732 61.5949 124.159 56.9366 124.414C50.1518 124.771 43.5189 122.885 38.1518 118.86C36.6835 117.739 35.1139 116.516 33.848 115.089C31.0632 111.93 30.3544 112.949 31.1139 114.58C31.4683 115.548 32.2784 116.618 32.8354 117.229Z" fill="white"/>
</svg>
