<svg width="130" height="131" viewBox="0 0 130 131" fill="none" xmlns="http://www.w3.org/2000/svg">
<mask id="mask0_2272_12792" style="mask-type:luminance" maskUnits="userSpaceOnUse" x="0" y="-31" width="160" height="162">
<path d="M79.8481 130.255C123.848 130.255 159.494 94.3313 159.494 50.0511C159.494 5.77081 123.848 -30.1018 79.8481 -30.1018C35.8481 -30.1018 0.202515 5.77081 0.202515 50.0511C0.202515 94.3313 35.8481 130.255 79.8481 130.255Z" fill="white"/>
</mask>
<g mask="url(#mask0_2272_12792)">
<path d="M159.494 130.255H0.202515V-30.0508H159.494V130.255Z" fill="#F1F2F0"/>
</g>
<path fill-rule="evenodd" clip-rule="evenodd" d="M97.0633 67.3759C98.2279 71.0957 103.139 69.2613 101.924 65.8473C101.873 65.8982 101.823 65.9492 101.823 65.9492L101.519 66.3568C101.114 66.9173 100.962 67.274 100 67.5798C98.6329 68.0893 98.0253 67.6307 97.0633 67.3759ZM89.4684 86.9938C88.2532 87.8091 88.3038 88.0638 86.5823 87.5033C84.6582 86.8919 85.2152 87.5033 83.9494 88.1148C82.3798 88.8791 82.4304 87.4014 80.962 87.5543C79.443 87.7071 80.3544 89.1339 80.557 90.2549C78.8355 90.1021 78.9367 90.6626 77.9747 90.5607C77.5696 90.5097 76.6582 89.9492 75.8987 89.6435C65.2658 85.4651 60.0506 77.3632 58.1266 66.204C55.8987 65.4906 56.557 65.0829 54.9874 64.2167C54.7848 66.4078 54.5317 68.6498 52.5063 69.0065C49.519 69.567 47.038 66.7645 45.2152 65.3887C42.1772 63.0957 41.3165 62.0766 37.6709 62.688C37.7722 61.3632 38.9367 59.8855 40.2532 59.1212C41.7722 58.2549 42.8861 57.8473 45.1139 57.8473C47.4431 57.8982 50.5823 58.7645 52.4051 59.8855C53.3671 60.497 53.2658 60.8027 54.3291 61.0065C54.5317 59.7326 54.5317 58.7135 55.8987 58.3059C57.0633 58.0001 58.1772 58.5607 58.7848 59.2231C60.3544 60.8027 59.8481 63.4524 59.8481 65.6944C61.6709 67.2231 65.519 67.9874 68.4557 68.497C75.6456 69.6689 86.6329 67.6817 93.8734 65.8473C95.9494 65.3377 96.1013 65.3887 96.6076 63.2995C94.3798 61.618 93.6203 60.2931 95.1392 56.6753C96.7089 52.9046 96.6582 53.0575 95.3924 49.3887C97.8228 50.1021 99.2912 52.0893 100.051 54.4842C100.506 55.86 100.861 57.2868 100.354 58.9173C99.7468 60.8536 98.3798 61.1084 98.7848 62.0256C100.203 63.4524 101.62 62.9428 103.139 61.9237L106.835 59.1721C107.544 58.4587 107.899 58.3568 108.608 57.6944C109.62 56.7263 111.797 53.8218 112.304 51.9365C112.709 50.2549 114.278 48.981 116.101 49.8473C117.165 50.3568 117.013 51.0193 117.975 51.274C118.886 51.5288 119.899 51.274 120.405 50.8154C121.013 50.2549 121.316 49.6944 122.025 49.1849C124.101 47.6052 126.937 46.739 128.709 48.5734C127.595 49.3377 126.987 48.4205 125.924 50.3568C125.367 51.3759 125.165 52.5479 124.456 53.3632C122.025 56.0638 118.38 53.3122 117.722 53.4651C116.456 54.2294 117.367 54.79 115.595 55.2486C114.582 55.5033 113.722 55.1466 112.81 54.9428C113.165 56.5224 113.772 56.6753 115.494 56.8791C116.709 64.5734 115.848 72.981 112.557 79.1976C109.62 84.7008 104.304 89.0829 98.076 90.8154L97.8734 90.4078C97.1139 88.8282 96.7089 89.8982 95.4431 88.7772C94.2785 87.7581 93.7722 87.3505 92.3038 88.4715L91.5443 87.5033C89.9241 87.4014 90.6836 87.3505 89.4684 86.9938Z" fill="#F1F2F0"/>
<path fill-rule="evenodd" clip-rule="evenodd" d="M127.392 88.0127C126.734 89.2866 125.924 91.2739 124.709 92.293C123.848 93.0064 123.038 92.8026 122.329 91.9873C121.772 91.0191 123.139 85.0064 123.494 83.3248C123.646 82.6115 124 81.7452 123.899 81.0319C123.595 79.2994 122.025 81.6433 120.152 82.4586C118.785 83.0701 116.557 83.3248 115.544 82C115.443 80.5223 117.063 79.4013 117.873 77.9745C118.886 76.344 119.392 75.3758 120.152 73.5414C121.063 71.3503 120.962 70.7389 122.734 69.6178C125.772 67.7325 128.81 69.9745 131.342 58.3057C133.165 49.9491 131.899 43.3758 129.215 35.6306C128.658 33.9491 128.152 32.4204 127.494 30.8408C124.658 23.8599 125.468 23.707 129.873 17.0319C130.835 15.6051 131.696 14.6879 133.215 13.6179C134.481 12.7516 136.203 11.7834 138.329 11.9363C138.785 12.7516 138.886 12.9045 139.494 13.6179C142.025 16.5733 145.013 24.7261 146.025 28.5987C147.899 35.5796 148.962 43.172 146.987 50.2548C146.076 53.6178 145.468 56.7261 144.405 59.9363C142.734 64.9809 139.747 69.465 141.468 73.2357C143.797 78.3822 143.241 77.3121 144.405 83.2739C144.76 85.0064 145.367 87.3503 143.443 88.0637C141.671 87.1465 141.873 84.7006 140.658 83.7834C139.646 83.0191 139.696 83.7834 139.747 84.5987C139.949 87.9108 142.228 94.0255 138.177 93.465C137.013 92.8535 136.81 88.879 135.797 87.0955C135.038 85.7707 134.785 86.3822 134.43 87.2994L133.418 90.7643C133.013 91.9363 132.304 94.6369 131.646 95.1975C128.203 98.1529 129.519 90.1529 129.215 87.1465C129.165 84.4968 127.797 87.2484 127.392 88.0127Z" fill="white"/>
<path fill-rule="evenodd" clip-rule="evenodd" d="M27.0379 94.4332C26.9873 94.8408 26.886 95.2484 26.7848 95.6051C26.5822 96.5223 26.2784 97.0828 26.0253 98.051C25.6709 99.4268 25.1645 102.076 23.0379 101.159C20.8607 100.242 23.5443 94.7389 23.4936 91.8344C23.4936 90.9682 23.1898 90.7644 22.481 91.4268C21.9746 91.8854 21.8227 92.5988 21.519 93.465C20 97.3376 17.2658 96.5223 18.3797 91.3249C18.7848 89.4395 19.0886 88.0128 19.5949 86.2803C22.0253 78.0765 24.6076 79.5032 20.3038 67.172C19.2911 64.2166 18.3291 60.9554 17.3164 57.8981C15.1898 51.4777 14.2784 43.7835 16.0506 36.9045C16.7595 34.1019 18.5316 30.586 20.1012 28.7516C22.2784 26.2039 31.6962 29.6179 34.6835 31.9618C35.0886 32.2676 35.0886 32.2675 35.5443 32.5733C36.2531 33.0828 36.6582 33.4905 36.5569 34.7644C36.405 36.1402 35.5443 38.0765 35.1392 39.4013C32.2531 48.5223 31.2911 56.93 33.1645 66.4586L35.1898 73.4905C35.5443 74.5605 35.6962 74.6625 36.7088 75.223C39.9493 76.2421 41.7721 75.8344 43.4936 81.5414C44.5569 85.1083 49.7721 85.465 48.6076 87.758C47.9493 89.0319 44.8101 88.879 43.2911 88.3695C41.7721 87.9109 40.405 86.1274 39.0886 86.8408C38.6329 87.707 40.3544 91.5287 40.6582 93.0574C41.0633 95.0956 42.4303 98.9172 39.3924 98.7644C38.6329 98.3058 36.9114 95.6051 36 94.1274C35.8481 93.9236 35.7468 93.7198 35.6455 93.5669C34.5316 91.8344 34.1772 93.0574 34.0759 94.8918C33.9746 96.4204 34.0759 98.4077 33.9746 99.2739C33.8227 100.803 33.8227 101.975 32.6582 102.433C29.5696 103.605 30.1265 97.7453 29.2152 94.3822C28.6582 92.5988 27.3924 92.344 27.0379 94.4332Z" fill="white"/>
<path fill-rule="evenodd" clip-rule="evenodd" d="M83.6455 32.4205C82.6835 32.981 76.9113 31.2485 72.962 34.4587C70.0252 36.8536 68.8101 41.0319 72.7088 43.4778C78.4809 47.0956 91.5949 44.4459 89.0126 36.2421C89.1139 36.395 89.1645 36.395 89.3164 36.7007C93.2151 43.3759 79.0379 49.1848 71.7468 45.1593C69.7214 44.0383 67.3923 42.4077 67.848 39.0447C68.2025 36.4969 70.5822 34.5606 72.5569 33.4905C77.9746 30.637 76.9113 33.5924 79.1392 30.0765C80.3037 28.1912 82.6328 26.7644 85.1645 26.102C89.0126 25.1338 92.6582 27.4268 93.3164 27.274C94.1265 25.4396 92.3544 22.0765 87.2404 23.4014C87.5442 21.0574 91.3417 20.7517 93.2657 21.9746C96.3037 23.9109 94.7341 27.3249 94.8354 28.4459C94.886 29.1593 98.0252 33.2358 98.9873 37.7198C99.1392 38.3313 99.2404 39.0447 99.3417 39.6052C99.5442 40.5733 99.5949 40.7772 99.9999 41.2358C101.57 40.8791 102.532 38.8408 103.139 37.1084C103.392 39.2994 102.025 42.4077 100.557 43.3249C100.051 43.6307 99.8987 43.7326 99.6961 43.1721C99.2911 42.102 99.443 40.4714 99.1392 39.3504C98.7341 37.9237 98.329 37.0065 97.7721 35.8854C95.6455 31.2994 91.0379 28.1402 85.7721 28.344C83.6961 28.4459 79.5442 29.9237 79.3923 31.5542C80.4556 31.4523 82.7341 31.7071 83.6455 32.4205Z" fill="#F1F2F0"/>
<path fill-rule="evenodd" clip-rule="evenodd" d="M55.3923 52.3441C51.7468 53.4142 48.4556 47.3505 51.0379 44.446C52.7594 42.4588 54.5822 44.1403 54.3797 46.4842C54.2278 48.0129 53.6202 48.3186 54.4809 49.7963C54.9873 50.6626 55.5949 50.9174 55.3923 52.3441Z" fill="#F1F2F0"/>
<path fill-rule="evenodd" clip-rule="evenodd" d="M114.228 39.7072C113.215 37.3633 114.43 35.4779 116.506 36.9047C119.595 39.0957 117.671 46.3824 114.785 44.8028C114.076 42.255 116 43.7836 114.228 39.7072Z" fill="#F1F2F0"/>
<path fill-rule="evenodd" clip-rule="evenodd" d="M68.5063 58.6626C69.7214 59.274 69.2658 59.8345 70.6328 60.497C71.4936 60.9046 72.3544 60.8536 72.9113 61.5161C73.1645 61.8218 73.1139 61.8728 72.7594 62.0766C71.2911 63.0957 68.405 62.1785 68.5063 58.6626Z" fill="#F1F2F0"/>
<path fill-rule="evenodd" clip-rule="evenodd" d="M87.595 34.6115C88.2532 34.6625 88.2026 34.7644 88.9621 35.9873C88.2532 35.5797 87.8988 35.3249 87.595 34.6115Z" fill="#F1F2F0"/>
<path fill-rule="evenodd" clip-rule="evenodd" d="M76.7595 53.0575C76.9114 50.7135 73.0632 48.7263 71.8481 51.5798C70.6835 54.1785 73.1645 57.3887 75.3417 55.86C74.6329 55.86 74.0253 55.2486 73.8227 54.4842C73.1139 51.9365 75.8987 51.6307 76.7595 53.0575Z" fill="white"/>
<path fill-rule="evenodd" clip-rule="evenodd" d="M76.7595 53.0574C76.9114 50.7134 73.0633 48.7262 71.8481 51.5797C70.6836 54.1784 73.1646 57.3886 75.3418 55.8599C74.6329 55.8599 74.0253 55.2485 73.8228 54.4841C73.114 51.9364 75.8988 51.6306 76.7595 53.0574ZM76.557 55.758C74.5317 59.0701 70.481 55.8599 70.9874 52.1911C71.3418 49.5924 73.9747 48.2166 76 50.3058C77.3165 51.5797 77.4684 54.2803 76.557 55.758Z" fill="#F1F2F0"/>
<path fill-rule="evenodd" clip-rule="evenodd" d="M27.443 18.4077C30.9367 18.9683 32.9114 19.223 35.5949 20.7517C40.2532 23.3504 40.6076 25.1848 41.6709 25.3886C42.3291 25.4905 43.1899 24.93 46.2785 23.3504C53.9747 19.4778 61.6203 20.7517 62.9367 20.395C63.7975 19.9364 64.7089 18.8154 65.3165 18.2549C74.8354 9.13386 91.8481 8.11475 102.582 15.5033C104.506 16.8281 104.456 16.93 105.519 16.7262C107.139 16.4205 107.797 16.0638 109.671 16.2676C112.405 16.5224 115.139 17.7963 117.367 17.8982C118.025 17.2358 119.291 15.0956 119.747 14.2803L122.38 10.9173C125.165 7.85997 125.063 8.36953 126.937 6.48418C128.506 4.90456 130.684 4.95552 124.051 -0.343842C121.823 -2.12728 117.873 -5.13365 115.494 -6.50945C112.456 -8.34384 108.861 -9.97444 105.519 -11.2483C90.9873 -16.7515 73.1646 -19.1464 57.1139 -11.1974C53.6203 -9.31201 47.6456 -5.38844 42.5317 -0.802452C36.8608 4.29309 32.0506 10.2549 29.2152 15.2995C28.6076 16.2167 27.7468 17.4905 27.443 18.4077ZM87.5949 34.6116C87.8987 35.3249 88.2532 35.5797 88.962 35.9874C88.2025 34.7644 88.2532 34.6625 87.5949 34.6116ZM114.785 44.8027C117.62 46.3823 119.544 39.0447 116.506 36.9046C114.43 35.4269 113.215 37.3122 114.228 39.7071C116 43.7835 114.076 42.2549 114.785 44.8027ZM83.6456 32.4205C82.6835 31.7071 80.4557 31.4523 79.3418 31.7071C79.4937 30.0256 83.6456 28.5479 85.7215 28.4969C90.9367 28.2931 95.5443 31.4523 97.7215 36.0383C98.2279 37.1593 98.6835 38.0765 99.0886 39.5033C99.443 40.7262 99.1899 42.6625 99.8481 43.7326C101.519 43.5797 103.392 39.7581 103.089 37.2612C102.481 38.9937 101.519 41.032 99.9494 41.3886C99.4937 40.93 99.443 40.7262 99.2911 39.7581C99.1899 39.1975 99.0886 38.5351 98.9367 37.8727C98.0253 33.3377 94.8354 29.3122 94.7848 28.5988C94.6835 27.4268 96.3038 24.0128 93.2152 22.1275C91.2911 20.9046 87.5443 21.2103 87.1899 23.5542C92.2532 22.2294 94.0253 25.5925 93.2658 27.4268C92.6076 27.5797 88.962 25.2867 85.1139 26.2549C82.6329 26.8663 80.2532 28.344 79.0886 30.2294C76.9114 33.7453 77.9241 30.739 72.5063 33.6434C70.5317 34.7135 68.1519 36.6498 67.7975 39.1976C67.3418 42.5606 69.6709 44.1912 71.6962 45.3122C78.9874 49.3377 93.2152 43.4778 89.2658 36.8536C89.1139 36.5479 89.0633 36.5479 88.962 36.395C91.5443 44.5479 78.4304 47.1976 72.6582 43.6307C68.8101 41.2358 69.9747 37.0065 72.9114 34.6116C76.9114 31.2485 82.7342 32.981 83.6456 32.4205ZM55.3924 52.3441C55.5949 50.9683 54.9367 50.6625 54.4304 49.7963C53.5696 48.3186 54.1772 48.0128 54.3291 46.4842C54.5823 44.1402 52.7595 42.4587 50.9873 44.446C48.5063 47.3504 51.7468 53.4141 55.3924 52.3441ZM79.7975 52.3441C79.3418 54.8918 80.7595 57.1339 82.2785 58.102C86.2785 60.6498 89.1139 51.6816 84.4051 49.1848C81.8734 47.86 80.2025 50.3568 79.7975 52.3441ZM76.962 52.5988C75.9494 46.9428 69.9241 49.0319 71.1392 54.0256C72.3038 58.7644 77.9241 57.7453 76.962 52.5988ZM68.5063 58.6625C68.4051 62.4332 71.7975 63.1976 73.1139 61.8218C72.557 60.8536 71.5949 61.0065 70.6329 60.5479C69.2658 59.8855 69.7215 59.274 68.5063 58.6625ZM84 63.9109C86.0253 65.4396 89.0127 62.9428 89.2658 60.5988C87.7975 61.2612 88.3544 62.688 85.519 63.0447C85.2152 63.0956 84.9114 63.0447 84.6582 63.1976C83.3924 63.7071 84.4051 63.4523 84 63.9109ZM89.4684 86.9937C90.6835 87.3504 89.8734 87.4014 91.6962 87.4523L92.4557 88.4205C93.9241 87.2485 94.4304 87.7071 95.5949 88.7262C96.8608 89.7963 97.2152 88.7262 98.0253 90.3568L98.2279 90.7644C104.456 89.0319 109.772 84.6498 112.709 79.1466C116 72.981 116.861 64.5224 115.646 56.8281C113.924 56.6243 113.367 56.4714 112.962 54.8918C113.873 55.0447 114.734 55.4523 115.747 55.1976C117.519 54.739 116.557 54.1784 117.873 53.4141C118.532 53.2612 122.177 55.9619 124.608 53.3122C125.367 52.4969 125.519 51.3249 126.076 50.3058C127.19 48.3695 127.747 49.3377 128.861 48.5224C127.089 46.688 124.253 47.5542 122.177 49.1339C121.468 49.6434 121.215 50.2549 120.557 50.7644C120 51.223 119.038 51.4778 118.127 51.223C117.165 50.9683 117.316 50.3058 116.253 49.7963C114.43 48.93 112.861 50.153 112.456 51.8855C112 53.8218 109.772 56.6753 108.759 57.6434C108.101 58.3058 107.696 58.4077 106.987 59.1211L103.291 61.8727C101.772 62.8918 100.354 63.4014 98.9367 61.9746C98.5316 61.0065 99.9494 60.7517 100.506 58.8663C101.013 57.2358 100.658 55.809 100.203 54.4332C99.3924 52.0383 97.9747 50.0511 95.5443 49.3377C96.8101 53.0065 96.8608 52.8536 95.2911 56.6243C93.8228 60.2421 94.5317 61.567 96.7595 63.2485C96.2532 65.3377 96.1013 65.2867 94.0253 65.7963C86.7848 67.6307 75.7468 69.6179 68.6076 68.446C65.6709 67.9874 61.8228 67.1721 60 65.6434C60 63.4014 60.4557 60.7517 58.9367 59.1721C58.2785 58.5097 57.1646 57.9491 56.0506 58.2549C54.6835 58.6625 54.6836 59.6816 54.481 60.9555C53.4177 60.7517 53.519 60.446 52.557 59.8345C50.7342 58.7135 47.5949 57.7963 45.2658 57.7963C43.038 57.7453 41.9241 58.2039 40.4051 59.0702C39.038 59.8345 37.9241 61.3122 37.8228 62.637C41.519 62.0256 42.3291 63.0447 45.3671 65.3377C47.1899 66.7135 49.6709 69.516 52.6582 68.9555C54.6836 68.5988 54.9367 66.3568 55.1392 64.1657C56.7089 65.032 56.0506 65.3886 58.2785 66.153C60.2025 77.3122 65.3671 85.4141 76.0506 89.5925C76.8101 89.8982 77.7215 90.4587 78.1266 90.5097C79.0886 90.6116 78.9873 90.0511 80.7089 90.2039C80.5063 89.0829 79.5949 87.6561 81.1139 87.5033C82.5823 87.3504 82.5317 88.8281 84.1013 88.0638C85.3671 87.4523 84.8101 86.8409 86.7342 87.4523C88.3544 88.0638 88.2532 87.809 89.4684 86.9937ZM96.4051 95.86C95.7468 95.4523 96.3038 95.86 95.7975 95.2995C95.2911 94.688 95.9494 95.0447 95.1392 94.688C94.076 94.2294 94.3291 94.9937 93.4684 93.8727C93.2658 93.6179 93.4177 93.6689 93.0127 93.2612C91.4937 93.6179 92.4051 94.688 91.038 93.8218C89.9241 93.1593 90.8354 92.7517 89.7722 92.1912C89.1139 93.1084 89.6203 93.4141 88.7089 93.6689C87.6962 93.9746 87.9494 93.0065 87.2911 94.5351C85.519 94.5861 85.8228 93.7708 85.3165 95.7071C84.3038 95.7071 83.8481 95.4014 83.038 95.809C83.5443 96.981 83.5443 96.1657 83.9494 97.0829C81.8228 98.3568 83.443 97.0829 82.3291 98.8663C81.0633 99.3759 78.8861 99.4778 78.3798 100.905L81.4684 101.465C81.3671 102.331 81.1646 102.127 80.6076 102.943L81.3165 104.726C80.4557 105.032 80.1519 105.083 79.6456 106.102L81.3671 106.051C81.6709 108.038 81.0633 105.898 82.1266 108.242C82.481 109.006 82.1266 108.497 82.2785 109.618C85.7215 110.484 85.4177 111.911 85.7215 112.471L86.8861 111.198C88.6582 111.452 86.481 111.809 88.7595 111.656H90.6329C90.8861 112.319 90.6329 112.115 91.1392 112.828C92.0506 112.166 91.7468 112.013 92.6582 111.809C93.519 111.605 93.1646 112.42 93.8228 110.841C94.4304 109.363 93.6709 110.331 95.038 109.975C98.6835 109.006 96 109.924 97.8734 108.242C98.9873 107.223 97.9747 107.07 100.253 104.726C99.5443 102.688 99.3924 105.898 99.7468 101.873C99.8481 100.803 99.8481 101.873 99.5949 101.006C98.8861 98.153 99.5443 99.0702 98.2279 97.7963C97.4684 97.0319 98.0253 96.8281 96.6582 96.1147L96.4051 95.86ZM83.2405 118.739L82.0253 119.198L81.6203 118.077C79.3924 118.382 80.6582 118.026 79.2911 117.057C78.0253 117.057 77.8228 117.567 76.6582 117.312L76.7595 114.663L74.4304 114.102L74.3797 111.096C72.5063 110.586 70.7848 112.42 70.1772 111.758C69.2152 110.28 71.9494 108.038 72.3038 106.051L71.1899 105.134C71.6962 103.452 71.9494 104.319 72.2532 102.077L70.7848 101.516C70.6836 99.4269 71.8481 99.6307 72.6076 98.5606C71.8481 97.6434 71.443 98.2039 70.9873 97.0829C71.6962 95.5033 72.6076 96.1147 73.9747 95.4523C73.9747 94.637 73.5696 94.5351 73.4684 93.7708C73.2152 91.6307 75.3924 94.1275 76.4557 91.8345L75.7468 91.1721C73.7215 89.8472 70.3291 88.981 66.481 85.2612C59.9494 79.0447 58.4304 73.5415 57.6203 70.0256C57.4684 69.4651 56.2532 64.981 55.9494 68.0893C55.8987 68.5988 55.8987 69.2103 55.2911 69.9237C52.2532 73.6434 46.5823 68.9046 44.2532 67.3759C38.5823 63.5033 37.1139 65.8472 35.5443 65.3377C34.8354 57.9492 42.6835 53.8218 50.8354 56.93C52.1519 57.4396 52.1013 57.8472 53.519 58.2549C54.0253 57.7453 54.1266 57.2358 54.8354 56.8281C55.6456 56.2676 56.0506 56.5733 56.7089 56.0128L56.3544 54.9937C54.7342 55.5542 54.9367 56.3695 52.557 56.4205C45.3671 56.5734 41.4177 44.6498 46.8354 40.0128C50.076 37.2103 53.8228 41.0829 54.8861 41.1339C55.2405 37.2613 55.3418 34.5097 56.8101 31.0447C57.4177 29.567 57.9747 28.395 58.6835 26.9683C59.038 26.3058 59.7975 25.3377 60.3544 24.5224C61.3671 22.8918 59.7975 23.3504 58.2785 23.3504C50.9874 23.5542 44.0506 27.274 40.962 31.2485C38.2785 34.7135 37.7215 28.8027 27.1392 26.4587C25.519 26.102 22.8354 25.8472 21.4684 25.2358C21.4177 23.5033 24.6582 17.8472 25.5696 16.1148C28.2532 11.274 28.2532 11.8345 30.9873 8.01284C33.1139 5.00647 34.5823 3.42685 37.0127 0.828125C39.9494 -2.33111 43.3924 -5.13366 46.7848 -7.63048L49.8228 -9.56679C59.8987 -15.8853 72.3038 -19.0954 84.6076 -18.2292C93.0127 -17.6687 100 -16.3439 106.835 -13.6432C111.646 -11.7579 115.747 -9.71964 119.848 -6.96805C125.873 -2.94257 128.152 -1.36296 132.709 3.52876C133.063 3.9364 133.165 3.93641 133.519 4.44596C135.949 7.45233 136.456 8.16571 134.734 9.5415C131.494 12.1912 130.582 12.5479 127.646 16.1148C125.063 19.223 124.253 21.6689 123.595 23.0956C122.835 24.8281 121.975 24.93 118.785 22.8918C115.443 20.7517 111.544 19.6307 107.342 19.7835C107.494 20.2421 109.924 22.739 110.987 24.7772C112 26.6625 112.709 28.446 113.671 32.5733C116.051 31.7581 117.772 30.2804 120.405 32.2167C125.367 35.4269 126.076 44.5988 120.81 47.809C120.051 48.2676 118.987 48.2676 118.127 48.4714C117.772 48.5733 117.519 48.6753 117.316 48.93C119.241 50.6116 119.696 49.4905 120.962 48.1148C124.557 44.2931 130.987 45.3632 131.899 50.153C127.241 50.153 128 52.1912 126.076 54.8409C125.367 55.809 124.557 56.5224 122.835 56.7262C119.949 57.0319 117.316 54.0765 117.924 58.5606C118.076 59.6816 117.975 60.4969 118.025 61.6179C118.329 67.5288 117.063 74.0001 115.038 79.1466C113.114 83.9364 107.392 88.7262 102.785 90.9683C102.025 91.3249 101.013 91.7326 100.354 92.0893C100.203 93.6179 100.405 93.6179 101.215 94.3823C101.722 94.8409 101.57 94.8409 102.177 95.1976L103.342 95.809C103.443 96.0128 104.051 99.0702 104 99.223C103.747 101.159 104.152 100.752 105.013 102.127C104.557 102.943 104.608 102.688 103.899 102.994C104.152 104.573 104.405 104.013 104.81 105.134C104.051 106.153 103.899 105.898 102.684 106.408C102.481 108.497 102.481 107.682 101.266 108.905C102.38 110.637 103.646 111.096 100.709 111.911C101.013 112.879 101.468 112.675 101.266 113.745C100.405 114.051 99.7975 113.694 98.9367 113.643C97.924 116.803 97.7215 113.847 96.1519 115.58C95.5949 116.242 95.8481 116.446 95.0886 116.752C93.9241 117.261 92.1013 116.65 93.2658 118.382C93.519 118.739 94.0253 119.35 93.6203 119.86C92.962 120.726 90.8861 119.299 89.3671 119.299C87.8987 119.299 89.3671 119.147 88.0506 119.707C85.4684 117.822 86.3798 120.981 83.7468 121.185L83.2405 118.739Z" fill="white"/>
<path fill-rule="evenodd" clip-rule="evenodd" d="M86.4304 53.8217C86.7848 51.0192 82.5823 48.3186 80.9114 51.6307C79.3924 54.688 81.9747 58.7135 84.6076 57.0319C83.7974 56.981 83.1898 56.1657 82.9873 55.2485C82.3797 52.1912 85.6202 52.0383 86.4304 53.8217Z" fill="white"/>
<path fill-rule="evenodd" clip-rule="evenodd" d="M86.4304 53.8219C86.7848 51.0193 82.5823 48.3187 80.9114 51.6308C79.3924 54.6881 81.9747 58.7136 84.6076 57.0321C83.7975 56.9811 83.1899 56.1658 82.9873 55.2486C82.3797 52.1913 85.6202 52.0384 86.4304 53.8219ZM86.0253 57.0321C83.443 60.8537 79.0886 56.6754 79.9493 52.2422C80.5569 49.134 83.6962 47.7072 85.8228 50.4079C87.1899 52.0894 87.1899 55.3505 86.0253 57.0321Z" fill="#F1F2F0"/>
<path fill-rule="evenodd" clip-rule="evenodd" d="M86.5823 62.7897C88.2026 62.2292 88 61.1591 89.2152 60.5986C89.0127 62.4839 87.038 64.4712 85.2152 64.3693C84.7595 64.3693 83.8988 64.1655 83.8481 63.605C83.8481 63.503 83.8988 63.3502 84.0507 63.2992C84.6076 62.9935 85.9241 62.9935 86.5823 62.7897Z" fill="#F1F2F0"/>
<path fill-rule="evenodd" clip-rule="evenodd" d="M89.4683 86.9937C90.6835 87.3504 89.8734 87.4013 91.6962 87.4523L92.4557 88.4205C93.924 87.2485 94.4304 87.7071 95.5949 88.7262C96.8607 89.7963 97.2152 88.7262 98.0253 90.3568L98.2278 90.7644C104.456 89.0319 109.772 84.6498 112.709 79.1466C116 72.981 116.861 64.5224 115.646 56.8281C113.924 56.6243 113.367 56.4714 112.962 54.8918C113.873 55.0447 114.734 55.4523 115.747 55.1975C117.519 54.7389 116.557 54.1784 117.873 53.4141C118.532 53.2612 122.177 55.9619 124.608 53.3122C125.367 52.4969 125.519 51.3249 126.127 50.3058C127.24 48.3695 127.797 49.3377 128.911 48.5224C127.139 46.688 124.304 47.5542 122.228 49.1338C121.519 49.6434 121.266 50.2548 120.608 50.7644C120.051 51.223 119.089 51.4778 118.177 51.223C117.215 50.9682 117.367 50.3058 116.304 49.7963C114.481 48.93 112.911 50.1529 112.506 51.8854C112.051 53.8217 109.823 56.6752 108.81 57.6434C108.152 58.3058 107.747 58.4077 107.038 59.1211L103.342 61.8727C101.823 62.8918 100.405 63.4013 98.9873 61.9746C98.5823 61.0064 100 60.7517 100.557 58.8663C101.063 57.2357 100.709 55.809 100.253 54.4332C99.443 52.0383 98.0253 50.051 95.5949 49.3377C96.8607 53.0064 96.9114 52.8536 95.3418 56.6243C93.8734 60.2421 94.5823 61.567 96.8101 63.2485C96.3038 65.3377 96.1519 65.2867 94.0759 65.7963C86.8354 67.6306 75.7975 69.6179 68.6582 68.4459C65.7215 67.9873 61.8734 67.172 60.0506 65.6434C60.0506 63.4013 60.5063 60.7517 58.9873 59.172C58.3291 58.5096 57.2152 57.9491 56.1013 58.2548C54.7342 58.6625 54.7342 59.6816 54.5316 60.9555C53.4683 60.7517 53.5696 60.4459 52.6076 59.8345C50.7848 58.7135 47.6456 57.7963 45.3164 57.7963C43.0886 57.7453 41.9747 58.2039 40.4557 59.0701C39.0886 59.8345 37.9747 61.3122 37.8734 62.637C41.5696 62.0256 42.3797 63.0447 45.4683 65.3377C47.2911 66.7135 49.7215 69.516 52.7595 68.9555C54.7848 68.5988 55.038 66.3568 55.2405 64.1657C56.8101 65.0319 56.1519 65.3886 58.3797 66.1529C60.3038 77.3122 65.4683 85.4141 76.1519 89.5924C76.9114 89.8982 77.8228 90.4587 78.2278 90.5096C79.1899 90.6115 79.0886 90.051 80.8101 90.2039C80.6076 89.0829 79.6962 87.6561 81.2152 87.5033C82.6835 87.3504 82.6329 88.8281 84.2025 88.0638C85.4683 87.4523 84.9114 86.8408 86.8354 87.4523C88.3038 88.0128 88.2532 87.809 89.4683 86.9937Z" fill="#F1F2F0"/>
<path fill-rule="evenodd" clip-rule="evenodd" d="M90.7341 111.605H88.8607C86.5822 111.809 88.7594 111.452 86.9873 111.147L85.8227 112.421C85.5189 111.86 85.7721 110.382 82.3797 109.567C82.2278 108.497 82.5316 108.956 82.2278 108.191C81.1645 105.898 81.7721 107.987 81.4683 106L79.7468 106.051C80.2025 105.083 80.5569 105.032 81.4177 104.675L80.7088 102.892C81.2658 102.077 81.4683 102.331 81.5696 101.414L78.481 100.854C78.9367 99.4269 81.1645 99.325 82.4303 98.8154C83.5443 97.032 81.924 98.3059 84.0506 97.032C83.5949 96.1148 83.6455 96.981 83.1392 95.7581C83.9493 95.3505 84.405 95.6562 85.4177 95.6562C85.9746 93.6689 85.6202 94.5352 87.3924 94.4842C88.0506 92.9555 87.7974 93.9237 88.8101 93.618C89.7215 93.3122 89.2151 93.0575 89.8734 92.1403C90.9367 92.7517 90.0759 93.1084 91.1392 93.7708C92.5063 94.6371 91.5949 93.567 93.1139 93.2103C93.5696 93.618 93.367 93.567 93.5696 93.8218C94.4303 94.9428 94.1772 94.1785 95.2405 94.6371C96.0506 94.9938 95.3923 94.6371 95.8987 95.2485C96.405 95.86 95.848 95.4524 96.5063 95.8091L96.8607 95.9619C98.2278 96.7262 97.6202 96.8791 98.4303 97.6434C99.7468 98.9683 99.0886 98.0001 99.7974 100.854C99.9999 101.669 99.9999 100.599 99.9493 101.72C99.5949 105.694 99.7468 102.535 100.456 104.573C98.1265 106.917 99.1898 107.07 98.0759 108.089C96.2025 109.771 98.886 108.854 95.2405 109.822C93.8734 110.178 94.6329 109.261 94.0253 110.688C93.367 112.268 93.7215 111.452 92.8607 111.656C91.9493 111.86 92.2531 112.064 91.3417 112.675C90.7341 112.115 90.9873 112.268 90.7341 111.605Z" fill="#F1F2F0"/>
<path fill-rule="evenodd" clip-rule="evenodd" d="M27.4937 18.4077C30.9873 18.9682 32.962 19.2229 35.6456 20.7516C40.3038 23.3503 40.6582 25.1847 41.7215 25.3885C42.3797 25.4905 43.2405 24.9299 46.3291 23.3503C54.0253 19.4777 61.6709 20.7516 62.9873 20.3949C63.8481 19.9363 64.7595 18.8153 65.3671 18.2548C74.8861 9.13377 91.8987 8.11466 102.633 15.5032C104.557 16.828 104.506 16.9299 105.57 16.7261C107.19 16.4204 107.848 16.0637 109.722 16.2675C112.456 16.5223 115.19 17.7962 117.418 17.8981C118.076 17.2357 119.342 15.0955 119.797 14.2803L122.43 10.9172C125.215 7.85988 125.114 8.36944 126.987 6.48409C128.557 4.90447 130.734 4.95543 124.101 -0.343931C121.873 -2.12737 117.924 -5.13374 115.544 -6.50954C112.506 -8.34393 108.911 -9.97452 105.57 -11.2484C91.038 -16.7516 73.2152 -19.1465 57.1645 -11.1974C53.6709 -9.31209 47.6962 -5.38853 42.5823 -0.802542C36.9114 4.293 32.1012 10.2548 29.2658 15.2994C28.6582 16.2675 27.7974 17.4905 27.4937 18.4077Z" fill="#F1F2F0"/>
<path fill-rule="evenodd" clip-rule="evenodd" d="M61.3164 14.7391C60.8607 15.5034 60.1519 16.4206 59.5443 17.0321C58.6835 17.9493 57.9746 17.9493 57.367 17.5926C55.8481 16.3697 60.2025 11.6818 60.962 10.9174C63.5949 8.26774 65.924 5.71997 69.8734 3.83462C74.886 1.43972 76.8607 0.93017 82.7848 0.369659C91.3924 -0.445627 100.152 1.74545 106.481 7.8601C108.354 9.69449 110.43 12.2932 110.734 13.8219C110.734 13.9748 110.785 14.0767 110.785 14.1786C110.785 15.1467 109.823 15.3506 109.114 14.9939C108.557 14.7391 108.152 13.9238 107.747 13.2614C106.177 10.7136 105.468 10.7136 103.747 9.03208C101.063 6.99386 98.1265 5.51616 95.1392 4.49705C91.7468 3.32508 88.3544 2.96838 84.962 3.01933C80.3038 3.01933 75.6962 3.88558 71.8987 5.71998C68.7088 7.19769 63.0379 11.8856 61.3164 14.7391Z" fill="white"/>
<path fill-rule="evenodd" clip-rule="evenodd" d="M62.8354 13.7707C63.5949 12.9044 64.9113 11.7325 65.8227 11.0191C68.2531 9.0828 71.3923 7.29935 73.8734 6.3312C76.8607 5.10827 82.4809 4.19108 86.0253 4.19108C92.8607 4.14012 99.3417 6.48407 104.202 10.8153C104.506 11.121 105.215 11.6815 105.468 12.0382C105.721 12.4968 105.823 13.0573 105.57 13.3121C105.316 13.6178 104.709 13.5669 104.354 13.414C103.139 12.9045 101.468 11.3248 100.456 10.7643C96.0506 8.26751 91.5949 6.84075 86.9366 6.58597C80.1518 6.22929 73.5189 8.11465 68.1518 12.1401C66.6835 13.2611 65.1139 14.4841 63.848 15.9108C61.0632 19.0701 60.3544 18.051 61.1139 16.4204C61.4683 15.4522 62.2784 14.3822 62.8354 13.7707Z" fill="white"/>
</svg>
