<svg width="40" height="40" viewBox="0 0 40 40" fill="none" xmlns="http://www.w3.org/2000/svg">
<rect x="1" y="1" width="38" height="38" rx="11" stroke="#EAE9E3" stroke-width="2"/>
<path d="M10 13.2269C19.0573 13.7424 23.8726 11.5774 28 9M11.2611 13.33L13.9018 17.8891C13.9915 18.0439 14.2413 18.0347 14.3165 17.8736L16.4062 13.3997C16.4684 13.2665 16.6596 13.2306 16.7758 13.3303L21.1375 17.07C21.2734 17.1865 21.499 17.1147 21.5231 16.9473L22.2184 12.1241C22.2407 11.9698 22.4377 11.8924 22.5787 11.9826L27.0646 14.851C27.2164 14.9481 27.4268 14.8505 27.4268 14.683V9.30929" stroke="#F3AADB" stroke-width="2" stroke-linecap="round"/>
<path d="M29.998 25.7902C20.5117 26.3344 15.4673 24.0647 11.1433 21.3622M28.6771 25.8988L25.9133 30.6829C25.8194 30.8455 25.5577 30.8358 25.4788 30.6669L23.2883 25.9738C23.2231 25.8341 23.0228 25.7965 22.9011 25.9011L18.3343 29.8263C18.192 29.9486 17.9557 29.8734 17.9304 29.6977L17.2001 24.6377C17.1768 24.4758 16.9704 24.3947 16.8227 24.4893L12.1255 27.5005C11.9665 27.6024 11.7461 27.5001 11.7461 27.3243L11.7438 21.6865" stroke="#F3AADB" stroke-width="2" stroke-linecap="round"/>
<path d="M18 20V21.5M23.875 21.375L25 23" stroke="#F3AADB" stroke-width="2" stroke-linecap="round"/>
<path d="M26 18L27 19" stroke="#F3AADB" stroke-width="2" stroke-linecap="round"/>
<path d="M14 30L15 31" stroke="#F3AADB" stroke-width="2" stroke-linecap="round"/>
<path d="M17 9.30769L16.3243 10M13.6216 9L12 10" stroke="#F3AADB" stroke-width="2" stroke-linecap="round"/>
</svg>
