<svg width="40" height="40" viewBox="0 0 40 40" fill="none" xmlns="http://www.w3.org/2000/svg">
<rect x="0.5" y="0.5" width="39" height="39" rx="11.5" stroke="#F1F3F7"/>
<path d="M18.9879 22.0922H20.9852C21.5149 22.0922 22.023 21.8843 22.3975 21.5141C22.7721 21.144 22.9825 20.642 22.9825 20.1185C22.9825 19.5951 22.7721 19.0931 22.3975 18.7229C22.023 18.3528 21.5149 18.1449 20.9852 18.1449H17.9892C17.3901 18.1449 16.8907 18.3422 16.5911 18.737L10.9987 24.0659M14.9933 28.0132L16.5911 26.6316C16.8907 26.2369 17.3901 26.0395 17.9892 26.0395H21.9839C23.0824 26.0395 24.0811 25.6448 24.7801 24.8553L29.3739 20.5133C29.7593 20.1534 29.9842 19.657 29.9992 19.1333C30.0142 18.6095 29.818 18.1013 29.4538 17.7205C29.0896 17.3397 28.5873 17.1175 28.0573 17.1027C27.5273 17.0879 27.013 17.2817 26.6276 17.6416L22.4333 21.4902M10 23.079L15.9919 29M27.4765 16.6646C28.1755 15.9739 28.9745 15.0857 28.9745 14.0002C29.0443 13.3972 28.906 12.7885 28.5819 12.2729C28.2579 11.7572 27.7672 11.3648 27.1893 11.1593C26.6113 10.9537 25.9801 10.9469 25.3978 11.1402C24.8155 11.3334 24.3164 11.7153 23.9812 12.2239C23.6247 11.7547 23.1254 11.4109 22.5566 11.2428C21.9877 11.0747 21.3793 11.0912 20.8207 11.2899C20.2621 11.4887 19.7827 11.8591 19.4528 12.3469C19.1229 12.8347 18.96 13.4142 18.9879 14.0002C18.9879 15.1844 19.7868 15.9739 20.4859 16.7633L23.9812 20.1185L27.4765 16.6646Z" stroke="#F3AADB" stroke-width="2" stroke-linecap="round" stroke-linejoin="round"/>
</svg>
