<svg width="25" height="25" viewBox="0 0 25 25" fill="none" xmlns="http://www.w3.org/2000/svg">
<path d="M20.5 4.5H4.5C3.39543 4.5 2.5 5.39543 2.5 6.5V18.5C2.5 19.6046 3.39543 20.5 4.5 20.5H20.5C21.6046 20.5 22.5 19.6046 22.5 18.5V6.5C22.5 5.39543 21.6046 4.5 20.5 4.5Z" fill="#ABB8DA"/>
<path d="M22.5 7.5L13.53 13.2C13.2213 13.3934 12.8643 13.496 12.5 13.496C12.1357 13.496 11.7787 13.3934 11.47 13.2L2.5 7.5" fill="#ABB8DA"/>
<path d="M22.5 7.5L13.53 13.2C13.2213 13.3934 12.8643 13.496 12.5 13.496C12.1357 13.496 11.7787 13.3934 11.47 13.2L2.5 7.5M4.5 4.5H20.5C21.6046 4.5 22.5 5.39543 22.5 6.5V18.5C22.5 19.6046 21.6046 20.5 20.5 20.5H4.5C3.39543 20.5 2.5 19.6046 2.5 18.5V6.5C2.5 5.39543 3.39543 4.5 4.5 4.5Z" stroke="#244A91" stroke-linecap="round" stroke-linejoin="round"/>
</svg>
