<svg width="24" height="25" viewBox="0 0 24 25" fill="none" xmlns="http://www.w3.org/2000/svg">
<path d="M22 17.4201V20.4201C22.0011 20.6986 21.9441 20.9743 21.8325 21.2294C21.7209 21.4846 21.5573 21.7137 21.3521 21.902C21.1469 22.0902 20.9046 22.2336 20.6408 22.3228C20.3769 22.412 20.0974 22.4452 19.82 22.4201C16.7428 22.0857 13.787 21.0342 11.19 19.3501C8.77383 17.8148 6.72534 15.7663 5.19 13.3501C3.49998 10.7413 2.44824 7.77109 2.12 4.6801C2.09501 4.40356 2.12788 4.12486 2.2165 3.86172C2.30513 3.59859 2.44757 3.35679 2.63477 3.15172C2.82196 2.94665 3.04981 2.78281 3.30379 2.67062C3.55778 2.55843 3.83234 2.50036 4.11 2.5001H7.11C7.59531 2.49532 8.06579 2.66718 8.43376 2.98363C8.80173 3.30008 9.04208 3.73954 9.11 4.2201C9.23662 5.18016 9.47145 6.12282 9.81 7.0301C9.94455 7.38802 9.97366 7.77701 9.89391 8.15098C9.81415 8.52494 9.62886 8.86821 9.36 9.1401L8.09 10.4101C9.51356 12.9136 11.5865 14.9865 14.09 16.4101L15.36 15.1401C15.6319 14.8712 15.9752 14.6859 16.3491 14.6062C16.7231 14.5264 17.1121 14.5556 17.47 14.6901C18.3773 15.0286 19.3199 15.2635 20.28 15.3901C20.7658 15.4586 21.2094 15.7033 21.5265 16.0776C21.8437 16.4519 22.0122 16.9297 22 17.4201Z" fill="#ABB8DA"/>
</svg>
