<svg width="141" height="40" viewBox="0 0 141 40" fill="none" xmlns="http://www.w3.org/2000/svg">
<mask id="path-1-outside-1_2046_14693" maskUnits="userSpaceOnUse" x="24.2038" y="4.09905" width="89.504" height="28.0944" fill="black">
<rect fill="white" x="24.2038" y="4.09905" width="89.504" height="28.0944"/>
<path d="M26.7893 19.3653C26.376 19.3943 26.2152 19.0878 26.1925 18.8441C25.9421 15.9461 26.8064 8.41113 26.8566 7.93376C26.8817 7.69507 27.1455 7.48147 27.3892 7.45882C27.6831 7.41732 31.2031 7.44943 32.4744 7.75198C32.9442 7.87376 32.9631 7.924 33.1322 12.7441C33.1954 15.357 33.128 17.8355 33.0578 18.9624C33.044 19.3229 32.828 19.5415 32.4222 19.4989C32.0642 19.4612 31.882 19.1284 31.8807 18.9111C31.9469 16.6737 31.9899 10.066 31.7723 8.69174C30.8251 8.51979 28.991 8.52008 27.9283 8.52904C27.7501 10.2237 27.2009 16.3679 27.3269 18.8427C27.3257 19.0839 27.1524 19.3552 26.7893 19.3653ZM37.2733 12.4071C38.5294 11.9358 39.3334 12.0927 40.1651 12.4456C41.1827 12.8663 41.9944 13.8686 42.1955 14.7102C42.6908 16.8859 41.9563 19.5115 39.1413 20.3499C38.7682 20.4555 38.4051 20.4656 38.071 20.4304C37.5936 20.3803 37.1288 20.2107 36.7481 19.9294C35.6488 19.1382 35.0154 17.8167 34.9537 16.7967C34.8039 14.778 35.9908 12.8997 37.2733 12.4071ZM37.8349 13.2625C36.923 13.6734 35.9484 15.1396 36.0743 16.6973C36.1422 17.4284 36.5117 18.5049 37.3447 19.0751C37.8397 19.4167 38.317 19.4669 38.812 19.35C41.3683 18.6775 41.4144 16.1726 41.1365 14.9126C41.0033 14.3436 40.4907 13.7105 39.7808 13.3464C39.1401 13.0136 38.213 13.1092 37.8349 13.2625ZM48.0878 21.4591C47.7964 21.4768 47.5325 21.2318 47.4835 21.0095C47.3503 20.4404 47.4657 19.3425 47.5961 18.1013C46.8914 18.1479 46.0108 18.0312 45.615 17.8931C45.1502 17.7236 44.5359 17.3694 44.1978 16.6823C43.6185 15.5355 43.867 13.631 43.867 13.631C43.8996 13.3207 44.0917 13.0996 44.4498 13.1372C44.7362 13.1674 44.9498 13.4311 44.9172 13.7414C44.9122 13.7892 44.7504 15.5579 45.1952 16.3769C45.3611 16.6357 45.6061 16.8303 46.0709 16.9999C46.7455 17.2397 47.5457 17.2031 47.7442 17.1516C47.945 15.7006 48.1332 14.369 48.2186 14.016C48.2436 13.7773 48.4835 13.5612 48.7938 13.5938C49.128 13.629 49.2939 13.8877 49.2638 14.1741C49.0316 15.6942 48.4808 19.787 48.5538 20.9289C48.5576 21.1224 48.4295 21.4226 48.0878 21.4591ZM53.4557 21.9992C52.212 21.8926 51.178 20.9393 50.9417 19.9733C50.4754 18.2109 51.0066 17.0601 51.4876 16.3867C52.0503 15.6253 52.9886 15.1931 53.9873 15.105C55.4922 15.0218 56.6933 15.9927 57.0728 16.9737C57.2777 17.5503 57.1748 18.0704 56.8532 18.3745C56.2604 18.9637 53.6023 19.4566 52.0496 19.5347C52.0271 20.208 52.7621 20.7921 53.1126 20.9013C53.9329 21.1323 54.8387 21.0103 55.7418 20.4537C55.9742 20.3092 56.3372 20.2991 56.5533 20.539C56.7217 20.7738 56.6552 21.1771 56.3989 21.3191C55.4694 21.8971 54.4368 22.0782 53.4557 21.9992ZM54.0012 16.12C53.3443 16.1716 52.7338 16.4694 52.3683 16.9619C52.1108 17.3451 51.9288 17.9293 51.9163 18.5071C53.0909 18.5823 55.3005 17.9941 55.9185 17.6246C55.9951 17.5844 56.034 17.4437 55.9963 17.3432C55.9373 17.2164 55.8593 17.0392 55.7312 16.881C55.3279 16.356 54.7298 16.0759 54.0012 16.12ZM58.7012 22.4298C58.4198 22.352 58.3143 21.9789 58.4135 21.7239C59.0187 20.0983 60.5369 16.4449 60.7855 15.916C60.9928 15.5517 61.342 15.4436 61.5091 15.4612C62.0342 15.5164 62.2817 16.1457 62.7681 17.2586C62.8787 17.584 63.1124 18.1153 63.2067 18.3665L63.2544 18.3715C63.3938 18.1931 63.6726 17.8363 63.9251 17.5009C64.2906 17.0084 64.6058 16.5347 65.0165 16.0711C65.3217 15.693 65.6345 15.7017 65.8229 15.7456C66.1282 15.826 66.2677 16.1061 66.4864 16.7807C66.7667 17.5582 67.457 21.7815 67.491 22.1471C67.5086 22.4385 67.378 22.7626 67.0815 22.828C66.7637 22.867 66.5162 22.6962 66.4508 22.3997C66.393 22.0317 65.9604 19.2593 65.748 18.2958C65.6738 17.8536 65.5808 17.3612 65.5204 17.017L65.4727 17.012C65.2416 17.3738 64.9288 17.8236 64.7317 18.0924C63.5511 19.6817 63.2596 19.6994 63.0637 19.727C62.82 19.7497 62.6177 19.6078 62.5084 19.4997C62.1666 19.0777 61.9806 18.5514 61.7569 17.9246C61.6627 17.6733 61.5382 17.25 61.449 16.951L61.4013 16.946C61.2079 17.4083 61.0019 17.99 60.8035 18.5001C60.3364 19.73 59.9246 20.8933 59.3331 22.1584C59.3017 22.2275 59.0492 22.5629 58.7012 22.4298ZM75.8421 17.7157C76.1737 17.7747 76.3534 18.1314 76.3095 18.3199C76.1338 19.0736 74.931 23.6289 73.4401 25.1856C72.326 26.3716 70.9833 27.4371 69.0814 27.1648C68.7949 27.1347 68.6052 26.8734 68.6831 26.592C68.732 26.3558 68.9405 26.2088 69.2508 26.2415C70.7621 26.3279 72.0282 25.3026 72.6888 24.5274C72.8546 24.3277 73.1573 23.9734 73.3143 23.6279C70.9964 22.4914 69.6379 19.5734 69.3966 18.6551C69.3074 18.3562 69.3927 18.0032 69.6439 17.9089C69.8952 17.8146 70.2884 17.9766 70.3827 18.2279C70.6793 19.0795 71.7211 21.7953 73.6935 22.7748C74.3415 21.202 74.9102 19.2346 75.1952 18.1304C75.268 17.8967 75.4866 17.6542 75.8421 17.7157ZM84.1417 25.1037C83.8603 25.0259 83.7548 24.6528 83.854 24.3978C84.4592 22.7722 85.9774 19.1188 86.226 18.5899C86.4333 18.2256 86.7825 18.1175 86.9495 18.1351C87.4747 18.1903 87.7222 18.8196 88.2086 19.9325C88.3192 20.2579 88.5529 20.7892 88.6472 21.0404L88.6949 21.0454C88.8343 20.867 89.1131 20.5102 89.3656 20.1748C89.7311 19.6823 90.0463 19.2086 90.457 18.745C90.7622 18.3669 91.075 18.3756 91.2634 18.4195C91.5687 18.4999 91.7082 18.78 91.9269 19.4546C92.2071 20.2321 92.8975 24.4554 92.9315 24.821C92.9491 25.1124 92.8185 25.4365 92.522 25.5019C92.2042 25.5409 91.9567 25.3701 91.8913 25.0736C91.8335 24.7056 91.4009 21.9332 91.1885 20.9697C91.1143 20.5275 91.0212 20.0351 90.9609 19.6909L90.9132 19.6859C90.6821 20.0477 90.3693 20.4975 90.1722 20.7663C88.9916 22.3556 88.7001 22.3733 88.5042 22.4009C88.2605 22.4236 88.0582 22.2817 87.9489 22.1736C87.6071 21.7516 87.4211 21.2253 87.1974 20.5985C87.1032 20.3472 86.9787 19.9239 86.8895 19.6249L86.8417 19.6199C86.6484 20.0822 86.4424 20.6639 86.244 21.174C85.7769 22.4039 85.3651 23.5672 84.7736 24.8323C84.7422 24.9014 84.4897 25.2368 84.1417 25.1037ZM97.0576 26.6061C95.6971 26.4631 95.3177 25.9405 95.3025 25.1667C95.301 23.5738 95.9497 19.0086 95.9497 19.0086C95.9798 18.7222 96.2197 18.5061 96.53 18.5387C96.8164 18.5688 97.03 18.8326 96.9924 19.1906C96.9761 19.575 96.7465 21.0712 96.7064 21.4531C96.7064 21.4531 97.0606 21.2973 97.4739 21.2683C98.1095 21.1903 98.7753 21.2844 99.3155 21.6549C100.311 22.2904 100.715 23.4913 100.341 24.7551C99.9644 26.0428 98.3943 26.7465 97.0576 26.6061ZM96.596 22.5033C96.596 22.5033 96.3865 24.2671 96.418 25.115C96.4306 25.4542 96.9243 25.5785 97.163 25.6036C98.0461 25.6964 99.1943 25.3344 99.3989 24.5354C99.6349 23.6674 99.3999 22.9187 98.719 22.5093C98.0644 22.0785 97.2479 22.0409 96.596 22.5033ZM103.579 18.7486C103.611 18.4384 103.374 18.1721 103.016 18.1344C102.682 18.0993 102.482 18.3921 102.452 18.6785C102.339 19.7526 101.962 24.0325 101.783 25.7272C101.753 26.0136 101.943 26.2749 102.253 26.3075C102.54 26.3376 102.851 26.129 102.881 25.8426C103.08 23.957 103.488 19.6079 103.579 18.7486ZM110.182 14.3507C109.727 14.0858 109.154 14.0255 108.762 14.0809C107.925 14.2343 106.998 14.7884 106.8 16.674C106.763 17.0321 106.523 17.2482 106.162 17.2344C105.802 17.2206 105.574 16.8589 105.583 16.5461C105.727 14.0273 107.314 13.3977 108.21 13.13C108.806 12.9754 110.248 13.0305 110.969 13.5165C111.802 14.0867 112.271 14.9082 112.35 15.7611C112.494 17.6103 111.53 18.7398 110.867 19.5388C110.615 19.8743 110.444 20.1218 110.263 20.4647C109.807 21.358 109.979 22.7034 109.979 22.7034C110.061 23.0739 109.785 23.4069 109.424 23.3931C109.064 23.3794 108.8 23.1344 108.761 22.8166C108.745 22.7425 108.531 21.1032 109.189 19.8933C109.422 19.5076 109.778 19.1106 110.03 18.7752C110.596 17.9899 111.077 17.3165 111.065 15.8191C111.072 15.289 110.658 14.6421 110.182 14.3507ZM109.34 24.8805C110.176 24.9683 110.932 25.5787 110.832 26.5334C110.739 27.4166 109.83 28.2622 108.994 28.1744C108.183 28.0891 107.618 27.2575 107.711 26.3744C107.804 25.4913 108.529 24.7952 109.34 24.8805ZM109.1 27.1719C109.338 27.197 109.818 26.7647 109.861 26.359C109.891 26.0726 109.474 25.9081 109.235 25.883C109.02 25.8604 108.751 26.1217 108.714 26.4798C108.676 26.8378 108.885 27.1493 109.1 27.1719Z"/>
</mask>
<path d="M26.7893 19.3653C26.376 19.3943 26.2152 19.0878 26.1925 18.8441C25.9421 15.9461 26.8064 8.41113 26.8566 7.93376C26.8817 7.69507 27.1455 7.48147 27.3892 7.45882C27.6831 7.41732 31.2031 7.44943 32.4744 7.75198C32.9442 7.87376 32.9631 7.924 33.1322 12.7441C33.1954 15.357 33.128 17.8355 33.0578 18.9624C33.044 19.3229 32.828 19.5415 32.4222 19.4989C32.0642 19.4612 31.882 19.1284 31.8807 18.9111C31.9469 16.6737 31.9899 10.066 31.7723 8.69174C30.8251 8.51979 28.991 8.52008 27.9283 8.52904C27.7501 10.2237 27.2009 16.3679 27.3269 18.8427C27.3257 19.0839 27.1524 19.3552 26.7893 19.3653ZM37.2733 12.4071C38.5294 11.9358 39.3334 12.0927 40.1651 12.4456C41.1827 12.8663 41.9944 13.8686 42.1955 14.7102C42.6908 16.8859 41.9563 19.5115 39.1413 20.3499C38.7682 20.4555 38.4051 20.4656 38.071 20.4304C37.5936 20.3803 37.1288 20.2107 36.7481 19.9294C35.6488 19.1382 35.0154 17.8167 34.9537 16.7967C34.8039 14.778 35.9908 12.8997 37.2733 12.4071ZM37.8349 13.2625C36.923 13.6734 35.9484 15.1396 36.0743 16.6973C36.1422 17.4284 36.5117 18.5049 37.3447 19.0751C37.8397 19.4167 38.317 19.4669 38.812 19.35C41.3683 18.6775 41.4144 16.1726 41.1365 14.9126C41.0033 14.3436 40.4907 13.7105 39.7808 13.3464C39.1401 13.0136 38.213 13.1092 37.8349 13.2625ZM48.0878 21.4591C47.7964 21.4768 47.5325 21.2318 47.4835 21.0095C47.3503 20.4404 47.4657 19.3425 47.5961 18.1013C46.8914 18.1479 46.0108 18.0312 45.615 17.8931C45.1502 17.7236 44.5359 17.3694 44.1978 16.6823C43.6185 15.5355 43.867 13.631 43.867 13.631C43.8996 13.3207 44.0917 13.0996 44.4498 13.1372C44.7362 13.1674 44.9498 13.4311 44.9172 13.7414C44.9122 13.7892 44.7504 15.5579 45.1952 16.3769C45.3611 16.6357 45.6061 16.8303 46.0709 16.9999C46.7455 17.2397 47.5457 17.2031 47.7442 17.1516C47.945 15.7006 48.1332 14.369 48.2186 14.016C48.2436 13.7773 48.4835 13.5612 48.7938 13.5938C49.128 13.629 49.2939 13.8877 49.2638 14.1741C49.0316 15.6942 48.4808 19.787 48.5538 20.9289C48.5576 21.1224 48.4295 21.4226 48.0878 21.4591ZM53.4557 21.9992C52.212 21.8926 51.178 20.9393 50.9417 19.9733C50.4754 18.2109 51.0066 17.0601 51.4876 16.3867C52.0503 15.6253 52.9886 15.1931 53.9873 15.105C55.4922 15.0218 56.6933 15.9927 57.0728 16.9737C57.2777 17.5503 57.1748 18.0704 56.8532 18.3745C56.2604 18.9637 53.6023 19.4566 52.0496 19.5347C52.0271 20.208 52.7621 20.7921 53.1126 20.9013C53.9329 21.1323 54.8387 21.0103 55.7418 20.4537C55.9742 20.3092 56.3372 20.2991 56.5533 20.539C56.7217 20.7738 56.6552 21.1771 56.3989 21.3191C55.4694 21.8971 54.4368 22.0782 53.4557 21.9992ZM54.0012 16.12C53.3443 16.1716 52.7338 16.4694 52.3683 16.9619C52.1108 17.3451 51.9288 17.9293 51.9163 18.5071C53.0909 18.5823 55.3005 17.9941 55.9185 17.6246C55.9951 17.5844 56.034 17.4437 55.9963 17.3432C55.9373 17.2164 55.8593 17.0392 55.7312 16.881C55.3279 16.356 54.7298 16.0759 54.0012 16.12ZM58.7012 22.4298C58.4198 22.352 58.3143 21.9789 58.4135 21.7239C59.0187 20.0983 60.5369 16.4449 60.7855 15.916C60.9928 15.5517 61.342 15.4436 61.5091 15.4612C62.0342 15.5164 62.2817 16.1457 62.7681 17.2586C62.8787 17.584 63.1124 18.1153 63.2067 18.3665L63.2544 18.3715C63.3938 18.1931 63.6726 17.8363 63.9251 17.5009C64.2906 17.0084 64.6058 16.5347 65.0165 16.0711C65.3217 15.693 65.6345 15.7017 65.8229 15.7456C66.1282 15.826 66.2677 16.1061 66.4864 16.7807C66.7667 17.5582 67.457 21.7815 67.491 22.1471C67.5086 22.4385 67.378 22.7626 67.0815 22.828C66.7637 22.867 66.5162 22.6962 66.4508 22.3997C66.393 22.0317 65.9604 19.2593 65.748 18.2958C65.6738 17.8536 65.5808 17.3612 65.5204 17.017L65.4727 17.012C65.2416 17.3738 64.9288 17.8236 64.7317 18.0924C63.5511 19.6817 63.2596 19.6994 63.0637 19.727C62.82 19.7497 62.6177 19.6078 62.5084 19.4997C62.1666 19.0777 61.9806 18.5514 61.7569 17.9246C61.6627 17.6733 61.5382 17.25 61.449 16.951L61.4013 16.946C61.2079 17.4083 61.0019 17.99 60.8035 18.5001C60.3364 19.73 59.9246 20.8933 59.3331 22.1584C59.3017 22.2275 59.0492 22.5629 58.7012 22.4298ZM75.8421 17.7157C76.1737 17.7747 76.3534 18.1314 76.3095 18.3199C76.1338 19.0736 74.931 23.6289 73.4401 25.1856C72.326 26.3716 70.9833 27.4371 69.0814 27.1648C68.7949 27.1347 68.6052 26.8734 68.6831 26.592C68.732 26.3558 68.9405 26.2088 69.2508 26.2415C70.7621 26.3279 72.0282 25.3026 72.6888 24.5274C72.8546 24.3277 73.1573 23.9734 73.3143 23.6279C70.9964 22.4914 69.6379 19.5734 69.3966 18.6551C69.3074 18.3562 69.3927 18.0032 69.6439 17.9089C69.8952 17.8146 70.2884 17.9766 70.3827 18.2279C70.6793 19.0795 71.7211 21.7953 73.6935 22.7748C74.3415 21.202 74.9102 19.2346 75.1952 18.1304C75.268 17.8967 75.4866 17.6542 75.8421 17.7157ZM84.1417 25.1037C83.8603 25.0259 83.7548 24.6528 83.854 24.3978C84.4592 22.7722 85.9774 19.1188 86.226 18.5899C86.4333 18.2256 86.7825 18.1175 86.9495 18.1351C87.4747 18.1903 87.7222 18.8196 88.2086 19.9325C88.3192 20.2579 88.5529 20.7892 88.6472 21.0404L88.6949 21.0454C88.8343 20.867 89.1131 20.5102 89.3656 20.1748C89.7311 19.6823 90.0463 19.2086 90.457 18.745C90.7622 18.3669 91.075 18.3756 91.2634 18.4195C91.5687 18.4999 91.7082 18.78 91.9269 19.4546C92.2071 20.2321 92.8975 24.4554 92.9315 24.821C92.9491 25.1124 92.8185 25.4365 92.522 25.5019C92.2042 25.5409 91.9567 25.3701 91.8913 25.0736C91.8335 24.7056 91.4009 21.9332 91.1885 20.9697C91.1143 20.5275 91.0212 20.0351 90.9609 19.6909L90.9132 19.6859C90.6821 20.0477 90.3693 20.4975 90.1722 20.7663C88.9916 22.3556 88.7001 22.3733 88.5042 22.4009C88.2605 22.4236 88.0582 22.2817 87.9489 22.1736C87.6071 21.7516 87.4211 21.2253 87.1974 20.5985C87.1032 20.3472 86.9787 19.9239 86.8895 19.6249L86.8417 19.6199C86.6484 20.0822 86.4424 20.6639 86.244 21.174C85.7769 22.4039 85.3651 23.5672 84.7736 24.8323C84.7422 24.9014 84.4897 25.2368 84.1417 25.1037ZM97.0576 26.6061C95.6971 26.4631 95.3177 25.9405 95.3025 25.1667C95.301 23.5738 95.9497 19.0086 95.9497 19.0086C95.9798 18.7222 96.2197 18.5061 96.53 18.5387C96.8164 18.5688 97.03 18.8326 96.9924 19.1906C96.9761 19.575 96.7465 21.0712 96.7064 21.4531C96.7064 21.4531 97.0606 21.2973 97.4739 21.2683C98.1095 21.1903 98.7753 21.2844 99.3155 21.6549C100.311 22.2904 100.715 23.4913 100.341 24.7551C99.9644 26.0428 98.3943 26.7465 97.0576 26.6061ZM96.596 22.5033C96.596 22.5033 96.3865 24.2671 96.418 25.115C96.4306 25.4542 96.9243 25.5785 97.163 25.6036C98.0461 25.6964 99.1943 25.3344 99.3989 24.5354C99.6349 23.6674 99.3999 22.9187 98.719 22.5093C98.0644 22.0785 97.2479 22.0409 96.596 22.5033ZM103.579 18.7486C103.611 18.4384 103.374 18.1721 103.016 18.1344C102.682 18.0993 102.482 18.3921 102.452 18.6785C102.339 19.7526 101.962 24.0325 101.783 25.7272C101.753 26.0136 101.943 26.2749 102.253 26.3075C102.54 26.3376 102.851 26.129 102.881 25.8426C103.08 23.957 103.488 19.6079 103.579 18.7486ZM110.182 14.3507C109.727 14.0858 109.154 14.0255 108.762 14.0809C107.925 14.2343 106.998 14.7884 106.8 16.674C106.763 17.0321 106.523 17.2482 106.162 17.2344C105.802 17.2206 105.574 16.8589 105.583 16.5461C105.727 14.0273 107.314 13.3977 108.21 13.13C108.806 12.9754 110.248 13.0305 110.969 13.5165C111.802 14.0867 112.271 14.9082 112.35 15.7611C112.494 17.6103 111.53 18.7398 110.867 19.5388C110.615 19.8743 110.444 20.1218 110.263 20.4647C109.807 21.358 109.979 22.7034 109.979 22.7034C110.061 23.0739 109.785 23.4069 109.424 23.3931C109.064 23.3794 108.8 23.1344 108.761 22.8166C108.745 22.7425 108.531 21.1032 109.189 19.8933C109.422 19.5076 109.778 19.1106 110.03 18.7752C110.596 17.9899 111.077 17.3165 111.065 15.8191C111.072 15.289 110.658 14.6421 110.182 14.3507ZM109.34 24.8805C110.176 24.9683 110.932 25.5787 110.832 26.5334C110.739 27.4166 109.83 28.2622 108.994 28.1744C108.183 28.0891 107.618 27.2575 107.711 26.3744C107.804 25.4913 108.529 24.7952 109.34 24.8805ZM109.1 27.1719C109.338 27.197 109.818 26.7647 109.861 26.359C109.891 26.0726 109.474 25.9081 109.235 25.883C109.02 25.8604 108.751 26.1217 108.714 26.4798C108.676 26.8378 108.885 27.1493 109.1 27.1719Z" fill="#EE7CC9"/>
<path d="M26.7893 19.3653L26.7837 19.1652L26.7753 19.1658L26.7893 19.3653ZM26.1925 18.8441L25.9933 18.8613L25.9934 18.8626L26.1925 18.8441ZM27.3892 7.45882L27.4077 7.65819L27.4171 7.65686L27.3892 7.45882ZM32.4744 7.75198L32.5246 7.55834L32.5207 7.55741L32.4744 7.75198ZM33.1322 12.7441L33.3321 12.7392L33.3321 12.7371L33.1322 12.7441ZM33.0578 18.9624L32.8581 18.9499L32.8579 18.9547L33.0578 18.9624ZM31.8807 18.9111L31.6807 18.9051L31.6807 18.9122L31.8807 18.9111ZM31.7723 8.69174L31.9699 8.66047L31.9477 8.5203L31.808 8.49496L31.7723 8.69174ZM27.9283 8.52904L27.9266 8.32904L27.748 8.33055L27.7294 8.50813L27.9283 8.52904ZM27.3269 18.8427L27.5272 18.8437L27.5266 18.8325L27.3269 18.8427ZM26.7753 19.1658C26.6264 19.1763 26.5434 19.1281 26.492 19.0719C26.434 19.0086 26.4001 18.9161 26.3917 18.8256L25.9934 18.8626C26.0076 19.0159 26.0655 19.1985 26.1969 19.342C26.3349 19.4927 26.5389 19.5834 26.8033 19.5649L26.7753 19.1658ZM26.3918 18.8269C26.2683 17.3977 26.4198 14.8066 26.6112 12.4977C26.802 10.1949 27.0302 8.19513 27.0555 7.95466L26.6577 7.91285C26.6328 8.14976 26.4038 10.1561 26.2125 12.4647C26.0217 14.7671 25.8663 17.3925 25.9933 18.8613L26.3918 18.8269ZM27.0555 7.95466C27.0612 7.90044 27.0979 7.83043 27.1717 7.76657C27.2448 7.7034 27.3335 7.66486 27.4077 7.65797L27.3707 7.25968C27.2011 7.27544 27.0361 7.35503 26.9101 7.46399C26.7849 7.57226 26.6771 7.72839 26.6577 7.91285L27.0555 7.95466ZM27.4171 7.65686C27.4395 7.6537 27.5137 7.64963 27.6439 7.64706C27.7686 7.6446 27.9334 7.64363 28.128 7.64457C28.517 7.64646 29.0221 7.65599 29.5577 7.67624C30.6365 7.71702 31.8146 7.80056 32.4281 7.94655L32.5207 7.55741C31.8628 7.40085 30.6453 7.31707 29.5728 7.27653C29.0328 7.25611 28.5233 7.24649 28.1299 7.24458C27.9333 7.24362 27.765 7.24459 27.636 7.24714C27.5125 7.24957 27.4123 7.25358 27.3612 7.26079L27.4171 7.65686ZM32.4242 7.94558C32.5436 7.97651 32.5655 7.98957 32.5897 8.02299C32.6279 8.07558 32.6756 8.19801 32.7178 8.51277C32.8007 9.13051 32.8475 10.3344 32.9323 12.7511L33.3321 12.7371C33.2477 10.3337 33.2006 9.10242 33.1143 8.45957C33.0719 8.14404 33.0163 7.92981 32.9135 7.7881C32.7968 7.62722 32.6401 7.58833 32.5246 7.55838L32.4242 7.94558ZM32.9322 12.7489C32.9953 15.3568 32.9279 17.8295 32.8582 18.9499L33.2574 18.9748C33.328 17.8415 33.3955 15.3572 33.3321 12.7392L32.9322 12.7489ZM32.8579 18.9547C32.8525 19.0982 32.8083 19.1843 32.7543 19.2322C32.7014 19.2791 32.6075 19.3173 32.4431 19.3L32.4013 19.6978C32.6427 19.7232 32.8597 19.6733 33.0197 19.5315C33.1786 19.3906 33.2494 19.1871 33.2576 18.97L32.8579 18.9547ZM32.4431 19.3C32.326 19.2877 32.2374 19.2283 32.1749 19.1488C32.1092 19.0651 32.0811 18.9699 32.0807 18.9099L31.6807 18.9122C31.6816 19.0695 31.7453 19.2494 31.8604 19.396C31.9789 19.5466 32.1604 19.6725 32.4013 19.6978L32.4431 19.3ZM32.0806 18.917C32.1138 17.7955 32.1411 15.5819 32.1329 13.477C32.1248 11.3813 32.0816 9.36662 31.9699 8.66047L31.5748 8.72301C31.6805 9.39113 31.7247 11.3675 31.7329 13.4785C31.7411 15.5804 31.7138 17.7893 31.6808 18.9051L32.0806 18.917ZM31.808 8.49496C30.838 8.31886 28.982 8.32015 27.9266 8.32904L27.9299 8.72903C29 8.72001 30.8122 8.72071 31.7366 8.88852L31.808 8.49496ZM27.7294 8.50813C27.5517 10.1986 27.0002 16.3595 27.1272 18.8528L27.5266 18.8325C27.4016 16.3764 27.9486 10.2488 28.1272 8.54994L27.7294 8.50813ZM27.1269 18.8417C27.1261 18.9916 27.0231 19.1588 26.7838 19.1654L26.7949 19.5653C27.2817 19.5517 27.5252 19.1762 27.5269 18.8437L27.1269 18.8417ZM37.2733 12.4071L37.203 12.2198L37.2016 12.2204L37.2733 12.4071ZM40.1651 12.4456L40.087 12.6297L40.0887 12.6304L40.1651 12.4456ZM42.1955 14.7102L42.3905 14.6658L42.39 14.6637L42.1955 14.7102ZM39.1413 20.3499L39.1957 20.5423L39.1983 20.5416L39.1413 20.3499ZM36.7481 19.9294L36.867 19.7686L36.8649 19.7671L36.7481 19.9294ZM34.9537 16.7967L35.1534 16.7846L35.1532 16.7819L34.9537 16.7967ZM37.8349 13.2625L37.7597 13.077L37.7528 13.0802L37.8349 13.2625ZM36.0743 16.6973L35.8749 16.7134L35.8751 16.7158L36.0743 16.6973ZM37.3447 19.0751L37.4583 18.9105L37.4576 18.9101L37.3447 19.0751ZM38.812 19.35L38.858 19.5447L38.8629 19.5434L38.812 19.35ZM41.1365 14.9126L41.3319 14.8696L41.3313 14.867L41.1365 14.9126ZM39.7808 13.3464L39.6886 13.5238L39.6895 13.5243L39.7808 13.3464ZM37.3435 12.5944C37.9509 12.3665 38.4383 12.2943 38.8678 12.317C39.2979 12.3397 39.6828 12.4582 40.087 12.6297L40.2432 12.2615C39.8157 12.0801 39.3828 11.9437 38.8889 11.9176C38.3945 11.8914 37.8518 11.9764 37.203 12.2198L37.3435 12.5944ZM40.0887 12.6304C41.0496 13.0277 41.8154 13.9801 42.001 14.7567L42.39 14.6637C42.1733 13.757 41.3158 12.7049 40.2415 12.2608L40.0887 12.6304ZM42.0005 14.7546C42.2401 15.8072 42.1802 16.9616 41.7279 17.9482C41.2782 18.9293 40.4361 19.7556 39.0842 20.1582L39.1983 20.5416C40.6615 20.1058 41.5941 19.2001 42.0916 18.1149C42.5865 17.0352 42.6462 15.7889 42.3905 14.6658L42.0005 14.7546ZM39.0868 20.1574C38.7437 20.2545 38.4071 20.2647 38.0919 20.2315L38.0501 20.6293C38.4031 20.6665 38.7927 20.6564 39.1957 20.5423L39.0868 20.1574ZM38.0919 20.2315C37.6467 20.1847 37.2164 20.0268 36.867 19.7686L36.6292 20.0903C37.0411 20.3947 37.5405 20.5758 38.0501 20.6293L38.0919 20.2315ZM36.8649 19.7671C35.8155 19.0117 35.2115 17.7461 35.1534 16.7846L34.7541 16.8088C34.8194 17.8874 35.4821 19.2646 36.6313 20.0917L36.8649 19.7671ZM35.1532 16.7819C35.0815 15.8153 35.3299 14.8799 35.7509 14.1273C36.1738 13.3714 36.7596 12.8186 37.345 12.5938L37.2016 12.2204C36.5044 12.4882 35.8556 13.1209 35.4018 13.932C34.9463 14.7463 34.6762 15.7594 34.7543 16.8115L35.1532 16.7819ZM37.7528 13.0802C37.2464 13.3083 36.7467 13.8147 36.3908 14.4524C36.0329 15.0936 35.8083 15.8888 35.8749 16.7134L36.2736 16.6812C36.2144 15.9481 36.4141 15.2313 36.7401 14.6473C37.068 14.0598 37.5115 13.6276 37.9171 13.4448L37.7528 13.0802ZM35.8751 16.7158C35.9459 17.4778 36.3302 18.623 37.2317 19.2401L37.4576 18.9101C36.6932 18.3868 36.3385 17.379 36.2734 16.6788L35.8751 16.7158ZM37.2311 19.2397C37.7774 19.6167 38.3139 19.6731 38.858 19.5446L38.766 19.1553C38.3202 19.2606 37.9019 19.2167 37.4583 18.9105L37.2311 19.2397ZM38.8629 19.5434C40.2119 19.1885 40.9105 18.3412 41.2263 17.4162C41.5381 16.5032 41.4758 15.5226 41.3318 14.8696L40.9412 14.9557C41.0751 15.5627 41.1287 16.4644 40.8478 17.287C40.571 18.0976 39.9684 18.839 38.7611 19.1566L38.8629 19.5434ZM41.3313 14.867C41.182 14.2297 40.623 13.5537 39.8721 13.1684L39.6895 13.5243C40.3583 13.8674 40.8246 14.4575 40.9418 14.9582L41.3313 14.867ZM39.873 13.1689C39.5138 12.9823 39.0862 12.9206 38.7086 12.9221C38.332 12.9237 37.9789 12.9883 37.7598 13.0772L37.9101 13.4478C38.0691 13.3834 38.3686 13.3235 38.7102 13.3221C39.0508 13.3207 39.4072 13.3777 39.6886 13.5238L39.873 13.1689ZM48.0878 21.4591L48.0999 21.659L48.1091 21.658L48.0878 21.4591ZM47.4835 21.0095L47.6788 20.9664L47.6782 20.9639L47.4835 21.0095ZM47.5961 18.1013L47.795 18.1222L47.8198 17.8861L47.5829 17.9018L47.5961 18.1013ZM45.615 17.8931L45.5465 18.081L45.5491 18.0819L45.615 17.8931ZM44.1978 16.6823L44.3773 16.594L44.3763 16.5922L44.1978 16.6823ZM43.867 13.631L44.0653 13.6569L44.0659 13.6519L43.867 13.631ZM45.1952 16.3769L45.0195 16.4724L45.0229 16.4787L45.0268 16.4848L45.1952 16.3769ZM46.0709 16.9999L46.0024 17.1878L46.0039 17.1883L46.0709 16.9999ZM47.7442 17.1516L47.7945 17.3452L47.924 17.3116L47.9423 17.179L47.7442 17.1516ZM48.2186 14.016L48.413 14.063L48.4161 14.0501L48.4175 14.0369L48.2186 14.016ZM49.2638 14.1741L49.4617 14.2044L49.4627 14.195L49.2638 14.1741ZM48.5538 20.9289L48.754 20.925L48.7534 20.9162L48.5538 20.9289ZM48.0757 21.2595C47.99 21.2647 47.8986 21.2312 47.8197 21.1681C47.739 21.1035 47.6915 21.024 47.6788 20.9664L47.2882 21.0526C47.3245 21.2174 47.4335 21.3714 47.5698 21.4805C47.708 21.591 47.8942 21.6712 48.0999 21.6588L48.0757 21.2595ZM47.6782 20.9639C47.6188 20.7101 47.6121 20.319 47.6406 19.8188C47.6688 19.3238 47.7296 18.7442 47.795 18.1222L47.3972 18.0804C47.3321 18.6996 47.2701 19.2896 47.2412 19.7961C47.2127 20.2974 47.215 20.7398 47.2888 21.0551L47.6782 20.9639ZM47.5829 17.9018C46.8988 17.947 46.046 17.8317 45.6809 17.7043L45.5491 18.0819C45.9755 18.2308 46.884 18.3488 47.6093 18.3009L47.5829 17.9018ZM45.6836 17.7052C45.245 17.5453 44.6839 17.2173 44.3773 16.594L44.0184 16.7706C44.3878 17.5216 45.0554 17.9019 45.5465 18.081L45.6836 17.7052ZM44.3763 16.5922C44.1078 16.0606 44.0253 15.3356 44.0151 14.7233C44.0101 14.4208 44.0228 14.153 44.0367 13.961C44.0436 13.8651 44.0509 13.7883 44.0563 13.7358C44.0591 13.7096 44.0614 13.6895 44.0629 13.6761C44.0637 13.6694 44.0643 13.6644 44.0647 13.6612C44.0649 13.6596 44.0651 13.6584 44.0652 13.6577C44.0652 13.6573 44.0653 13.6571 44.0653 13.657C44.0653 13.6569 44.0653 13.6569 44.0653 13.6568C44.0653 13.6568 44.0653 13.6569 44.0653 13.6569C44.0653 13.6569 44.0653 13.6569 43.867 13.631C43.6686 13.6052 43.6686 13.6052 43.6686 13.6053C43.6686 13.6053 43.6686 13.6053 43.6686 13.6054C43.6686 13.6055 43.6686 13.6056 43.6686 13.6058C43.6685 13.6061 43.6685 13.6066 43.6684 13.6071C43.6682 13.6083 43.668 13.6098 43.6678 13.6119C43.6673 13.6159 43.6666 13.6217 43.6657 13.6293C43.6639 13.6444 43.6614 13.6663 43.6585 13.6944C43.6526 13.7506 43.645 13.8315 43.6377 13.9321C43.6232 14.1329 43.6099 14.4129 43.6152 14.7299C43.6256 15.3566 43.7085 16.1572 44.0193 16.7725L44.3763 16.5922ZM44.0659 13.6519C44.0786 13.5304 44.1204 13.4483 44.1719 13.4007C44.2195 13.3568 44.2969 13.3223 44.4289 13.3362L44.4707 12.9383C44.2446 12.9146 44.0469 12.9719 43.9007 13.1067C43.7586 13.2378 43.6879 13.4214 43.6681 13.6101L44.0659 13.6519ZM44.4289 13.3362C44.5997 13.3541 44.7399 13.5143 44.7183 13.7205L45.1161 13.7623C45.1596 13.348 44.8727 12.9806 44.4707 12.9383L44.4289 13.3362ZM44.7183 13.7205C44.7151 13.7505 44.6727 14.2137 44.6876 14.7752C44.7021 15.3259 44.772 16.0167 45.0195 16.4724L45.371 16.2815C45.1736 15.9181 45.102 15.315 45.0874 14.7647C45.0803 14.4956 45.087 14.2496 45.0957 14.0678C45.1001 13.977 45.105 13.9025 45.1089 13.8495C45.1109 13.823 45.1126 13.802 45.1139 13.787C45.1145 13.7795 45.115 13.7735 45.1154 13.7692C45.1156 13.767 45.1158 13.7653 45.1159 13.7641C45.116 13.7628 45.1161 13.7622 45.1161 13.7623L44.7183 13.7205ZM45.0268 16.4848C45.2227 16.7904 45.5091 17.0079 46.0024 17.1878L46.1394 16.812C45.7031 16.6528 45.4995 16.4809 45.3636 16.269L45.0268 16.4848ZM46.0039 17.1883C46.3656 17.3169 46.7553 17.3698 47.0768 17.3848C47.3929 17.3995 47.6662 17.3785 47.7945 17.3452L47.6939 16.958C47.6237 16.9763 47.3977 16.9993 47.0954 16.9852C46.7985 16.9714 46.4508 16.9227 46.1379 16.8114L46.0039 17.1883ZM47.9423 17.179C48.1442 15.7198 48.3307 14.4033 48.413 14.063L48.0242 13.969C47.9357 14.3347 47.7457 15.6815 47.5461 17.1242L47.9423 17.179ZM48.4175 14.0369C48.4304 13.9142 48.5663 13.771 48.7729 13.7927L48.8147 13.3949C48.4008 13.3514 48.0569 13.6405 48.0197 13.9951L48.4175 14.0369ZM48.7729 13.7927C48.8899 13.805 48.9627 13.8535 49.006 13.9105C49.0509 13.9698 49.0753 14.0538 49.0648 14.1532L49.4627 14.195C49.4823 14.008 49.4388 13.8194 49.3248 13.669C49.2091 13.5163 49.0319 13.4178 48.8147 13.3949L48.7729 13.7927ZM49.066 14.1439C48.9496 14.9061 48.7536 16.3117 48.5957 17.6702C48.4388 19.0198 48.3163 20.3488 48.3542 20.9417L48.7534 20.9162C48.7183 20.3672 48.8346 19.0788 48.993 17.7164C49.1503 16.363 49.3457 14.9622 49.4615 14.2043L49.066 14.1439ZM48.3538 20.9328C48.3564 21.0612 48.2707 21.2385 48.0666 21.2602L48.1091 21.658C48.5883 21.6068 48.7588 21.1835 48.7538 20.925L48.3538 20.9328ZM53.4557 21.9992L53.4386 22.1984L53.4397 22.1985L53.4557 21.9992ZM50.9417 19.9733L51.136 19.9258L51.1351 19.9221L50.9417 19.9733ZM51.4876 16.3867L51.3267 16.2678L51.3249 16.2705L51.4876 16.3867ZM53.9873 15.105L53.9762 14.9052L53.9697 14.9057L53.9873 15.105ZM57.0728 16.9737L57.2614 16.9068L57.2594 16.9016L57.0728 16.9737ZM56.8532 18.3745L56.7158 18.2291L56.7122 18.2326L56.8532 18.3745ZM52.0496 19.5347L52.0396 19.3349L51.8559 19.3442L51.8497 19.528L52.0496 19.5347ZM53.1126 20.9013L53.0531 21.0923L53.0584 21.0938L53.1126 20.9013ZM55.7418 20.4537L55.8467 20.6239L55.8474 20.6235L55.7418 20.4537ZM56.5533 20.539L56.7159 20.4224L56.7094 20.4134L56.7019 20.4051L56.5533 20.539ZM56.3989 21.3191L56.3019 21.1439L56.2933 21.1493L56.3989 21.3191ZM54.0012 16.12L53.9892 15.9203L53.9856 15.9206L54.0012 16.12ZM52.3683 16.9619L52.2075 16.8426L52.2023 16.8504L52.3683 16.9619ZM51.9163 18.5071L51.7163 18.5028L51.7122 18.6945L51.9035 18.7067L51.9163 18.5071ZM55.9185 17.6246L55.8254 17.4473L55.8159 17.453L55.9185 17.6246ZM55.9963 17.3432L56.1836 17.273L56.1809 17.2658L56.1776 17.2588L55.9963 17.3432ZM55.7312 16.881L55.5725 17.0029L55.5757 17.0069L55.7312 16.881ZM53.4728 21.7999C52.3114 21.7004 51.3512 20.8053 51.136 19.9258L50.7474 20.0208C51.0049 21.0732 52.1127 22.0848 53.4386 22.1984L53.4728 21.7999ZM51.1351 19.9221C50.687 18.2289 51.1963 17.1386 51.6503 16.503L51.3249 16.2705C50.8169 16.9816 50.2637 18.1928 50.7484 20.0245L51.1351 19.9221ZM51.6484 16.5056C52.1691 15.8011 53.0483 15.3886 54.0048 15.3042L53.9697 14.9057C52.9289 14.9976 51.9315 15.4496 51.3268 16.2678L51.6484 16.5056ZM53.9983 15.3047C55.4128 15.2265 56.5366 16.142 56.8863 17.0459L57.2594 16.9016C56.85 15.8434 55.5716 14.8171 53.9762 14.9053L53.9983 15.3047ZM56.8844 17.0407C57.0705 17.5646 56.9646 17.9939 56.7158 18.2291L56.9906 18.5198C57.3849 18.1469 57.4849 17.536 57.2613 16.9068L56.8844 17.0407ZM56.7122 18.2326C56.5972 18.347 56.3561 18.4763 56.0023 18.6055C55.6566 18.7317 55.2294 18.8488 54.7681 18.951C53.8452 19.1554 52.8036 19.2965 52.0396 19.3349L52.0597 19.7344C52.8483 19.6948 53.9121 19.5503 54.8546 19.3415C55.326 19.2371 55.7716 19.1156 56.1395 18.9812C56.4993 18.8498 56.8128 18.6966 56.9942 18.5163L56.7122 18.2326ZM51.8497 19.528C51.836 19.939 52.052 20.3024 52.2942 20.5651C52.5355 20.827 52.8355 21.0244 53.0531 21.0922L53.1721 20.7104C53.0392 20.6689 52.7964 20.5198 52.5883 20.294C52.3809 20.069 52.2407 19.8037 52.2495 19.5414L51.8497 19.528ZM53.0584 21.0938C53.9383 21.3416 54.9013 21.2067 55.8467 20.6239L55.6369 20.2834C54.776 20.814 53.9276 20.923 53.1668 20.7088L53.0584 21.0938ZM55.8474 20.6235C56.0212 20.5155 56.2705 20.5238 56.4047 20.6728L56.7019 20.4051C56.404 20.0743 55.9272 20.1029 55.6362 20.2838L55.8474 20.6235ZM56.3908 20.6555C56.4373 20.7203 56.4584 20.8219 56.4388 20.9272C56.4191 21.0323 56.3653 21.1091 56.302 21.1442L56.4959 21.494C56.6888 21.3871 56.7963 21.1913 56.832 21.0006C56.8675 20.81 56.8378 20.5925 56.7159 20.4224L56.3908 20.6555ZM56.2933 21.1493C55.4058 21.7011 54.4174 21.8759 53.4718 21.7998L53.4397 22.1985C54.4563 22.2804 55.533 22.0931 56.5045 21.4889L56.2933 21.1493ZM53.9856 15.9206C53.2817 15.9759 52.6136 16.2958 52.2077 16.8427L52.5289 17.0811C52.854 16.643 53.4068 16.3673 54.0169 16.3194L53.9856 15.9206ZM52.2023 16.8504C51.9209 17.2692 51.7295 17.8916 51.7163 18.5028L52.1163 18.5114C52.128 17.9669 52.3008 17.421 52.5343 17.0735L52.2023 16.8504ZM51.9035 18.7067C52.5212 18.7463 53.3906 18.6123 54.1722 18.4272C54.9502 18.243 55.6835 17.9981 56.0211 17.7963L55.8159 17.453C55.5354 17.6206 54.8549 17.8545 54.08 18.038C53.3086 18.2206 52.486 18.3432 51.9291 18.3075L51.9035 18.7067ZM56.0114 17.8017C56.118 17.7458 56.1707 17.6404 56.193 17.5599C56.2167 17.4743 56.2199 17.3699 56.1836 17.273L55.8091 17.4135C55.8093 17.4141 55.8107 17.4186 55.8109 17.4272C55.811 17.4357 55.8098 17.4449 55.8075 17.4532C55.8051 17.4618 55.8026 17.4658 55.8027 17.4656C55.8029 17.4654 55.8044 17.4632 55.8078 17.46C55.8112 17.4568 55.817 17.452 55.8255 17.4475L56.0114 17.8017ZM56.1776 17.2588C56.1211 17.1374 56.0332 16.9361 55.8866 16.7551L55.5757 17.0069C55.6855 17.1424 55.7534 17.2953 55.815 17.4276L56.1776 17.2588ZM55.8898 16.7591C55.4447 16.1798 54.7819 15.8724 53.9892 15.9204L54.0133 16.3196C54.6778 16.2794 55.211 16.5321 55.5726 17.0028L55.8898 16.7591ZM58.7012 22.4298L58.7727 22.243L58.7638 22.2396L58.7546 22.2371L58.7012 22.4298ZM58.4135 21.7239L58.5999 21.7964L58.6009 21.7937L58.4135 21.7239ZM60.7855 15.916L60.6117 15.8171L60.6079 15.8239L60.6045 15.8309L60.7855 15.916ZM62.7681 17.2586L62.9574 17.1942L62.9547 17.1863L62.9513 17.1785L62.7681 17.2586ZM63.2067 18.3665L63.0194 18.4368L63.0628 18.5525L63.1858 18.5654L63.2067 18.3665ZM63.2544 18.3715L63.2335 18.5704L63.3437 18.582L63.412 18.4947L63.2544 18.3715ZM63.9251 17.5009L64.0849 17.6211L64.0857 17.6201L63.9251 17.5009ZM65.0165 16.0711L65.1664 16.2039L65.1721 16.1967L65.0165 16.0711ZM65.8229 15.7456L65.8739 15.5522L65.8684 15.5509L65.8229 15.7456ZM66.4864 16.7807L66.296 16.8424L66.2982 16.8485L66.4864 16.7807ZM67.491 22.1471L67.6907 22.135L67.6901 22.1286L67.491 22.1471ZM67.0815 22.828L67.1059 23.0265L67.1153 23.0254L67.1246 23.0233L67.0815 22.828ZM66.4508 22.3997L66.2529 22.4308L66.2555 22.4428L66.4508 22.3997ZM65.748 18.2958L65.5505 18.3289L65.5527 18.3388L65.748 18.2958ZM65.5204 17.017L65.7174 16.9824L65.6913 16.8338L65.5413 16.8181L65.5204 17.017ZM65.4727 17.012L65.4936 16.8131L65.3706 16.8001L65.3041 16.9043L65.4727 17.012ZM64.7317 18.0924L64.8922 18.2117L64.8929 18.2107L64.7317 18.0924ZM63.0637 19.727L63.0822 19.9264L63.0916 19.9251L63.0637 19.727ZM62.5084 19.4997L62.353 19.6256L62.3599 19.6342L62.3678 19.642L62.5084 19.4997ZM61.7569 17.9246L61.9453 17.8573L61.9442 17.8543L61.7569 17.9246ZM61.449 16.951L61.6406 16.8938L61.6025 16.7661L61.4699 16.7521L61.449 16.951ZM61.4013 16.946L61.4222 16.7471L61.2742 16.7316L61.2167 16.8688L61.4013 16.946ZM60.8035 18.5001L60.6171 18.4276L60.6166 18.4291L60.8035 18.5001ZM59.3331 22.1584L59.1519 22.0737L59.151 22.0757L59.3331 22.1584ZM58.7546 22.2371C58.6925 22.2199 58.6361 22.1669 58.6025 22.0748C58.5684 21.9813 58.5694 21.8746 58.5999 21.7964L58.2271 21.6514C58.1583 21.8282 58.1625 22.0355 58.2267 22.2118C58.2915 22.3895 58.4285 22.5619 58.6479 22.6226L58.7546 22.2371ZM58.6009 21.7937C59.205 20.1711 60.7211 16.5233 60.9665 16.0011L60.6045 15.8309C60.3527 16.3666 58.8324 20.0254 58.226 21.6541L58.6009 21.7937ZM60.9594 16.0149C61.1287 15.7172 61.4029 15.6511 61.4881 15.6601L61.53 15.2623C61.2811 15.2361 60.8568 15.3862 60.6117 15.8171L60.9594 16.0149ZM61.4881 15.6601C61.6589 15.678 61.8069 15.7848 61.9832 16.0687C62.1618 16.3564 62.338 16.7738 62.5848 17.3387L62.9513 17.1785C62.7118 16.6304 62.5211 16.1767 62.323 15.8577C62.1226 15.535 61.8843 15.2995 61.53 15.2623L61.4881 15.6601ZM62.5787 17.323C62.6363 17.4923 62.7247 17.712 62.8085 17.9163C62.8938 18.1244 62.9737 18.3149 63.0194 18.4368L63.3939 18.2963C63.3454 18.1669 63.2612 17.9661 63.1785 17.7645C63.0942 17.5589 63.0104 17.3502 62.9574 17.1942L62.5787 17.323ZM63.1858 18.5654L63.2335 18.5704L63.2753 18.1726L63.2276 18.1676L63.1858 18.5654ZM63.412 18.4947C63.5513 18.3164 63.8312 17.9582 64.0849 17.6211L63.7653 17.3806C63.5141 17.7144 63.2363 18.0699 63.0968 18.2484L63.412 18.4947ZM64.0857 17.6201C64.4587 17.1174 64.7631 16.6587 65.1662 16.2038L64.8668 15.9385C64.4484 16.4108 64.1224 16.8993 63.7645 17.3817L64.0857 17.6201ZM65.1721 16.1967C65.3021 16.0358 65.4227 15.9695 65.518 15.9425C65.6152 15.915 65.7043 15.9233 65.7775 15.9404L65.8684 15.5509C65.7532 15.524 65.5916 15.506 65.4091 15.5577C65.2245 15.6099 65.0362 15.7283 64.8609 15.9455L65.1721 16.1967ZM65.772 15.9391C65.864 15.9633 65.9366 16.0138 66.0164 16.1445C66.1029 16.2862 66.1863 16.5035 66.2961 16.8423L66.6766 16.719C66.5678 16.3833 66.4721 16.1232 66.3578 15.9361C66.2369 15.7381 66.0871 15.6084 65.8739 15.5522L65.772 15.9391ZM66.2982 16.8485C66.3625 17.0268 66.4555 17.4216 66.5609 17.9359C66.665 18.4444 66.7783 19.0547 66.8841 19.6532C67.0966 20.8553 67.2758 21.9929 67.2918 22.1656L67.6901 22.1286C67.6722 21.9356 67.4892 20.7788 67.278 19.5836C67.1719 18.9833 67.0579 18.3691 66.9527 17.8557C66.8488 17.348 66.7504 16.9233 66.6745 16.7128L66.2982 16.8485ZM67.2913 22.1591C67.2982 22.2735 67.2752 22.3894 67.2278 22.4776C67.182 22.563 67.1186 22.615 67.0385 22.6327L67.1246 23.0233C67.3409 22.9756 67.4911 22.8329 67.5802 22.667C67.6678 22.5039 67.7013 22.312 67.6906 22.135L67.2913 22.1591ZM67.0572 22.6295C66.9402 22.6438 66.8489 22.6186 66.7842 22.5744C66.7201 22.5307 66.6688 22.4595 66.6462 22.3567L66.2555 22.4428C66.2982 22.6365 66.4034 22.7989 66.5588 22.9049C66.7137 23.0105 66.9051 23.0511 67.1059 23.0265L67.0572 22.6295ZM66.6484 22.3687C66.5912 22.0048 66.1574 19.2239 65.9433 18.2527L65.5527 18.3388C65.7634 19.2946 66.1948 22.0585 66.2533 22.4308L66.6484 22.3687ZM65.9452 18.2627C65.8711 17.8206 65.7769 17.3217 65.7174 16.9824L65.3234 17.0515C65.3846 17.4006 65.4765 17.8866 65.5507 18.3289L65.9452 18.2627ZM65.5413 16.8181L65.4936 16.8131L65.4518 17.2109L65.4995 17.2159L65.5413 16.8181ZM65.3041 16.9043C65.0757 17.262 64.7654 17.7082 64.5704 17.9741L64.8929 18.2107C65.0923 17.9389 65.4075 17.4856 65.6412 17.1196L65.3041 16.9043ZM64.5711 17.9732C63.9829 18.765 63.6261 19.1514 63.3995 19.3424C63.2878 19.4366 63.2135 19.4783 63.1644 19.4987C63.1173 19.5182 63.0858 19.5219 63.0357 19.529L63.0916 19.9251C63.1395 19.9183 63.2179 19.9095 63.3175 19.8682C63.415 19.8278 63.5241 19.7606 63.6574 19.6482C63.9206 19.4262 64.2998 19.0092 64.8922 18.2117L64.5711 17.9732ZM63.0452 19.5279C62.8887 19.5424 62.742 19.4494 62.649 19.3575L62.3678 19.642C62.4934 19.7661 62.7513 19.9569 63.0822 19.9262L63.0452 19.5279ZM62.6638 19.3739C62.3477 18.9835 62.172 18.4927 61.9453 17.8573L61.5686 17.9918C61.7892 18.6101 61.9856 19.1719 62.353 19.6256L62.6638 19.3739ZM61.9442 17.8543C61.853 17.6113 61.7311 17.1968 61.6406 16.8938L61.2573 17.0082C61.3454 17.3032 61.4723 17.7354 61.5697 17.9948L61.9442 17.8543ZM61.4699 16.7521L61.4222 16.7471L61.3803 17.1449L61.4281 17.1499L61.4699 16.7521ZM61.2167 16.8688C61.0226 17.3331 60.8117 17.9273 60.6171 18.4276L60.9899 18.5726C61.1922 18.0527 61.3932 17.4836 61.5858 17.0232L61.2167 16.8688ZM60.6166 18.4291C60.1476 19.6639 59.7393 20.8173 59.1519 22.0737L59.5143 22.2431C60.1098 20.9693 60.5253 19.796 60.9905 18.5711L60.6166 18.4291ZM59.151 22.0757C59.154 22.069 59.1455 22.0867 59.1182 22.1185C59.0936 22.1472 59.0609 22.1788 59.0227 22.205C58.9482 22.2562 58.8673 22.2792 58.7727 22.243L58.6298 22.6166C58.8832 22.7136 59.1025 22.6354 59.2491 22.5348C59.3214 22.4852 59.3794 22.4284 59.4219 22.3789C59.4617 22.3325 59.4965 22.2823 59.5152 22.2411L59.151 22.0757ZM75.8421 17.7157L75.8771 17.5188L75.8762 17.5186L75.8421 17.7157ZM76.3095 18.3199L76.5043 18.3653L76.5043 18.3653L76.3095 18.3199ZM73.4401 25.1856L73.2957 25.0472L73.2944 25.0486L73.4401 25.1856ZM69.0814 27.1648L69.1097 26.9667L69.1023 26.9659L69.0814 27.1648ZM68.6831 26.592L68.8762 26.6455L68.8789 26.6326L68.6831 26.592ZM69.2508 26.2415L69.2299 26.4406L69.2394 26.4411L69.2508 26.2415ZM72.6888 24.5274L72.841 24.6572L72.8427 24.6552L72.6888 24.5274ZM73.3143 23.6279L73.4963 23.7106L73.5767 23.5338L73.4023 23.4483L73.3143 23.6279ZM69.3966 18.6551L69.5901 18.6043L69.5882 18.5979L69.3966 18.6551ZM70.3827 18.2279L70.5716 18.1621L70.5699 18.1576L70.3827 18.2279ZM73.6935 22.7748L73.6045 22.954L73.7967 23.0494L73.8784 22.851L73.6935 22.7748ZM75.1952 18.1304L75.004 18.0708L75.0016 18.0804L75.1952 18.1304ZM75.8071 17.9126C75.9083 17.9306 75.9931 17.9954 76.0508 18.081C76.1134 18.1741 76.1197 18.2533 76.1147 18.2745L76.5043 18.3653C76.5433 18.1981 76.4816 18.0047 76.3825 17.8575C76.2784 17.7029 76.1075 17.5598 75.8771 17.5188L75.8071 17.9126ZM76.1147 18.2745C76.0283 18.6453 75.6857 19.9652 75.1796 21.3845C74.9266 22.0939 74.634 22.825 74.3134 23.4734C73.9915 24.1246 73.6475 24.6799 73.2957 25.0472L73.5846 25.3239C73.9782 24.9129 74.3436 24.315 74.672 23.6507C75.0018 22.9836 75.3003 22.2369 75.5564 21.5188C76.0684 20.0829 76.415 18.7482 76.5043 18.3653L76.1147 18.2745ZM73.2944 25.0486C72.1888 26.2256 70.9084 27.2243 69.1097 26.9668L69.053 27.3628C71.0582 27.6499 72.4632 26.5177 73.5859 25.3225L73.2944 25.0486ZM69.1023 26.9659C68.9321 26.948 68.8327 26.8013 68.8758 26.6453L68.4903 26.5387C68.3778 26.9455 68.6577 27.3214 69.0605 27.3637L69.1023 26.9659ZM68.8789 26.6326C68.8931 26.5643 68.9276 26.5159 68.9769 26.4843C69.028 26.4515 69.11 26.4277 69.2299 26.4404L69.2717 26.0425C69.0814 26.0225 68.9039 26.056 68.761 26.1476C68.6162 26.2404 68.522 26.3836 68.4872 26.5514L68.8789 26.6326ZM69.2394 26.4411C70.8452 26.533 72.1665 25.4486 72.841 24.6572L72.5366 24.3977C71.8898 25.1566 70.6789 26.1228 69.2622 26.0418L69.2394 26.4411ZM72.8427 24.6552C73.0027 24.4624 73.3259 24.0858 73.4963 23.7106L73.1322 23.5451C72.9887 23.861 72.7065 24.1929 72.5349 24.3997L72.8427 24.6552ZM73.4023 23.4483C72.2875 22.9017 71.3925 21.9198 70.743 20.9485C70.0933 19.9769 69.704 19.038 69.59 18.6043L69.2032 18.706C69.3305 19.1906 69.7411 20.1698 70.4105 21.1708C71.08 22.1722 72.0231 23.2175 73.2262 23.8075L73.4023 23.4483ZM69.5882 18.5979C69.554 18.4833 69.5546 18.3604 69.584 18.2632C69.6135 18.1657 69.6638 18.1151 69.7142 18.0962L69.5737 17.7216C69.3729 17.797 69.2549 17.97 69.2012 18.1473C69.1474 18.3249 69.1499 18.528 69.2049 18.7123L69.5882 18.5979ZM69.7142 18.0962C69.7773 18.0725 69.8833 18.0759 69.994 18.1229C70.1052 18.1702 70.174 18.2412 70.1954 18.2981L70.5699 18.1576C70.497 17.9633 70.3221 17.8277 70.1504 17.7547C69.9781 17.6815 69.7618 17.6511 69.5737 17.7216L69.7142 18.0962ZM70.1938 18.2936C70.344 18.7251 70.6839 19.6315 71.2381 20.5562C71.7902 21.4775 72.5683 22.4393 73.6045 22.954L73.7825 22.5957C72.8463 22.1308 72.1173 21.245 71.5812 20.3506C71.0472 19.4596 70.7179 18.5823 70.5715 18.1621L70.1938 18.2936ZM73.8784 22.851C74.5315 21.2657 75.1029 19.2882 75.3889 18.1804L75.0016 18.0804C74.7175 19.1811 74.1514 21.1382 73.5086 22.6987L73.8784 22.851ZM75.3862 18.1899C75.4403 18.016 75.5845 17.8741 75.808 17.9128L75.8762 17.5186C75.3886 17.4343 75.0957 17.7774 75.0043 18.0709L75.3862 18.1899ZM84.1417 25.1037L84.2132 24.9169L84.2043 24.9135L84.1951 24.911L84.1417 25.1037ZM83.854 24.3978L84.0404 24.4703L84.0414 24.4676L83.854 24.3978ZM86.226 18.5899L86.0522 18.4911L86.0483 18.4978L86.045 18.5048L86.226 18.5899ZM88.2086 19.9325L88.3979 19.8681L88.3952 19.8602L88.3918 19.8524L88.2086 19.9325ZM88.6472 21.0404L88.4599 21.1107L88.5033 21.2264L88.6262 21.2393L88.6472 21.0404ZM88.6949 21.0454L88.674 21.2444L88.7842 21.2559L88.8525 21.1686L88.6949 21.0454ZM89.3656 20.1748L89.5254 20.295L89.5262 20.294L89.3656 20.1748ZM90.457 18.745L90.6069 18.8778L90.6126 18.8706L90.457 18.745ZM91.2634 18.4195L91.3144 18.2261L91.3089 18.2248L91.2634 18.4195ZM91.9269 19.4546L91.7365 19.5163L91.7387 19.5224L91.9269 19.4546ZM92.9314 24.821L93.1312 24.8089L93.1306 24.8025L92.9314 24.821ZM92.522 25.5019L92.5464 25.7004L92.5558 25.6993L92.5651 25.6972L92.522 25.5019ZM91.8913 25.0736L91.6934 25.1047L91.696 25.1167L91.8913 25.0736ZM91.1885 20.9697L90.991 21.0028L90.9932 21.0127L91.1885 20.9697ZM90.9609 19.6909L91.1579 19.6563L91.1318 19.5078L90.9818 19.492L90.9609 19.6909ZM90.9132 19.6859L90.9341 19.487L90.8111 19.474L90.7446 19.5782L90.9132 19.6859ZM90.1722 20.7663L90.3327 20.8856L90.3334 20.8846L90.1722 20.7663ZM88.5042 22.4009L88.5227 22.6003L88.5321 22.599L88.5042 22.4009ZM87.9489 22.1736L87.7934 22.2995L87.8004 22.3081L87.8083 22.3159L87.9489 22.1736ZM87.1974 20.5985L87.3858 20.5312L87.3847 20.5282L87.1974 20.5985ZM86.8895 19.6249L87.0811 19.5677L87.043 19.44L86.9104 19.426L86.8895 19.6249ZM86.8417 19.6199L86.8627 19.421L86.7147 19.4055L86.6572 19.5428L86.8417 19.6199ZM86.244 21.174L86.0576 21.1015L86.0571 21.103L86.244 21.174ZM84.7736 24.8323L84.5924 24.7476L84.5915 24.7496L84.7736 24.8323ZM84.1951 24.911C84.133 24.8938 84.0766 24.8408 84.043 24.7487C84.0089 24.6552 84.0099 24.5485 84.0404 24.4703L83.6676 24.3253C83.5988 24.5021 83.603 24.7094 83.6672 24.8857C83.732 25.0634 83.869 25.2358 84.0884 25.2965L84.1951 24.911ZM84.0414 24.4676C84.6455 22.845 86.1615 19.1972 86.407 18.675L86.045 18.5048C85.7932 19.0405 84.2729 22.6993 83.6665 24.328L84.0414 24.4676ZM86.3999 18.6888C86.5692 18.3911 86.8434 18.325 86.9286 18.334L86.9705 17.9362C86.7216 17.91 86.2973 18.0601 86.0522 18.4911L86.3999 18.6888ZM86.9286 18.334C87.0994 18.3519 87.2474 18.4587 87.4237 18.7426C87.6023 19.0303 87.7785 19.4477 88.0253 20.0126L88.3918 19.8524C88.1523 19.3044 87.9616 18.8506 87.7635 18.5316C87.5631 18.2089 87.3248 17.9734 86.9705 17.9362L86.9286 18.334ZM88.0192 19.9969C88.0768 20.1663 88.1652 20.3859 88.2489 20.5902C88.3343 20.7983 88.4142 20.9888 88.4599 21.1107L88.8344 20.9702C88.7859 20.8408 88.7017 20.64 88.619 20.4384C88.5347 20.2328 88.4509 20.0241 88.3979 19.8681L88.0192 19.9969ZM88.6262 21.2393L88.674 21.2444L88.7158 20.8465L88.6681 20.8415L88.6262 21.2393ZM88.8525 21.1686C88.9918 20.9903 89.2717 20.6321 89.5254 20.295L89.2058 20.0545C88.9546 20.3883 88.6768 20.7438 88.5373 20.9223L88.8525 21.1686ZM89.5262 20.294C89.8992 19.7913 90.2036 19.3326 90.6067 18.8777L90.3073 18.6124C89.8889 19.0847 89.5629 19.5732 89.205 20.0556L89.5262 20.294ZM90.6126 18.8706C90.7426 18.7097 90.8632 18.6434 90.9585 18.6164C91.0557 18.5889 91.1448 18.5972 91.218 18.6143L91.3089 18.2248C91.1937 18.1979 91.0321 18.1799 90.8495 18.2316C90.665 18.2838 90.4766 18.4022 90.3014 18.6194L90.6126 18.8706ZM91.2125 18.613C91.3045 18.6372 91.3771 18.6877 91.4569 18.8184C91.5434 18.9601 91.6268 19.1774 91.7366 19.5162L92.1171 19.3929C92.0083 19.0572 91.9126 18.7972 91.7983 18.61C91.6774 18.412 91.5276 18.2823 91.3144 18.2261L91.2125 18.613ZM91.7387 19.5224C91.803 19.7007 91.896 20.0955 92.0014 20.6098C92.1055 21.1183 92.2188 21.7286 92.3246 22.3271C92.537 23.5292 92.7163 24.6668 92.7323 24.8395L93.1306 24.8025C93.1127 24.6095 92.9297 23.4527 92.7185 22.2575C92.6124 21.6572 92.4984 21.043 92.3932 20.5296C92.2893 20.0219 92.1909 19.5972 92.115 19.3867L91.7387 19.5224ZM92.7318 24.833C92.7387 24.9474 92.7157 25.0633 92.6683 25.1516C92.6225 25.2369 92.5591 25.2889 92.479 25.3066L92.5651 25.6972C92.7814 25.6495 92.9316 25.5068 93.0207 25.3409C93.1083 25.1778 93.1418 24.9859 93.1311 24.8089L92.7318 24.833ZM92.4977 25.3034C92.3807 25.3177 92.2894 25.2925 92.2247 25.2483C92.1606 25.2046 92.1093 25.1334 92.0867 25.0306L91.696 25.1167C91.7387 25.3104 91.8439 25.4728 91.9993 25.5788C92.1542 25.6844 92.3456 25.7251 92.5464 25.7004L92.4977 25.3034ZM92.0889 25.0426C92.0317 24.6787 91.5979 21.8978 91.3838 20.9266L90.9932 21.0127C91.2039 21.9685 91.6353 24.7324 91.6938 25.1047L92.0889 25.0426ZM91.3857 20.9366C91.3115 20.4945 91.2174 19.9956 91.1579 19.6563L90.7639 19.7254C90.8251 20.0746 90.917 20.5605 90.9912 21.0028L91.3857 20.9366ZM90.9818 19.492L90.9341 19.487L90.8923 19.8848L90.94 19.8898L90.9818 19.492ZM90.7446 19.5782C90.5162 19.9359 90.2059 20.3821 90.0109 20.6481L90.3334 20.8846C90.5328 20.6128 90.848 20.1595 91.0817 19.7935L90.7446 19.5782ZM90.0116 20.6471C89.4234 21.4389 89.0666 21.8253 88.84 22.0163C88.7283 22.1106 88.654 22.1522 88.6049 22.1726C88.5578 22.1921 88.5263 22.1958 88.4762 22.2029L88.5321 22.599C88.58 22.5922 88.6584 22.5834 88.758 22.5421C88.8555 22.5017 88.9646 22.4345 89.0979 22.3221C89.3611 22.1001 89.7403 21.6831 90.3327 20.8856L90.0116 20.6471ZM88.4857 22.2018C88.3292 22.2163 88.1825 22.1233 88.0895 22.0314L87.8083 22.3159C87.9339 22.44 88.1918 22.6308 88.5227 22.6001L88.4857 22.2018ZM88.1043 22.0478C87.7882 21.6574 87.6125 21.1666 87.3858 20.5312L87.009 20.6657C87.2297 21.284 87.426 21.8458 87.7934 22.2995L88.1043 22.0478ZM87.3847 20.5282C87.2935 20.2852 87.1716 19.8707 87.0811 19.5677L86.6978 19.6822C86.7859 19.9771 86.9128 20.4093 87.0102 20.6687L87.3847 20.5282ZM86.9104 19.426L86.8627 19.421L86.8208 19.8188L86.8686 19.8239L86.9104 19.426ZM86.6572 19.5428C86.4631 20.007 86.2522 20.6012 86.0576 21.1015L86.4304 21.2465C86.6327 20.7266 86.8337 20.1575 87.0263 19.6971L86.6572 19.5428ZM86.0571 21.103C85.5881 22.3378 85.1798 23.4912 84.5924 24.7476L84.9548 24.917C85.5503 23.6432 85.9658 22.4699 86.431 21.245L86.0571 21.103ZM84.5915 24.7496C84.5945 24.7429 84.586 24.7606 84.5587 24.7924C84.5341 24.8211 84.5014 24.8527 84.4632 24.8789C84.3887 24.9301 84.3078 24.9531 84.2132 24.9169L84.0703 25.2905C84.3237 25.3875 84.543 25.3094 84.6896 25.2087C84.7619 25.1591 84.8199 25.1023 84.8624 25.0528C84.9022 25.0064 84.937 24.9562 84.9557 24.915L84.5915 24.7496ZM95.3025 25.1667L95.1024 25.1669L95.1025 25.1706L95.3025 25.1667ZM95.9497 19.0086L96.1479 19.0368L96.1486 19.0295L95.9497 19.0086ZM96.9924 19.1906L96.7931 19.1697L96.7926 19.1822L96.9924 19.1906ZM96.7063 21.4531L96.5074 21.4322L96.4714 21.7749L96.7869 21.6362L96.7063 21.4531ZM97.4739 21.2683L97.4879 21.4681L97.4982 21.4668L97.4739 21.2683ZM99.3155 21.6549L99.2024 21.82L99.2079 21.8235L99.3155 21.6549ZM100.341 24.7551L100.149 24.6984L100.149 24.699L100.341 24.7551ZM96.596 22.5033L96.4803 22.3402L96.4078 22.3916L96.3974 22.4797L96.596 22.5033ZM96.418 25.115L96.6179 25.1076L96.418 25.115ZM99.3989 24.5354L99.2059 24.483L99.2052 24.4858L99.3989 24.5354ZM98.719 22.5093L98.6089 22.6765L98.6159 22.6807L98.719 22.5093ZM97.0785 26.4071C96.4157 26.3375 96.0315 26.1784 95.8109 25.9757C95.5981 25.7801 95.5094 25.5172 95.5024 25.1628L95.1025 25.1706C95.1108 25.59 95.2194 25.9753 95.5402 26.2702C95.8533 26.5579 96.3391 26.7316 97.0367 26.805L97.0785 26.4071ZM95.5025 25.1665C95.5017 24.3846 95.6617 22.8579 95.8241 21.5143C95.905 20.8452 95.9859 20.2257 96.0466 19.7734C96.077 19.5473 96.1023 19.3631 96.12 19.2354C96.1288 19.1715 96.1358 19.1218 96.1405 19.0881C96.1429 19.0712 96.1447 19.0584 96.1459 19.0498C96.1465 19.0454 96.147 19.0422 96.1473 19.04C96.1474 19.0389 96.1475 19.0381 96.1476 19.0376C96.1477 19.0373 96.1477 19.0371 96.1477 19.037C96.1477 19.0369 96.1477 19.0368 96.1477 19.0368C96.1477 19.0368 96.1477 19.0368 95.9497 19.0086C95.7517 18.9805 95.7517 18.9805 95.7517 18.9805C95.7517 18.9806 95.7517 18.9806 95.7517 18.9807C95.7517 18.9809 95.7516 18.9811 95.7516 18.9814C95.7515 18.9819 95.7514 18.9828 95.7512 18.9839C95.7509 18.9861 95.7504 18.9894 95.7498 18.9938C95.7486 19.0025 95.7468 19.0155 95.7444 19.0325C95.7396 19.0664 95.7326 19.1163 95.7237 19.1804C95.706 19.3086 95.6806 19.4935 95.6502 19.7202C95.5893 20.1737 95.5081 20.795 95.427 21.4663C95.2654 22.8036 95.1017 24.3559 95.1025 25.1669L95.5025 25.1665ZM96.1486 19.0295C96.1678 18.847 96.3146 18.7172 96.5091 18.7376L96.5509 18.3398C96.1249 18.295 95.7918 18.5974 95.7508 18.9877L96.1486 19.0295ZM96.5091 18.7376C96.6693 18.7544 96.8214 18.9044 96.7935 19.1697L97.1913 19.2115C97.2387 18.7608 96.9636 18.3832 96.5509 18.3398L96.5091 18.7376ZM96.7926 19.1822C96.785 19.3624 96.7254 19.8206 96.6602 20.2956C96.5963 20.7613 96.528 21.2371 96.5074 21.4322L96.9053 21.474C96.9249 21.2873 96.9914 20.824 97.0565 20.35C97.1202 19.8853 97.1836 19.4032 97.1922 19.1991L96.7926 19.1822ZM96.7063 21.4531C96.7869 21.6362 96.7868 21.6362 96.7868 21.6362C96.7868 21.6362 96.7868 21.6362 96.7868 21.6362C96.7867 21.6362 96.7867 21.6362 96.7867 21.6363C96.7866 21.6363 96.7866 21.6363 96.7866 21.6363C96.7866 21.6363 96.7867 21.6363 96.7869 21.6362C96.7872 21.636 96.7878 21.6358 96.7888 21.6353C96.7908 21.6345 96.794 21.6331 96.7985 21.6313C96.8074 21.6276 96.8211 21.6221 96.8391 21.6153C96.8752 21.6016 96.9281 21.5827 96.9932 21.5629C97.1245 21.5231 97.3009 21.4809 97.4878 21.4678L97.4599 21.0688C97.2335 21.0847 97.0262 21.1349 96.877 21.1802C96.8019 21.203 96.7404 21.2249 96.6972 21.2413C96.6755 21.2496 96.6583 21.2564 96.6463 21.2614C96.6402 21.2639 96.6355 21.2659 96.632 21.2674C96.6303 21.2681 96.6289 21.2687 96.6279 21.2691C96.6274 21.2694 96.6269 21.2695 96.6266 21.2697C96.6264 21.2698 96.6263 21.2698 96.6261 21.2699C96.6261 21.2699 96.626 21.2699 96.626 21.27C96.6259 21.27 96.6259 21.27 96.6259 21.27C96.6258 21.27 96.6258 21.27 96.7063 21.4531ZM97.4982 21.4668C98.1006 21.3929 98.7134 21.4845 99.2024 21.8199L99.4287 21.49C98.8372 21.0844 98.1184 20.9877 97.4495 21.0698L97.4982 21.4668ZM99.2079 21.8235C100.118 22.4047 100.502 23.5081 100.149 24.6984L100.533 24.8119C100.929 23.4745 100.503 22.1762 99.4232 21.4864L99.2079 21.8235ZM100.149 24.699C99.9798 25.278 99.5382 25.7381 98.9662 26.0392C98.394 26.3404 97.7069 26.4732 97.0785 26.4071L97.0367 26.805C97.745 26.8794 98.5114 26.7306 99.1525 26.3931C99.7939 26.0555 100.326 25.5199 100.533 24.8113L100.149 24.699ZM96.596 22.5033C96.3974 22.4797 96.3974 22.4797 96.3974 22.4798C96.3974 22.4798 96.3974 22.4798 96.3974 22.4798C96.3973 22.4799 96.3973 22.48 96.3973 22.4801C96.3973 22.4803 96.3973 22.4807 96.3972 22.4811C96.3971 22.482 96.3969 22.4833 96.3967 22.485C96.3963 22.4885 96.3957 22.4936 96.395 22.5002C96.3934 22.5135 96.3912 22.5331 96.3883 22.5582C96.3826 22.6084 96.3745 22.6811 96.3649 22.7708C96.3456 22.9503 96.3203 23.1986 96.2959 23.4736C96.2476 24.0198 96.2018 24.6843 96.2181 25.1225L96.6179 25.1076C96.6026 24.6978 96.6459 24.0565 96.6944 23.5088C96.7185 23.2369 96.7435 22.9912 96.7626 22.8135C96.7721 22.7246 96.7801 22.6529 96.7857 22.6033C96.7886 22.5786 96.7908 22.5594 96.7923 22.5464C96.793 22.54 96.7936 22.535 96.794 22.5318C96.7942 22.5301 96.7943 22.5289 96.7944 22.5281C96.7945 22.5277 96.7945 22.5274 96.7945 22.5272C96.7946 22.5271 96.7946 22.527 96.7946 22.527C96.7946 22.5269 96.7946 22.5269 96.7946 22.5269C96.7946 22.5269 96.7946 22.5269 96.596 22.5033ZM96.2181 25.1225C96.2286 25.4036 96.4398 25.5687 96.617 25.6563C96.8001 25.7469 97.0084 25.7884 97.1421 25.8025L97.1839 25.4047C97.0789 25.3936 96.921 25.3605 96.7944 25.2978C96.662 25.2323 96.62 25.1657 96.6179 25.1076L96.2181 25.1225ZM97.1421 25.8025C97.6155 25.8522 98.1575 25.7808 98.6133 25.5882C99.066 25.3968 99.4686 25.0693 99.5927 24.5851L99.2052 24.4858C99.1245 24.8006 98.8508 25.0535 98.4575 25.2197C98.0673 25.3846 97.5937 25.4477 97.1839 25.4047L97.1421 25.8025ZM99.5919 24.5879C99.8456 23.6548 99.5971 22.8039 98.822 22.3379L98.6159 22.6807C99.2028 23.0335 99.4243 23.6799 99.2059 24.483L99.5919 24.5879ZM98.8289 22.3422C98.1144 21.872 97.2077 21.8242 96.4803 22.3402L96.7117 22.6664C97.2881 22.2576 98.0144 22.285 98.609 22.6763L98.8289 22.3422ZM103.778 18.7695C103.824 18.3286 103.483 17.9824 103.037 17.9355L102.995 18.3333C103.265 18.3617 103.399 18.5481 103.38 18.7277L103.778 18.7695ZM103.037 17.9355C102.799 17.9106 102.605 18.0049 102.472 18.1511C102.343 18.2922 102.272 18.4792 102.253 18.6576L102.651 18.6994C102.662 18.5914 102.705 18.4888 102.768 18.4207C102.825 18.3576 102.898 18.3232 102.995 18.3333L103.037 17.9355ZM102.253 18.6576C102.196 19.1963 102.074 20.5368 101.943 21.9517C101.812 23.3683 101.673 24.8605 101.584 25.7063L101.982 25.7481C102.072 24.8992 102.211 23.4041 102.341 21.9885C102.472 20.5713 102.594 19.2348 102.651 18.6994L102.253 18.6576ZM101.584 25.7063C101.543 26.0966 101.806 26.4616 102.232 26.5064L102.274 26.1086C102.08 26.0882 101.963 25.9307 101.982 25.7481L101.584 25.7063ZM102.232 26.5064C102.429 26.5271 102.627 26.4661 102.78 26.3563C102.934 26.2463 103.058 26.0751 103.08 25.8635L102.682 25.8217C102.675 25.8966 102.628 25.9729 102.547 26.0312C102.465 26.0898 102.364 26.118 102.274 26.1086L102.232 26.5064ZM103.08 25.8635C103.179 24.9197 103.331 23.3601 103.47 21.93C103.608 20.4987 103.733 19.1981 103.778 18.7695L103.38 18.7277C103.335 19.1585 103.21 20.4621 103.071 21.8915C102.933 23.3221 102.781 24.8799 102.682 25.8217L103.08 25.8635ZM110.182 14.3507L110.286 14.1801L110.282 14.1779L110.182 14.3507ZM108.762 14.0809L108.734 13.8827L108.726 13.8842L108.762 14.0809ZM106.162 17.2344L106.17 17.0345L106.162 17.2344ZM105.583 16.5461L105.383 16.5347L105.383 16.5405L105.583 16.5461ZM108.21 13.13L108.16 12.9363L108.153 12.9384L108.21 13.13ZM110.969 13.5165L111.082 13.3515L111.081 13.3506L110.969 13.5165ZM112.35 15.7611L112.55 15.7457L112.549 15.7426L112.35 15.7611ZM110.867 19.5388L110.713 19.4109L110.707 19.4186L110.867 19.5388ZM110.263 20.4647L110.086 20.3715L110.085 20.3738L110.263 20.4647ZM109.979 22.7034L109.781 22.7288L109.782 22.7377L109.784 22.7464L109.979 22.7034ZM108.761 22.8166L108.959 22.7923L108.958 22.7828L108.956 22.7736L108.761 22.8166ZM109.189 19.8933L109.018 19.7896L109.013 19.7978L109.189 19.8933ZM110.03 18.7752L110.19 18.8955L110.193 18.892L110.03 18.7752ZM111.065 15.8191L110.865 15.8163L110.865 15.8207L111.065 15.8191ZM110.282 14.1779C109.782 13.8863 109.162 13.8224 108.734 13.8828L108.79 14.2789C109.146 14.2287 109.672 14.2852 110.081 14.5236L110.282 14.1779ZM108.726 13.8842C108.278 13.9663 107.793 14.1586 107.394 14.5926C106.997 15.026 106.704 15.6805 106.601 16.6531L106.999 16.6949C107.095 15.782 107.365 15.2166 107.689 14.8631C108.013 14.5103 108.41 14.3489 108.798 14.2776L108.726 13.8842ZM106.601 16.6531C106.587 16.792 106.535 16.8858 106.47 16.9438C106.405 17.0014 106.307 17.0398 106.17 17.0345L106.155 17.4343C106.377 17.4428 106.58 17.38 106.735 17.2434C106.889 17.1073 106.976 16.9141 106.999 16.6949L106.601 16.6531ZM106.17 17.0345C106.06 17.0303 105.965 16.974 105.893 16.8805C105.819 16.7847 105.78 16.6608 105.783 16.5517L105.383 16.5405C105.377 16.7441 105.447 16.9575 105.575 17.1242C105.705 17.2932 105.904 17.4247 106.155 17.4343L106.17 17.0345ZM105.783 16.5575C105.852 15.3432 106.266 14.6054 106.753 14.1382C107.245 13.666 107.828 13.4528 108.268 13.3217L108.153 12.9384C107.696 13.0749 107.038 13.3104 106.476 13.8496C105.909 14.3939 105.458 15.2302 105.383 16.5347L105.783 16.5575ZM108.261 13.3236C108.527 13.2545 109.01 13.2281 109.522 13.2819C110.035 13.3359 110.537 13.4666 110.857 13.6823L111.081 13.3506C110.68 13.0804 110.1 12.9405 109.564 12.8841C109.025 12.8275 108.49 12.8509 108.16 12.9364L108.261 13.3236ZM110.856 13.6815C111.643 14.22 112.077 14.9892 112.151 15.7796L112.549 15.7426C112.464 14.8272 111.961 13.9534 111.082 13.3515L110.856 13.6815ZM112.151 15.7766C112.287 17.5381 111.377 18.6114 110.713 19.4111L111.021 19.6665C111.684 18.8682 112.7 17.6824 112.549 15.7457L112.151 15.7766ZM110.707 19.4186C110.452 19.7581 110.274 20.0152 110.086 20.3715L110.44 20.558C110.614 20.2283 110.778 19.9904 111.027 19.6591L110.707 19.4186ZM110.085 20.3738C109.837 20.8599 109.765 21.455 109.75 21.9128C109.743 22.1445 109.751 22.3471 109.76 22.4921C109.765 22.5646 109.77 22.623 109.774 22.6636C109.776 22.6839 109.778 22.6997 109.779 22.7107C109.78 22.7163 109.78 22.7205 109.78 22.7236C109.781 22.7251 109.781 22.7263 109.781 22.7271C109.781 22.7276 109.781 22.7279 109.781 22.7282C109.781 22.7283 109.781 22.7285 109.781 22.7286C109.781 22.7286 109.781 22.7287 109.781 22.7287C109.781 22.7287 109.781 22.7288 109.979 22.7034C110.178 22.678 110.178 22.678 110.178 22.678C110.178 22.678 110.178 22.6781 110.178 22.6781C110.178 22.6781 110.178 22.6781 110.178 22.678C110.178 22.678 110.178 22.6779 110.178 22.6776C110.178 22.6772 110.178 22.6765 110.178 22.6754C110.177 22.6733 110.177 22.6699 110.176 22.6653C110.175 22.6562 110.174 22.6423 110.172 22.6241C110.168 22.5876 110.164 22.5339 110.159 22.4663C110.151 22.3311 110.143 22.1415 110.15 21.9252C110.164 21.487 110.233 20.9628 110.441 20.5557L110.085 20.3738ZM109.784 22.7464C109.839 22.9948 109.656 23.2018 109.432 23.1933L109.417 23.593C109.914 23.612 110.283 23.153 110.175 22.6603L109.784 22.7464ZM109.432 23.1933C109.163 23.183 108.986 23.0063 108.959 22.7923L108.562 22.841C108.614 23.2626 108.965 23.5757 109.417 23.593L109.432 23.1933ZM108.956 22.7736C108.957 22.7761 108.953 22.7525 108.946 22.6969C108.941 22.6457 108.934 22.574 108.928 22.4856C108.916 22.3086 108.909 22.0666 108.922 21.7902C108.948 21.2337 109.056 20.5559 109.365 19.9889L109.013 19.7978C108.663 20.4406 108.55 21.1874 108.522 21.7715C108.495 22.3539 108.553 22.8007 108.566 22.8597L108.956 22.7736ZM109.36 19.9969C109.587 19.6215 109.921 19.2528 110.19 18.8954L109.871 18.6549C109.635 18.9685 109.258 19.3938 109.018 19.7897L109.36 19.9969ZM110.193 18.892C110.474 18.5014 110.749 18.1192 110.948 17.6413C111.15 17.1595 111.271 16.5896 111.265 15.8176L110.865 15.8207C110.871 16.5461 110.757 17.0615 110.579 17.4871C110.4 17.9166 110.152 18.2637 109.868 18.6583L110.193 18.892ZM111.265 15.8219C111.269 15.5075 111.15 15.176 110.975 14.8908C110.799 14.6044 110.556 14.3451 110.286 14.1802L110.077 14.5213C110.284 14.6478 110.485 14.8576 110.634 15.1C110.784 15.3436 110.868 15.6007 110.865 15.8163L111.265 15.8219ZM109.319 25.0794C110.085 25.1598 110.718 25.7036 110.633 26.5125L111.031 26.5543C111.146 25.4538 110.267 24.7768 109.361 24.6816L109.319 25.0794ZM110.633 26.5125C110.593 26.896 110.372 27.2852 110.057 27.5697C109.742 27.8551 109.36 28.0117 109.015 27.9754L108.973 28.3733C109.464 28.4248 109.954 28.2025 110.326 27.8663C110.698 27.5292 110.978 27.054 111.031 26.5543L110.633 26.5125ZM109.015 27.9754C108.338 27.9043 107.826 27.1952 107.91 26.3953L107.512 26.3535C107.411 27.3199 108.027 28.2738 108.973 28.3733L109.015 27.9754ZM107.91 26.3953C107.994 25.5954 108.643 25.0083 109.319 25.0794L109.361 24.6816C108.415 24.5821 107.614 25.3871 107.512 26.3535L107.91 26.3953ZM109.079 27.3708C109.198 27.3833 109.316 27.339 109.409 27.288C109.508 27.2339 109.607 27.157 109.695 27.0682C109.868 26.8952 110.032 26.6456 110.06 26.3799L109.662 26.3381C109.647 26.4781 109.55 26.6475 109.412 26.7858C109.345 26.8526 109.277 26.9045 109.217 26.937C109.188 26.9532 109.163 26.9631 109.145 26.9684C109.125 26.9738 109.118 26.9727 109.12 26.973L109.079 27.3708ZM110.06 26.3799C110.087 26.12 109.906 25.9463 109.753 25.8526C109.594 25.7549 109.401 25.6993 109.256 25.6841L109.214 26.0819C109.308 26.0917 109.442 26.1309 109.544 26.1934C109.652 26.2597 109.665 26.3116 109.662 26.3381L110.06 26.3799ZM109.256 25.6841C109.062 25.6637 108.883 25.7701 108.761 25.9032C108.633 26.0416 108.538 26.2365 108.515 26.4589L108.913 26.5007C108.927 26.365 108.985 26.2502 109.055 26.1741C109.13 26.0926 109.193 26.0797 109.214 26.0819L109.256 25.6841ZM108.515 26.4589C108.491 26.6812 108.544 26.8916 108.64 27.0535C108.732 27.2091 108.885 27.3504 109.079 27.3708L109.12 26.973C109.1 26.9708 109.041 26.945 108.984 26.8497C108.931 26.7607 108.898 26.6363 108.913 26.5007L108.515 26.4589Z" fill="#EE7CC9" mask="url(#path-1-outside-1_2046_14693)"/>
<path d="M126.812 9.90155C128.683 11.3569 130.47 12.7019 131.422 14.9403C131.875 16.0082 132.107 17.077 132.229 18.2207M126 1.2207C128.85 3.10796 131.85 4.91125 134.215 7.41988C135.587 8.87443 136.721 10.5439 137.626 12.323C138.319 13.6859 139 15.0426 139 16.593" stroke="#F3AADB" stroke-width="2" stroke-linecap="round"/>
<path d="M14.1875 29.5399C12.3167 28.0846 10.5295 26.7395 9.57832 24.5011C9.12452 23.4332 8.89318 22.3644 8.77084 21.2207M15 38.2207C12.1503 36.3334 9.15011 34.5302 6.78472 32.0215C5.41323 30.567 4.2792 28.8975 3.37423 27.1185C2.68093 25.7555 2 24.3988 2 22.8484" stroke="#F3AADB" stroke-width="2" stroke-linecap="round"/>
</svg>
