<svg width="154" height="40" viewBox="0 0 154 40" fill="none" xmlns="http://www.w3.org/2000/svg">
<mask id="path-1-outside-1_424_7057" maskUnits="userSpaceOnUse" x="20.6811" y="3.09357" width="109.813" height="34.1631" fill="black">
<rect fill="white" x="20.6811" y="3.09357" width="109.813" height="34.1631"/>
<path d="M22.2417 17.3957C21.9364 17.3154 21.8547 16.9448 21.935 16.6395C22.2163 15.8003 22.8328 13.838 23.551 11.5968C24.4676 8.84557 25.3653 6.04407 25.7471 5.16717C26.0221 4.6169 26.3713 4.50881 26.6578 4.53892C27.1829 4.59411 27.4919 4.86791 27.7849 6.44316C28.02 7.65035 28.308 9.73186 28.6098 11.4528C29.0159 13.7881 29.2624 15.5756 29.4912 17.0718C29.5327 17.3657 29.3569 17.6609 29.058 17.7502C28.759 17.8394 28.3972 17.6083 28.3318 17.3119C28.0452 15.9062 27.7647 13.7531 27.4628 11.5736C27.234 10.0775 27.0164 8.70322 26.8454 7.57516C26.8177 7.3792 26.6379 6.10542 26.5914 5.85921L26.5198 5.85169C26.3641 6.4145 26.1657 6.92455 25.9786 7.55646C25.602 8.84414 25.0733 10.4296 24.6314 11.8793C23.937 14.123 23.2741 16.2976 22.9551 17.0364C22.8534 17.3152 22.5683 17.5025 22.2417 17.3957ZM32.9986 18.9849C32.4233 18.9485 32.3013 18.5013 32.2975 17.8493C32.2458 16.7338 32.1753 15.5681 32.1374 14.5505C32.097 13.5569 32.0303 12.5846 32.0792 11.8899C32.1093 11.6035 32.3731 11.3899 32.6595 11.42C32.9698 11.4526 33.1595 11.7138 33.201 12.0078C33.264 12.7866 33.3033 15.397 33.3122 16.0013C33.3173 16.4121 33.2961 17.3027 33.2584 17.6608L33.3062 17.6658C33.5297 17.3756 33.8714 16.8806 34.1652 16.3805C34.9941 14.9232 35.99 13.0249 36.6957 11.3615C36.8502 11.0399 37.2646 10.3113 37.9041 10.4267C39.2972 10.718 38.6865 17.2177 38.6375 17.4539C38.5572 17.7592 38.3864 18.0067 37.9806 17.964C37.6942 17.9339 37.5333 17.6274 37.5634 17.341C37.6688 16.3385 37.6497 14.9127 37.6609 13.659C37.6444 13.1264 37.6519 12.5963 37.6128 11.8199L37.5651 11.8149C37.4559 12.1654 37.113 12.9016 36.7991 13.5926C35.7103 15.9155 34.0538 19.0475 32.9986 18.9849ZM43.2025 19.3334C41.9325 19.2481 41.0944 18.2672 40.8267 17.3703C40.3553 15.6556 40.7006 14.437 41.1314 13.7825C41.6225 13.0136 42.3058 12.4821 43.1474 12.281C44.0656 12.0396 44.9701 12.1588 45.577 12.5846C46.2529 13.0417 46.6789 13.8105 46.8197 14.7664C46.8612 15.0604 46.6665 15.3054 46.3701 15.3708C45.9781 15.4261 45.7168 15.1573 45.6942 14.9136C45.5948 14.2516 45.4113 13.7014 44.959 13.4125C44.552 13.1526 44.0558 13.0521 43.434 13.2281C42.8385 13.3827 42.3135 13.786 42.0196 14.2861C41.6052 15.0147 41.5551 15.9506 41.8429 17.1151C41.9762 17.6841 42.3707 18.0635 42.8117 18.2305C43.5554 18.5017 44.5666 18.2943 45.4584 17.6158C45.6933 17.4474 46.1066 17.4184 46.3177 17.7061C46.5049 17.9912 46.3932 18.3656 46.1369 18.5076C45.2074 19.0856 44.1598 19.4098 43.2025 19.3334ZM54.3266 11.9115C54.5653 11.9366 54.8317 12.1576 54.7965 12.4918C54.7589 12.8498 54.5027 12.9918 54.2162 12.9617C53.7339 12.9593 52.9914 12.9054 52.1033 12.8603C52.003 14.2735 51.6267 17.8538 51.4536 19.5008C51.4235 19.7872 51.1597 20.0008 50.8256 19.9656C50.5153 19.933 50.3017 19.6693 50.3318 19.3828C50.4848 17.9269 50.8737 14.2272 50.9739 12.814C50.1574 12.7764 49.0708 12.7829 48.9037 12.7653C48.6172 12.7352 48.4037 12.4714 48.4262 12.2566C48.4513 12.0179 48.646 11.7729 48.9374 11.7553C50.7715 11.755 53.4435 11.8187 54.3266 11.9115ZM62.2759 20.4934C62.3676 20.7685 62.3752 21.1554 62.0712 21.2924C61.7145 21.4721 61.4243 21.2485 61.3175 21.1167C61.2107 20.9848 61.1164 20.7335 61.0222 20.4823L60.9744 20.4773C60.7458 20.8153 60.3791 21.0904 60.0726 21.2513C59.2586 21.6484 58.0777 21.4036 57.7297 21.2705C56.133 20.62 55.492 18.9117 56.2153 17.0812C56.7766 15.644 58.4963 15.1249 60.7099 15.6472C60.7149 15.5994 60.8278 14.5254 60.7863 14.2314C60.7686 13.94 60.408 13.4677 59.7811 13.2329C59.0826 12.9905 58.1819 13.0648 57.5288 13.7684C57.3128 13.987 56.8945 14.0637 56.6734 13.8715C56.4547 13.6555 56.4446 13.2924 56.6368 13.0713C57.6504 11.923 59.2332 12.0169 60.2131 12.3371C61.3099 12.6937 61.8765 13.5014 61.9181 14.2538C62.0087 15.2287 61.7277 17.9019 61.8272 19.0225C61.8838 19.6317 62.1414 20.1656 62.2759 20.4934ZM58.1668 20.327C59.2107 20.7263 60.3915 20.054 60.7645 19.4899C60.6111 18.6533 60.6737 17.5981 60.7 16.6597C59.901 16.4551 57.739 16.1313 57.2329 17.5019C56.7319 18.8248 57.1014 19.9013 58.1668 20.327ZM65.2469 21.409C64.7507 21.3086 64.5471 20.9493 64.591 20.3024C64.6197 19.3401 64.6435 18.8841 64.7325 17.8075C64.8516 15.986 65.0033 14.3127 65.1376 13.265C65.1677 12.9785 65.4314 12.7649 65.7895 12.8026C66.0759 12.8327 66.2845 13.1442 66.2782 13.4331C66.2181 14.4645 66.0575 15.9921 65.8819 17.6629C65.813 18.5485 65.7139 19.262 65.621 20.1452L65.6926 20.1527C65.969 19.8198 66.4977 19.1514 66.9235 18.5446C67.883 17.2216 69.0071 15.4816 69.7643 14.0167C69.9138 13.7428 70.3207 13.0858 70.9526 13.2728C72.2566 13.7236 71.0605 20.741 71.0091 21.0011C70.9551 21.285 70.6863 21.5463 70.2856 21.4559C70.0017 21.402 69.8458 21.0477 69.8998 20.7638C70.0718 19.8166 70.2549 18.0742 70.4029 16.666C70.4706 16.0215 70.4982 15.3004 70.5295 14.7728L70.4579 14.7653C70.2482 15.1535 69.8815 15.8872 69.5034 16.499C68.289 18.6398 66.0748 21.5684 65.2469 21.409ZM67.9575 11.4618C67.2653 11.3891 66.5668 11.1467 65.9725 10.6016C65.7514 10.4095 65.7199 10.0201 65.931 9.84917C66.142 9.67829 66.5 9.71593 66.6973 9.90558C67.6835 10.8539 69.603 10.5006 70.4182 9.86229C70.6819 9.64869 71.0023 9.58583 71.2448 9.80437C71.4634 10.0204 71.3227 10.44 71.1356 10.6134C70.495 11.1976 69.1987 11.5923 67.9575 11.4618ZM83.2629 23.5197C83.0908 23.5499 82.5394 23.5161 81.974 23.3843C81.1034 23.1721 80.3635 22.6358 79.9852 21.8721C79.3871 20.675 79.2901 19.0721 79.7647 17.7706C80.0849 16.7907 80.743 16.0394 81.4779 15.7064C82.6674 15.1798 84.0418 15.4208 84.9425 15.8051C85.082 15.6266 85.293 15.4558 85.5932 15.5839C85.803 15.6542 85.9928 15.9154 85.9627 16.2019C85.9551 16.2735 85.5276 21.4893 85.49 21.8474L85.559 21.8788C85.6143 21.8122 85.7173 21.7506 85.7726 21.684C85.9308 21.5559 86.2487 21.5169 86.4623 21.7806C86.652 22.0419 86.5 22.3397 86.3606 22.5181C86.3054 22.5846 85.6937 23.1237 85.5618 23.2305C85.5217 24.0709 85.5181 24.7945 85.5181 25.253C85.5978 28.857 84.7049 30.6938 83.4765 31.361C83.0381 31.6287 82.3711 31.7757 81.7266 31.708C81.3209 31.6654 80.9201 31.575 80.5796 31.3703C79.8535 30.932 79.1436 30.1093 79.441 28.4271C79.7184 26.936 80.8124 25.9409 81.9768 24.736C82.3511 24.3892 82.91 23.8929 83.3057 23.5725L83.2629 23.5197ZM82.9023 22.5889C83.5467 22.6567 84.1849 22.5548 84.4197 22.3865C84.5325 20.3953 84.6615 18.0198 84.7844 16.8503C84.3321 16.5614 83.0206 16.1822 81.9793 16.6761C81.3449 16.9714 80.9619 17.631 80.7873 18.1435C80.4358 19.1925 80.5578 20.5568 81.019 21.4499C81.357 22.137 82.2578 22.5212 82.9023 22.5889ZM82.8269 30.424C83.6458 29.9792 84.4483 28.5432 84.4378 25.429C84.4516 25.0685 84.4602 24.2972 84.4627 23.8148L84.3672 23.8047C83.9113 24.2395 83.3209 24.8048 82.9416 25.1994C81.403 26.751 80.76 27.8177 80.6006 28.6455C80.4612 29.2825 80.6033 29.9972 81.2101 30.423C81.7051 30.7646 82.391 30.6678 82.8269 30.424ZM94.697 23.901C94.7887 24.1761 94.7963 24.563 94.4923 24.7C94.1356 24.8797 93.8454 24.6561 93.7386 24.5243C93.6318 24.3924 93.5375 24.1411 93.4433 23.8899L93.3955 23.8849C93.1669 24.2229 92.8002 24.498 92.4937 24.6589C91.6797 25.056 90.4988 24.8112 90.1508 24.6781C88.5541 24.0276 87.9131 22.3193 88.6364 20.4888C89.1977 19.0516 90.9174 18.5325 93.131 19.0548C93.136 19.007 93.2489 17.933 93.2074 17.639C93.1897 17.3476 92.8291 16.8753 92.2022 16.6405C91.5037 16.3981 90.603 16.4724 89.9499 17.176C89.7339 17.3946 89.3156 17.4713 89.0945 17.2791C88.8758 17.0631 88.8657 16.7 89.0579 16.4789C90.0715 15.3306 91.6543 15.4245 92.6342 15.7447C93.731 16.1013 94.2976 16.909 94.3392 17.6614C94.4298 18.6363 94.1489 21.3095 94.2483 22.4301C94.3049 23.0393 94.5625 23.5732 94.697 23.901ZM90.5879 23.7346C91.6318 24.1339 92.8126 23.4616 93.1856 22.8975C93.0322 22.0609 93.0948 21.0057 93.1211 20.0673C92.3221 19.8627 90.1601 19.5389 89.654 20.9095C89.153 22.2324 89.5225 23.3089 90.5879 23.7346ZM100.491 17.7047C100.897 17.7473 101.211 17.9734 101.311 18.3942C101.39 18.7887 102.217 24.4742 102.293 24.8925C102.359 25.1889 102.25 25.5395 101.884 25.5734C101.569 25.5886 101.369 25.4228 101.261 25.0735C101.136 24.6502 100.739 21.5437 100.606 20.5161C100.514 19.7825 100.45 19.2448 100.385 18.7072L100.338 18.7022C100.104 19.0879 99.7425 19.7738 99.3833 20.4359C98.5783 21.8957 97.5322 23.8129 97.2132 24.5516C97.1404 24.7853 96.8075 24.9675 96.5311 24.8419C96.2334 24.6899 96.2421 24.3771 96.3124 24.1673C96.7481 23.0065 98.7651 19.4298 99.4081 18.3631C99.6706 17.9322 100.013 17.6545 100.491 17.7047ZM106.314 25.8701C104.978 25.7297 104.574 25.2046 104.559 24.4308C104.569 22.9598 105.206 18.2727 105.206 18.2727C105.236 17.9863 105.524 17.7752 105.81 17.8053C106.097 17.8354 106.289 18.0728 106.275 18.4333C106.235 18.8152 106.024 20.3617 105.963 20.7172C105.963 20.7172 106.367 20.5425 106.757 20.511C107.414 20.4594 108.003 20.5938 108.546 20.9404C109.565 21.5784 109.972 22.7554 109.598 24.0192C109.219 25.3308 107.675 26.0131 106.314 25.8701ZM105.85 21.7913C105.752 22.7221 105.57 23.7648 105.627 24.3741C105.663 24.7158 106.181 24.8426 106.42 24.8677C107.303 24.9605 108.477 24.5772 108.682 23.7782C108.894 22.9076 108.654 22.2066 107.999 21.7759C107.321 21.3426 106.497 21.3766 105.85 21.7913ZM120.21 26.4378C120.307 26.6651 120.269 27.0232 120.039 27.1438C119.783 27.2858 119.485 27.1338 119.379 27.0019C119.315 26.9228 119.239 26.7218 119.204 26.5975L119.132 26.5899C118.696 26.8337 118.014 27.124 117.203 27.0387C117.084 27.0262 116.2 26.9333 115.619 26.2689L115.547 26.2614C114.969 26.7074 114.033 26.6573 113.747 26.6272C112.983 26.5469 112.204 26.1514 111.859 25.0773C111.456 23.8526 111.94 20.8627 112.119 20.3024C112.197 20.021 112.485 19.8099 112.792 19.8664C113.098 19.9468 113.264 20.2055 113.207 20.5133C113.002 21.3123 112.596 23.8034 112.899 24.8247C113.004 25.1978 113.332 25.9803 115.174 25.4499C115.125 25.2276 115.111 25.1296 115.098 24.7904C115.079 23.8231 115.21 22.582 115.802 20.6171C115.875 20.3835 116.163 20.1724 116.447 20.2264C116.776 20.3092 116.915 20.5893 116.835 20.8946C116.406 22.6835 116.101 23.9787 116.145 24.7073C116.15 25.1181 116.287 25.8806 117.046 26.0086C117.993 26.1806 118.635 25.8137 118.939 25.6767C118.925 24.6617 119.355 21.256 119.433 20.9746C119.54 20.648 119.751 20.4771 120.037 20.5072C120.347 20.5398 120.537 20.8011 120.483 21.085C120.422 21.4405 119.793 25.3562 120.21 26.4378ZM125.169 27.8518C123.925 27.7453 122.891 26.792 122.655 25.826C122.189 24.0636 122.72 22.9128 123.201 22.2394C123.763 21.478 124.702 21.0457 125.7 20.9576C127.205 20.8745 128.406 21.8454 128.786 22.8264C128.991 23.403 128.888 23.9231 128.566 24.2271C127.974 24.8164 125.315 25.3092 123.763 25.3874C123.74 26.0607 124.475 26.6447 124.826 26.754C125.646 26.985 126.552 26.863 127.455 26.3063C127.687 26.1618 128.05 26.1517 128.266 26.3916C128.435 26.6265 128.368 27.0298 128.112 27.1718C127.183 27.7498 126.15 27.9308 125.169 27.8518ZM125.714 21.9727C125.057 22.0243 124.447 22.3221 124.081 22.8146C123.824 23.1978 123.642 23.7819 123.629 24.3598C124.804 24.435 127.014 23.8467 127.632 23.4773C127.708 23.4371 127.747 23.2964 127.709 23.1959C127.65 23.069 127.572 22.8919 127.444 22.7337C127.041 22.2086 126.443 21.9286 125.714 21.9727Z"/>
</mask>
<path d="M22.2417 17.3957C21.9364 17.3154 21.8547 16.9448 21.935 16.6395C22.2163 15.8003 22.8328 13.838 23.551 11.5968C24.4676 8.84557 25.3653 6.04407 25.7471 5.16717C26.0221 4.6169 26.3713 4.50881 26.6578 4.53892C27.1829 4.59411 27.4919 4.86791 27.7849 6.44316C28.02 7.65035 28.308 9.73186 28.6098 11.4528C29.0159 13.7881 29.2624 15.5756 29.4912 17.0718C29.5327 17.3657 29.3569 17.6609 29.058 17.7502C28.759 17.8394 28.3972 17.6083 28.3318 17.3119C28.0452 15.9062 27.7647 13.7531 27.4628 11.5736C27.234 10.0775 27.0164 8.70322 26.8454 7.57516C26.8177 7.3792 26.6379 6.10542 26.5914 5.85921L26.5198 5.85169C26.3641 6.4145 26.1657 6.92455 25.9786 7.55646C25.602 8.84414 25.0733 10.4296 24.6314 11.8793C23.937 14.123 23.2741 16.2976 22.9551 17.0364C22.8534 17.3152 22.5683 17.5025 22.2417 17.3957ZM32.9986 18.9849C32.4233 18.9485 32.3013 18.5013 32.2975 17.8493C32.2458 16.7338 32.1753 15.5681 32.1374 14.5505C32.097 13.5569 32.0303 12.5846 32.0792 11.8899C32.1093 11.6035 32.3731 11.3899 32.6595 11.42C32.9698 11.4526 33.1595 11.7138 33.201 12.0078C33.264 12.7866 33.3033 15.397 33.3122 16.0013C33.3173 16.4121 33.2961 17.3027 33.2584 17.6608L33.3062 17.6658C33.5297 17.3756 33.8714 16.8806 34.1652 16.3805C34.9941 14.9232 35.99 13.0249 36.6957 11.3615C36.8502 11.0399 37.2646 10.3113 37.9041 10.4267C39.2972 10.718 38.6865 17.2177 38.6375 17.4539C38.5572 17.7592 38.3864 18.0067 37.9806 17.964C37.6942 17.9339 37.5333 17.6274 37.5634 17.341C37.6688 16.3385 37.6497 14.9127 37.6609 13.659C37.6444 13.1264 37.6519 12.5963 37.6128 11.8199L37.5651 11.8149C37.4559 12.1654 37.113 12.9016 36.7991 13.5926C35.7103 15.9155 34.0538 19.0475 32.9986 18.9849ZM43.2025 19.3334C41.9325 19.2481 41.0944 18.2672 40.8267 17.3703C40.3553 15.6556 40.7006 14.437 41.1314 13.7825C41.6225 13.0136 42.3058 12.4821 43.1474 12.281C44.0656 12.0396 44.9701 12.1588 45.577 12.5846C46.2529 13.0417 46.6789 13.8105 46.8197 14.7664C46.8612 15.0604 46.6665 15.3054 46.3701 15.3708C45.9781 15.4261 45.7168 15.1573 45.6942 14.9136C45.5948 14.2516 45.4113 13.7014 44.959 13.4125C44.552 13.1526 44.0558 13.0521 43.434 13.2281C42.8385 13.3827 42.3135 13.786 42.0196 14.2861C41.6052 15.0147 41.5551 15.9506 41.8429 17.1151C41.9762 17.6841 42.3707 18.0635 42.8117 18.2305C43.5554 18.5017 44.5666 18.2943 45.4584 17.6158C45.6933 17.4474 46.1066 17.4184 46.3177 17.7061C46.5049 17.9912 46.3932 18.3656 46.1369 18.5076C45.2074 19.0856 44.1598 19.4098 43.2025 19.3334ZM54.3266 11.9115C54.5653 11.9366 54.8317 12.1576 54.7965 12.4918C54.7589 12.8498 54.5027 12.9918 54.2162 12.9617C53.7339 12.9593 52.9914 12.9054 52.1033 12.8603C52.003 14.2735 51.6267 17.8538 51.4536 19.5008C51.4235 19.7872 51.1597 20.0008 50.8256 19.9656C50.5153 19.933 50.3017 19.6693 50.3318 19.3828C50.4848 17.9269 50.8737 14.2272 50.9739 12.814C50.1574 12.7764 49.0708 12.7829 48.9037 12.7653C48.6172 12.7352 48.4037 12.4714 48.4262 12.2566C48.4513 12.0179 48.646 11.7729 48.9374 11.7553C50.7715 11.755 53.4435 11.8187 54.3266 11.9115ZM62.2759 20.4934C62.3676 20.7685 62.3752 21.1554 62.0712 21.2924C61.7145 21.4721 61.4243 21.2485 61.3175 21.1167C61.2107 20.9848 61.1164 20.7335 61.0222 20.4823L60.9744 20.4773C60.7458 20.8153 60.3791 21.0904 60.0726 21.2513C59.2586 21.6484 58.0777 21.4036 57.7297 21.2705C56.133 20.62 55.492 18.9117 56.2153 17.0812C56.7766 15.644 58.4963 15.1249 60.7099 15.6472C60.7149 15.5994 60.8278 14.5254 60.7863 14.2314C60.7686 13.94 60.408 13.4677 59.7811 13.2329C59.0826 12.9905 58.1819 13.0648 57.5288 13.7684C57.3128 13.987 56.8945 14.0637 56.6734 13.8715C56.4547 13.6555 56.4446 13.2924 56.6368 13.0713C57.6504 11.923 59.2332 12.0169 60.2131 12.3371C61.3099 12.6937 61.8765 13.5014 61.9181 14.2538C62.0087 15.2287 61.7277 17.9019 61.8272 19.0225C61.8838 19.6317 62.1414 20.1656 62.2759 20.4934ZM58.1668 20.327C59.2107 20.7263 60.3915 20.054 60.7645 19.4899C60.6111 18.6533 60.6737 17.5981 60.7 16.6597C59.901 16.4551 57.739 16.1313 57.2329 17.5019C56.7319 18.8248 57.1014 19.9013 58.1668 20.327ZM65.2469 21.409C64.7507 21.3086 64.5471 20.9493 64.591 20.3024C64.6197 19.3401 64.6435 18.8841 64.7325 17.8075C64.8516 15.986 65.0033 14.3127 65.1376 13.265C65.1677 12.9785 65.4314 12.7649 65.7895 12.8026C66.0759 12.8327 66.2845 13.1442 66.2782 13.4331C66.2181 14.4645 66.0575 15.9921 65.8819 17.6629C65.813 18.5485 65.7139 19.262 65.621 20.1452L65.6926 20.1527C65.969 19.8198 66.4977 19.1514 66.9235 18.5446C67.883 17.2216 69.0071 15.4816 69.7643 14.0167C69.9138 13.7428 70.3207 13.0858 70.9526 13.2728C72.2566 13.7236 71.0605 20.741 71.0091 21.0011C70.9551 21.285 70.6863 21.5463 70.2856 21.4559C70.0017 21.402 69.8458 21.0477 69.8998 20.7638C70.0718 19.8166 70.2549 18.0742 70.4029 16.666C70.4706 16.0215 70.4982 15.3004 70.5295 14.7728L70.4579 14.7653C70.2482 15.1535 69.8815 15.8872 69.5034 16.499C68.289 18.6398 66.0748 21.5684 65.2469 21.409ZM67.9575 11.4618C67.2653 11.3891 66.5668 11.1467 65.9725 10.6016C65.7514 10.4095 65.7199 10.0201 65.931 9.84917C66.142 9.67829 66.5 9.71593 66.6973 9.90558C67.6835 10.8539 69.603 10.5006 70.4182 9.86229C70.6819 9.64869 71.0023 9.58583 71.2448 9.80437C71.4634 10.0204 71.3227 10.44 71.1356 10.6134C70.495 11.1976 69.1987 11.5923 67.9575 11.4618ZM83.2629 23.5197C83.0908 23.5499 82.5394 23.5161 81.974 23.3843C81.1034 23.1721 80.3635 22.6358 79.9852 21.8721C79.3871 20.675 79.2901 19.0721 79.7647 17.7706C80.0849 16.7907 80.743 16.0394 81.4779 15.7064C82.6674 15.1798 84.0418 15.4208 84.9425 15.8051C85.082 15.6266 85.293 15.4558 85.5932 15.5839C85.803 15.6542 85.9928 15.9154 85.9627 16.2019C85.9551 16.2735 85.5276 21.4893 85.49 21.8474L85.559 21.8788C85.6143 21.8122 85.7173 21.7506 85.7726 21.684C85.9308 21.5559 86.2487 21.5169 86.4623 21.7806C86.652 22.0419 86.5 22.3397 86.3606 22.5181C86.3054 22.5846 85.6937 23.1237 85.5618 23.2305C85.5217 24.0709 85.5181 24.7945 85.5181 25.253C85.5978 28.857 84.7049 30.6938 83.4765 31.361C83.0381 31.6287 82.3711 31.7757 81.7266 31.708C81.3209 31.6654 80.9201 31.575 80.5796 31.3703C79.8535 30.932 79.1436 30.1093 79.441 28.4271C79.7184 26.936 80.8124 25.9409 81.9768 24.736C82.3511 24.3892 82.91 23.8929 83.3057 23.5725L83.2629 23.5197ZM82.9023 22.5889C83.5467 22.6567 84.1849 22.5548 84.4197 22.3865C84.5325 20.3953 84.6615 18.0198 84.7844 16.8503C84.3321 16.5614 83.0206 16.1822 81.9793 16.6761C81.3449 16.9714 80.9619 17.631 80.7873 18.1435C80.4358 19.1925 80.5578 20.5568 81.019 21.4499C81.357 22.137 82.2578 22.5212 82.9023 22.5889ZM82.8269 30.424C83.6458 29.9792 84.4483 28.5432 84.4378 25.429C84.4516 25.0685 84.4602 24.2972 84.4627 23.8148L84.3672 23.8047C83.9113 24.2395 83.3209 24.8048 82.9416 25.1994C81.403 26.751 80.76 27.8177 80.6006 28.6455C80.4612 29.2825 80.6033 29.9972 81.2101 30.423C81.7051 30.7646 82.391 30.6678 82.8269 30.424ZM94.697 23.901C94.7887 24.1761 94.7963 24.563 94.4923 24.7C94.1356 24.8797 93.8454 24.6561 93.7386 24.5243C93.6318 24.3924 93.5375 24.1411 93.4433 23.8899L93.3955 23.8849C93.1669 24.2229 92.8002 24.498 92.4937 24.6589C91.6797 25.056 90.4988 24.8112 90.1508 24.6781C88.5541 24.0276 87.9131 22.3193 88.6364 20.4888C89.1977 19.0516 90.9174 18.5325 93.131 19.0548C93.136 19.007 93.2489 17.933 93.2074 17.639C93.1897 17.3476 92.8291 16.8753 92.2022 16.6405C91.5037 16.3981 90.603 16.4724 89.9499 17.176C89.7339 17.3946 89.3156 17.4713 89.0945 17.2791C88.8758 17.0631 88.8657 16.7 89.0579 16.4789C90.0715 15.3306 91.6543 15.4245 92.6342 15.7447C93.731 16.1013 94.2976 16.909 94.3392 17.6614C94.4298 18.6363 94.1489 21.3095 94.2483 22.4301C94.3049 23.0393 94.5625 23.5732 94.697 23.901ZM90.5879 23.7346C91.6318 24.1339 92.8126 23.4616 93.1856 22.8975C93.0322 22.0609 93.0948 21.0057 93.1211 20.0673C92.3221 19.8627 90.1601 19.5389 89.654 20.9095C89.153 22.2324 89.5225 23.3089 90.5879 23.7346ZM100.491 17.7047C100.897 17.7473 101.211 17.9734 101.311 18.3942C101.39 18.7887 102.217 24.4742 102.293 24.8925C102.359 25.1889 102.25 25.5395 101.884 25.5734C101.569 25.5886 101.369 25.4228 101.261 25.0735C101.136 24.6502 100.739 21.5437 100.606 20.5161C100.514 19.7825 100.45 19.2448 100.385 18.7072L100.338 18.7022C100.104 19.0879 99.7425 19.7738 99.3833 20.4359C98.5783 21.8957 97.5322 23.8129 97.2132 24.5516C97.1404 24.7853 96.8075 24.9675 96.5311 24.8419C96.2334 24.6899 96.2421 24.3771 96.3124 24.1673C96.7481 23.0065 98.7651 19.4298 99.4081 18.3631C99.6706 17.9322 100.013 17.6545 100.491 17.7047ZM106.314 25.8701C104.978 25.7297 104.574 25.2046 104.559 24.4308C104.569 22.9598 105.206 18.2727 105.206 18.2727C105.236 17.9863 105.524 17.7752 105.81 17.8053C106.097 17.8354 106.289 18.0728 106.275 18.4333C106.235 18.8152 106.024 20.3617 105.963 20.7172C105.963 20.7172 106.367 20.5425 106.757 20.511C107.414 20.4594 108.003 20.5938 108.546 20.9404C109.565 21.5784 109.972 22.7554 109.598 24.0192C109.219 25.3308 107.675 26.0131 106.314 25.8701ZM105.85 21.7913C105.752 22.7221 105.57 23.7648 105.627 24.3741C105.663 24.7158 106.181 24.8426 106.42 24.8677C107.303 24.9605 108.477 24.5772 108.682 23.7782C108.894 22.9076 108.654 22.2066 107.999 21.7759C107.321 21.3426 106.497 21.3766 105.85 21.7913ZM120.21 26.4378C120.307 26.6651 120.269 27.0232 120.039 27.1438C119.783 27.2858 119.485 27.1338 119.379 27.0019C119.315 26.9228 119.239 26.7218 119.204 26.5975L119.132 26.5899C118.696 26.8337 118.014 27.124 117.203 27.0387C117.084 27.0262 116.2 26.9333 115.619 26.2689L115.547 26.2614C114.969 26.7074 114.033 26.6573 113.747 26.6272C112.983 26.5469 112.204 26.1514 111.859 25.0773C111.456 23.8526 111.94 20.8627 112.119 20.3024C112.197 20.021 112.485 19.8099 112.792 19.8664C113.098 19.9468 113.264 20.2055 113.207 20.5133C113.002 21.3123 112.596 23.8034 112.899 24.8247C113.004 25.1978 113.332 25.9803 115.174 25.4499C115.125 25.2276 115.111 25.1296 115.098 24.7904C115.079 23.8231 115.21 22.582 115.802 20.6171C115.875 20.3835 116.163 20.1724 116.447 20.2264C116.776 20.3092 116.915 20.5893 116.835 20.8946C116.406 22.6835 116.101 23.9787 116.145 24.7073C116.15 25.1181 116.287 25.8806 117.046 26.0086C117.993 26.1806 118.635 25.8137 118.939 25.6767C118.925 24.6617 119.355 21.256 119.433 20.9746C119.54 20.648 119.751 20.4771 120.037 20.5072C120.347 20.5398 120.537 20.8011 120.483 21.085C120.422 21.4405 119.793 25.3562 120.21 26.4378ZM125.169 27.8518C123.925 27.7453 122.891 26.792 122.655 25.826C122.189 24.0636 122.72 22.9128 123.201 22.2394C123.763 21.478 124.702 21.0457 125.7 20.9576C127.205 20.8745 128.406 21.8454 128.786 22.8264C128.991 23.403 128.888 23.9231 128.566 24.2271C127.974 24.8164 125.315 25.3092 123.763 25.3874C123.74 26.0607 124.475 26.6447 124.826 26.754C125.646 26.985 126.552 26.863 127.455 26.3063C127.687 26.1618 128.05 26.1517 128.266 26.3916C128.435 26.6265 128.368 27.0298 128.112 27.1718C127.183 27.7498 126.15 27.9308 125.169 27.8518ZM125.714 21.9727C125.057 22.0243 124.447 22.3221 124.081 22.8146C123.824 23.1978 123.642 23.7819 123.629 24.3598C124.804 24.435 127.014 23.8467 127.632 23.4773C127.708 23.4371 127.747 23.2964 127.709 23.1959C127.65 23.069 127.572 22.8919 127.444 22.7337C127.041 22.2086 126.443 21.9286 125.714 21.9727Z" fill="#F3AADB"/>
<path d="M22.2417 17.3957L22.3039 17.2053L22.2926 17.2023L22.2417 17.3957ZM21.935 16.6395L21.745 16.5759L21.7416 16.5886L21.935 16.6395ZM23.551 11.5968L23.3612 11.5336L23.3605 11.5358L23.551 11.5968ZM25.7471 5.16717L25.568 5.07763L25.5637 5.08734L25.7471 5.16717ZM27.7849 6.44316L27.5883 6.47973L27.5886 6.4814L27.7849 6.44316ZM28.6098 11.4528L28.8068 11.4186L28.8067 11.4183L28.6098 11.4528ZM29.4912 17.0718L29.6893 17.0438L29.6889 17.0415L29.4912 17.0718ZM28.3318 17.3119L28.1358 17.3518L28.1365 17.3549L28.3318 17.3119ZM27.4628 11.5736L27.661 11.5462L27.6605 11.5434L27.4628 11.5736ZM26.8454 7.57516L26.6474 7.60313L26.6477 7.60514L26.8454 7.57516ZM26.5914 5.85921L26.7879 5.82208L26.7603 5.67586L26.6123 5.66031L26.5914 5.85921ZM26.5198 5.85169L26.5407 5.65278L26.3722 5.63507L26.327 5.79836L26.5198 5.85169ZM25.9786 7.55646L25.7868 7.49968L25.7867 7.50031L25.9786 7.55646ZM24.6314 11.8793L24.8224 11.9384L24.8227 11.9376L24.6314 11.8793ZM22.9551 17.0364L22.7712 16.9569L22.7672 16.9678L22.9551 17.0364ZM22.2926 17.2023C22.219 17.183 22.165 17.1301 22.1328 17.0368C22.0992 16.9392 22.0967 16.8112 22.1284 16.6905L21.7416 16.5886C21.6931 16.7731 21.6912 16.9831 21.7547 17.1672C21.8196 17.3556 21.9591 17.5282 22.1908 17.5892L22.2926 17.2023ZM22.1247 16.7031C22.4065 15.8623 23.0241 13.8965 23.7414 11.6579L23.3605 11.5358C22.6415 13.7796 22.0261 15.7384 21.7454 16.576L22.1247 16.7031ZM23.7407 11.6601C24.6608 8.89842 25.5535 6.11302 25.9305 5.247L25.5637 5.08734C25.1772 5.97512 24.2744 8.79273 23.3612 11.5336L23.7407 11.6601ZM25.926 5.25658C26.0509 5.00678 26.1832 4.87582 26.2991 4.80807C26.4136 4.74116 26.5282 4.72641 26.6369 4.73782L26.6787 4.34001C26.5009 4.32132 26.2977 4.34556 26.0972 4.46273C25.8982 4.57907 25.7184 4.77729 25.5682 5.07775L25.926 5.25658ZM26.6369 4.73782C26.7537 4.7501 26.8431 4.77308 26.9191 4.81417C26.9933 4.85428 27.067 4.9183 27.1414 5.03112C27.2969 5.26689 27.4421 5.69372 27.5883 6.47973L27.9815 6.4066C27.8347 5.61736 27.6789 5.11966 27.4754 4.81092C27.3702 4.65148 27.2499 4.53825 27.1093 4.46227C26.9705 4.38727 26.8244 4.35533 26.6787 4.34001L26.6369 4.73782ZM27.5886 6.4814C27.8241 7.69061 28.1081 9.75004 28.4128 11.4874L28.8067 11.4183C28.5079 9.71368 28.2159 7.6101 27.9812 6.40493L27.5886 6.4814ZM28.4127 11.4871C28.8184 13.8197 29.0642 15.6028 29.2935 17.102L29.6889 17.0415C29.4605 15.5484 29.2134 13.7565 28.8068 11.4186L28.4127 11.4871ZM29.2932 17.0997C29.3214 17.2996 29.2012 17.4987 29.0008 17.5585L29.1152 17.9418C29.5127 17.8232 29.7441 17.4318 29.6893 17.0438L29.2932 17.0997ZM29.0008 17.5585C28.918 17.5832 28.8116 17.5665 28.7121 17.5053C28.6122 17.4439 28.5458 17.3536 28.5271 17.2688L28.1365 17.3549C28.1832 17.5666 28.3303 17.7401 28.5025 17.846C28.675 17.9521 28.8989 18.0064 29.1152 17.9418L29.0008 17.5585ZM28.5278 17.2719C28.2428 15.8744 27.9635 13.7306 27.661 11.5462L27.2647 11.601C27.5659 13.7756 27.8475 15.9381 28.1358 17.3518L28.5278 17.2719ZM27.6605 11.5434C27.4313 10.0447 27.2143 8.67418 27.0432 7.54519L26.6477 7.60514C26.8186 8.73226 27.0367 10.1103 27.2651 11.6039L27.6605 11.5434ZM27.0435 7.5472C27.0164 7.35543 26.8356 6.0743 26.7879 5.82208L26.3949 5.89634C26.4402 6.13655 26.6191 7.40297 26.6474 7.60312L27.0435 7.5472ZM26.6123 5.66031L26.5407 5.65278L26.4989 6.05059L26.5705 6.05812L26.6123 5.66031ZM26.327 5.79836C26.2507 6.07414 26.1638 6.33785 26.0713 6.61482C25.9791 6.89076 25.8816 7.17976 25.7868 7.49968L26.1704 7.61323C26.2628 7.30125 26.3579 7.01927 26.4507 6.74151C26.5431 6.46477 26.6331 6.19204 26.7125 5.90501L26.327 5.79836ZM25.7867 7.50031C25.4095 8.78954 24.8852 10.3609 24.4401 11.821L24.8227 11.9376C25.2615 10.4982 25.7944 8.89874 26.1706 7.61261L25.7867 7.50031ZM24.4403 11.8202C23.7431 14.0733 23.0849 16.2314 22.7715 16.9571L23.1388 17.1156C23.4633 16.3639 24.131 14.1727 24.8224 11.9384L24.4403 11.8202ZM22.7672 16.9678C22.6962 17.1626 22.5114 17.2735 22.3038 17.2056L22.1795 17.5858C22.6252 17.7315 23.0107 17.4679 23.143 17.1049L22.7672 16.9678ZM32.9986 18.9849L32.986 19.1845L32.9868 19.1845L32.9986 18.9849ZM32.2975 17.8493L32.4976 17.8482L32.4972 17.8401L32.2975 17.8493ZM32.1374 14.5505L32.3373 14.5431L32.3372 14.5424L32.1374 14.5505ZM32.0792 11.8899L31.8802 11.869L31.8797 11.8758L32.0792 11.8899ZM33.201 12.0078L33.4007 11.9917L33.3991 11.9798L33.201 12.0078ZM33.3122 16.0013L33.5122 15.9988L33.5122 15.9983L33.3122 16.0013ZM33.2584 17.6608L33.0595 17.6399L33.0386 17.8388L33.2375 17.8597L33.2584 17.6608ZM33.3062 17.6658L33.2853 17.8647L33.3964 17.8764L33.4646 17.7878L33.3062 17.6658ZM34.1652 16.3805L34.3377 16.4819L34.3391 16.4794L34.1652 16.3805ZM36.6957 11.3615L36.5152 11.2749L36.5116 11.2834L36.6957 11.3615ZM37.9041 10.4267L37.945 10.2309L37.9396 10.2299L37.9041 10.4267ZM38.6375 17.4539L38.8312 17.5049L38.8334 17.4945L38.6375 17.4539ZM37.6609 13.659L37.861 13.6608L37.8608 13.6529L37.6609 13.659ZM37.6128 11.8199L37.8126 11.8099L37.804 11.6389L37.6337 11.621L37.6128 11.8199ZM37.5651 11.8149L37.586 11.616L37.4229 11.5989L37.3741 11.7554L37.5651 11.8149ZM36.7991 13.5926L36.9802 13.6775L36.9812 13.6753L36.7991 13.5926ZM33.0112 18.7853C32.8928 18.7778 32.8108 18.7501 32.7522 18.7137C32.6944 18.678 32.6483 18.6272 32.6112 18.5557C32.532 18.4034 32.4994 18.1708 32.4975 17.8482L32.0975 17.8505C32.0994 18.1798 32.1297 18.4968 32.2563 18.7402C32.322 18.8666 32.4145 18.9751 32.5416 19.0538C32.6677 19.1319 32.8168 19.1738 32.986 19.1845L33.0112 18.7853ZM32.4972 17.8401C32.4453 16.7197 32.3751 15.5602 32.3373 14.5431L31.9375 14.558C31.9754 15.5759 32.0462 16.748 32.0977 17.8586L32.4972 17.8401ZM32.3372 14.5424C32.2964 13.5372 32.2309 12.584 32.2787 11.9039L31.8797 11.8758C31.8298 12.5852 31.8977 13.5766 31.9376 14.5587L32.3372 14.5424ZM32.2781 11.9108C32.2967 11.7342 32.462 11.6003 32.6386 11.6189L32.6804 11.2211C32.2841 11.1794 31.9219 11.4727 31.8803 11.869L32.2781 11.9108ZM32.6386 11.6189C32.8285 11.6388 32.9697 11.8 33.003 12.0357L33.3991 11.9798C33.3493 11.6277 33.1111 11.2663 32.6804 11.2211L32.6386 11.6189ZM33.0017 12.0239C33.0639 12.7942 33.1033 15.3952 33.1122 16.0042L33.5122 15.9983C33.5034 15.3989 33.464 12.779 33.4004 11.9917L33.0017 12.0239ZM33.1122 16.0038C33.1173 16.4119 33.0959 17.2934 33.0595 17.6399L33.4573 17.6817C33.4962 17.3121 33.5173 16.4123 33.5122 15.9988L33.1122 16.0038ZM33.2375 17.8597L33.2853 17.8647L33.3271 17.4669L33.2793 17.4619L33.2375 17.8597ZM33.4646 17.7878C33.6933 17.4909 34.0396 16.989 34.3377 16.4819L33.9928 16.2792C33.7031 16.7721 33.3661 17.2602 33.1477 17.5437L33.4646 17.7878ZM34.3391 16.4794C35.17 15.0185 36.1699 13.1128 36.8798 11.4397L36.5116 11.2834C35.81 12.937 34.8182 14.8279 33.9914 16.2817L34.3391 16.4794ZM36.876 11.4481C36.9501 11.2938 37.0811 11.0545 37.2612 10.8699C37.4409 10.6856 37.6413 10.5825 37.8685 10.6235L37.9396 10.2299C37.5274 10.1555 37.2008 10.3589 36.9749 10.5906C36.7492 10.8219 36.5958 11.1077 36.5154 11.275L36.876 11.4481ZM37.8631 10.6225C37.9572 10.6422 38.0606 10.7191 38.1635 10.9011C38.2656 11.0815 38.3505 11.3376 38.4176 11.6556C38.5513 12.29 38.604 13.1213 38.6116 13.9628C38.6192 14.8017 38.5821 15.6402 38.5399 16.2841C38.5188 16.606 38.4966 16.8786 38.4781 17.0776C38.4688 17.1771 38.4606 17.2579 38.4539 17.3169C38.4506 17.3465 38.4477 17.37 38.4454 17.3875C38.4428 17.407 38.4416 17.4139 38.4417 17.4133L38.8334 17.4945C38.8423 17.4512 38.8582 17.31 38.8764 17.1146C38.8952 16.9118 38.9178 16.6356 38.9391 16.3103C38.9816 15.66 39.0193 14.8111 39.0116 13.9591C39.0039 13.1097 38.951 12.2468 38.809 11.5731C38.7382 11.2371 38.6427 10.9358 38.5117 10.7041C38.3815 10.474 38.1992 10.2841 37.945 10.231L37.8631 10.6225ZM38.4441 17.403C38.4083 17.5391 38.3588 17.6345 38.2961 17.6919C38.2412 17.7421 38.1567 17.7814 38.0015 17.7651L37.9597 18.1629C38.2103 18.1893 38.414 18.1262 38.5661 17.987C38.7104 17.8549 38.7864 17.674 38.8309 17.5048L38.4441 17.403ZM38.0015 17.7651C37.9308 17.7577 37.8692 17.717 37.8232 17.643C37.7757 17.5667 37.7517 17.4634 37.7624 17.3619L37.3645 17.3201C37.3451 17.505 37.3865 17.6982 37.4835 17.8542C37.582 18.0126 37.744 18.1403 37.9597 18.1629L38.0015 17.7651ZM37.7624 17.3619C37.869 16.3468 37.8498 14.905 37.8608 13.6608L37.4609 13.6572C37.4497 14.9204 37.4686 16.3302 37.3645 17.3201L37.7624 17.3619ZM37.8608 13.6529C37.8447 13.1327 37.8516 12.5862 37.8126 11.8099L37.4131 11.83C37.4521 12.6063 37.4441 13.1201 37.4609 13.6652L37.8608 13.6529ZM37.6337 11.621L37.586 11.616L37.5442 12.0138L37.5919 12.0188L37.6337 11.621ZM37.3741 11.7554C37.2698 12.0903 36.9355 12.8089 36.617 13.5098L36.9812 13.6753C37.2906 12.9943 37.6419 12.2405 37.756 11.8744L37.3741 11.7554ZM36.618 13.5077C36.0746 14.667 35.3927 16.0212 34.7178 17.0755C34.3798 17.6034 34.0488 18.0478 33.743 18.3541C33.5902 18.5071 33.4489 18.6202 33.3215 18.6925C33.1938 18.7649 33.0912 18.79 33.0105 18.7852L32.9868 19.1845C33.1698 19.1954 33.3499 19.1363 33.5189 19.0404C33.6883 18.9443 33.8582 18.8048 34.026 18.6367C34.3616 18.3007 34.7106 17.8287 35.0547 17.2911C35.7441 16.2143 36.4348 14.841 36.9802 13.6775L36.618 13.5077ZM43.2025 19.3334L43.2184 19.134L43.2159 19.1338L43.2025 19.3334ZM40.8267 17.3703L40.6338 17.4233L40.6351 17.4275L40.8267 17.3703ZM41.1314 13.7825L41.2985 13.8924L41.3 13.8901L41.1314 13.7825ZM43.1474 12.281L43.1939 12.4755L43.1982 12.4744L43.1474 12.281ZM45.577 12.5846L45.4621 12.7483L45.4649 12.7503L45.577 12.5846ZM46.8197 14.7664L47.0177 14.7385L47.0176 14.7373L46.8197 14.7664ZM46.3701 15.3708L46.398 15.5688L46.4056 15.5677L46.4131 15.5661L46.3701 15.3708ZM45.6942 14.9136L45.8936 14.8951L45.8919 14.8839L45.6942 14.9136ZM44.959 13.4125L45.0667 13.244L44.959 13.4125ZM43.434 13.2281L43.4842 13.4217L43.4884 13.4205L43.434 13.2281ZM42.0196 14.2861L41.8472 14.1847L41.8458 14.1872L42.0196 14.2861ZM41.8429 17.1151L42.0377 17.0695L42.0371 17.0671L41.8429 17.1151ZM42.8117 18.2305L42.7408 18.4175L42.7431 18.4184L42.8117 18.2305ZM45.4584 17.6158L45.3418 17.4531L45.3373 17.4566L45.4584 17.6158ZM46.3177 17.7061L46.4851 17.5961L46.4789 17.5877L46.3177 17.7061ZM46.1369 18.5076L46.0399 18.3324L46.0313 18.3377L46.1369 18.5076ZM43.2159 19.1338C42.05 19.0556 41.2688 18.152 41.0183 17.3131L40.6351 17.4275C40.9201 18.3823 41.8149 19.4407 43.1891 19.5329L43.2159 19.1338ZM41.0195 17.3173C40.5617 15.6516 40.9029 14.4935 41.2985 13.8924L40.9643 13.6725C40.4984 14.3805 40.149 15.6596 40.6339 17.4233L41.0195 17.3173ZM41.3 13.8901C41.7674 13.1581 42.41 12.6628 43.1939 12.4755L43.1009 12.0864C42.2016 12.3014 41.4775 12.869 40.9628 13.6748L41.3 13.8901ZM43.1982 12.4744C44.0749 12.244 44.9151 12.3645 45.4621 12.7483L45.6918 12.4209C45.0252 11.9531 44.0564 11.8353 43.0966 12.0875L43.1982 12.4744ZM45.4649 12.7503C46.0837 13.1688 46.4871 13.8811 46.6218 14.7956L47.0176 14.7373C46.8706 13.7399 46.422 12.9147 45.689 12.4189L45.4649 12.7503ZM46.6217 14.7944C46.6465 14.97 46.5367 15.1292 46.327 15.1754L46.4131 15.5661C46.7963 15.4816 47.0759 15.1508 47.0177 14.7385L46.6217 14.7944ZM46.3421 15.1727C46.0594 15.2126 45.905 15.0213 45.8933 14.8951L45.495 14.9321C45.5286 15.2933 45.8968 15.6396 46.398 15.5688L46.3421 15.1727ZM45.8919 14.8839C45.7919 14.217 45.5992 13.5841 45.0667 13.244L44.8514 13.5811C45.2234 13.8187 45.3978 14.2862 45.4964 14.9433L45.8919 14.8839ZM45.0667 13.244C44.6099 12.9523 44.0545 12.8446 43.3795 13.0357L43.4884 13.4205C44.057 13.2596 44.494 13.3528 44.8514 13.5811L45.0667 13.244ZM43.3837 13.0345C42.7372 13.2024 42.1681 13.6387 41.8472 14.1847L42.192 14.3874C42.4589 13.9334 42.9399 13.563 43.4842 13.4217L43.3837 13.0345ZM41.8458 14.1872C41.3961 14.9778 41.3545 15.9725 41.6488 17.1631L42.0371 17.0671C41.7557 15.9288 41.8143 15.0517 42.1935 14.3849L41.8458 14.1872ZM41.6482 17.1607C41.798 17.8004 42.2434 18.2291 42.7408 18.4175L42.8825 18.0434C42.498 17.8978 42.1544 17.5679 42.0377 17.0695L41.6482 17.1607ZM42.7431 18.4184C43.5697 18.7198 44.6517 18.4808 45.5795 17.7749L45.3373 17.4566C44.4815 18.1077 43.5411 18.2836 42.8802 18.0426L42.7431 18.4184ZM45.5749 17.7783C45.655 17.7209 45.7724 17.6841 45.8873 17.6897C45.9984 17.695 46.0932 17.7383 46.1564 17.8244L46.4789 17.5877C46.331 17.3862 46.1137 17.3001 45.9066 17.2901C45.7034 17.2803 45.4967 17.3422 45.3419 17.4532L45.5749 17.7783ZM46.1505 17.8158C46.2734 18.0031 46.1951 18.2467 46.04 18.3326L46.2338 18.6825C46.5912 18.4845 46.7364 17.9793 46.4849 17.5963L46.1505 17.8158ZM46.0313 18.3377C45.1272 18.8999 44.1219 19.2062 43.2184 19.134L43.1866 19.5327C44.1977 19.6135 45.2876 19.2712 46.2425 18.6774L46.0313 18.3377ZM54.2162 12.9617L54.2372 12.7628L54.2272 12.7618L54.2173 12.7617L54.2162 12.9617ZM52.1033 12.8603L52.1134 12.6605L51.9176 12.6506L51.9038 12.8461L52.1033 12.8603ZM50.9739 12.814L51.1734 12.8281L51.1879 12.6236L50.9831 12.6142L50.9739 12.814ZM48.9374 11.7553L48.9374 11.5549L48.9254 11.5557L48.9374 11.7553ZM54.3057 12.1104C54.4587 12.1265 54.6188 12.2692 54.5976 12.4709L54.9955 12.5127C55.0445 12.046 54.6719 11.7467 54.3475 11.7126L54.3057 12.1104ZM54.5976 12.4709C54.5838 12.603 54.5336 12.6729 54.4816 12.7109C54.4261 12.7515 54.3433 12.774 54.2372 12.7628L54.1953 13.1606C54.3756 13.1796 54.5642 13.1461 54.7178 13.0337C54.8749 12.9188 54.9717 12.7386 54.9955 12.5127L54.5976 12.4709ZM54.2173 12.7617C53.7409 12.7593 53.0097 12.706 52.1134 12.6605L52.0931 13.06C52.9732 13.1047 53.7268 13.1592 54.2152 13.1617L54.2173 12.7617ZM51.9038 12.8461C51.8038 14.2551 51.428 17.8307 51.2547 19.4798L51.6525 19.5217C51.8254 17.8769 52.2022 14.292 52.3028 12.8744L51.9038 12.8461ZM51.2547 19.4798C51.2373 19.6452 51.0823 19.7915 50.8465 19.7667L50.8047 20.1646C51.2371 20.21 51.6097 19.9291 51.6525 19.5217L51.2547 19.4798ZM50.8465 19.7667C50.6402 19.7451 50.5127 19.5746 50.5307 19.4037L50.1329 19.3619C50.0906 19.7639 50.3903 20.121 50.8047 20.1646L50.8465 19.7667ZM50.5307 19.4037C50.6835 17.95 51.0728 14.2457 51.1734 12.8281L50.7744 12.7998C50.6745 14.2087 50.2861 17.9038 50.1329 19.3619L50.5307 19.4037ZM50.9831 12.6142C50.5712 12.5952 50.0924 12.5874 49.6979 12.5822C49.2934 12.5768 48.9961 12.5739 48.9246 12.5664L48.8828 12.9642C48.9784 12.9743 49.3079 12.977 49.6926 12.9821C50.0873 12.9874 50.5601 12.9952 50.9647 13.0138L50.9831 12.6142ZM48.9246 12.5664C48.8367 12.5572 48.7556 12.5112 48.6981 12.4469C48.6381 12.3797 48.6213 12.3139 48.6251 12.2775L48.2273 12.2357C48.2086 12.4142 48.2873 12.5876 48.4 12.7136C48.5153 12.8424 48.6842 12.9433 48.8828 12.9642L48.9246 12.5664ZM48.6251 12.2775C48.6419 12.1182 48.7726 11.9656 48.9495 11.9549L48.9254 11.5557C48.5194 11.5802 48.2608 11.9177 48.2273 12.2357L48.6251 12.2775ZM48.9375 11.9553C50.7728 11.955 53.4346 12.0188 54.3057 12.1104L54.3475 11.7126C53.4524 11.6185 50.7702 11.555 48.9374 11.5553L48.9375 11.9553ZM62.2759 20.4934L62.466 20.43L62.4609 20.4175L62.2759 20.4934ZM62.0712 21.2924L61.989 21.1099L61.9813 21.1138L62.0712 21.2924ZM61.3175 21.1167L61.162 21.2425L61.3175 21.1167ZM61.0222 20.4823L61.2094 20.4121L61.166 20.2963L61.0431 20.2834L61.0222 20.4823ZM60.9744 20.4773L60.9953 20.2784L60.876 20.2658L60.8088 20.3652L60.9744 20.4773ZM60.0726 21.2513L60.1603 21.4311L60.1655 21.4284L60.0726 21.2513ZM57.7297 21.2705L57.6543 21.4557L57.6583 21.4573L57.7297 21.2705ZM56.2153 17.0812L56.4013 17.1547L56.4016 17.154L56.2153 17.0812ZM60.7099 15.6472L60.6639 15.8418L60.885 15.894L60.9088 15.6681L60.7099 15.6472ZM60.7863 14.2314L60.5866 14.2435L60.5871 14.2515L60.5882 14.2594L60.7863 14.2314ZM59.7811 13.2329L59.8513 13.0455L59.8467 13.0439L59.7811 13.2329ZM57.5288 13.7684L57.6711 13.909L57.6754 13.9044L57.5288 13.7684ZM56.6734 13.8715L56.5325 14.0141L56.5422 14.0225L56.6734 13.8715ZM56.6368 13.0713L56.4868 12.939L56.4858 12.9401L56.6368 13.0713ZM60.2131 12.3371L60.151 12.5272L60.1513 12.5273L60.2131 12.3371ZM61.9181 14.2538L61.7183 14.2649L61.719 14.2724L61.9181 14.2538ZM61.8272 19.0225L61.6279 19.0401L61.628 19.041L61.8272 19.0225ZM58.1668 20.327L58.0925 20.5127L58.0953 20.5138L58.1668 20.327ZM60.7645 19.4899L60.9313 19.6003L60.9757 19.5331L60.9612 19.4539L60.7645 19.4899ZM60.7 16.6597L60.8999 16.6653L60.9044 16.5056L60.7496 16.4659L60.7 16.6597ZM57.2329 17.5019L57.42 17.5727L57.4206 17.5712L57.2329 17.5019ZM62.0861 20.5567C62.125 20.6733 62.1424 20.8049 62.1247 20.9119C62.1079 21.013 62.0645 21.0761 61.9891 21.1101L62.1534 21.4748C62.3819 21.3718 62.4868 21.1729 62.5192 20.9775C62.5507 20.7881 62.5184 20.5886 62.4656 20.4301L62.0861 20.5567ZM61.9813 21.1138C61.8588 21.1755 61.7562 21.1668 61.6721 21.1346C61.5811 21.0998 61.5091 21.0355 61.4729 20.9908L61.162 21.2425C61.2327 21.3297 61.3592 21.4432 61.5292 21.5082C61.706 21.5758 61.9269 21.589 62.1612 21.471L61.9813 21.1138ZM61.4729 20.9908C61.437 20.9464 61.3953 20.8709 61.3482 20.7637C61.3021 20.6591 61.257 20.5389 61.2094 20.4121L60.8349 20.5526C60.8816 20.6769 60.9307 20.808 60.982 20.9248C61.0323 21.039 61.0912 21.155 61.162 21.2425L61.4729 20.9908ZM61.0431 20.2834L60.9953 20.2784L60.9535 20.6762L61.0013 20.6812L61.0431 20.2834ZM60.8088 20.3652C60.6042 20.6677 60.267 20.9233 59.9796 21.0742L60.1655 21.4284C60.4911 21.2575 60.8875 20.9628 61.1401 20.5893L60.8088 20.3652ZM59.9849 21.0715C59.6227 21.2482 59.1641 21.2873 58.7392 21.2601C58.3155 21.233 57.9535 21.142 57.8012 21.0837L57.6583 21.4573C57.8539 21.5321 58.2564 21.63 58.7136 21.6593C59.1696 21.6885 59.7085 21.6514 60.1603 21.431L59.9849 21.0715ZM57.8052 21.0853C57.0575 20.7807 56.5399 20.2324 56.2904 19.5497C56.0402 18.8652 56.0549 18.0315 56.4013 17.1547L56.0293 17.0077C55.6525 17.9614 55.626 18.8971 55.9147 19.687C56.204 20.4787 56.8053 21.1098 57.6543 21.4557L57.8052 21.0853ZM56.4016 17.154C56.6573 16.4994 57.1759 16.0488 57.903 15.8202C58.6354 15.59 59.5802 15.5862 60.6639 15.8418L60.7558 15.4525C59.6259 15.186 58.6042 15.1805 57.783 15.4386C56.9566 15.6984 56.3347 16.2259 56.029 17.0085L56.4016 17.154ZM60.9088 15.6681C60.9113 15.6437 60.941 15.3609 60.9649 15.0468C60.9769 14.8898 60.9875 14.7234 60.9924 14.5767C60.9972 14.4347 60.9974 14.2963 60.9843 14.2035L60.5882 14.2594C60.5959 14.3135 60.5975 14.4196 60.5927 14.5632C60.588 14.702 60.5778 14.8622 60.5661 15.0165C60.5426 15.3248 60.5134 15.603 60.511 15.6263L60.9088 15.6681ZM60.9859 14.2193C60.9732 14.0087 60.8453 13.7758 60.6587 13.5748C60.4668 13.3681 60.1937 13.1739 59.8513 13.0456L59.711 13.4202C59.9954 13.5267 60.2161 13.686 60.3656 13.847C60.5205 14.0138 60.5817 14.1627 60.5866 14.2435L60.9859 14.2193ZM59.8467 13.0439C59.0899 12.7814 58.1004 12.8587 57.3822 13.6323L57.6754 13.9044C58.2635 13.2709 59.0753 13.1997 59.7156 13.4218L59.8467 13.0439ZM57.3866 13.6278C57.3131 13.7021 57.1966 13.7588 57.075 13.776C56.9519 13.7934 56.8574 13.7665 56.8045 13.7206L56.5422 14.0225C56.7104 14.1687 56.9357 14.1996 57.131 14.172C57.3279 14.1442 57.5285 14.0533 57.6711 13.909L57.3866 13.6278ZM56.8139 13.7293C56.6698 13.5868 56.6653 13.3434 56.7878 13.2025L56.4858 12.9401C56.224 13.2415 56.2397 13.7242 56.5328 14.0138L56.8139 13.7293ZM56.7867 13.2037C57.7208 12.1455 59.1992 12.2162 60.151 12.5272L60.2752 12.147C59.2672 11.8176 57.58 11.7005 56.4868 12.939L56.7867 13.2037ZM60.1513 12.5273C61.1819 12.8624 61.6821 13.6072 61.7184 14.2649L62.1178 14.2428C62.071 13.3956 61.4378 12.525 60.275 12.1469L60.1513 12.5273ZM61.719 14.2724C61.7626 14.7416 61.7165 15.6343 61.6696 16.5735C61.6234 17.497 61.5767 18.4626 61.6279 19.0401L62.0264 19.0048C61.9782 18.4618 62.0223 17.5305 62.0691 16.5935C62.1151 15.6723 62.1643 14.7409 62.1173 14.2353L61.719 14.2724ZM61.628 19.041C61.6881 19.6876 61.9621 20.2555 62.0908 20.5693L62.4609 20.4175C62.3207 20.0757 62.0795 19.5759 62.0263 19.004L61.628 19.041ZM58.0953 20.5138C58.6773 20.7364 59.2872 20.6569 59.7914 20.4555C60.2922 20.2555 60.7173 19.9239 60.9313 19.6003L60.5977 19.3796C60.4386 19.6201 60.0869 19.9067 59.643 20.084C59.2026 20.2599 58.7002 20.3169 58.2382 20.1402L58.0953 20.5138ZM60.9612 19.4539C60.8127 18.6438 60.8733 17.6175 60.8999 16.6653L60.5 16.6541C60.4742 17.5786 60.4095 18.6629 60.5678 19.526L60.9612 19.4539ZM60.7496 16.4659C60.3386 16.3607 59.5735 16.2232 58.8383 16.2909C58.1093 16.3581 57.3392 16.6368 57.0453 17.4326L57.4206 17.5712C57.6328 16.9964 58.1967 16.7517 58.8749 16.6892C59.5469 16.6273 60.2624 16.7541 60.6503 16.8534L60.7496 16.4659ZM57.0459 17.4311C56.7839 18.1228 56.7414 18.7715 56.9228 19.3143C57.1057 19.862 57.5095 20.2798 58.0925 20.5127L58.241 20.1413C57.7586 19.9485 57.445 19.6152 57.3022 19.1875C57.1577 18.7549 57.1809 18.2039 57.42 17.5727L57.0459 17.4311ZM65.2469 21.409L65.2072 21.605L65.2091 21.6054L65.2469 21.409ZM64.591 20.3024L64.7906 20.3159L64.7909 20.3083L64.591 20.3024ZM64.7325 17.8075L64.9319 17.824L64.9321 17.8205L64.7325 17.8075ZM65.1376 13.265L65.336 13.2904L65.3365 13.2859L65.1376 13.265ZM66.2782 13.4331L66.478 13.4448L66.4782 13.4374L66.2782 13.4331ZM65.8819 17.6629L65.683 17.6419L65.6825 17.6473L65.8819 17.6629ZM65.621 20.1452L65.4221 20.1243L65.4012 20.3232L65.6001 20.3441L65.621 20.1452ZM65.6926 20.1527L65.6717 20.3516L65.7782 20.3628L65.8465 20.2804L65.6926 20.1527ZM66.9235 18.5446L66.7616 18.4271L66.7598 18.4297L66.9235 18.5446ZM69.7643 14.0167L69.5887 13.9209L69.5867 13.9249L69.7643 14.0167ZM70.9526 13.2728L71.018 13.0836L71.0094 13.0811L70.9526 13.2728ZM71.0091 21.0011L70.8129 20.9622L70.8126 20.9637L71.0091 21.0011ZM70.2856 21.4559L70.3296 21.2607L70.3229 21.2595L70.2856 21.4559ZM69.8998 20.7638L70.0963 20.8012L70.0966 20.7995L69.8998 20.7638ZM70.5295 14.7728L70.7291 14.7847L70.7405 14.5939L70.5504 14.5739L70.5295 14.7728ZM70.4579 14.7653L70.4788 14.5664L70.3456 14.5524L70.2819 14.6702L70.4579 14.7653ZM69.5034 16.499L69.3332 16.3938L69.3295 16.4003L69.5034 16.499ZM65.9725 10.6016L66.1078 10.4542L66.1037 10.4507L65.9725 10.6016ZM65.931 9.84917L66.0568 10.0046L65.931 9.84917ZM66.6973 9.90558L66.5586 10.0498L66.6973 9.90558ZM70.4182 9.86229L70.5415 10.0198L70.544 10.0177L70.4182 9.86229ZM71.2447 9.80437L71.3855 9.66196L71.3786 9.6558L71.2447 9.80437ZM71.1356 10.6134L71.2704 10.7612L71.2715 10.7601L71.1356 10.6134ZM65.2866 21.213C65.0826 21.1717 64.9621 21.0842 64.8889 20.9595C64.8104 20.8256 64.7698 20.6206 64.7905 20.3159L64.3914 20.2888C64.3682 20.6311 64.4075 20.9292 64.5439 21.1618C64.6856 21.4035 64.915 21.5459 65.2072 21.605L65.2866 21.213ZM64.7909 20.3083C64.8195 19.3495 64.8431 18.897 64.9318 17.824L64.5332 17.791C64.4439 18.8712 64.4199 19.3307 64.391 20.2964L64.7909 20.3083ZM64.9321 17.8205C65.051 16.0011 65.2024 14.3323 65.3359 13.2904L64.9392 13.2395C64.8042 14.293 64.6521 15.9709 64.5329 17.7945L64.9321 17.8205ZM65.3365 13.2859C65.3533 13.1257 65.5032 12.9736 65.7686 13.0015L65.8104 12.6037C65.3596 12.5563 64.982 12.8314 64.9387 13.244L65.3365 13.2859ZM65.7686 13.0015C65.8432 13.0093 65.9205 13.0555 65.9829 13.1398C66.0454 13.2243 66.0804 13.3315 66.0783 13.4288L66.4782 13.4374C66.4823 13.2458 66.4161 13.0528 66.3043 12.9018C66.1924 12.7505 66.0222 12.6259 65.8104 12.6037L65.7686 13.0015ZM66.0786 13.4215C66.0188 14.447 65.8589 15.969 65.683 17.6419L66.0808 17.6838C66.2562 16.0151 66.4174 14.4819 66.4779 13.4447L66.0786 13.4215ZM65.6825 17.6473C65.6138 18.5299 65.5158 19.2331 65.4221 20.1243L65.8199 20.1661C65.9119 19.291 66.0121 18.5671 66.0813 17.6784L65.6825 17.6473ZM65.6001 20.3441L65.6717 20.3516L65.7135 19.9538L65.6419 19.9463L65.6001 20.3441ZM65.8465 20.2804C66.1253 19.9446 66.6575 19.2718 67.0872 18.6594L66.7598 18.4297C66.3379 19.0309 65.8127 19.6949 65.5387 20.025L65.8465 20.2804ZM67.0854 18.662C68.0488 17.3336 69.1788 15.5849 69.942 14.1085L69.5867 13.9249C68.8353 15.3782 67.7172 17.1096 66.7616 18.4271L67.0854 18.662ZM69.9399 14.1125C70.012 13.9803 70.1375 13.7733 70.3095 13.6222C70.477 13.4751 70.6675 13.397 70.8958 13.4646L71.0094 13.0811C70.6058 12.9616 70.2768 13.1185 70.0456 13.3216C69.8188 13.5208 69.6661 13.7792 69.5888 13.9209L69.9399 14.1125ZM70.8873 13.4619C70.9668 13.4894 71.0607 13.58 71.1452 13.7964C71.2275 14.0072 71.2853 14.2984 71.3197 14.6533C71.3885 15.3611 71.3607 16.2749 71.2897 17.1931C71.148 19.0274 70.8373 20.8389 70.8129 20.9622L71.2053 21.0399C71.2323 20.9032 71.5454 19.076 71.6886 17.2239C71.76 16.2989 71.79 15.3575 71.7179 14.6146C71.6819 14.2442 71.6195 13.9112 71.5178 13.6509C71.4184 13.3963 71.2644 13.169 71.0179 13.0838L70.8873 13.4619ZM70.8126 20.9637C70.7765 21.1537 70.6036 21.3227 70.3296 21.2608L70.2416 21.651C70.769 21.77 71.1337 21.4163 71.2056 21.0384L70.8126 20.9637ZM70.3229 21.2595C70.2576 21.247 70.1917 21.1971 70.1436 21.1042C70.0953 21.0109 70.0781 20.8967 70.0963 20.8012L69.7033 20.7265C69.6675 20.9148 69.7012 21.1197 69.7884 21.288C69.8757 21.4567 70.0297 21.6109 70.2482 21.6524L70.3229 21.2595ZM70.0966 20.7995C70.2702 19.843 70.4542 18.0911 70.6018 16.6869L70.204 16.6451C70.0556 18.0573 69.8733 19.7902 69.703 20.7281L70.0966 20.7995ZM70.6018 16.6869C70.6702 16.0364 70.6982 15.306 70.7291 14.7847L70.3298 14.761C70.2981 15.2949 70.2711 16.0066 70.204 16.6451L70.6018 16.6869ZM70.5504 14.5739L70.4788 14.5664L70.437 14.9642L70.5086 14.9717L70.5504 14.5739ZM70.2819 14.6702C70.0675 15.0671 69.7073 15.7886 69.3333 16.3939L69.6736 16.6042C70.0556 15.9858 70.4288 15.2399 70.6338 14.8604L70.2819 14.6702ZM69.3295 16.4003C68.7274 17.4616 67.8768 18.7192 67.076 19.6893C66.675 20.175 66.2917 20.5823 65.9625 20.8564C65.7976 20.9937 65.6524 21.0924 65.5303 21.1517C65.4046 21.2127 65.3265 21.2207 65.2847 21.2126L65.2091 21.6054C65.3742 21.6372 65.5464 21.5885 65.705 21.5115C65.8672 21.4328 66.0403 21.3121 66.2184 21.1638C66.5751 20.8668 66.9765 20.438 67.3844 19.9439C68.2013 18.9543 69.065 17.6773 69.6774 16.5977L69.3295 16.4003ZM67.9784 11.2629C67.319 11.1936 66.6638 10.9643 66.1077 10.4543L65.8373 10.749C66.4698 11.3292 67.2116 11.5845 67.9366 11.6607L67.9784 11.2629ZM66.1037 10.4507C66.0388 10.3942 65.9955 10.3014 65.9893 10.2047C65.983 10.1069 66.0153 10.0382 66.0568 10.0046L65.8051 9.69374C65.6356 9.831 65.5781 10.0425 65.5901 10.2302C65.6022 10.4189 65.6852 10.6169 65.8413 10.7526L66.1037 10.4507ZM66.0568 10.0046C66.1137 9.9585 66.2014 9.93302 66.3026 9.94148C66.4037 9.94994 66.4974 9.9909 66.5586 10.0498L66.8359 9.76141C66.6998 9.63061 66.5159 9.55793 66.3359 9.54287C66.1561 9.52783 65.9592 9.56896 65.8051 9.69374L66.0568 10.0046ZM66.5586 10.0498C67.1082 10.5781 67.9004 10.7301 68.6359 10.6784C69.3714 10.6267 70.0958 10.3687 70.5415 10.0198L70.2949 9.70482C69.9253 9.99418 69.2824 10.232 68.6078 10.2794C67.9332 10.3268 67.2726 10.1813 66.8359 9.76141L66.5586 10.0498ZM70.544 10.0177C70.6544 9.92834 70.7651 9.88021 70.8604 9.87018C70.95 9.86074 71.0337 9.8834 71.1109 9.95294L71.3786 9.6558C71.2133 9.50679 71.0156 9.45162 70.8185 9.47238C70.6271 9.49253 70.4457 9.58264 70.2923 9.70686L70.544 10.0177ZM71.1042 9.94663C71.1466 9.98857 71.1704 10.0666 71.1463 10.185C71.1224 10.3028 71.0588 10.4119 70.9997 10.4667L71.2715 10.7601C71.3995 10.6415 71.4998 10.4541 71.5383 10.2647C71.5767 10.076 71.5615 9.8362 71.3853 9.66211L71.1042 9.94663ZM71.0008 10.4656C70.4119 11.0027 69.1769 11.3889 67.9784 11.2629L67.9366 11.6607C69.2204 11.7957 70.5781 11.3926 71.2704 10.7612L71.0008 10.4656ZM83.2629 23.5197L83.4184 23.3939L83.3443 23.3024L83.2284 23.3228L83.2629 23.5197ZM81.974 23.3843L81.9267 23.5786L81.9286 23.5791L81.974 23.3843ZM79.9852 21.8721L80.1644 21.7833L80.1641 21.7827L79.9852 21.8721ZM79.7647 17.7706L79.9527 17.8392L79.9548 17.8327L79.7647 17.7706ZM81.4779 15.7064L81.3969 15.5235L81.3953 15.5242L81.4779 15.7064ZM84.9425 15.8051L84.8641 15.989L85.0055 16.0493L85.1001 15.9282L84.9425 15.8051ZM85.5932 15.5839L85.5148 15.7678L85.5221 15.771L85.5297 15.7735L85.5932 15.5839ZM85.4899 21.8474L85.291 21.8265L85.276 21.9698L85.4072 22.0295L85.4899 21.8474ZM85.559 21.8788L85.4763 22.0609L85.6154 22.124L85.7129 22.0065L85.559 21.8788ZM85.7726 21.684L85.6467 21.5286L85.6313 21.5411L85.6187 21.5563L85.7726 21.684ZM86.4622 21.7806L86.6243 21.663L86.6177 21.6548L86.4622 21.7806ZM86.3606 22.5181L86.5146 22.6458L86.5182 22.6412L86.3606 22.5181ZM85.5618 23.2305L85.4359 23.075L85.3663 23.1314L85.362 23.2209L85.5618 23.2305ZM85.5181 25.253L85.3181 25.253L85.3182 25.2574L85.5181 25.253ZM83.4765 31.361L83.3809 31.1851L83.3723 31.1903L83.4765 31.361ZM80.5796 31.3703L80.4763 31.5415L80.4766 31.5417L80.5796 31.3703ZM79.441 28.4271L79.2444 28.3906L79.2441 28.3923L79.441 28.4271ZM81.9768 24.736L81.8406 24.589L81.8329 24.597L81.9768 24.736ZM83.3057 23.5725L83.4315 23.7279L83.587 23.6021L83.4611 23.4466L83.3057 23.5725ZM84.4197 22.3865L84.5363 22.549L84.614 22.4933L84.6194 22.3978L84.4197 22.3865ZM84.7844 16.8503L84.9833 16.8712L84.9963 16.7482L84.8921 16.6817L84.7844 16.8503ZM81.9793 16.6761L82.0637 16.8574L82.065 16.8568L81.9793 16.6761ZM80.7873 18.1435L80.598 18.0791L80.5977 18.08L80.7873 18.1435ZM81.019 21.4499L81.1985 21.3616L81.1967 21.3581L81.019 21.4499ZM82.8269 30.424L82.7314 30.2482L82.7292 30.2494L82.8269 30.424ZM84.4378 25.429L84.2378 25.4214L84.2378 25.4297L84.4378 25.429ZM84.4627 23.8148L84.6627 23.8158L84.6636 23.6348L84.4836 23.6159L84.4627 23.8148ZM84.3672 23.8047L84.3881 23.6058L84.2961 23.5962L84.2292 23.66L84.3672 23.8047ZM82.9416 25.1994L83.0836 25.3402L83.0858 25.338L82.9416 25.1994ZM80.6006 28.6455L80.796 28.6883L80.797 28.6834L80.6006 28.6455ZM81.2101 30.423L81.0952 30.5867L81.0965 30.5876L81.2101 30.423ZM83.2284 23.3228C83.171 23.3328 83.0135 23.3347 82.7843 23.3136C82.5625 23.2932 82.2924 23.2531 82.0195 23.1895L81.9286 23.5791C82.221 23.6472 82.5093 23.69 82.7476 23.7119C82.9785 23.7332 83.1828 23.7369 83.2975 23.7167L83.2284 23.3228ZM82.0214 23.19C81.199 22.9896 80.5125 22.4862 80.1644 21.7833L79.806 21.9609C80.2144 22.7854 81.0079 23.3547 81.9267 23.5786L82.0214 23.19ZM80.1641 21.7827C79.5907 20.6351 79.4967 19.0893 79.9526 17.8391L79.5768 17.7021C79.0835 19.0549 79.1834 20.7149 79.8063 21.9615L80.1641 21.7827ZM79.9548 17.8327C80.2605 16.8974 80.8845 16.1948 81.5604 15.8885L81.3953 15.5242C80.6016 15.8839 79.9094 16.684 79.5746 17.7085L79.9548 17.8327ZM81.5588 15.8892C82.6791 15.3934 83.992 15.617 84.8641 15.989L85.021 15.6211C84.0916 15.2246 82.6558 14.9663 81.3969 15.5235L81.5588 15.8892ZM85.1001 15.9282C85.1611 15.8502 85.2248 15.7914 85.2904 15.7616C85.3471 15.7357 85.4164 15.7259 85.5148 15.7678L85.6717 15.3999C85.4698 15.3138 85.2834 15.3253 85.1247 15.3975C84.9749 15.4657 84.8634 15.5815 84.785 15.6819L85.1001 15.9282ZM85.5297 15.7735C85.649 15.8135 85.7842 15.9861 85.7638 16.181L86.1616 16.2228C86.2013 15.8448 85.9571 15.4949 85.6568 15.3942L85.5297 15.7735ZM85.7638 16.181C85.7597 16.2197 85.6506 17.546 85.5383 18.9007C85.4256 20.2606 85.3096 21.6504 85.291 21.8265L85.6889 21.8683C85.708 21.6864 85.8246 20.2891 85.9369 18.9337C85.9932 18.2549 86.0485 17.5849 86.0902 17.0803C86.1111 16.828 86.1286 16.617 86.141 16.4669C86.1473 16.3918 86.1523 16.332 86.1558 16.2899C86.1576 16.2688 86.159 16.2523 86.16 16.2405C86.1611 16.2274 86.1616 16.2226 86.1616 16.2228L85.7638 16.181ZM85.4072 22.0295L85.4763 22.0609L85.6418 21.6967L85.5727 21.6653L85.4072 22.0295ZM85.7129 22.0065C85.7254 21.9915 85.7476 21.9725 85.7917 21.9368C85.8268 21.9084 85.8836 21.8634 85.9265 21.8117L85.6187 21.5563C85.6063 21.5712 85.584 21.5903 85.5399 21.626C85.5049 21.6544 85.448 21.6994 85.4051 21.751L85.7129 22.0065ZM85.8984 21.8394C85.9851 21.7692 86.1738 21.7422 86.3068 21.9065L86.6177 21.6548C86.3235 21.2916 85.8765 21.3425 85.6467 21.5286L85.8984 21.8394ZM86.3004 21.8982C86.3536 21.9715 86.3615 22.0477 86.3406 22.1328C86.3182 22.2242 86.2635 22.3175 86.203 22.3949L86.5182 22.6412C86.5972 22.5402 86.6881 22.3954 86.7291 22.228C86.7717 22.0543 86.7606 21.8511 86.6241 21.6631L86.3004 21.8982ZM86.2067 22.3903C86.2085 22.3882 86.2016 22.3959 86.1775 22.4189C86.1568 22.4388 86.129 22.4647 86.0959 22.495C86.0298 22.5556 85.9449 22.6317 85.8572 22.7096C85.6803 22.8665 85.4978 23.0249 85.4359 23.075L85.6876 23.3859C85.7577 23.3292 85.947 23.1647 86.1227 23.0088C86.2112 22.9302 86.2979 22.8525 86.3662 22.7899C86.4278 22.7334 86.4897 22.6757 86.5145 22.6458L86.2067 22.3903ZM85.362 23.2209C85.3217 24.066 85.318 24.7933 85.3181 25.253L85.7181 25.2529C85.718 24.7956 85.7217 24.0757 85.7615 23.24L85.362 23.2209ZM85.3182 25.2574C85.3976 28.8475 84.5034 30.5757 83.381 31.1853L83.5719 31.5368C84.9065 30.8119 85.7981 28.8666 85.7181 25.2486L85.3182 25.2574ZM83.3723 31.1903C82.976 31.4322 82.3541 31.5729 81.7475 31.5091L81.7057 31.9069C82.3881 31.9786 83.1002 31.8251 83.5807 31.5317L83.3723 31.1903ZM81.7475 31.5091C81.3547 31.4678 80.9872 31.3819 80.6827 31.1989L80.4766 31.5417C80.853 31.768 81.287 31.8629 81.7057 31.9069L81.7475 31.5091ZM80.683 31.199C80.3425 30.9935 80.0156 30.704 79.806 30.277C79.597 29.8513 79.4952 29.2695 79.638 28.462L79.2441 28.3923C79.0894 29.2669 79.1938 29.9375 79.4469 30.4533C79.6995 30.9678 80.0906 31.3087 80.4763 31.5415L80.683 31.199ZM79.6377 28.4637C79.9014 27.0457 80.9376 26.0992 82.1206 24.8749L81.8329 24.597C80.6873 25.7826 79.5354 26.8262 79.2444 28.3906L79.6377 28.4637ZM82.1127 24.8827C82.4853 24.5375 83.0407 24.0445 83.4315 23.7279L83.1798 23.4171C82.7793 23.7413 82.2168 24.2409 81.8408 24.5893L82.1127 24.8827ZM83.4611 23.4466L83.4184 23.3939L83.1075 23.6456L83.1502 23.6984L83.4611 23.4466ZM82.8814 22.7879C83.2197 22.8234 83.5568 22.8146 83.8425 22.7743C84.1193 22.7352 84.3779 22.6625 84.5363 22.549L84.3032 22.2239C84.2267 22.2788 84.0487 22.3412 83.7866 22.3782C83.5335 22.4139 83.2293 22.4222 82.9232 22.39L82.8814 22.7879ZM84.6194 22.3978C84.7324 20.4031 84.8611 18.0345 84.9833 16.8712L84.5855 16.8293C84.4619 18.0051 84.3326 20.3876 84.2201 22.3752L84.6194 22.3978ZM84.8921 16.6817C84.6359 16.5181 84.1655 16.3435 83.6294 16.2714C83.091 16.1991 82.4604 16.2265 81.8936 16.4954L82.065 16.8568C82.5394 16.6318 83.0853 16.6019 83.5761 16.6679C84.0691 16.7341 84.4807 16.8936 84.6768 17.0188L84.8921 16.6817ZM81.8949 16.4948C81.1891 16.8233 80.7804 17.5436 80.598 18.0791L80.9767 18.208C81.1434 17.7184 81.5008 17.1194 82.0637 16.8574L81.8949 16.4948ZM80.5977 18.08C80.2291 19.1799 80.3552 20.6002 80.8413 21.5416L81.1967 21.3581C80.7605 20.5133 80.6425 19.2051 80.977 18.2071L80.5977 18.08ZM80.8396 21.5381C81.0326 21.9306 81.3794 22.2245 81.7497 22.4271C82.121 22.6303 82.5328 22.7512 82.8814 22.7879L82.9232 22.39C82.6272 22.3589 82.2665 22.2539 81.9417 22.0762C81.6161 21.898 81.3434 21.6562 81.1985 21.3616L80.8396 21.5381ZM82.9223 30.5997C83.3874 30.3471 83.8183 29.8302 84.1307 28.9978C84.4434 28.1643 84.6431 27.001 84.6378 25.4283L84.2378 25.4297C84.243 26.9712 84.0467 28.0829 83.7562 28.8572C83.4652 29.6325 83.0853 30.056 82.7314 30.2482L82.9223 30.5997ZM84.6377 25.4366C84.6516 25.0723 84.6602 24.2979 84.6627 23.8158L84.2627 23.8138C84.2602 24.2964 84.2516 25.0646 84.2379 25.4214L84.6377 25.4366ZM84.4836 23.6159L84.3881 23.6058L84.3463 24.0036L84.4418 24.0137L84.4836 23.6159ZM84.2292 23.66C83.7741 24.0939 83.1804 24.6625 82.7974 25.0607L83.0858 25.338C83.4615 24.9472 84.0484 24.385 84.5052 23.9495L84.2292 23.66ZM82.7996 25.0585C81.2555 26.6158 80.5754 27.7183 80.4042 28.6077L80.797 28.6834C80.9445 27.917 81.5505 26.8863 83.0836 25.3402L82.7996 25.0585ZM80.4052 28.6028C80.2543 29.2923 80.403 30.101 81.0952 30.5867L81.325 30.2593C80.8036 29.8934 80.6681 29.2726 80.7959 28.6883L80.4052 28.6028ZM81.0965 30.5876C81.6755 30.9872 82.4481 30.865 82.9245 30.5985L82.7292 30.2494C82.3339 30.4705 81.7347 30.542 81.3237 30.2584L81.0965 30.5876ZM94.697 23.901L94.8871 23.8376L94.882 23.8251L94.697 23.901ZM94.4923 24.7L94.4101 24.5175L94.4024 24.5214L94.4923 24.7ZM93.7386 24.5243L93.5831 24.6501L93.7386 24.5243ZM93.4433 23.8899L93.6305 23.8197L93.5871 23.7039L93.4642 23.691L93.4433 23.8899ZM93.3955 23.8849L93.4164 23.686L93.2971 23.6734L93.2299 23.7728L93.3955 23.8849ZM92.4937 24.6589L92.5814 24.8387L92.5866 24.836L92.4937 24.6589ZM90.1508 24.6781L90.0754 24.8633L90.0794 24.8649L90.1508 24.6781ZM88.6364 20.4888L88.8224 20.5623L88.8227 20.5616L88.6364 20.4888ZM93.131 19.0548L93.085 19.2494L93.3061 19.3016L93.3299 19.0757L93.131 19.0548ZM93.2074 17.639L93.0077 17.6511L93.0082 17.6591L93.0093 17.667L93.2074 17.639ZM92.2022 16.6405L92.2724 16.4531L92.2678 16.4515L92.2022 16.6405ZM89.9499 17.176L90.0923 17.3166L90.0965 17.312L89.9499 17.176ZM89.0945 17.2791L88.9536 17.4217L88.9633 17.4301L89.0945 17.2791ZM89.0579 16.4789L88.908 16.3466L88.9069 16.3477L89.0579 16.4789ZM92.6342 15.7447L92.5721 15.9348L92.5724 15.9349L92.6342 15.7447ZM94.3392 17.6614L94.1394 17.6725L94.1401 17.68L94.3392 17.6614ZM94.2483 22.4301L94.049 22.4477L94.0491 22.4486L94.2483 22.4301ZM90.5879 23.7346L90.5136 23.9203L90.5164 23.9214L90.5879 23.7346ZM93.1856 22.8975L93.3524 23.0079L93.3968 22.9407L93.3823 22.8615L93.1856 22.8975ZM93.1211 20.0673L93.321 20.0729L93.3255 19.9132L93.1707 19.8735L93.1211 20.0673ZM89.654 20.9095L89.8411 20.9803L89.8417 20.9788L89.654 20.9095ZM94.5072 23.9643C94.5461 24.0809 94.5635 24.2125 94.5458 24.3195C94.529 24.4206 94.4856 24.4837 94.4102 24.5177L94.5745 24.8823C94.803 24.7794 94.9079 24.5804 94.9403 24.3851C94.9718 24.1957 94.9395 23.9962 94.8867 23.8377L94.5072 23.9643ZM94.4024 24.5214C94.2799 24.5831 94.1773 24.5743 94.0932 24.5422C94.0022 24.5074 93.9302 24.4431 93.894 24.3984L93.5831 24.6501C93.6538 24.7373 93.7803 24.8508 93.9503 24.9158C94.1271 24.9834 94.348 24.9966 94.5823 24.8786L94.4024 24.5214ZM93.894 24.3984C93.8581 24.354 93.8164 24.2785 93.7693 24.1713C93.7232 24.0667 93.6781 23.9465 93.6305 23.8197L93.256 23.9602C93.3027 24.0845 93.3518 24.2156 93.4031 24.3324C93.4534 24.4466 93.5123 24.5626 93.5831 24.6501L93.894 24.3984ZM93.4642 23.691L93.4164 23.686L93.3746 24.0838L93.4224 24.0888L93.4642 23.691ZM93.2299 23.7728C93.0253 24.0753 92.6881 24.3309 92.4007 24.4818L92.5866 24.836C92.9122 24.6651 93.3086 24.3704 93.5612 23.9969L93.2299 23.7728ZM92.406 24.4791C92.0438 24.6558 91.5852 24.6949 91.1603 24.6677C90.7366 24.6406 90.3746 24.5495 90.2223 24.4913L90.0794 24.8649C90.275 24.9397 90.6775 25.0376 91.1347 25.0669C91.5907 25.0961 92.1296 25.059 92.5814 24.8386L92.406 24.4791ZM90.2263 24.4929C89.4786 24.1883 88.961 23.64 88.7115 22.9573C88.4613 22.2728 88.476 21.4391 88.8224 20.5623L88.4504 20.4153C88.0736 21.369 88.0471 22.3046 88.3358 23.0946C88.6251 23.8863 89.2264 24.5174 90.0754 24.8633L90.2263 24.4929ZM88.8227 20.5616C89.0784 19.907 89.597 19.4563 90.3241 19.2278C91.0565 18.9976 92.0013 18.9938 93.085 19.2494L93.1769 18.8601C92.047 18.5936 91.0253 18.5881 90.2041 18.8462C89.3777 19.106 88.7558 19.6335 88.4501 20.4161L88.8227 20.5616ZM93.3299 19.0757C93.3324 19.0513 93.3621 18.7685 93.386 18.4544C93.398 18.2974 93.4086 18.131 93.4135 17.9843C93.4183 17.8423 93.4185 17.7039 93.4054 17.611L93.0093 17.667C93.017 17.7211 93.0186 17.8272 93.0138 17.9708C93.0091 18.1096 92.9989 18.2698 92.9872 18.4241C92.9637 18.7324 92.9345 19.0106 92.9321 19.0339L93.3299 19.0757ZM93.407 17.6269C93.3943 17.4163 93.2664 17.1834 93.0798 16.9824C92.8879 16.7757 92.6148 16.5815 92.2724 16.4532L92.1321 16.8278C92.4165 16.9343 92.6372 17.0936 92.7867 17.2546C92.9416 17.4214 93.0028 17.5703 93.0077 17.6511L93.407 17.6269ZM92.2678 16.4515C91.511 16.189 90.5215 16.2663 89.8033 17.0399L90.0965 17.312C90.6846 16.6785 91.4964 16.6073 92.1367 16.8294L92.2678 16.4515ZM89.8077 17.0354C89.7342 17.1097 89.6177 17.1664 89.4961 17.1836C89.373 17.2009 89.2785 17.1741 89.2256 17.1282L88.9633 17.4301C89.1315 17.5763 89.3568 17.6072 89.5521 17.5796C89.749 17.5518 89.9496 17.4609 90.0922 17.3166L89.8077 17.0354ZM89.235 17.1369C89.0909 16.9944 89.0864 16.751 89.2089 16.6101L88.9069 16.3477C88.6451 16.6491 88.6608 17.1317 88.9539 17.4214L89.235 17.1369ZM89.2078 16.6113C90.1419 15.5531 91.6203 15.6238 92.5721 15.9348L92.6964 15.5546C91.6883 15.2252 90.0011 15.1081 88.908 16.3466L89.2078 16.6113ZM92.5724 15.9349C93.603 16.27 94.1032 17.0148 94.1395 17.6725L94.5389 17.6504C94.4921 16.8032 93.8589 15.9326 92.6961 15.5545L92.5724 15.9349ZM94.1401 17.68C94.1837 18.1492 94.1376 19.0419 94.0907 19.9811C94.0445 20.9046 93.9978 21.8702 94.049 22.4477L94.4475 22.4124C94.3993 21.8694 94.4434 20.9381 94.4902 20.0011C94.5362 19.0799 94.5854 18.1485 94.5384 17.6429L94.1401 17.68ZM94.0491 22.4486C94.1092 23.0952 94.3832 23.6631 94.5119 23.9769L94.882 23.8251C94.7418 23.4833 94.5006 22.9835 94.4474 22.4115L94.0491 22.4486ZM90.5164 23.9214C91.0984 24.144 91.7083 24.0645 92.2125 23.8631C92.7133 23.6631 93.1384 23.3315 93.3524 23.0079L93.0188 22.7872C92.8597 23.0277 92.508 23.3143 92.0641 23.4916C91.6237 23.6675 91.1213 23.7245 90.6593 23.5478L90.5164 23.9214ZM93.3823 22.8615C93.2338 22.0514 93.2944 21.0251 93.321 20.0729L92.9211 20.0617C92.8953 20.9862 92.8306 22.0705 92.9889 22.9336L93.3823 22.8615ZM93.1707 19.8735C92.7597 19.7683 91.9946 19.6308 91.2594 19.6985C90.5304 19.7657 89.7603 20.0444 89.4664 20.8402L89.8417 20.9788C90.0539 20.404 90.6178 20.1593 91.296 20.0968C91.968 20.0349 92.6835 20.1617 93.0714 20.261L93.1707 19.8735ZM89.467 20.8387C89.205 21.5304 89.1625 22.179 89.3439 22.7219C89.5268 23.2696 89.9306 23.6873 90.5136 23.9203L90.6621 23.5489C90.1797 23.3561 89.8661 23.0228 89.7233 22.5951C89.5788 22.1625 89.602 21.6115 89.8411 20.9803L89.467 20.8387ZM101.311 18.3942L101.507 18.3548L101.506 18.3477L101.311 18.3942ZM102.293 24.8925L102.097 24.9286L102.098 24.9356L102.293 24.8925ZM101.884 25.5734L101.894 25.7734L101.902 25.7726L101.884 25.5734ZM101.261 25.0735L101.069 25.13L101.07 25.1327L101.261 25.0735ZM100.606 20.5161L100.407 20.5409L100.407 20.5418L100.606 20.5161ZM100.385 18.7072L100.584 18.6835L100.565 18.525L100.406 18.5083L100.385 18.7072ZM100.338 18.7022L100.359 18.5033L100.232 18.49L100.167 18.5986L100.338 18.7022ZM99.3833 20.4359L99.5584 20.5325L99.5591 20.5313L99.3833 20.4359ZM97.2132 24.5516L97.0296 24.4723L97.0254 24.482L97.0223 24.4921L97.2132 24.5516ZM96.5311 24.8419L96.4401 25.0202L96.4484 25.024L96.5311 24.8419ZM96.3124 24.1673L96.1251 24.097L96.1228 24.1038L96.3124 24.1673ZM99.4081 18.3631L99.2373 18.2591L99.2368 18.2599L99.4081 18.3631ZM100.47 17.9036C100.805 17.9388 101.039 18.1152 101.117 18.4407L101.506 18.3477C101.382 17.8317 100.988 17.5558 100.512 17.5058L100.47 17.9036ZM101.115 18.4336C101.153 18.6242 101.379 20.1354 101.605 21.6638C101.831 23.1829 102.058 24.715 102.097 24.9286L102.49 24.8564C102.453 24.6517 102.228 23.1319 102.001 21.605C101.776 20.0875 101.548 18.5587 101.507 18.3549L101.115 18.4336ZM102.098 24.9356C102.123 25.0489 102.112 25.162 102.072 25.2415C102.036 25.3116 101.977 25.364 101.865 25.3743L101.902 25.7726C102.157 25.7489 102.335 25.609 102.429 25.4212C102.519 25.2429 102.529 25.0325 102.489 24.8494L102.098 24.9356ZM101.874 25.3737C101.756 25.3793 101.678 25.3514 101.62 25.3046C101.559 25.2548 101.499 25.1664 101.452 25.0144L101.07 25.1327C101.131 25.3299 101.225 25.499 101.369 25.6156C101.517 25.7353 101.697 25.7826 101.894 25.7732L101.874 25.3737ZM101.453 25.0171C101.426 24.927 101.38 24.669 101.322 24.2967C101.266 23.9316 101.2 23.4728 101.135 22.9942C101.003 22.0371 100.871 21.0045 100.804 20.4904L100.407 20.5418C100.474 21.0552 100.607 22.0897 100.738 23.0486C100.804 23.528 100.87 23.9895 100.927 24.358C100.983 24.7193 101.033 25.0084 101.069 25.13L101.453 25.0171ZM100.804 20.4913C100.712 19.7583 100.648 19.2211 100.584 18.6835L100.187 18.7309C100.251 19.2686 100.315 19.8067 100.407 20.5409L100.804 20.4913ZM100.406 18.5083L100.359 18.5033L100.317 18.9011L100.365 18.9061L100.406 18.5083ZM100.167 18.5986C99.9298 18.9897 99.5639 19.6835 99.2075 20.3405L99.5591 20.5313C99.921 19.8641 100.278 19.1861 100.509 18.8058L100.167 18.5986ZM99.2081 20.3393C98.406 21.794 97.3534 23.7223 97.0296 24.4723L97.3968 24.6309C97.7109 23.9035 98.7506 21.9974 99.5584 20.5325L99.2081 20.3393ZM97.0223 24.4921C97.0062 24.5437 96.9518 24.6093 96.8641 24.6501C96.7795 24.6895 96.689 24.694 96.6138 24.6598L96.4484 25.024C96.6496 25.1154 96.8638 25.0915 97.0329 25.0128C97.1989 24.9355 97.3474 24.7932 97.4041 24.6111L97.0223 24.4921ZM96.622 24.6638C96.5312 24.6174 96.4941 24.5542 96.4794 24.4847C96.4628 24.4067 96.4743 24.3137 96.5021 24.2309L96.1228 24.1038C96.0802 24.2308 96.0522 24.3991 96.0881 24.5679C96.1258 24.7453 96.2332 24.9144 96.4402 25.02L96.622 24.6638ZM96.4997 24.2376C96.7116 23.673 97.3172 22.5017 97.9581 21.3256C98.5963 20.1546 99.2598 18.9964 99.5794 18.4664L99.2368 18.2599C98.9133 18.7964 98.2469 19.96 97.6069 21.1342C96.9697 22.3033 96.349 23.5009 96.1252 24.0971L96.4997 24.2376ZM99.5789 18.4672C99.823 18.0664 100.104 17.8651 100.47 17.9036L100.512 17.5058C99.9231 17.4439 99.5182 17.798 99.2373 18.2591L99.5789 18.4672ZM104.559 24.4308L104.359 24.4295L104.359 24.4347L104.559 24.4308ZM105.206 18.2727L105.405 18.2997L105.405 18.2936L105.206 18.2727ZM106.275 18.4333L106.475 18.4543L106.475 18.441L106.275 18.4333ZM105.963 20.7172L105.766 20.6831L105.703 21.0474L106.042 20.9008L105.963 20.7172ZM106.757 20.511L106.741 20.3117L106.741 20.3117L106.757 20.511ZM108.546 20.9404L108.438 21.109L108.44 21.1099L108.546 20.9404ZM109.598 24.0192L109.406 23.9624L109.406 23.9637L109.598 24.0192ZM105.85 21.7913L105.742 21.6229L105.661 21.6748L105.651 21.7704L105.85 21.7913ZM105.627 24.3741L105.428 24.3926L105.428 24.3953L105.627 24.3741ZM108.682 23.7782L108.876 23.8278L108.876 23.8255L108.682 23.7782ZM107.999 21.7759L108.109 21.6088L108.107 21.6073L107.999 21.7759ZM106.335 25.6712C105.685 25.6029 105.3 25.4441 105.076 25.2401C104.859 25.0429 104.766 24.7785 104.759 24.4269L104.359 24.4347C104.367 24.8569 104.483 25.2419 104.806 25.5359C105.122 25.8229 105.607 25.9969 106.293 26.069L106.335 25.6712ZM104.759 24.4321C104.764 23.7101 104.924 22.1829 105.085 20.8236C105.165 20.1468 105.245 19.5157 105.305 19.0537C105.335 18.8228 105.36 18.6342 105.377 18.5034C105.386 18.438 105.393 18.387 105.397 18.3524C105.4 18.3351 105.401 18.3219 105.403 18.313C105.403 18.3086 105.404 18.3052 105.404 18.303C105.404 18.3019 105.404 18.301 105.404 18.3005C105.404 18.3002 105.404 18.3 105.404 18.2999C105.404 18.2998 105.404 18.2997 105.404 18.2997C105.404 18.2997 105.404 18.2997 105.206 18.2727C105.008 18.2458 105.008 18.2458 105.008 18.2458C105.008 18.2459 105.008 18.2459 105.008 18.246C105.008 18.2461 105.008 18.2464 105.008 18.2466C105.008 18.2472 105.008 18.2481 105.008 18.2492C105.007 18.2515 105.007 18.2549 105.006 18.2594C105.005 18.2683 105.003 18.2816 105.001 18.299C104.996 18.3338 104.989 18.385 104.981 18.4506C104.963 18.5818 104.938 18.7709 104.908 19.0023C104.848 19.4652 104.768 20.0978 104.688 20.7766C104.528 22.1287 104.364 23.6804 104.359 24.4295L104.759 24.4321ZM105.405 18.2936C105.423 18.1282 105.601 17.9844 105.79 18.0042L105.831 17.6064C105.447 17.566 105.05 17.8443 105.007 18.2518L105.405 18.2936ZM105.79 18.0042C105.88 18.0137 105.949 18.054 105.996 18.1164C106.045 18.1806 106.081 18.2821 106.076 18.4257L106.475 18.441C106.484 18.2241 106.43 18.0265 106.315 17.8745C106.198 17.7205 106.027 17.627 105.831 17.6064L105.79 18.0042ZM106.076 18.4124C106.037 18.7905 105.827 20.3325 105.766 20.6831L106.16 20.7513C106.222 20.3908 106.434 18.8399 106.474 18.4542L106.076 18.4124ZM105.963 20.7172C106.042 20.9008 106.042 20.9008 106.042 20.9008C106.042 20.9008 106.042 20.9008 106.042 20.9008C106.042 20.9008 106.042 20.9009 106.042 20.9009C106.042 20.9009 106.042 20.9009 106.042 20.9009C106.042 20.9008 106.042 20.9008 106.043 20.9007C106.043 20.9004 106.044 20.9001 106.045 20.8996C106.048 20.8985 106.052 20.8969 106.057 20.8947C106.067 20.8904 106.083 20.884 106.104 20.8762C106.145 20.8604 106.204 20.8389 106.274 20.8165C106.417 20.7711 106.6 20.7244 106.773 20.7104L106.741 20.3117C106.525 20.3292 106.31 20.3855 106.153 20.4353C106.074 20.4605 106.008 20.4847 105.961 20.5027C105.937 20.5117 105.918 20.5192 105.905 20.5245C105.899 20.5272 105.894 20.5294 105.89 20.5309C105.888 20.5317 105.887 20.5323 105.886 20.5327C105.885 20.5329 105.885 20.5331 105.884 20.5333C105.884 20.5333 105.884 20.5334 105.884 20.5335C105.884 20.5335 105.884 20.5335 105.884 20.5335C105.884 20.5335 105.884 20.5336 105.884 20.5336C105.884 20.5336 105.884 20.5336 105.963 20.7172ZM106.772 20.7104C107.39 20.662 107.935 20.7876 108.438 21.1089L108.653 20.7718C108.071 20.4 107.438 20.2569 106.741 20.3117L106.772 20.7104ZM108.44 21.1099C109.374 21.6948 109.758 22.7744 109.406 23.9624L109.789 24.076C110.186 22.7364 109.756 21.462 108.652 20.7709L108.44 21.1099ZM109.406 23.9637C109.234 24.5557 108.798 25.0156 108.231 25.313C107.663 25.6109 106.977 25.7387 106.335 25.6712L106.293 26.069C107.012 26.1446 107.778 26.0027 108.417 25.6672C109.057 25.3314 109.582 24.7943 109.79 24.0748L109.406 23.9637ZM105.651 21.7704C105.602 22.2425 105.534 22.7121 105.482 23.1811C105.431 23.6334 105.397 24.0652 105.428 24.3926L105.826 24.3556C105.8 24.0738 105.829 23.6795 105.879 23.2255C105.928 22.7881 106.001 22.2709 106.049 21.8122L105.651 21.7704ZM105.428 24.3953C105.458 24.6732 105.679 24.834 105.862 24.9204C106.052 25.0105 106.265 25.0525 106.399 25.0666L106.44 24.6688C106.336 24.6577 106.17 24.6238 106.033 24.5588C105.888 24.4901 105.833 24.4167 105.826 24.3529L105.428 24.3953ZM106.399 25.0666C106.874 25.1165 107.422 25.039 107.884 24.8412C108.342 24.645 108.751 24.3125 108.876 23.8278L108.488 23.7285C108.408 24.0428 108.128 24.3015 107.726 24.4735C107.329 24.6439 106.849 24.7117 106.44 24.6688L106.399 25.0666ZM108.876 23.8255C108.989 23.3617 108.985 22.929 108.855 22.5475C108.724 22.1642 108.471 21.8465 108.109 21.6088L107.889 21.9429C108.183 22.136 108.377 22.3842 108.476 22.6767C108.577 22.971 108.587 23.324 108.488 23.7308L108.876 23.8255ZM108.107 21.6073C107.359 21.1294 106.45 21.1689 105.742 21.6229L105.958 21.9597C106.543 21.5844 107.283 21.5558 107.892 21.9444L108.107 21.6073ZM120.21 26.4378L120.023 26.5098L120.026 26.5161L120.21 26.4378ZM120.039 27.1438L119.946 26.9666L119.942 26.9689L120.039 27.1438ZM119.379 27.0019L119.223 27.1278L119.379 27.0019ZM119.204 26.5975L119.396 26.543L119.359 26.4127L119.225 26.3986L119.204 26.5975ZM119.132 26.5899L119.153 26.391L119.09 26.3844L119.035 26.4154L119.132 26.5899ZM115.619 26.2689L115.769 26.1372L115.717 26.0782L115.64 26.07L115.619 26.2689ZM115.547 26.2614L115.568 26.0625L115.488 26.0541L115.425 26.1031L115.547 26.2614ZM111.859 25.0773L112.049 25.0161L112.049 25.0149L111.859 25.0773ZM112.119 20.3024L112.31 20.3635L112.312 20.3557L112.119 20.3024ZM112.792 19.8664L112.843 19.673L112.836 19.6711L112.828 19.6697L112.792 19.8664ZM113.207 20.5133L113.401 20.563L113.404 20.5494L113.207 20.5133ZM112.899 24.8247L113.091 24.7702L113.09 24.7678L112.899 24.8247ZM115.174 25.4499L115.229 25.6421L115.41 25.5902L115.369 25.4068L115.174 25.4499ZM115.098 24.7904L114.898 24.7943L114.898 24.7978L115.098 24.7904ZM115.802 20.6171L115.611 20.5576L115.611 20.5594L115.802 20.6171ZM116.447 20.2264L116.496 20.0321L116.484 20.0299L116.447 20.2264ZM116.835 20.8946L116.642 20.8437L116.641 20.8479L116.835 20.8946ZM116.145 24.7073L116.345 24.7049L116.344 24.6953L116.145 24.7073ZM117.046 26.0086L117.081 25.8118L117.079 25.8114L117.046 26.0086ZM118.939 25.6767L119.021 25.859L119.141 25.8051L119.139 25.6739L118.939 25.6767ZM119.433 20.9746L119.243 20.9124L119.24 20.9213L119.433 20.9746ZM120.483 21.085L120.287 21.0476L120.286 21.0509L120.483 21.085ZM120.026 26.5161C120.058 26.5908 120.07 26.6962 120.051 26.7924C120.032 26.8892 119.99 26.944 119.946 26.9667L120.132 27.3209C120.319 27.2229 120.41 27.0384 120.444 26.8692C120.477 26.6993 120.459 26.5121 120.394 26.3594L120.026 26.5161ZM119.942 26.9689C119.873 27.0071 119.794 27.0095 119.712 26.9843C119.625 26.9579 119.56 26.9076 119.534 26.8761L119.223 27.1278C119.304 27.2281 119.441 27.3198 119.594 27.3668C119.752 27.4151 119.949 27.4225 120.136 27.3187L119.942 26.9689ZM119.534 26.8761C119.522 26.8609 119.496 26.8147 119.465 26.7403C119.437 26.6718 119.412 26.5978 119.396 26.543L119.011 26.6519C119.031 26.7215 119.061 26.8102 119.096 26.893C119.127 26.97 119.171 27.0638 119.223 27.1278L119.534 26.8761ZM119.225 26.3986L119.153 26.391L119.111 26.7888L119.183 26.7964L119.225 26.3986ZM119.035 26.4154C118.615 26.6501 117.976 26.9189 117.224 26.8398L117.182 27.2376C118.053 27.3291 118.778 27.0173 119.23 26.7645L119.035 26.4154ZM117.224 26.8398C117.107 26.8275 116.296 26.7388 115.769 26.1372L115.468 26.4006C116.105 27.1279 117.06 27.2248 117.182 27.2376L117.224 26.8398ZM115.64 26.07L115.568 26.0625L115.526 26.4603L115.598 26.4678L115.64 26.07ZM115.425 26.1031C115.177 26.294 114.841 26.3865 114.515 26.4242C114.192 26.4614 113.902 26.4424 113.768 26.4283L113.726 26.8261C113.878 26.8421 114.199 26.8632 114.561 26.8215C114.919 26.7802 115.339 26.6748 115.669 26.4197L115.425 26.1031ZM113.768 26.4283C113.412 26.3909 113.062 26.2811 112.764 26.0633C112.467 25.847 112.21 25.516 112.049 25.0161L111.668 25.1386C111.853 25.7127 112.158 26.1165 112.528 26.3865C112.896 26.6551 113.318 26.7832 113.726 26.8261L113.768 26.4283ZM112.049 25.0149C111.957 24.7373 111.913 24.3446 111.904 23.8897C111.896 23.4384 111.924 22.9403 111.97 22.4598C112.062 21.4928 112.227 20.6226 112.31 20.3634L111.929 20.2414C111.832 20.5426 111.665 21.4475 111.572 22.4216C111.525 22.9117 111.496 23.4258 111.504 23.897C111.513 24.3647 111.559 24.805 111.669 25.1397L112.049 25.0149ZM112.312 20.3557C112.365 20.1625 112.562 20.0275 112.756 20.0631L112.828 19.6697C112.407 19.5924 112.029 19.8795 111.926 20.2491L112.312 20.3557ZM112.741 20.0598C112.851 20.0886 112.924 20.1457 112.967 20.2125C113.01 20.2792 113.03 20.3685 113.01 20.4772L113.404 20.5494C113.44 20.3503 113.406 20.1564 113.304 19.9966C113.201 19.837 113.039 19.7246 112.843 19.673L112.741 20.0598ZM113.013 20.4637C112.908 20.8745 112.754 21.7068 112.664 22.5647C112.618 22.9943 112.589 23.4341 112.59 23.8332C112.592 24.229 112.623 24.5988 112.707 24.8815L113.09 24.7678C113.023 24.54 112.992 24.2154 112.99 23.8319C112.989 23.4517 113.017 23.0272 113.061 22.6065C113.15 21.7638 113.301 20.9511 113.401 20.5629L113.013 20.4637ZM112.706 24.8791C112.764 25.0826 112.893 25.4371 113.29 25.652C113.682 25.8641 114.286 25.9137 115.229 25.6421L115.118 25.2577C114.22 25.5166 113.739 25.4401 113.48 25.3002C113.227 25.1632 113.139 24.9398 113.091 24.7702L112.706 24.8791ZM115.369 25.4068C115.323 25.1986 115.31 25.1129 115.298 24.783L114.898 24.7978C114.911 25.1463 114.926 25.2565 114.978 25.493L115.369 25.4068ZM115.298 24.7865C115.28 23.8442 115.406 22.6242 115.994 20.6749L115.611 20.5594C115.014 22.5398 114.879 23.802 114.898 24.7943L115.298 24.7865ZM115.993 20.6767C116.014 20.6116 116.07 20.5361 116.154 20.4819C116.236 20.4287 116.328 20.4073 116.409 20.4228L116.484 20.0299C116.282 19.9915 116.087 20.0487 115.937 20.1459C115.788 20.2422 115.664 20.389 115.611 20.5576L115.993 20.6767ZM116.398 20.4203C116.515 20.4498 116.584 20.5093 116.62 20.5743C116.657 20.6411 116.671 20.7331 116.642 20.8437L117.028 20.9455C117.08 20.7508 117.064 20.5501 116.969 20.3798C116.874 20.2078 116.708 20.0858 116.496 20.0324L116.398 20.4203ZM116.641 20.8479C116.426 21.7413 116.241 22.5168 116.116 23.1603C115.991 23.8 115.921 24.3276 115.945 24.7194L116.344 24.6953C116.324 24.3584 116.384 23.8742 116.509 23.2368C116.632 22.6034 116.815 21.8368 117.03 20.9413L116.641 20.8479ZM115.945 24.7098C115.947 24.9311 115.985 25.2583 116.134 25.5539C116.287 25.8577 116.559 26.1293 117.012 26.2059L117.079 25.8114C116.774 25.7599 116.598 25.5863 116.491 25.3742C116.38 25.1538 116.347 24.8943 116.345 24.7049L115.945 24.7098ZM117.01 26.2054C118.028 26.3902 118.726 25.9919 119.021 25.859L118.857 25.4944C118.543 25.6355 117.958 25.971 117.081 25.8119L117.01 26.2054ZM119.139 25.6739C119.132 25.1817 119.234 24.09 119.35 23.0732C119.408 22.5677 119.468 22.0854 119.519 21.7123C119.571 21.3298 119.611 21.0818 119.626 21.0279L119.24 20.9213C119.216 21.0081 119.173 21.2913 119.123 21.6583C119.071 22.0346 119.011 22.5199 118.953 23.0279C118.837 24.038 118.732 25.1567 118.739 25.6795L119.139 25.6739ZM119.623 21.0367C119.668 20.899 119.729 20.8131 119.791 20.7646C119.849 20.719 119.921 20.6961 120.016 20.7061L120.058 20.3083C119.867 20.2882 119.69 20.3356 119.544 20.4496C119.402 20.5607 119.305 20.7236 119.243 20.9125L119.623 21.0367ZM120.016 20.7061C120.214 20.7269 120.318 20.8823 120.287 21.0476L120.68 21.1223C120.756 20.7199 120.481 20.3527 120.058 20.3083L120.016 20.7061ZM120.286 21.0509C120.255 21.2319 120.081 22.3049 119.968 23.4698C119.911 24.052 119.869 24.661 119.868 25.1946C119.867 25.7193 119.904 26.2009 120.024 26.5098L120.397 26.3658C120.307 26.1339 120.267 25.7204 120.268 25.1956C120.269 24.6798 120.31 24.0848 120.366 23.5085C120.478 22.3562 120.65 21.2936 120.68 21.1191L120.286 21.0509ZM125.169 27.8518L125.152 28.0511L125.153 28.0512L125.169 27.8518ZM122.655 25.826L122.849 25.7784L122.848 25.7748L122.655 25.826ZM123.201 22.2394L123.04 22.1205L123.038 22.1231L123.201 22.2394ZM125.7 20.9576L125.689 20.7578L125.683 20.7584L125.7 20.9576ZM128.786 22.8264L128.975 22.7594L128.973 22.7542L128.786 22.8264ZM128.566 24.2271L128.429 24.0818L128.425 24.0853L128.566 24.2271ZM123.763 25.3874L123.753 25.1876L123.569 25.1969L123.563 25.3807L123.763 25.3874ZM124.826 26.754L124.766 26.945L124.772 26.9465L124.826 26.754ZM127.455 26.3063L127.56 26.4766L127.561 26.4762L127.455 26.3063ZM128.266 26.3916L128.429 26.2751L128.423 26.2661L128.415 26.2578L128.266 26.3916ZM128.112 27.1718L128.015 26.9966L128.006 27.0019L128.112 27.1718ZM125.714 21.9727L125.702 21.773L125.699 21.7733L125.714 21.9727ZM124.081 22.8146L123.921 22.6953L123.915 22.703L124.081 22.8146ZM123.629 24.3598L123.429 24.3555L123.425 24.5471L123.617 24.5594L123.629 24.3598ZM127.632 23.4773L127.539 23.2999L127.529 23.3056L127.632 23.4773ZM127.709 23.1959L127.897 23.1256L127.894 23.1185L127.891 23.1115L127.709 23.1959ZM127.444 22.7337L127.286 22.8555L127.289 22.8595L127.444 22.7337ZM125.186 27.6526C124.025 27.553 123.064 26.658 122.849 25.7784L122.461 25.8735C122.718 26.9259 123.826 27.9375 125.152 28.0511L125.186 27.6526ZM122.848 25.7748C122.4 24.0816 122.909 22.9913 123.363 22.3556L123.038 22.1231C122.53 22.8343 121.977 24.0455 122.462 25.8771L122.848 25.7748ZM123.362 22.3582C123.882 21.6538 124.761 21.2412 125.718 21.1569L125.683 20.7584C124.642 20.8502 123.645 21.3023 123.04 22.1205L123.362 22.3582ZM125.711 21.1573C127.126 21.0792 128.25 21.9947 128.599 22.8986L128.973 22.7542C128.563 21.696 127.285 20.6698 125.689 20.7579L125.711 21.1573ZM128.598 22.8934C128.784 23.4173 128.678 23.8466 128.429 24.0818L128.704 24.3724C129.098 23.9996 129.198 23.3887 128.974 22.7594L128.598 22.8934ZM128.425 24.0853C128.31 24.1996 128.069 24.3289 127.715 24.4581C127.37 24.5844 126.943 24.7014 126.481 24.8037C125.558 25.0081 124.517 25.1492 123.753 25.1876L123.773 25.5871C124.561 25.5474 125.625 25.403 126.568 25.1942C127.039 25.0897 127.485 24.9682 127.853 24.8339C128.212 24.7025 128.526 24.5492 128.707 24.369L128.425 24.0853ZM123.563 25.3807C123.549 25.7917 123.765 26.1551 124.007 26.4178C124.249 26.6796 124.549 26.8771 124.766 26.9449L124.885 26.563C124.752 26.5216 124.51 26.3724 124.301 26.1467C124.094 25.9217 123.954 25.6564 123.963 25.394L123.563 25.3807ZM124.772 26.9465C125.651 27.1943 126.614 27.0593 127.56 26.4766L127.35 26.1361C126.489 26.6666 125.641 26.7757 124.88 26.5615L124.772 26.9465ZM127.561 26.4762C127.734 26.3681 127.984 26.3765 128.118 26.5255L128.415 26.2578C128.117 25.927 127.64 25.9555 127.349 26.1365L127.561 26.4762ZM128.104 26.5081C128.15 26.573 128.172 26.6746 128.152 26.7798C128.132 26.8849 128.078 26.9617 128.015 26.9968L128.209 27.3467C128.402 27.2398 128.51 27.044 128.545 26.8532C128.581 26.6627 128.551 26.4451 128.429 26.2751L128.104 26.5081ZM128.006 27.0019C127.119 27.5538 126.131 27.7286 125.185 27.6525L125.153 28.0512C126.169 28.133 127.246 27.9457 128.218 27.3416L128.006 27.0019ZM125.699 21.7733C124.995 21.8286 124.327 22.1485 123.921 22.6954L124.242 22.9338C124.567 22.4957 125.12 22.22 125.73 22.172L125.699 21.7733ZM123.915 22.703C123.634 23.1218 123.443 23.7443 123.429 24.3555L123.829 24.3641C123.841 23.8196 124.014 23.2737 124.247 22.9261L123.915 22.703ZM123.617 24.5594C124.234 24.5989 125.104 24.4649 125.885 24.2799C126.663 24.0957 127.397 23.8508 127.734 23.649L127.529 23.3056C127.249 23.4733 126.568 23.7072 125.793 23.8907C125.022 24.0733 124.199 24.1959 123.642 24.1602L123.617 24.5594ZM127.725 23.6544C127.831 23.5985 127.884 23.4931 127.906 23.4125C127.93 23.327 127.933 23.2226 127.897 23.1256L127.522 23.2662C127.522 23.2668 127.524 23.2713 127.524 23.2799C127.524 23.2883 127.523 23.2976 127.521 23.3059C127.518 23.3145 127.516 23.3185 127.516 23.3183C127.516 23.318 127.518 23.3159 127.521 23.3127C127.524 23.3094 127.53 23.3047 127.539 23.3002L127.725 23.6544ZM127.891 23.1115C127.834 22.9901 127.746 22.7888 127.6 22.6078L127.289 22.8595C127.399 22.995 127.467 23.148 127.528 23.2803L127.891 23.1115ZM127.603 22.6118C127.158 22.0324 126.495 21.7251 125.702 21.773L125.726 22.1723C126.391 22.1321 126.924 22.3848 127.286 22.8555L127.603 22.6118Z" fill="#F3AADB" mask="url(#path-1-outside-1_424_7057)"/>
<path d="M139.812 9.90155C141.683 11.3569 143.47 12.7019 144.422 14.9403C144.875 16.0082 145.107 17.077 145.229 18.2207M139 1.2207C141.85 3.10796 144.85 4.91125 147.215 7.41988C148.587 8.87443 149.721 10.5439 150.626 12.323C151.319 13.6859 152 15.0426 152 16.593" stroke="#F3AADB" stroke-width="2" stroke-linecap="round"/>
<path d="M14.1875 29.5399C12.3167 28.0846 10.5295 26.7395 9.57832 24.5011C9.12452 23.4332 8.89318 22.3644 8.77084 21.2207M15 38.2207C12.1503 36.3334 9.15011 34.5302 6.78472 32.0215C5.41323 30.567 4.2792 28.8975 3.37423 27.1185C2.68093 25.7555 2 24.3988 2 22.8484" stroke="#F3AADB" stroke-width="2" stroke-linecap="round"/>
</svg>
