<svg width="36" height="36" viewBox="0 0 36 36" fill="none" xmlns="http://www.w3.org/2000/svg">
<g clip-path="url(#clip0_2501_1547)">
<path d="M32.0876 3.12939H22.696C22.264 3.12939 21.9133 3.48004 21.9133 3.91205C21.9133 4.34407 22.264 4.69471 22.696 4.69471H32.0876C32.5196 4.69471 32.8702 4.34407 32.8702 3.91205C32.8702 3.48004 32.5196 3.12939 32.0876 3.12939Z" fill="#BDC5D4"/>
<path d="M32.6418 3.35948L29.5112 0.22892C29.206 -0.0763068 28.7098 -0.0763068 28.4045 0.22892C28.0993 0.534148 28.0993 1.03036 28.4045 1.33559L30.981 3.91204L28.403 6.49004C28.0978 6.79527 28.0978 7.29148 28.403 7.59671C28.5564 7.74851 28.7567 7.82526 28.9571 7.82526C29.1575 7.82526 29.3578 7.74859 29.5112 7.59671L32.6418 4.46615C32.947 4.16085 32.947 3.66471 32.6418 3.35948Z" fill="#BDC5D4"/>
<path d="M11.7392 3.12939H2.3476C1.91559 3.12939 1.56494 3.48004 1.56494 3.91205C1.56494 4.34407 1.91559 4.69471 2.3476 4.69471H11.7392C12.1712 4.69471 12.5219 4.34407 12.5219 3.91205C12.5219 3.48004 12.1712 3.12939 11.7392 3.12939Z" fill="#BDC5D4"/>
<path d="M3.45407 3.91198L6.03053 1.33553C6.33575 1.0303 6.33575 0.534086 6.03053 0.228859C5.7253 -0.0763678 5.22909 -0.0763678 4.92386 0.228859L1.79337 3.35949C1.48815 3.66472 1.48815 4.16093 1.79337 4.46616L4.92393 7.59672C5.07735 7.74853 5.27766 7.82527 5.47804 7.82527C5.67842 7.82527 5.87872 7.7486 6.0306 7.59518C6.33583 7.28995 6.33583 6.79374 6.0306 6.48851L3.45407 3.91198Z" fill="#BDC5D4"/>
<path d="M29.0926 16.3466L29.3068 16.9547L29.8425 16.5959C30.261 16.3156 30.7642 16.1514 31.3049 16.1514C32.7552 16.1514 33.9354 17.3316 33.9354 18.782V27.391C33.9354 31.8623 30.2963 35.5 25.8265 35.5H22.159C20.4101 35.5 18.767 34.82 17.5304 33.5834C17.5304 33.5834 17.5304 33.5834 17.5304 33.5834L6.38409 22.4356L6.38406 22.4356C5.66365 21.7151 5.66365 20.5432 6.38406 19.8227C7.63722 18.5711 9.65331 18.4298 11.0664 19.4903L11.0666 19.4904L13.787 21.5299L14.5869 22.1297V21.1299V7.82514C14.5869 6.37477 15.7671 5.19458 17.2175 5.19458C18.6678 5.19458 19.848 6.37477 19.848 7.82514V12.942V13.8113L20.5994 13.3742C20.9854 13.1497 21.4343 13.0209 21.9133 13.0209C23.0573 13.0209 24.036 13.7568 24.3968 14.7814L24.611 15.3895L25.1467 15.0307C25.5652 14.7504 26.0684 14.5862 26.6091 14.5862C27.7531 14.5862 28.7318 15.3221 29.0926 16.3466ZM6.78419 20.2217L6.78363 20.2222C6.28315 20.7227 6.28314 21.5355 6.7836 22.036C6.78361 22.036 6.78362 22.036 6.78363 22.036L17.9299 33.1837L18.2835 32.8302L17.9299 33.1838C19.0584 34.3123 20.5615 34.9346 22.159 34.9346H25.8265C29.986 34.9346 33.3702 31.5505 33.3702 27.3909V18.782C33.3702 17.6438 32.4454 16.7167 31.3049 16.7167C30.1644 16.7167 29.2397 17.6437 29.2397 18.782V19.5646C29.2397 19.7205 29.1129 19.8473 28.957 19.8473C28.8012 19.8473 28.6744 19.7205 28.6744 19.5646V17.2167C28.6744 16.0785 27.7496 15.1515 26.6091 15.1515C25.4686 15.1515 24.5439 16.0784 24.5439 17.2167V19.5646C24.5439 19.7205 24.4171 19.8473 24.2612 19.8473C24.1054 19.8473 23.9786 19.7205 23.9786 19.5646V15.6515C23.9786 14.5133 23.0538 13.5863 21.9133 13.5863C20.7728 13.5863 19.8481 14.5132 19.8481 15.6515V19.5646C19.8481 19.7205 19.7213 19.8473 19.5654 19.8473C19.4096 19.8473 19.2828 19.7205 19.2828 19.5646V7.82514C19.2828 6.68692 18.358 5.7599 17.2175 5.7599C16.077 5.7599 15.1523 6.68683 15.1523 7.82514V22.6951C15.1523 22.8011 15.0922 22.8993 14.9961 22.9479C14.9011 22.9951 14.7849 22.9849 14.7 22.9212L10.7291 19.9427C10.7291 19.9426 10.729 19.9426 10.729 19.9425C10.1922 19.5396 9.55359 19.3432 8.92158 19.3432C8.1442 19.3432 7.36737 19.6403 6.78419 20.2217Z" stroke="#CAD1E1"/>
<path d="M7.00007 19.5C3.40007 20.3 12.1667 28.8334 17.0001 33C26.5001 37.9999 31.5 32.5001 32.5 31.5001C33.3 30.7001 33.5 25.5001 33.5 23.0001V20.0001V18.0001L32.5 17.5001L31.5 17.0001H30.5L29.5 18.0001H28.5V16.5001L27.5 15.0001L26 15.5001L25 16.0001L24.5 17.0001C24.3333 17.3335 24 17.8001 24 17.0001V14.5001C24 14.1001 23 13.6668 22.5 13.5001H22L20 14.0001L19.5 20.0001V17.5001C19.5 17.0001 19 14.5001 19 14.0001V11.0001L19.5 8.00012L18.5 6.50012L18 6.00012H16.5L15 8.00012V23.0001L13 21.5C12.5 20.5 10.6001 18.7 7.00007 19.5Z" fill="#CAD1E1"/>
</g>
<defs>
<clipPath id="clip0_2501_1547">
<rect width="36" height="36" fill="white"/>
</clipPath>
</defs>
</svg>
