<svg width="139" height="36" viewBox="0 0 139 36" fill="none" xmlns="http://www.w3.org/2000/svg">
<g clip-path="url(#clip0_2046_13392)">
<path d="M135.088 3.12939H125.696C125.264 3.12939 124.913 3.48004 124.913 3.91205C124.913 4.34407 125.264 4.69471 125.696 4.69471H135.088C135.52 4.69471 135.87 4.34407 135.87 3.91205C135.87 3.48004 135.52 3.12939 135.088 3.12939Z" fill="#BDC5D4"/>
<path d="M135.642 3.35948L132.511 0.22892C132.206 -0.0763068 131.71 -0.0763068 131.405 0.22892C131.099 0.534148 131.099 1.03036 131.405 1.33559L133.981 3.91204L131.403 6.49004C131.098 6.79527 131.098 7.29148 131.403 7.59671C131.556 7.74851 131.757 7.82526 131.957 7.82526C132.157 7.82526 132.358 7.74859 132.511 7.59671L135.642 4.46615C135.947 4.16085 135.947 3.66471 135.642 3.35948Z" fill="#BDC5D4"/>
<path d="M114.739 3.12939H105.348C104.916 3.12939 104.565 3.48004 104.565 3.91205C104.565 4.34407 104.916 4.69471 105.348 4.69471H114.739C115.171 4.69471 115.522 4.34407 115.522 3.91205C115.522 3.48004 115.171 3.12939 114.739 3.12939Z" fill="#BDC5D4"/>
<path d="M106.454 3.91198L109.031 1.33553C109.336 1.0303 109.336 0.534086 109.031 0.228859C108.725 -0.0763678 108.229 -0.0763678 107.924 0.228859L104.793 3.35949C104.488 3.66472 104.488 4.16093 104.793 4.46616L107.924 7.59672C108.077 7.74853 108.278 7.82527 108.478 7.82527C108.678 7.82527 108.879 7.7486 109.031 7.59518C109.336 7.28995 109.336 6.79374 109.031 6.48851L106.454 3.91198Z" fill="#BDC5D4"/>
<path d="M132.093 16.3466L132.307 16.9547L132.843 16.5959C133.261 16.3156 133.764 16.1514 134.305 16.1514C135.755 16.1514 136.935 17.3316 136.935 18.782V27.391C136.935 31.8623 133.296 35.5 128.826 35.5H125.159C123.41 35.5 121.767 34.82 120.53 33.5834C120.53 33.5834 120.53 33.5834 120.53 33.5834L109.384 22.4356L109.384 22.4356C108.664 21.7151 108.664 20.5432 109.384 19.8227C110.637 18.5711 112.653 18.4298 114.066 19.4903L114.067 19.4904L116.787 21.5299L117.587 22.1297V21.1299V7.82514C117.587 6.37477 118.767 5.19458 120.217 5.19458C121.668 5.19458 122.848 6.37477 122.848 7.82514V12.942V13.8113L123.599 13.3742C123.985 13.1497 124.434 13.0209 124.913 13.0209C126.057 13.0209 127.036 13.7568 127.397 14.7814L127.611 15.3895L128.147 15.0307C128.565 14.7504 129.068 14.5862 129.609 14.5862C130.753 14.5862 131.732 15.3221 132.093 16.3466ZM109.784 20.2217L109.784 20.2222C109.283 20.7227 109.283 21.5355 109.784 22.036C109.784 22.036 109.784 22.036 109.784 22.036L120.93 33.1837L121.283 32.8302L120.93 33.1838C122.058 34.3123 123.561 34.9346 125.159 34.9346H128.826C132.986 34.9346 136.37 31.5505 136.37 27.3909V18.782C136.37 17.6438 135.445 16.7167 134.305 16.7167C133.164 16.7167 132.24 17.6437 132.24 18.782V19.5646C132.24 19.7205 132.113 19.8473 131.957 19.8473C131.801 19.8473 131.674 19.7205 131.674 19.5646V17.2167C131.674 16.0785 130.75 15.1515 129.609 15.1515C128.469 15.1515 127.544 16.0784 127.544 17.2167V19.5646C127.544 19.7205 127.417 19.8473 127.261 19.8473C127.105 19.8473 126.979 19.7205 126.979 19.5646V15.6515C126.979 14.5133 126.054 13.5863 124.913 13.5863C123.773 13.5863 122.848 14.5132 122.848 15.6515V19.5646C122.848 19.7205 122.721 19.8473 122.565 19.8473C122.41 19.8473 122.283 19.7205 122.283 19.5646V7.82514C122.283 6.68692 121.358 5.7599 120.218 5.7599C119.077 5.7599 118.152 6.68683 118.152 7.82514V22.6951C118.152 22.8011 118.092 22.8993 117.996 22.9479C117.901 22.9951 117.785 22.9849 117.7 22.9212L113.729 19.9427C113.729 19.9426 113.729 19.9426 113.729 19.9425C113.192 19.5396 112.554 19.3432 111.922 19.3432C111.144 19.3432 110.367 19.6403 109.784 20.2217Z" stroke="#CAD1E1"/>
<path d="M110 19.5C106.4 20.3 115.167 28.8334 120 33C129.5 37.9999 134.5 32.5001 135.5 31.5001C136.3 30.7001 136.5 25.5001 136.5 23.0001V20.0001V18.0001L135.5 17.5001L134.5 17.0001H133.5L132.5 18.0001H131.5V16.5001L130.5 15.0001L129 15.5001L128 16.0001L127.5 17.0001C127.333 17.3335 127 17.8001 127 17.0001V14.5001C127 14.1001 126 13.6668 125.5 13.5001H125L123 14.0001L122.5 20.0001V17.5001C122.5 17.0001 122 14.5001 122 14.0001V11.0001L122.5 8.00012L121.5 6.50012L121 6.00012H119.5L118 8.00012V23.0001L116 21.5C115.5 20.5 113.6 18.7 110 19.5Z" fill="#CAD1E1"/>
</g>
<mask id="path-7-outside-1_2046_13392" maskUnits="userSpaceOnUse" x="11.7909" y="6.99452" width="74.168" height="22.5484" fill="black">
<rect fill="white" x="11.7909" y="6.99452" width="74.168" height="22.5484"/>
<path d="M13.4943 16.2675C13.2908 16.2139 13.2363 15.9669 13.2899 15.7633C13.4774 15.2039 13.8884 13.8957 14.3672 12.4015C14.9783 10.5674 15.5768 8.6997 15.8313 8.1151C16.0146 7.74825 16.2474 7.67619 16.4384 7.69626C16.7884 7.73306 16.9945 7.91559 17.1898 8.96576C17.3465 9.77055 17.5385 11.1582 17.7397 12.3055C18.0104 13.8624 18.1748 15.0541 18.3274 16.0515C18.355 16.2475 18.2378 16.4443 18.0385 16.5038C17.8392 16.5633 17.598 16.4092 17.5544 16.2116C17.3633 15.2745 17.1763 13.8391 16.9751 12.3861C16.8225 11.3886 16.6775 10.4725 16.5635 9.72043C16.545 9.58978 16.4251 8.7406 16.3941 8.57646L16.3464 8.57144C16.2426 8.94665 16.1103 9.28669 15.9856 9.70796C15.7345 10.5664 15.3821 11.6234 15.0874 12.5899C14.6246 14.0857 14.1826 15.5354 13.97 16.0279C13.9021 16.2138 13.7121 16.3386 13.4943 16.2675ZM20.6656 17.3269C20.282 17.3027 20.2008 17.0045 20.1982 16.5699C20.1637 15.8262 20.1167 15.049 20.0915 14.3707C20.0646 13.7082 20.0201 13.06 20.0527 12.5969C20.0727 12.406 20.2486 12.2636 20.4395 12.2836C20.6464 12.3054 20.7729 12.4795 20.8005 12.6755C20.8425 13.1947 20.8687 14.935 20.8747 15.3378C20.8781 15.6117 20.8639 16.2055 20.8388 16.4442L20.8706 16.4475C21.0197 16.254 21.2474 15.924 21.4433 15.5907C21.9959 14.6191 22.6599 13.3536 23.1303 12.2447C23.2333 12.0303 23.5096 11.5445 23.9359 11.6215C24.8647 11.8156 24.4575 16.1488 24.4249 16.3062C24.3713 16.5098 24.2574 16.6748 23.9869 16.6463C23.796 16.6263 23.6888 16.4219 23.7088 16.231C23.7791 15.5627 23.7664 14.6121 23.7738 13.7763C23.7628 13.4212 23.7678 13.0678 23.7417 12.5503L23.7099 12.5469C23.6371 12.7806 23.4085 13.2714 23.1992 13.732C22.4734 15.2806 21.3691 17.3687 20.6656 17.3269ZM27.4682 17.5592C26.6215 17.5024 26.0628 16.8484 25.8843 16.2505C25.5701 15.1074 25.8003 14.295 26.0875 13.8586C26.4148 13.346 26.8704 12.9917 27.4315 12.8576C28.0436 12.6967 28.6466 12.7762 29.0512 13.06C29.5018 13.3648 29.7858 13.8773 29.8797 14.5146C29.9073 14.7106 29.7775 14.8739 29.5799 14.9175C29.3186 14.9544 29.1444 14.7752 29.1293 14.6127C29.0631 14.1714 28.9407 13.8046 28.6392 13.612C28.3678 13.4387 28.037 13.3717 27.6225 13.4891C27.2256 13.5921 26.8755 13.861 26.6796 14.1944C26.4033 14.6801 26.3699 15.3041 26.5618 16.0804C26.6507 16.4597 26.9137 16.7126 27.2076 16.824C27.7035 17.0048 28.3776 16.8665 28.9721 16.4142C29.1287 16.3019 29.4043 16.2826 29.545 16.4744C29.6698 16.6645 29.5953 16.914 29.4245 17.0087C28.8048 17.394 28.1064 17.6102 27.4682 17.5592ZM34.8843 12.6113C35.0434 12.628 35.221 12.7754 35.1976 12.9982C35.1725 13.2369 35.0016 13.3315 34.8107 13.3115C34.4891 13.3098 33.9941 13.2739 33.402 13.2438C33.3352 14.186 33.0843 16.5729 32.9689 17.6708C32.9489 17.8618 32.773 18.0042 32.5502 17.9808C32.3434 17.959 32.201 17.7832 32.221 17.5922C32.3231 16.6216 32.5823 14.1551 32.6491 13.213C32.1048 13.1879 31.3804 13.1922 31.269 13.1805C31.078 13.1605 30.9356 12.9846 30.9507 12.8414C30.9674 12.6823 31.0972 12.5189 31.2915 12.5072C32.5142 12.507 34.2955 12.5494 34.8843 12.6113ZM40.1838 18.3326C40.2449 18.516 40.25 18.7739 40.0473 18.8653C39.8095 18.9851 39.616 18.836 39.5448 18.7481C39.4736 18.6602 39.4108 18.4927 39.348 18.3252L39.3161 18.3219C39.1638 18.5472 38.9192 18.7306 38.7149 18.8378C38.1723 19.1026 37.385 18.9394 37.153 18.8506C36.0885 18.417 35.6612 17.2781 36.1434 16.0578C36.5176 15.0997 37.6641 14.7536 39.1398 15.1018C39.1431 15.0699 39.2184 14.3539 39.1907 14.1579C39.179 13.9636 38.9385 13.6488 38.5206 13.4922C38.055 13.3307 37.4545 13.3802 37.0191 13.8492C36.8751 13.995 36.5962 14.0461 36.4488 13.918C36.303 13.774 36.2963 13.5319 36.4244 13.3845C37.1001 12.619 38.1554 12.6816 38.8086 12.8951C39.5398 13.1328 39.9176 13.6712 39.9453 14.1729C40.0057 14.8228 39.8184 16.6049 39.8846 17.352C39.9224 17.7581 40.0941 18.114 40.1838 18.3326ZM37.4444 18.2216C38.1404 18.4879 38.9275 18.0397 39.1762 17.6636C39.0739 17.1059 39.1157 16.4024 39.1332 15.7768C38.6005 15.6404 37.1592 15.4245 36.8218 16.3383C36.4878 17.2202 36.7341 17.9379 37.4444 18.2216ZM42.1644 18.943C41.8336 18.876 41.6979 18.6365 41.7272 18.2052C41.7463 17.5637 41.7622 17.2597 41.8215 16.542C41.9009 15.3276 42.0021 14.2121 42.0916 13.5136C42.1116 13.3227 42.2875 13.1803 42.5262 13.2054C42.7171 13.2254 42.8562 13.4331 42.852 13.6257C42.8119 14.3133 42.7049 15.3317 42.5878 16.4456C42.5419 17.036 42.4758 17.5117 42.4139 18.1004L42.4616 18.1055C42.6458 17.8835 42.9983 17.4379 43.2822 17.0334C43.9219 16.1514 44.6712 14.9914 45.1761 14.0148C45.2757 13.8322 45.547 13.3942 45.9683 13.5189C46.8376 13.8194 46.0402 18.4977 46.0059 18.671C45.9699 18.8603 45.7907 19.0345 45.5236 18.9743C45.3343 18.9383 45.2304 18.7021 45.2664 18.5129C45.381 17.8814 45.5031 16.7198 45.6018 15.781C45.647 15.3513 45.6653 14.8706 45.6862 14.5189L45.6384 14.5139C45.4986 14.7727 45.2542 15.2618 45.0021 15.6697C44.1925 17.0969 42.7164 19.0493 42.1644 18.943ZM43.9715 12.3115C43.5101 12.263 43.0444 12.1015 42.6482 11.7381C42.5008 11.61 42.4798 11.3504 42.6205 11.2364C42.7612 11.1225 42.9999 11.1476 43.1314 11.274C43.7889 11.9062 45.0685 11.6707 45.612 11.2452C45.7878 11.1028 46.0014 11.0609 46.163 11.2066C46.3088 11.3506 46.215 11.6303 46.0903 11.7459C45.6632 12.1354 44.799 12.3985 43.9715 12.3115ZM54.1752 20.3502C54.0604 20.3703 53.6928 20.3477 53.3159 20.2598C52.7355 20.1184 52.2422 19.7609 51.99 19.2517C51.5912 18.4537 51.5266 17.3851 51.843 16.5174C52.0565 15.8641 52.4952 15.3632 52.9851 15.1412C53.7782 14.7902 54.6944 14.9508 55.2949 15.207C55.3878 15.0881 55.5285 14.9742 55.7287 15.0596C55.8686 15.1064 55.995 15.2806 55.975 15.4716C55.97 15.5193 55.6849 18.9965 55.6598 19.2352L55.7059 19.2562C55.7427 19.2118 55.8114 19.1707 55.8482 19.1263C55.9538 19.0409 56.1656 19.0149 56.308 19.1907C56.4345 19.3649 56.3332 19.5634 56.2403 19.6824C56.2034 19.7267 55.7956 20.0861 55.7077 20.1573C55.681 20.7176 55.6786 21.2 55.6786 21.5056C55.7317 23.9084 55.1365 25.1328 54.3175 25.5777C54.0253 25.7561 53.5806 25.8542 53.1509 25.809C52.8804 25.7806 52.6133 25.7203 52.3863 25.5838C51.9022 25.2916 51.4289 24.7432 51.6272 23.6217C51.8121 22.6276 52.5415 21.9642 53.3177 21.161C53.5672 20.9298 53.9399 20.5989 54.2036 20.3853L54.1752 20.3502ZM53.9347 19.7296C54.3643 19.7748 54.7898 19.7069 54.9464 19.5946C55.0215 18.2672 55.1075 16.6835 55.1895 15.9038C54.888 15.7112 54.0136 15.4585 53.3194 15.7877C52.8965 15.9846 52.6411 16.4243 52.5248 16.766C52.2904 17.4653 52.3718 18.3748 52.6792 18.9702C52.9046 19.4283 53.5051 19.6845 53.9347 19.7296ZM53.8844 24.953C54.4304 24.6564 54.9654 23.6991 54.9584 21.623C54.9676 21.3826 54.9734 20.8684 54.975 20.5468L54.9113 20.5401C54.6074 20.83 54.2138 21.2069 53.9609 21.4699C52.9352 22.5043 52.5065 23.2154 52.4002 23.7673C52.3073 24.192 52.4021 24.6685 52.8066 24.9523C53.1366 25.1801 53.5939 25.1155 53.8844 24.953ZM61.7978 20.6043C61.859 20.7877 61.8641 21.0457 61.6614 21.137C61.4236 21.2568 61.2301 21.1077 61.1589 21.0198C61.0877 20.9319 61.0249 20.7644 60.962 20.5969L60.9302 20.5936C60.7778 20.8189 60.5333 21.0023 60.329 21.1096C59.7863 21.3743 58.9991 21.2111 58.7671 21.1224C57.7026 20.6887 57.2753 19.5498 57.7575 18.3295C58.1317 17.3714 59.2781 17.0253 60.7538 17.3735C60.7572 17.3417 60.8324 16.6256 60.8048 16.4297C60.793 16.2354 60.5526 15.9205 60.1347 15.764C59.669 15.6024 59.0686 15.6519 58.6331 16.121C58.4891 16.2667 58.2103 16.3178 58.0628 16.1897C57.9171 16.0457 57.9104 15.8037 58.0385 15.6563C58.7142 14.8907 59.7694 14.9533 60.4227 15.1668C61.1538 15.4045 61.5316 15.943 61.5593 16.4446C61.6197 17.0945 61.4324 18.8767 61.4987 19.6237C61.5365 20.0299 61.7082 20.3858 61.7978 20.6043ZM59.0584 20.4934C59.7544 20.7596 60.5416 20.3114 60.7903 19.9353C60.688 19.3776 60.7298 18.6741 60.7472 18.0485C60.2146 17.9121 58.7733 17.6962 58.4359 18.61C58.1019 19.4919 58.3482 20.2096 59.0584 20.4934ZM65.6604 16.4735C65.9309 16.5019 66.1403 16.6526 66.2074 16.9331C66.2602 17.1961 66.811 20.9864 66.8621 21.2653C66.9057 21.463 66.8329 21.6966 66.5892 21.7193C66.379 21.7294 66.2458 21.6188 66.1737 21.386C66.0908 21.1038 65.8258 19.0328 65.7369 18.3477C65.6757 17.8586 65.6329 17.5002 65.5902 17.1418L65.5584 17.1384C65.4026 17.3956 65.1615 17.8529 64.9221 18.2942C64.3854 19.2675 63.688 20.5456 63.4753 21.0381C63.4268 21.1938 63.2049 21.3153 63.0206 21.2316C62.8221 21.1303 62.8279 20.9217 62.8748 20.7819C63.1653 20.008 64.5099 17.6235 64.9386 16.9124C65.1136 16.6251 65.3422 16.44 65.6604 16.4735ZM69.5427 21.9171C68.6516 21.8234 68.3827 21.4734 68.3726 20.9575C68.3791 19.9768 68.8041 16.8521 68.8041 16.8521C68.8241 16.6612 69.0159 16.5205 69.2068 16.5405C69.3978 16.5606 69.5259 16.7189 69.5168 16.9592C69.49 17.2138 69.3495 18.2448 69.3085 18.4818C69.3085 18.4818 69.5781 18.3653 69.8377 18.3443C70.2757 18.3099 70.6685 18.3995 71.0304 18.6306C71.7096 19.0559 71.9811 19.8406 71.7317 20.6831C71.4789 21.5575 70.4497 22.0124 69.5427 21.9171ZM69.2332 19.1978C69.168 19.8184 69.0467 20.5135 69.0844 20.9197C69.1087 21.1475 69.4538 21.232 69.6129 21.2488C70.2017 21.3106 70.9847 21.0551 71.1211 20.5224C71.2625 19.942 71.1025 19.4747 70.6661 19.1876C70.2139 18.8987 69.6645 18.9214 69.2332 19.1978ZM78.8066 22.2955C78.8711 22.4471 78.846 22.6858 78.6928 22.7662C78.522 22.8608 78.3235 22.7595 78.2523 22.6716C78.2095 22.6189 78.1593 22.4849 78.1358 22.402L78.0881 22.3969C77.7975 22.5595 77.3428 22.753 76.8018 22.6961C76.7222 22.6878 76.1334 22.6259 75.7456 22.1829L75.6979 22.1779C75.3127 22.4753 74.6888 22.4419 74.4978 22.4218C73.9886 22.3683 73.4693 22.1046 73.2389 21.3885C72.9708 20.572 73.2929 18.5788 73.4126 18.2053C73.4645 18.0177 73.6563 17.8769 73.8615 17.9146C74.065 17.9682 74.1755 18.1407 74.1379 18.3458C74.0015 18.8785 73.7304 20.5393 73.9323 21.2201C74.0027 21.4688 74.2214 21.9905 75.4491 21.6369C75.4164 21.4887 75.4072 21.4234 75.3987 21.1973C75.3861 20.5524 75.4731 19.725 75.8681 18.4151C75.9167 18.2593 76.1084 18.1186 76.2977 18.1546C76.5171 18.2098 76.6101 18.3965 76.5566 18.6001C76.2703 19.7927 76.067 20.6561 76.0964 21.1419C76.0998 21.4157 76.1911 21.9241 76.697 22.0094C77.3284 22.124 77.7564 21.8794 77.959 21.7881C77.9497 21.1114 78.2366 18.841 78.2885 18.6534C78.3596 18.4356 78.5003 18.3217 78.6913 18.3418C78.8981 18.3635 79.0246 18.5377 78.9886 18.727C78.9476 18.964 78.5285 21.5745 78.8066 22.2955ZM82.1124 23.2382C81.2833 23.1672 80.594 22.5316 80.4364 21.8876C80.1255 20.7127 80.4797 19.9455 80.8004 19.4966C81.1755 18.989 81.801 18.7008 82.4668 18.6421C83.4701 18.5866 84.2708 19.2339 84.5238 19.8879C84.6604 20.2723 84.5918 20.619 84.3774 20.8217C83.9822 21.2146 82.2102 21.5431 81.175 21.5952C81.16 22.0441 81.65 22.4335 81.8837 22.5063C82.4306 22.6603 83.0344 22.579 83.6365 22.2079C83.7914 22.1115 84.0334 22.1048 84.1775 22.2647C84.2897 22.4213 84.2454 22.6902 84.0746 22.7848C83.4549 23.1702 82.7665 23.2909 82.1124 23.2382ZM82.4761 19.3188C82.0381 19.3532 81.6311 19.5517 81.3875 19.88C81.2158 20.1355 81.0945 20.5249 81.0862 20.9102C81.8692 20.9603 83.3423 20.5681 83.7543 20.3219C83.8054 20.295 83.8313 20.2012 83.8062 20.1343C83.7668 20.0497 83.7148 19.9316 83.6294 19.8261C83.3605 19.4761 82.9619 19.2894 82.4761 19.3188Z"/>
</mask>
<path d="M13.4943 16.2675C13.2908 16.2139 13.2363 15.9669 13.2899 15.7633C13.4774 15.2039 13.8884 13.8957 14.3672 12.4015C14.9783 10.5674 15.5768 8.6997 15.8313 8.1151C16.0146 7.74825 16.2474 7.67619 16.4384 7.69626C16.7884 7.73306 16.9945 7.91559 17.1898 8.96576C17.3465 9.77055 17.5385 11.1582 17.7397 12.3055C18.0104 13.8624 18.1748 15.0541 18.3274 16.0515C18.355 16.2475 18.2378 16.4443 18.0385 16.5038C17.8392 16.5633 17.598 16.4092 17.5544 16.2116C17.3633 15.2745 17.1763 13.8391 16.9751 12.3861C16.8225 11.3886 16.6775 10.4725 16.5635 9.72043C16.545 9.58978 16.4251 8.7406 16.3941 8.57646L16.3464 8.57144C16.2426 8.94665 16.1103 9.28669 15.9856 9.70796C15.7345 10.5664 15.3821 11.6234 15.0874 12.5899C14.6246 14.0857 14.1826 15.5354 13.97 16.0279C13.9021 16.2138 13.7121 16.3386 13.4943 16.2675ZM20.6656 17.3269C20.282 17.3027 20.2008 17.0045 20.1982 16.5699C20.1637 15.8262 20.1167 15.049 20.0915 14.3707C20.0646 13.7082 20.0201 13.06 20.0527 12.5969C20.0727 12.406 20.2486 12.2636 20.4395 12.2836C20.6464 12.3054 20.7729 12.4795 20.8005 12.6755C20.8425 13.1947 20.8687 14.935 20.8747 15.3378C20.8781 15.6117 20.8639 16.2055 20.8388 16.4442L20.8706 16.4475C21.0197 16.254 21.2474 15.924 21.4433 15.5907C21.9959 14.6191 22.6599 13.3536 23.1303 12.2447C23.2333 12.0303 23.5096 11.5445 23.9359 11.6215C24.8647 11.8156 24.4575 16.1488 24.4249 16.3062C24.3713 16.5098 24.2574 16.6748 23.9869 16.6463C23.796 16.6263 23.6888 16.4219 23.7088 16.231C23.7791 15.5627 23.7664 14.6121 23.7738 13.7763C23.7628 13.4212 23.7678 13.0678 23.7417 12.5503L23.7099 12.5469C23.6371 12.7806 23.4085 13.2714 23.1992 13.732C22.4734 15.2806 21.3691 17.3687 20.6656 17.3269ZM27.4682 17.5592C26.6215 17.5024 26.0628 16.8484 25.8843 16.2505C25.5701 15.1074 25.8003 14.295 26.0875 13.8586C26.4148 13.346 26.8704 12.9917 27.4315 12.8576C28.0436 12.6967 28.6466 12.7762 29.0512 13.06C29.5018 13.3648 29.7858 13.8773 29.8797 14.5146C29.9073 14.7106 29.7775 14.8739 29.5799 14.9175C29.3186 14.9544 29.1444 14.7752 29.1293 14.6127C29.0631 14.1714 28.9407 13.8046 28.6392 13.612C28.3678 13.4387 28.037 13.3717 27.6225 13.4891C27.2256 13.5921 26.8755 13.861 26.6796 14.1944C26.4033 14.6801 26.3699 15.3041 26.5618 16.0804C26.6507 16.4597 26.9137 16.7126 27.2076 16.824C27.7035 17.0048 28.3776 16.8665 28.9721 16.4142C29.1287 16.3019 29.4043 16.2826 29.545 16.4744C29.6698 16.6645 29.5953 16.914 29.4245 17.0087C28.8048 17.394 28.1064 17.6102 27.4682 17.5592ZM34.8843 12.6113C35.0434 12.628 35.221 12.7754 35.1976 12.9982C35.1725 13.2369 35.0016 13.3315 34.8107 13.3115C34.4891 13.3098 33.9941 13.2739 33.402 13.2438C33.3352 14.186 33.0843 16.5729 32.9689 17.6708C32.9489 17.8618 32.773 18.0042 32.5502 17.9808C32.3434 17.959 32.201 17.7832 32.221 17.5922C32.3231 16.6216 32.5823 14.1551 32.6491 13.213C32.1048 13.1879 31.3804 13.1922 31.269 13.1805C31.078 13.1605 30.9356 12.9846 30.9507 12.8414C30.9674 12.6823 31.0972 12.5189 31.2915 12.5072C32.5142 12.507 34.2955 12.5494 34.8843 12.6113ZM40.1838 18.3326C40.2449 18.516 40.25 18.7739 40.0473 18.8653C39.8095 18.9851 39.616 18.836 39.5448 18.7481C39.4736 18.6602 39.4108 18.4927 39.348 18.3252L39.3161 18.3219C39.1638 18.5472 38.9192 18.7306 38.7149 18.8378C38.1723 19.1026 37.385 18.9394 37.153 18.8506C36.0885 18.417 35.6612 17.2781 36.1434 16.0578C36.5176 15.0997 37.6641 14.7536 39.1398 15.1018C39.1431 15.0699 39.2184 14.3539 39.1907 14.1579C39.179 13.9636 38.9385 13.6488 38.5206 13.4922C38.055 13.3307 37.4545 13.3802 37.0191 13.8492C36.8751 13.995 36.5962 14.0461 36.4488 13.918C36.303 13.774 36.2963 13.5319 36.4244 13.3845C37.1001 12.619 38.1554 12.6816 38.8086 12.8951C39.5398 13.1328 39.9176 13.6712 39.9453 14.1729C40.0057 14.8228 39.8184 16.6049 39.8846 17.352C39.9224 17.7581 40.0941 18.114 40.1838 18.3326ZM37.4444 18.2216C38.1404 18.4879 38.9275 18.0397 39.1762 17.6636C39.0739 17.1059 39.1157 16.4024 39.1332 15.7768C38.6005 15.6404 37.1592 15.4245 36.8218 16.3383C36.4878 17.2202 36.7341 17.9379 37.4444 18.2216ZM42.1644 18.943C41.8336 18.876 41.6979 18.6365 41.7272 18.2052C41.7463 17.5637 41.7622 17.2597 41.8215 16.542C41.9009 15.3276 42.0021 14.2121 42.0916 13.5136C42.1116 13.3227 42.2875 13.1803 42.5262 13.2054C42.7171 13.2254 42.8562 13.4331 42.852 13.6257C42.8119 14.3133 42.7049 15.3317 42.5878 16.4456C42.5419 17.036 42.4758 17.5117 42.4139 18.1004L42.4616 18.1055C42.6458 17.8835 42.9983 17.4379 43.2822 17.0334C43.9219 16.1514 44.6712 14.9914 45.1761 14.0148C45.2757 13.8322 45.547 13.3942 45.9683 13.5189C46.8376 13.8194 46.0402 18.4977 46.0059 18.671C45.9699 18.8603 45.7907 19.0345 45.5236 18.9743C45.3343 18.9383 45.2304 18.7021 45.2664 18.5129C45.381 17.8814 45.5031 16.7198 45.6018 15.781C45.647 15.3513 45.6653 14.8706 45.6862 14.5189L45.6384 14.5139C45.4986 14.7727 45.2542 15.2618 45.0021 15.6697C44.1925 17.0969 42.7164 19.0493 42.1644 18.943ZM43.9715 12.3115C43.5101 12.263 43.0444 12.1015 42.6482 11.7381C42.5008 11.61 42.4798 11.3504 42.6205 11.2364C42.7612 11.1225 42.9999 11.1476 43.1314 11.274C43.7889 11.9062 45.0685 11.6707 45.612 11.2452C45.7878 11.1028 46.0014 11.0609 46.163 11.2066C46.3088 11.3506 46.215 11.6303 46.0903 11.7459C45.6632 12.1354 44.799 12.3985 43.9715 12.3115ZM54.1752 20.3502C54.0604 20.3703 53.6928 20.3477 53.3159 20.2598C52.7355 20.1184 52.2422 19.7609 51.99 19.2517C51.5912 18.4537 51.5266 17.3851 51.843 16.5174C52.0565 15.8641 52.4952 15.3632 52.9851 15.1412C53.7782 14.7902 54.6944 14.9508 55.2949 15.207C55.3878 15.0881 55.5285 14.9742 55.7287 15.0596C55.8686 15.1064 55.995 15.2806 55.975 15.4716C55.97 15.5193 55.6849 18.9965 55.6598 19.2352L55.7059 19.2562C55.7427 19.2118 55.8114 19.1707 55.8482 19.1263C55.9538 19.0409 56.1656 19.0149 56.308 19.1907C56.4345 19.3649 56.3332 19.5634 56.2403 19.6824C56.2034 19.7267 55.7956 20.0861 55.7077 20.1573C55.681 20.7176 55.6786 21.2 55.6786 21.5056C55.7317 23.9084 55.1365 25.1328 54.3175 25.5777C54.0253 25.7561 53.5806 25.8542 53.1509 25.809C52.8804 25.7806 52.6133 25.7203 52.3863 25.5838C51.9022 25.2916 51.4289 24.7432 51.6272 23.6217C51.8121 22.6276 52.5415 21.9642 53.3177 21.161C53.5672 20.9298 53.9399 20.5989 54.2036 20.3853L54.1752 20.3502ZM53.9347 19.7296C54.3643 19.7748 54.7898 19.7069 54.9464 19.5946C55.0215 18.2672 55.1075 16.6835 55.1895 15.9038C54.888 15.7112 54.0136 15.4585 53.3194 15.7877C52.8965 15.9846 52.6411 16.4243 52.5248 16.766C52.2904 17.4653 52.3718 18.3748 52.6792 18.9702C52.9046 19.4283 53.5051 19.6845 53.9347 19.7296ZM53.8844 24.953C54.4304 24.6564 54.9654 23.6991 54.9584 21.623C54.9676 21.3826 54.9734 20.8684 54.975 20.5468L54.9113 20.5401C54.6074 20.83 54.2138 21.2069 53.9609 21.4699C52.9352 22.5043 52.5065 23.2154 52.4002 23.7673C52.3073 24.192 52.4021 24.6685 52.8066 24.9523C53.1366 25.1801 53.5939 25.1155 53.8844 24.953ZM61.7978 20.6043C61.859 20.7877 61.8641 21.0457 61.6614 21.137C61.4236 21.2568 61.2301 21.1077 61.1589 21.0198C61.0877 20.9319 61.0249 20.7644 60.962 20.5969L60.9302 20.5936C60.7778 20.8189 60.5333 21.0023 60.329 21.1096C59.7863 21.3743 58.9991 21.2111 58.7671 21.1224C57.7026 20.6887 57.2753 19.5498 57.7575 18.3295C58.1317 17.3714 59.2781 17.0253 60.7538 17.3735C60.7572 17.3417 60.8324 16.6256 60.8048 16.4297C60.793 16.2354 60.5526 15.9205 60.1347 15.764C59.669 15.6024 59.0686 15.6519 58.6331 16.121C58.4891 16.2667 58.2103 16.3178 58.0628 16.1897C57.9171 16.0457 57.9104 15.8037 58.0385 15.6563C58.7142 14.8907 59.7694 14.9533 60.4227 15.1668C61.1538 15.4045 61.5316 15.943 61.5593 16.4446C61.6197 17.0945 61.4324 18.8767 61.4987 19.6237C61.5365 20.0299 61.7082 20.3858 61.7978 20.6043ZM59.0584 20.4934C59.7544 20.7596 60.5416 20.3114 60.7903 19.9353C60.688 19.3776 60.7298 18.6741 60.7472 18.0485C60.2146 17.9121 58.7733 17.6962 58.4359 18.61C58.1019 19.4919 58.3482 20.2096 59.0584 20.4934ZM65.6604 16.4735C65.9309 16.5019 66.1403 16.6526 66.2074 16.9331C66.2602 17.1961 66.811 20.9864 66.8621 21.2653C66.9057 21.463 66.8329 21.6966 66.5892 21.7193C66.379 21.7294 66.2458 21.6188 66.1737 21.386C66.0908 21.1038 65.8258 19.0328 65.7369 18.3477C65.6757 17.8586 65.6329 17.5002 65.5902 17.1418L65.5584 17.1384C65.4026 17.3956 65.1615 17.8529 64.9221 18.2942C64.3854 19.2675 63.688 20.5456 63.4753 21.0381C63.4268 21.1938 63.2049 21.3153 63.0206 21.2316C62.8221 21.1303 62.8279 20.9217 62.8748 20.7819C63.1653 20.008 64.5099 17.6235 64.9386 16.9124C65.1136 16.6251 65.3422 16.44 65.6604 16.4735ZM69.5427 21.9171C68.6516 21.8234 68.3827 21.4734 68.3726 20.9575C68.3791 19.9768 68.8041 16.8521 68.8041 16.8521C68.8241 16.6612 69.0159 16.5205 69.2068 16.5405C69.3978 16.5606 69.5259 16.7189 69.5168 16.9592C69.49 17.2138 69.3495 18.2448 69.3085 18.4818C69.3085 18.4818 69.5781 18.3653 69.8377 18.3443C70.2757 18.3099 70.6685 18.3995 71.0304 18.6306C71.7096 19.0559 71.9811 19.8406 71.7317 20.6831C71.4789 21.5575 70.4497 22.0124 69.5427 21.9171ZM69.2332 19.1978C69.168 19.8184 69.0467 20.5135 69.0844 20.9197C69.1087 21.1475 69.4538 21.232 69.6129 21.2488C70.2017 21.3106 70.9847 21.0551 71.1211 20.5224C71.2625 19.942 71.1025 19.4747 70.6661 19.1876C70.2139 18.8987 69.6645 18.9214 69.2332 19.1978ZM78.8066 22.2955C78.8711 22.4471 78.846 22.6858 78.6928 22.7662C78.522 22.8608 78.3235 22.7595 78.2523 22.6716C78.2095 22.6189 78.1593 22.4849 78.1358 22.402L78.0881 22.3969C77.7975 22.5595 77.3428 22.753 76.8018 22.6961C76.7222 22.6878 76.1334 22.6259 75.7456 22.1829L75.6979 22.1779C75.3127 22.4753 74.6888 22.4419 74.4978 22.4218C73.9886 22.3683 73.4693 22.1046 73.2389 21.3885C72.9708 20.572 73.2929 18.5788 73.4126 18.2053C73.4645 18.0177 73.6563 17.8769 73.8615 17.9146C74.065 17.9682 74.1755 18.1407 74.1379 18.3458C74.0015 18.8785 73.7304 20.5393 73.9323 21.2201C74.0027 21.4688 74.2214 21.9905 75.4491 21.6369C75.4164 21.4887 75.4072 21.4234 75.3987 21.1973C75.3861 20.5524 75.4731 19.725 75.8681 18.4151C75.9167 18.2593 76.1084 18.1186 76.2977 18.1546C76.5171 18.2098 76.6101 18.3965 76.5566 18.6001C76.2703 19.7927 76.067 20.6561 76.0964 21.1419C76.0998 21.4157 76.1911 21.9241 76.697 22.0094C77.3284 22.124 77.7564 21.8794 77.959 21.7881C77.9497 21.1114 78.2366 18.841 78.2885 18.6534C78.3596 18.4356 78.5003 18.3217 78.6913 18.3418C78.8981 18.3635 79.0246 18.5377 78.9886 18.727C78.9476 18.964 78.5285 21.5745 78.8066 22.2955ZM82.1124 23.2382C81.2833 23.1672 80.594 22.5316 80.4364 21.8876C80.1255 20.7127 80.4797 19.9455 80.8004 19.4966C81.1755 18.989 81.801 18.7008 82.4668 18.6421C83.4701 18.5866 84.2708 19.2339 84.5238 19.8879C84.6604 20.2723 84.5918 20.619 84.3774 20.8217C83.9822 21.2146 82.2102 21.5431 81.175 21.5952C81.16 22.0441 81.65 22.4335 81.8837 22.5063C82.4306 22.6603 83.0344 22.579 83.6365 22.2079C83.7914 22.1115 84.0334 22.1048 84.1775 22.2647C84.2897 22.4213 84.2454 22.6902 84.0746 22.7848C83.4549 23.1702 82.7665 23.2909 82.1124 23.2382ZM82.4761 19.3188C82.0381 19.3532 81.6311 19.5517 81.3875 19.88C81.2158 20.1355 81.0945 20.5249 81.0862 20.9102C81.8692 20.9603 83.3423 20.5681 83.7543 20.3219C83.8054 20.295 83.8313 20.2012 83.8062 20.1343C83.7668 20.0497 83.7148 19.9316 83.6294 19.8261C83.3605 19.4761 82.9619 19.2894 82.4761 19.3188Z" fill="#F3AADB"/>
<path d="M13.4943 16.2675L13.5565 16.077L13.5452 16.0741L13.4943 16.2675ZM13.2899 15.7633L13.0998 15.6997L13.0965 15.7124L13.2899 15.7633ZM14.3672 12.4015L14.1774 12.3383L14.1767 12.3405L14.3672 12.4015ZM15.8313 8.1151L15.6521 8.02556L15.6479 8.03527L15.8313 8.1151ZM17.1898 8.96576L16.9932 9.00233L16.9935 9.00399L17.1898 8.96576ZM17.7397 12.3055L17.9367 12.2713L17.9367 12.271L17.7397 12.3055ZM18.3274 16.0515L18.5254 16.0235L18.5251 16.0212L18.3274 16.0515ZM17.5544 16.2116L17.3584 16.2515L17.3591 16.2546L17.5544 16.2116ZM16.9751 12.3861L17.1732 12.3586L17.1728 12.3558L16.9751 12.3861ZM16.5635 9.72043L16.3654 9.74839L16.3657 9.75041L16.5635 9.72043ZM16.3941 8.57646L16.5906 8.53933L16.563 8.39311L16.415 8.37756L16.3941 8.57646ZM16.3464 8.57144L16.3673 8.37254L16.1988 8.35483L16.1536 8.51812L16.3464 8.57144ZM15.9856 9.70796L15.7938 9.65118L15.7937 9.65181L15.9856 9.70796ZM15.0874 12.5899L15.2785 12.649L15.2788 12.6482L15.0874 12.5899ZM13.97 16.0279L13.786 15.9485L13.7821 15.9594L13.97 16.0279ZM13.5452 16.0741C13.5225 16.0681 13.5007 16.0528 13.4848 16.0065C13.4673 15.9558 13.4649 15.8842 13.4833 15.8143L13.0965 15.7124C13.0613 15.8461 13.0593 15.9997 13.1066 16.1368C13.1554 16.2783 13.2626 16.4133 13.4434 16.4609L13.5452 16.0741ZM13.4795 15.8269C13.6676 15.2658 14.0797 13.9542 14.5576 12.4626L14.1767 12.3405C13.6971 13.8372 13.2872 15.142 13.1002 15.6998L13.4795 15.8269ZM14.5569 12.4648C15.1715 10.6202 15.7649 8.76865 16.0146 8.19493L15.6479 8.03527C15.3886 8.63075 14.7851 10.5145 14.1774 12.3383L14.5569 12.4648ZM16.0102 8.20451C16.0892 8.04642 16.1695 7.97032 16.2329 7.93326C16.2949 7.89702 16.3566 7.88877 16.4175 7.89517L16.4593 7.49736C16.3292 7.48369 16.179 7.50143 16.031 7.58792C15.8845 7.67358 15.7567 7.81693 15.6524 8.02568L16.0102 8.20451ZM16.4175 7.89517C16.4905 7.90285 16.5407 7.91667 16.5809 7.93841C16.6193 7.95918 16.6607 7.99365 16.7051 8.0611C16.8008 8.20612 16.8958 8.47886 16.9932 9.00233L17.3864 8.9292C17.2885 8.4025 17.1828 8.05889 17.0391 7.8409C16.9639 7.72684 16.8759 7.64315 16.7711 7.58652C16.6681 7.53086 16.5612 7.50807 16.4593 7.49736L16.4175 7.89517ZM16.9935 9.00399C17.1506 9.81081 17.3387 11.1764 17.5427 12.3401L17.9367 12.271C17.7384 11.14 17.5424 9.7303 17.3861 8.92753L16.9935 9.00399ZM17.5427 12.3398C17.8129 13.894 17.9766 15.0813 18.1297 16.0817L18.5251 16.0212C18.3729 15.0269 18.208 13.8308 17.9367 12.2713L17.5427 12.3398ZM18.1293 16.0794C18.1437 16.1814 18.0821 16.2821 17.9813 16.3121L18.0957 16.6954C18.3936 16.6065 18.5663 16.3135 18.5254 16.0235L18.1293 16.0794ZM17.9813 16.3121C17.9484 16.3219 17.897 16.3171 17.8428 16.2838C17.7883 16.2502 17.7575 16.2039 17.7497 16.1685L17.3591 16.2546C17.3949 16.4169 17.5064 16.5464 17.6332 16.6244C17.7604 16.7027 17.9293 16.7451 18.0957 16.6954L17.9813 16.3121ZM17.7504 16.1716C17.5609 15.2426 17.3751 13.8165 17.1732 12.3586L16.777 12.4135C16.9775 13.8616 17.1657 15.3063 17.3584 16.2515L17.7504 16.1716ZM17.1728 12.3558C17.0198 11.3559 16.8754 10.4434 16.7612 9.69045L16.3657 9.75041C16.4796 10.5015 16.6252 11.4214 16.7774 12.4163L17.1728 12.3558ZM16.7615 9.69247C16.7437 9.56601 16.6228 8.70948 16.5906 8.53933L16.1976 8.61359C16.2275 8.77172 16.3464 9.61356 16.3654 9.74839L16.7615 9.69247ZM16.415 8.37756L16.3673 8.37254L16.3255 8.77035L16.3732 8.77536L16.415 8.37756ZM16.1536 8.51812C16.1033 8.7001 16.0458 8.8744 15.9841 9.05908C15.9228 9.24274 15.8574 9.43658 15.7938 9.65118L16.1774 9.76473C16.2386 9.55806 16.3016 9.37125 16.3635 9.18577C16.4251 9.00131 16.4857 8.81799 16.5391 8.62476L16.1536 8.51812ZM15.7937 9.65181C15.5421 10.5118 15.1939 11.5547 14.8961 12.5315L15.2788 12.6482C15.5703 11.692 15.9269 10.621 16.1776 9.76411L15.7937 9.65181ZM14.8964 12.5307C14.4306 14.036 13.9934 15.4691 13.7863 15.9486L14.1536 16.1072C14.3718 15.6017 14.8185 14.1354 15.2785 12.649L14.8964 12.5307ZM13.7821 15.9594C13.7449 16.0612 13.6551 16.1096 13.5564 16.0774L13.4322 16.4576C13.769 16.5676 14.0594 16.3664 14.1578 16.0964L13.7821 15.9594ZM20.6656 17.3269L20.653 17.5265L20.6537 17.5265L20.6656 17.3269ZM20.1982 16.5699L20.3983 16.5687L20.398 16.5606L20.1982 16.5699ZM20.0915 14.3707L20.2913 14.3632L20.2913 14.3626L20.0915 14.3707ZM20.0527 12.5969L19.8536 12.576L19.8532 12.5829L20.0527 12.5969ZM20.8005 12.6755L21.0002 12.6594L20.9986 12.6476L20.8005 12.6755ZM20.8747 15.3378L21.0746 15.3354L21.0746 15.3349L20.8747 15.3378ZM20.8388 16.4442L20.6399 16.4233L20.619 16.6222L20.8179 16.6431L20.8388 16.4442ZM20.8706 16.4475L20.8497 16.6464L20.9609 16.6581L21.0291 16.5696L20.8706 16.4475ZM21.4433 15.5907L21.6158 15.692L21.6172 15.6895L21.4433 15.5907ZM23.1303 12.2447L22.9499 12.158L22.9462 12.1666L23.1303 12.2447ZM23.9359 11.6215L23.9768 11.4256L23.9714 11.4247L23.9359 11.6215ZM24.4249 16.3062L24.6186 16.3572L24.6207 16.3468L24.4249 16.3062ZM23.7738 13.7763L23.9739 13.7781L23.9737 13.7702L23.7738 13.7763ZM23.7417 12.5503L23.9415 12.5402L23.9329 12.3693L23.7627 12.3514L23.7417 12.5503ZM23.7099 12.5469L23.7308 12.348L23.5678 12.3309L23.519 12.4874L23.7099 12.5469ZM23.1992 13.732L23.3804 13.8169L23.3813 13.8148L23.1992 13.732ZM20.6782 17.1273C20.6077 17.1228 20.5643 17.1067 20.5364 17.0895C20.5095 17.0728 20.4865 17.0485 20.4665 17.01C20.4216 16.9237 20.3994 16.7827 20.3982 16.5687L19.9982 16.5711C19.9995 16.7917 20.0193 17.0171 20.1116 17.1946C20.1601 17.288 20.2296 17.3699 20.3258 17.4295C20.4211 17.4886 20.5317 17.5188 20.653 17.5265L20.6782 17.1273ZM20.398 16.5606C20.3633 15.8121 20.3165 15.0412 20.2913 14.3632L19.8916 14.3781C19.9168 15.0569 19.9642 15.8403 19.9984 16.5791L20.398 16.5606ZM20.2913 14.3626C20.2639 13.6886 20.2206 13.0594 20.2522 12.6109L19.8532 12.5829C19.8195 13.0607 19.8652 13.7279 19.8916 14.3788L20.2913 14.3626ZM20.2516 12.6178C20.2601 12.5367 20.3375 12.474 20.4186 12.4825L20.4604 12.0847C20.1596 12.0531 19.8854 12.2752 19.8538 12.576L20.2516 12.6178ZM20.4186 12.4825C20.5051 12.4916 20.5831 12.5657 20.6025 12.7035L20.9986 12.6476C20.9627 12.3934 20.7877 12.1191 20.4604 12.0847L20.4186 12.4825ZM20.6012 12.6916C20.6425 13.2023 20.6687 14.9332 20.6747 15.3408L21.0746 15.3349C21.0688 14.9368 21.0425 13.1871 20.9999 12.6594L20.6012 12.6916ZM20.6747 15.3403C20.678 15.6115 20.6638 16.1962 20.6399 16.4233L21.0377 16.4651C21.064 16.2148 21.0781 15.6119 21.0746 15.3354L20.6747 15.3403ZM20.8179 16.6431L20.8497 16.6464L20.8916 16.2486L20.8597 16.2453L20.8179 16.6431ZM21.0291 16.5696C21.1833 16.3694 21.4157 16.0324 21.6158 15.692L21.2709 15.4893C21.0792 15.8156 20.8561 16.1387 20.7122 16.3255L21.0291 16.5696ZM21.6172 15.6895C22.1718 14.7144 22.8398 13.4415 23.3145 12.3228L22.9462 12.1666C22.4799 13.2657 21.82 14.5238 21.2695 15.4918L21.6172 15.6895ZM23.3106 12.3313C23.359 12.2305 23.4426 12.0787 23.555 11.9635C23.6672 11.8485 23.7797 11.7965 23.9004 11.8183L23.9714 11.4247C23.6658 11.3695 23.4271 11.5218 23.2687 11.6841C23.1107 11.8461 23.0047 12.0444 22.9501 12.1581L23.3106 12.3313ZM23.895 11.8172C23.931 11.8248 23.9868 11.8572 24.0508 11.9705C24.114 12.0823 24.169 12.2455 24.213 12.4545C24.3008 12.8708 24.3359 13.4198 24.3409 13.9794C24.346 14.5366 24.3213 15.0938 24.2933 15.5221C24.2793 15.736 24.2645 15.9171 24.2522 16.0492C24.2461 16.1153 24.2406 16.1687 24.2362 16.2075C24.2314 16.2508 24.2288 16.2668 24.229 16.2657L24.6207 16.3468C24.6276 16.3134 24.6385 16.2147 24.6505 16.0862C24.6631 15.9504 24.6782 15.7656 24.6924 15.5482C24.7209 15.1136 24.7461 14.5459 24.7409 13.9758C24.7358 13.4082 24.7005 12.8276 24.6044 12.372C24.5566 12.145 24.4912 11.9365 24.399 11.7736C24.3077 11.6121 24.173 11.4667 23.9768 11.4257L23.895 11.8172ZM24.2315 16.2553C24.209 16.3405 24.1804 16.3899 24.1522 16.4157C24.1319 16.4344 24.0954 16.4566 24.0078 16.4474L23.966 16.8452C24.149 16.8645 24.3047 16.8185 24.4223 16.7108C24.532 16.6104 24.5872 16.4755 24.6183 16.3572L24.2315 16.2553ZM24.0078 16.4474C23.9848 16.445 23.9605 16.4324 23.9386 16.3971C23.9152 16.3595 23.9021 16.3056 23.9077 16.2519L23.5099 16.2101C23.4955 16.3473 23.526 16.4911 23.5989 16.6084C23.6733 16.728 23.7981 16.8276 23.966 16.8452L24.0078 16.4474ZM23.9077 16.2519C23.9793 15.571 23.9664 14.6045 23.9738 13.7781L23.5738 13.7746C23.5663 14.6198 23.5788 15.5544 23.5099 16.2101L23.9077 16.2519ZM23.9737 13.7702C23.9631 13.4275 23.9675 13.0578 23.9415 12.5402L23.542 12.5603C23.568 13.0778 23.5625 13.4149 23.5739 13.7825L23.9737 13.7702ZM23.7627 12.3514L23.7308 12.348L23.689 12.7458L23.7208 12.7492L23.7627 12.3514ZM23.519 12.4874C23.451 12.7055 23.231 13.1787 23.0172 13.6493L23.3813 13.8148C23.5861 13.3641 23.8232 12.8557 23.9009 12.6064L23.519 12.4874ZM23.0182 13.6472C22.6562 14.4193 22.2031 15.319 21.7556 16.018C21.5313 16.3684 21.3136 16.66 21.1147 16.8593C21.0153 16.9588 20.9259 17.0298 20.848 17.074C20.7697 17.1184 20.7143 17.1294 20.6775 17.1272L20.6537 17.5265C20.7928 17.5348 20.9258 17.4897 21.0454 17.4219C21.1653 17.3538 21.2833 17.2565 21.3977 17.1419C21.6264 16.913 21.862 16.5937 22.0925 16.2337C22.5545 15.512 23.0164 14.5933 23.3803 13.8169L23.0182 13.6472ZM27.4682 17.5592L27.4841 17.3598L27.4816 17.3597L27.4682 17.5592ZM25.8843 16.2505L25.6914 16.3035L25.6927 16.3077L25.8843 16.2505ZM26.0875 13.8586L26.2545 13.9686L26.256 13.9663L26.0875 13.8586ZM27.4315 12.8576L27.478 13.0522L27.4823 13.0511L27.4315 12.8576ZM29.0512 13.06L28.9363 13.2238L28.9391 13.2257L29.0512 13.06ZM29.8797 14.5146L30.0777 14.4867L30.0775 14.4855L29.8797 14.5146ZM29.5799 14.9175L29.6079 15.1155L29.6155 15.1144L29.623 15.1128L29.5799 14.9175ZM29.1293 14.6127L29.3288 14.5942L29.3271 14.583L29.1293 14.6127ZM28.6392 13.612L28.7469 13.4435L28.6392 13.612ZM27.6225 13.4891L27.6728 13.6827L27.677 13.6815L27.6225 13.4891ZM26.6796 14.1944L26.5072 14.093L26.5058 14.0955L26.6796 14.1944ZM26.5618 16.0804L26.7566 16.0348L26.756 16.0324L26.5618 16.0804ZM27.2076 16.824L27.1368 17.011L27.1391 17.0119L27.2076 16.824ZM28.9721 16.4142L28.8556 16.2515L28.851 16.255L28.9721 16.4142ZM29.545 16.4744L29.7124 16.3644L29.7062 16.356L29.545 16.4744ZM29.4245 17.0087L29.3274 16.8335L29.3189 16.8389L29.4245 17.0087ZM27.4816 17.3597C26.7391 17.3098 26.2372 16.7333 26.076 16.1933L25.6927 16.3077C25.8884 16.9636 26.504 17.695 27.4548 17.7588L27.4816 17.3597ZM26.0772 16.1975C25.7764 15.1034 26.0025 14.3515 26.2545 13.9686L25.9204 13.7487C25.598 14.2385 25.3638 15.1114 25.6915 16.3035L26.0772 16.1975ZM26.256 13.9663C26.5598 13.4906 26.9746 13.1724 27.4779 13.0522L27.385 12.6631C26.7662 12.811 26.2699 13.2015 25.9189 13.751L26.256 13.9663ZM27.4823 13.0511C28.0529 12.9011 28.5916 12.9819 28.9363 13.2238L29.166 12.8963C28.7017 12.5705 28.0343 12.4924 27.3806 12.6642L27.4823 13.0511ZM28.9391 13.2257C29.3326 13.4918 29.594 13.9479 29.6818 14.5438L30.0775 14.4855C29.9775 13.8067 29.671 13.2378 29.1632 12.8944L28.9391 13.2257ZM29.6816 14.5426C29.6926 14.6202 29.6478 14.6977 29.5368 14.7222L29.623 15.1128C29.9073 15.0501 30.1221 14.801 30.0777 14.4867L29.6816 14.5426ZM29.552 14.7195C29.3999 14.7409 29.3326 14.6392 29.3284 14.5942L28.9302 14.6312C28.9562 14.9112 29.2373 15.1678 29.6079 15.1155L29.552 14.7195ZM29.3271 14.583C29.2601 14.1368 29.1286 13.6873 28.7469 13.4435L28.5316 13.7806C28.7528 13.9219 28.866 14.206 28.9315 14.6424L29.3271 14.583ZM28.7469 13.4435C28.4258 13.2384 28.0358 13.1643 27.568 13.2966L27.677 13.6815C28.0383 13.5792 28.3099 13.639 28.5316 13.7806L28.7469 13.4435ZM27.5722 13.2955C27.1242 13.4118 26.7301 13.7137 26.5072 14.093L26.852 14.2957C27.0209 14.0083 27.3269 13.7725 27.6728 13.6826L27.5722 13.2955ZM26.5058 14.0955C26.1942 14.6432 26.1693 15.3259 26.3677 16.1284L26.756 16.0324C26.5705 15.2822 26.6124 14.7171 26.8535 14.2932L26.5058 14.0955ZM26.3671 16.126C26.4725 16.576 26.7863 16.8783 27.1368 17.011L27.2785 16.6369C27.041 16.547 26.8289 16.3435 26.7566 16.0348L26.3671 16.126ZM27.1391 17.0119C27.7178 17.2229 28.4627 17.053 29.0932 16.5733L28.851 16.255C28.2925 16.6799 27.6891 16.7867 27.2762 16.6361L27.1391 17.0119ZM29.0887 16.5767C29.1296 16.5474 29.193 16.527 29.2549 16.53C29.3129 16.5328 29.3557 16.5545 29.3837 16.5927L29.7062 16.356C29.5935 16.2025 29.4282 16.1379 29.2741 16.1305C29.1239 16.1232 28.9713 16.1687 28.8556 16.2516L29.0887 16.5767ZM29.3778 16.5841C29.4383 16.6763 29.3972 16.7951 29.3275 16.8338L29.5214 17.1836C29.7934 17.0329 29.9013 16.6526 29.7122 16.3646L29.3778 16.5841ZM29.3189 16.8389C28.7246 17.2084 28.0685 17.4065 27.4841 17.3599L27.4523 17.7586C28.1443 17.8139 28.885 17.5797 29.5301 17.1785L29.3189 16.8389ZM34.8107 13.3115L34.8316 13.1126L34.8217 13.1115L34.8117 13.1115L34.8107 13.3115ZM33.402 13.2438L33.4122 13.0441L33.2164 13.0342L33.2025 13.2297L33.402 13.2438ZM32.6491 13.213L32.8486 13.2271L32.8632 13.0226L32.6583 13.0132L32.6491 13.213ZM31.2915 12.5072L31.2914 12.3068L31.2794 12.3076L31.2915 12.5072ZM34.8634 12.8102C34.8933 12.8134 34.9329 12.831 34.9621 12.8628C34.9879 12.8909 35.0039 12.9277 34.9987 12.9773L35.3965 13.0191C35.4338 12.6638 35.15 12.4381 34.9052 12.4124L34.8634 12.8102ZM34.9987 12.9773C34.991 13.0498 34.9654 13.0779 34.9482 13.0904C34.9276 13.1056 34.89 13.1187 34.8316 13.1126L34.7898 13.5104C34.9224 13.5243 35.0657 13.5001 35.1844 13.4133C35.3067 13.3238 35.379 13.1853 35.3965 13.0191L34.9987 12.9773ZM34.8117 13.1115C34.4961 13.1099 34.0124 13.0746 33.4122 13.0441L33.3919 13.4436C33.9759 13.4732 34.4821 13.5098 34.8097 13.5115L34.8117 13.1115ZM33.2025 13.2297C33.136 14.1675 32.8856 16.5498 32.77 17.6499L33.1678 17.6917C33.283 16.596 33.5344 14.2045 33.6015 13.258L33.2025 13.2297ZM32.77 17.6499C32.7627 17.7198 32.6956 17.7949 32.5711 17.7818L32.5293 18.1797C32.8504 18.2134 33.135 18.0037 33.1678 17.6917L32.77 17.6499ZM32.5711 17.7818C32.4683 17.771 32.412 17.6885 32.4199 17.6131L32.0221 17.5713C31.9899 17.8778 32.2184 18.147 32.5293 18.1797L32.5711 17.7818ZM32.4199 17.6131C32.5217 16.6447 32.7815 14.1736 32.8486 13.2271L32.4496 13.1988C32.3831 14.1367 32.1244 16.5985 32.0221 17.5713L32.4199 17.6131ZM32.6583 13.0132C32.3825 13.0005 32.0623 12.9953 31.7994 12.9918C31.5264 12.9881 31.3335 12.9862 31.2899 12.9816L31.2481 13.3794C31.3158 13.3866 31.5409 13.3883 31.794 13.3917C32.0572 13.3953 32.3714 13.4004 32.64 13.4128L32.6583 13.0132ZM31.2899 12.9816C31.2497 12.9774 31.2103 12.9559 31.1816 12.9238C31.1676 12.9082 31.1587 12.8927 31.1539 12.8801C31.149 12.8674 31.1497 12.8615 31.1496 12.8623L30.7518 12.8205C30.7368 12.9632 30.7996 13.0967 30.8835 13.1905C30.97 13.2871 31.0973 13.3636 31.2481 13.3794L31.2899 12.9816ZM31.1496 12.8623C31.158 12.7825 31.2238 12.7117 31.3036 12.7068L31.2794 12.3076C30.9706 12.3262 30.7768 12.582 30.7518 12.8205L31.1496 12.8623ZM31.2915 12.7072C32.5155 12.707 34.2866 12.7496 34.8634 12.8102L34.9052 12.4124C34.3044 12.3493 32.5129 12.307 31.2914 12.3072L31.2915 12.7072ZM40.1838 18.3326L40.3739 18.2692L40.3688 18.2567L40.1838 18.3326ZM40.0474 18.8653L39.9651 18.6827L39.9574 18.6866L40.0474 18.8653ZM39.5448 18.7481L39.3894 18.874L39.5448 18.7481ZM39.348 18.3252L39.5352 18.2549L39.4918 18.1392L39.3689 18.1263L39.348 18.3252ZM39.3161 18.3219L39.3371 18.1229L39.2177 18.1104L39.1505 18.2098L39.3161 18.3219ZM38.7149 18.8378L38.8026 19.0177L38.8079 19.0149L38.7149 18.8378ZM37.153 18.8506L37.0776 19.0359L37.0816 19.0374L37.153 18.8506ZM36.1434 16.0578L36.3294 16.1313L36.3297 16.1306L36.1434 16.0578ZM39.1398 15.1018L39.0938 15.2964L39.3149 15.3486L39.3387 15.1227L39.1398 15.1018ZM39.1907 14.1579L38.9911 14.17L38.9916 14.178L38.9927 14.1859L39.1907 14.1579ZM38.5206 13.4922L38.5908 13.3049L38.5862 13.3033L38.5206 13.4922ZM37.0191 13.8492L37.1614 13.9899L37.1657 13.9853L37.0191 13.8492ZM36.4488 13.918L36.3079 14.0606L36.3176 14.069L36.4488 13.918ZM36.4244 13.3845L36.2744 13.2522L36.2734 13.2533L36.4244 13.3845ZM38.8086 12.8951L38.7465 13.0852L38.7468 13.0853L38.8086 12.8951ZM39.9453 14.1729L39.7454 14.1839L39.7461 14.1914L39.9453 14.1729ZM39.8846 17.352L39.6854 17.3696L39.6855 17.3705L39.8846 17.352ZM37.4444 18.2216L37.3701 18.4074L37.3729 18.4084L37.4444 18.2216ZM39.1762 17.6636L39.343 17.7739L39.3874 17.7068L39.3729 17.6275L39.1762 17.6636ZM39.1332 15.7768L39.3331 15.7824L39.3376 15.6227L39.1828 15.583L39.1332 15.7768ZM36.8218 16.3383L37.0089 16.4091L37.0094 16.4075L36.8218 16.3383ZM39.994 18.3959C40.0177 18.4667 40.0268 18.543 40.0172 18.6007C40.0086 18.6524 39.99 18.6717 39.9652 18.6829L40.1295 19.0476C40.3074 18.9675 40.3875 18.8122 40.4118 18.6662C40.4351 18.5262 40.4111 18.3819 40.3735 18.2693L39.994 18.3959ZM39.9574 18.6866C39.8944 18.7184 39.8457 18.7133 39.8051 18.6978C39.7575 18.6796 39.7187 18.6449 39.7003 18.6222L39.3894 18.874C39.4422 18.9392 39.5357 19.023 39.6622 19.0714C39.7955 19.1224 39.9625 19.1319 40.1373 19.0439L39.9574 18.6866ZM39.7003 18.6222C39.6821 18.5998 39.6573 18.5562 39.6263 18.4859C39.5965 18.4182 39.5671 18.34 39.5352 18.2549L39.1607 18.3954C39.1917 18.4779 39.2251 18.5672 39.2602 18.647C39.2942 18.7243 39.3364 18.8084 39.3894 18.874L39.7003 18.6222ZM39.3689 18.1263L39.3371 18.1229L39.2952 18.5208L39.3271 18.5241L39.3689 18.1263ZM39.1505 18.2098C39.0221 18.3996 38.8072 18.5635 38.622 18.6607L38.8079 19.0149C39.0313 18.8977 39.3054 18.6947 39.4818 18.4339L39.1505 18.2098ZM38.6272 18.6581C38.4007 18.7686 38.1084 18.795 37.8303 18.7772C37.5534 18.7595 37.3188 18.6999 37.2245 18.6638L37.0816 19.0374C37.2192 19.0901 37.4942 19.1565 37.8047 19.1764C38.1139 19.1962 38.4865 19.1718 38.8026 19.0176L38.6272 18.6581ZM37.2285 18.6654C36.7469 18.4692 36.4157 18.1175 36.2561 17.6806C36.0957 17.2418 36.1035 16.703 36.3294 16.1313L35.9574 15.9843C35.7011 16.6329 35.6815 17.2737 35.8804 17.8179C36.0799 18.3639 36.4947 18.7984 37.0776 19.0359L37.2285 18.6654ZM36.3297 16.1306C36.4918 15.7155 36.8203 15.4279 37.2885 15.2807C37.762 15.1319 38.3791 15.1278 39.0938 15.2964L39.1857 14.9071C38.4248 14.7276 37.7308 14.7224 37.1686 14.8991C36.6011 15.0775 36.1692 15.442 35.9571 15.985L36.3297 16.1306ZM39.3387 15.1227C39.3404 15.1062 39.3603 14.917 39.3763 14.7066C39.3843 14.6015 39.3914 14.4895 39.3948 14.3904C39.398 14.296 39.3984 14.1983 39.3887 14.13L38.9927 14.1859C38.9969 14.2155 38.9982 14.2809 38.995 14.3768C38.9919 14.4681 38.9852 14.5738 38.9774 14.6762C38.9619 14.8808 38.9425 15.0655 38.9409 15.0809L39.3387 15.1227ZM39.3903 14.1458C39.3805 13.9838 39.2842 13.8145 39.1545 13.6748C39.0195 13.5294 38.8287 13.3941 38.5908 13.3049L38.4505 13.6795C38.6304 13.7469 38.7688 13.8473 38.8614 13.947C38.9594 14.0525 38.9891 14.1378 38.9911 14.17L39.3903 14.1458ZM38.5862 13.3033C38.0622 13.1215 37.3729 13.1741 36.8725 13.7132L37.1657 13.9853C37.536 13.5863 38.0477 13.5398 38.4551 13.6812L38.5862 13.3033ZM36.8768 13.7087C36.8394 13.7465 36.7757 13.7786 36.7072 13.7883C36.6371 13.7982 36.596 13.7809 36.58 13.767L36.3176 14.069C36.449 14.1832 36.621 14.2044 36.7632 14.1844C36.907 14.164 37.0547 14.0977 37.1613 13.9898L36.8768 13.7087ZM36.5893 13.7757C36.5181 13.7053 36.517 13.5829 36.5754 13.5157L36.2734 13.2533C36.0756 13.481 36.088 13.8426 36.3082 14.0603L36.5893 13.7757ZM36.5743 13.5169C37.1705 12.8415 38.1214 12.8809 38.7465 13.0852L38.8707 12.705C38.1893 12.4823 37.0297 12.3965 36.2744 13.2522L36.5743 13.5169ZM38.7468 13.0853C39.4118 13.3015 39.7231 13.777 39.7456 14.1839L40.145 14.1619C40.112 13.5655 39.6678 12.9641 38.8705 12.7049L38.7468 13.0853ZM39.7461 14.1914C39.7746 14.4981 39.7444 15.0868 39.713 15.716C39.6823 16.3294 39.6507 16.9788 39.6854 17.3696L40.0839 17.3343C40.0523 16.9781 40.0812 16.3629 40.1125 15.736C40.143 15.1248 40.1763 14.4975 40.1444 14.1544L39.7461 14.1914ZM39.6855 17.3705C39.7267 17.814 39.9148 18.2039 39.9987 18.4085L40.3688 18.2567C40.2734 18.0241 40.1181 17.7023 40.0838 17.3335L39.6855 17.3705ZM37.3729 18.4084C37.7809 18.5645 38.2054 18.5077 38.5522 18.3692C38.8955 18.2321 39.1912 18.0035 39.343 17.7739L39.0094 17.5533C38.9125 17.6998 38.6903 17.8833 38.4038 17.9978C38.1209 18.1108 37.8038 18.145 37.5158 18.0348L37.3729 18.4084ZM39.3729 17.6275C39.2755 17.0963 39.3152 16.4218 39.3331 15.7824L38.9333 15.7712C38.9162 16.3829 38.8723 17.1154 38.9795 17.6997L39.3729 17.6275ZM39.1828 15.583C38.905 15.5119 38.3867 15.4184 37.8859 15.4646C37.3915 15.5101 36.8437 15.7015 36.6342 16.269L37.0094 16.4075C37.1373 16.0612 37.4789 15.9037 37.9226 15.8629C38.36 15.8226 38.8287 15.9053 39.0836 15.9705L39.1828 15.583ZM36.6348 16.2674C36.4563 16.7387 36.4248 17.1874 36.5518 17.5676C36.6805 17.9527 36.9647 18.2454 37.3702 18.4074L37.5186 18.0359C37.2138 17.9141 37.0198 17.706 36.9312 17.4409C36.841 17.1709 36.8533 16.8197 37.0089 16.4091L36.6348 16.2674ZM42.1644 18.943L42.1248 19.139L42.1266 19.1394L42.1644 18.943ZM41.7272 18.2052L41.9269 18.2188L41.9271 18.2112L41.7272 18.2052ZM41.8215 16.542L42.0209 16.5585L42.0211 16.555L41.8215 16.542ZM42.0916 13.5136L42.29 13.539L42.2905 13.5345L42.0916 13.5136ZM42.852 13.6257L43.0518 13.6374L43.052 13.63L42.852 13.6257ZM42.5878 16.4456L42.3888 16.4246L42.3884 16.43L42.5878 16.4456ZM42.4139 18.1004L42.215 18.0795L42.1941 18.2784L42.393 18.2993L42.4139 18.1004ZM42.4616 18.1055L42.4407 18.3044L42.5472 18.3155L42.6155 18.2332L42.4616 18.1055ZM43.2822 17.0334L43.1203 16.9159L43.1185 16.9185L43.2822 17.0334ZM45.1761 14.0148L45.0005 13.919L44.9984 13.9229L45.1761 14.0148ZM45.9683 13.5189L46.0337 13.3297L46.025 13.3271L45.9683 13.5189ZM46.0059 18.671L45.8097 18.6322L45.8094 18.6337L46.0059 18.671ZM45.5236 18.9743L45.5676 18.7791L45.5609 18.7778L45.5236 18.9743ZM45.2664 18.5129L45.4629 18.5502L45.4632 18.5486L45.2664 18.5129ZM45.6862 14.5189L45.8858 14.5307L45.8972 14.3399L45.7071 14.32L45.6862 14.5189ZM45.6385 14.5139L45.6594 14.3149L45.5261 14.3009L45.4625 14.4188L45.6385 14.5139ZM45.0021 15.6697L44.8319 15.5645L44.8282 15.571L45.0021 15.6697ZM42.6482 11.7381L42.7835 11.5906L42.7794 11.5871L42.6482 11.7381ZM42.6205 11.2364L42.7464 11.3919L42.7464 11.3919L42.6205 11.2364ZM43.1314 11.274L42.9927 11.4182L43.1314 11.274ZM45.612 11.2452L45.7353 11.4027L45.7378 11.4006L45.612 11.2452ZM46.163 11.2066L46.3038 11.0642L46.2969 11.058L46.163 11.2066ZM46.0903 11.7459L46.225 11.8937L46.2262 11.8926L46.0903 11.7459ZM42.2041 18.747C42.0828 18.7224 42.0207 18.6733 41.9833 18.6096C41.9407 18.5368 41.9134 18.4157 41.9267 18.2188L41.5276 18.1917C41.5117 18.4261 41.5377 18.6404 41.6383 18.8119C41.7442 18.9925 41.9153 19.0966 42.1248 19.139L42.2041 18.747ZM41.9271 18.2112C41.9461 17.5731 41.9618 17.2726 42.0209 16.5585L41.6222 16.5255C41.5626 17.2468 41.5465 17.5543 41.5273 18.1993L41.9271 18.2112ZM42.0211 16.555C42.1004 15.3427 42.2012 14.2318 42.2899 13.539L41.8932 13.4882C41.803 14.1924 41.7015 15.3125 41.622 16.5289L42.0211 16.555ZM42.2905 13.5345C42.2973 13.4698 42.3593 13.3889 42.5053 13.4043L42.5471 13.0065C42.2157 12.9716 41.926 13.1755 41.8927 13.4927L42.2905 13.5345ZM42.5053 13.4043C42.5321 13.4071 42.5682 13.4248 42.6015 13.4698C42.635 13.5151 42.6531 13.5723 42.6521 13.6214L43.052 13.63C43.0551 13.4866 43.0057 13.3436 42.923 13.2318C42.8401 13.1198 42.7112 13.0237 42.5471 13.0065L42.5053 13.4043ZM42.6524 13.6141C42.6126 14.2959 42.5062 15.3086 42.3889 16.4246L42.7867 16.4665C42.9036 15.3548 43.0113 14.3307 43.0517 13.6374L42.6524 13.6141ZM42.3884 16.43C42.3427 17.0174 42.2777 17.4827 42.215 18.0795L42.6128 18.1213C42.6738 17.5407 42.741 17.0546 42.7872 16.4611L42.3884 16.43ZM42.393 18.2993L42.4407 18.3044L42.4825 17.9066L42.4348 17.9015L42.393 18.2993ZM42.6155 18.2332C42.8021 18.0083 43.1581 17.5584 43.4459 17.1482L43.1185 16.9185C42.8385 17.3174 42.4895 17.7587 42.3077 17.9777L42.6155 18.2332ZM43.4441 17.1508C44.0877 16.2634 44.843 15.0947 45.3537 14.1066L44.9984 13.9229C44.4995 14.888 43.7561 16.0394 43.1203 16.9159L43.4441 17.1508ZM45.3516 14.1106C45.3989 14.0241 45.478 13.8946 45.5835 13.8019C45.6846 13.7131 45.7885 13.6742 45.9115 13.7106L46.025 13.3271C45.7268 13.2388 45.4844 13.3566 45.3196 13.5013C45.1593 13.6421 45.0529 13.8229 45.0005 13.919L45.3516 14.1106ZM45.9029 13.7079C45.9282 13.7166 45.9807 13.7543 46.0346 13.8922C46.0862 14.0244 46.1239 14.2116 46.1467 14.4456C46.1919 14.9116 46.1738 15.5162 46.1266 16.1272C46.0323 17.3472 45.8256 18.5522 45.8097 18.6322L46.2021 18.7099C46.2206 18.6165 46.4297 17.3957 46.5254 16.158C46.5731 15.5402 46.5935 14.9081 46.5448 14.407C46.5206 14.1574 46.4782 13.9285 46.4072 13.7467C46.3384 13.5705 46.2257 13.3962 46.0336 13.3298L45.9029 13.7079ZM45.8094 18.6337C45.8003 18.6815 45.7729 18.7263 45.7344 18.7541C45.6999 18.779 45.6473 18.7972 45.5676 18.7792L45.4796 19.1694C45.8734 19.2582 46.1486 18.9916 46.2024 18.7084L45.8094 18.6337ZM45.5609 18.7778C45.5429 18.7744 45.5137 18.7584 45.4881 18.7091C45.4624 18.6595 45.4537 18.5985 45.4629 18.5502L45.0699 18.4755C45.0431 18.6165 45.0683 18.7682 45.1329 18.893C45.1976 19.0181 45.315 19.1382 45.4862 19.1708L45.5609 18.7778ZM45.4632 18.5486C45.5795 17.9078 45.7024 16.7367 45.8007 15.8019L45.4029 15.7601C45.3038 16.7029 45.1826 17.855 45.0696 18.4771L45.4632 18.5486ZM45.8007 15.8019C45.8465 15.3662 45.8653 14.8762 45.8858 14.5307L45.4865 14.507C45.4653 14.865 45.4474 15.3364 45.4029 15.7601L45.8007 15.8019ZM45.7071 14.32L45.6594 14.3149L45.6175 14.7128L45.6653 14.7178L45.7071 14.32ZM45.4625 14.4188C45.318 14.6862 45.08 15.1632 44.832 15.5645L45.1723 15.7748C45.4284 15.3604 45.6793 14.8591 45.8144 14.6089L45.4625 14.4188ZM44.8282 15.571C44.4286 16.2754 43.8636 17.1106 43.3324 17.7541C43.0663 18.0764 42.8138 18.3444 42.5988 18.5234C42.4911 18.6131 42.399 18.6752 42.3243 18.7115C42.246 18.7495 42.2096 18.748 42.2023 18.7466L42.1266 19.1394C42.2573 19.1645 42.3877 19.1253 42.499 19.0713C42.6138 19.0155 42.7339 18.9314 42.8548 18.8308C43.0972 18.6289 43.3678 18.3395 43.6409 18.0087C44.1882 17.3457 44.7661 16.4911 45.1761 15.7684L44.8282 15.571ZM43.9924 12.1126C43.5637 12.0676 43.1414 11.9191 42.7834 11.5907L42.513 11.8855C42.9474 12.2839 43.4564 12.4585 43.9506 12.5104L43.9924 12.1126ZM42.7794 11.5871C42.7513 11.5627 42.7291 11.5183 42.7259 11.4692C42.7227 11.419 42.74 11.397 42.7464 11.3919L42.4946 11.081C42.3603 11.1898 42.3178 11.3545 42.3267 11.4947C42.3358 11.6359 42.3977 11.7854 42.517 11.889L42.7794 11.5871ZM42.7464 11.3919C42.7681 11.3742 42.8084 11.3599 42.8627 11.3644C42.917 11.3689 42.9644 11.391 42.9927 11.4182L43.27 11.1299C43.1668 11.0307 43.0292 10.9769 42.896 10.9658C42.763 10.9547 42.6136 10.9847 42.4946 11.081L42.7464 11.3919ZM42.9927 11.4182C43.3779 11.7885 43.928 11.8909 44.4285 11.8558C44.929 11.8206 45.4255 11.6452 45.7353 11.4026L45.4887 11.0877C45.255 11.2707 44.84 11.4258 44.4004 11.4567C43.9608 11.4877 43.5424 11.3918 43.27 11.1299L42.9927 11.4182ZM45.7378 11.4006C45.8042 11.3468 45.8663 11.3217 45.9138 11.3167C45.9556 11.3123 45.9924 11.322 46.0291 11.3551L46.2969 11.058C46.172 10.9454 46.0212 10.9032 45.8719 10.9189C45.7282 10.9341 45.5955 11.0011 45.4861 11.0897L45.7378 11.4006ZM46.0224 11.3488C46.0285 11.3548 46.0458 11.3798 46.0321 11.4471C46.0185 11.5137 45.9823 11.5733 45.9543 11.5992L46.2262 11.8926C46.323 11.8029 46.396 11.6649 46.4241 11.5267C46.452 11.3892 46.4433 11.2024 46.3036 11.0643L46.0224 11.3488ZM45.9555 11.5981C45.5801 11.9405 44.7772 12.1951 43.9924 12.1126L43.9506 12.5104C44.8207 12.6019 45.7463 12.3303 46.225 11.8937L45.9555 11.5981ZM54.1752 20.3502L54.3306 20.2243L54.2565 20.1328L54.1406 20.1532L54.1752 20.3502ZM53.3159 20.2598L53.2685 20.4542L53.2705 20.4546L53.3159 20.2598ZM51.99 19.2517L52.1692 19.163L52.1689 19.1623L51.99 19.2517ZM51.843 16.5174L52.031 16.5859L52.0331 16.5795L51.843 16.5174ZM52.9851 15.1412L52.9042 14.9583L52.9026 14.9591L52.9851 15.1412ZM55.2949 15.207L55.2164 15.391L55.3578 15.4513L55.4525 15.3302L55.2949 15.207ZM55.7287 15.0596L55.6502 15.2435L55.6576 15.2467L55.6651 15.2492L55.7287 15.0596ZM55.6598 19.2352L55.4609 19.2143L55.4459 19.3577L55.5771 19.4173L55.6598 19.2352ZM55.7059 19.2562L55.6232 19.4383L55.7622 19.5014L55.8598 19.3839L55.7059 19.2562ZM55.8482 19.1263L55.7224 18.9709L55.707 18.9834L55.6943 18.9986L55.8482 19.1263ZM56.308 19.1907L56.4701 19.0731L56.4635 19.0649L56.308 19.1907ZM56.2403 19.6824L56.3942 19.8101L56.3979 19.8055L56.2403 19.6824ZM55.7077 20.1573L55.5818 20.0019L55.5122 20.0583L55.5079 20.1478L55.7077 20.1573ZM55.6786 21.5056L55.4786 21.5057L55.4787 21.5101L55.6786 21.5056ZM54.3175 25.5777L54.2219 25.4017L54.2133 25.407L54.3175 25.5777ZM52.3863 25.5838L52.2829 25.7551L52.2832 25.7552L52.3863 25.5838ZM51.6272 23.6217L51.4306 23.5852L51.4303 23.5869L51.6272 23.6217ZM53.3177 21.161L53.1816 21.014L53.1739 21.022L53.3177 21.161ZM54.2036 20.3853L54.3295 20.5408L54.4849 20.4149L54.3591 20.2595L54.2036 20.3853ZM54.9464 19.5946L55.0629 19.7572L55.1406 19.7014L55.146 19.6059L54.9464 19.5946ZM55.1895 15.9038L55.3884 15.9247L55.4013 15.8018L55.2971 15.7353L55.1895 15.9038ZM53.3194 15.7877L53.4038 15.969L53.4051 15.9684L53.3194 15.7877ZM52.5248 16.766L52.3354 16.7015L52.3351 16.7024L52.5248 16.766ZM52.6792 18.9702L52.8587 18.8819L52.8569 18.8785L52.6792 18.9702ZM53.8844 24.953L53.789 24.7772L53.7868 24.7784L53.8844 24.953ZM54.9584 21.623L54.7584 21.6154L54.7584 21.6237L54.9584 21.623ZM54.975 20.5468L55.175 20.5478L55.1759 20.3668L54.9959 20.3479L54.975 20.5468ZM54.9113 20.5401L54.9322 20.3412L54.8403 20.3316L54.7733 20.3954L54.9113 20.5401ZM53.9609 21.4699L54.103 21.6107L54.1051 21.6085L53.9609 21.4699ZM52.4002 23.7673L52.5957 23.8101L52.5966 23.8052L52.4002 23.7673ZM52.8066 24.9523L52.6917 25.116L52.693 25.1169L52.8066 24.9523ZM54.1406 20.1532C54.1119 20.1582 54.0147 20.1604 53.8621 20.1463C53.7171 20.133 53.54 20.1067 53.3613 20.0651L53.2705 20.4546C53.4686 20.5008 53.6639 20.5298 53.8255 20.5447C53.9797 20.5588 54.1237 20.5622 54.2097 20.5471L54.1406 20.1532ZM53.3632 20.0655C52.8311 19.9358 52.3913 19.6113 52.1692 19.163L51.8108 19.3405C52.0931 19.9105 52.6399 20.301 53.2685 20.4542L53.3632 20.0655ZM52.1689 19.1623C51.7949 18.4138 51.7332 17.4023 52.0309 16.5859L51.6551 16.4489C51.32 17.3678 51.3876 18.4936 51.8111 19.3411L52.1689 19.1623ZM52.0331 16.5795C52.232 15.9708 52.6367 15.5187 53.0677 15.3234L52.9026 14.9591C52.3537 15.2078 51.8809 15.7574 51.6529 16.4553L52.0331 16.5795ZM53.0661 15.3241C53.7898 15.0038 54.6446 15.147 55.2164 15.391L55.3734 15.0231C54.7442 14.7547 53.7665 14.5766 52.9042 14.9583L53.0661 15.3241ZM55.4525 15.3302C55.4902 15.2819 55.5248 15.2522 55.5544 15.2387C55.5752 15.2292 55.6019 15.2229 55.6502 15.2435L55.8072 14.8756C55.6553 14.8108 55.5115 14.8188 55.3887 14.8746C55.2748 14.9265 55.1925 15.0132 55.1373 15.0839L55.4525 15.3302ZM55.6651 15.2492C55.6842 15.2556 55.7165 15.2771 55.743 15.3189C55.7684 15.3587 55.7808 15.4054 55.7761 15.4507L56.1739 15.4925C56.2036 15.21 56.0226 14.9471 55.7922 14.8699L55.6651 15.2492ZM55.7761 15.4507C55.7732 15.4774 55.7004 16.3632 55.6256 17.2653C55.5504 18.1727 55.4732 19.0979 55.4609 19.2143L55.8587 19.2561C55.8716 19.1339 55.9494 18.2012 56.0242 17.2983C56.0618 16.8457 56.0986 16.3991 56.1265 16.0627C56.1404 15.8945 56.152 15.7538 56.1603 15.6538C56.1645 15.6037 56.1678 15.5639 56.1702 15.5358C56.1714 15.5218 56.1723 15.5108 56.173 15.503C56.1737 15.4939 56.174 15.4916 56.1739 15.4925L55.7761 15.4507ZM55.5771 19.4173L55.6232 19.4383L55.7886 19.0741L55.7426 19.0531L55.5771 19.4173ZM55.8598 19.3839C55.8596 19.3842 55.8602 19.3833 55.8623 19.3813C55.8643 19.3793 55.8671 19.3767 55.871 19.3732C55.8794 19.3658 55.8891 19.3579 55.9029 19.3467C55.9248 19.3289 55.9685 19.2946 56.0021 19.2541L55.6943 18.9986C55.6946 18.9983 55.6939 18.9992 55.6919 19.0012C55.6899 19.0032 55.6871 19.0058 55.6831 19.0093C55.6748 19.0167 55.6651 19.0246 55.6512 19.0358C55.6293 19.0536 55.5856 19.0879 55.552 19.1284L55.8598 19.3839ZM55.9741 19.2818C55.9871 19.2712 56.0172 19.2582 56.0529 19.2602C56.0825 19.2619 56.118 19.2739 56.1526 19.3166L56.4635 19.0649C56.2405 18.7896 55.8995 18.8275 55.7224 18.9709L55.9741 19.2818ZM56.1462 19.3083C56.1678 19.338 56.1725 19.3677 56.1622 19.4097C56.1504 19.4579 56.1199 19.5116 56.0827 19.5592L56.3979 19.8055C56.4536 19.7342 56.5203 19.6291 56.5507 19.5049C56.5827 19.3743 56.5747 19.2177 56.4699 19.0732L56.1462 19.3083ZM56.0864 19.5546C56.0882 19.5524 56.0691 19.5717 56.0188 19.6178C55.9751 19.6579 55.9188 19.7084 55.8604 19.7602C55.7423 19.865 55.6217 19.9696 55.5818 20.0019L55.8336 20.3127C55.8816 20.2738 56.0089 20.1631 56.1259 20.0594C56.1851 20.0069 56.2431 19.9548 56.289 19.9127C56.3282 19.8768 56.3739 19.8345 56.3942 19.8101L56.0864 19.5546ZM55.5079 20.1478C55.481 20.7127 55.4786 21.1988 55.4786 21.5057L55.8786 21.5056C55.8786 21.2011 55.881 20.7224 55.9075 20.1668L55.5079 20.1478ZM55.4787 21.5101C55.5315 23.8988 54.9349 25.0147 54.2221 25.4019L54.413 25.7534C55.3381 25.251 55.932 23.9179 55.8786 21.5012L55.4787 21.5101ZM54.2133 25.407C53.9632 25.5597 53.5636 25.6513 53.1718 25.6101L53.13 26.0079C53.5976 26.057 54.0873 25.9525 54.4217 25.7484L54.2133 25.407ZM53.1718 25.6101C52.9142 25.583 52.6803 25.5273 52.4893 25.4124L52.2832 25.7552C52.5462 25.9134 52.8466 25.9781 53.13 26.0079L53.1718 25.6101ZM52.4896 25.4126C52.2702 25.2802 52.0629 25.0957 51.9304 24.8256C51.7984 24.5568 51.7309 24.1837 51.8242 23.6566L51.4303 23.5869C51.3252 24.1812 51.3952 24.6431 51.5713 25.0019C51.7468 25.3595 52.0183 25.5953 52.2829 25.7551L52.4896 25.4126ZM51.8238 23.6583C51.9952 22.7374 52.6666 22.1225 53.4615 21.2999L53.1739 21.022C52.4163 21.8059 51.6291 22.5179 51.4306 23.5852L51.8238 23.6583ZM53.4536 21.3077C53.7015 21.0781 54.0705 20.7505 54.3295 20.5408L54.0778 20.2299C53.8092 20.4474 53.433 20.7815 53.1818 21.0143L53.4536 21.3077ZM54.3591 20.2595L54.3306 20.2243L54.0197 20.476L54.0482 20.5112L54.3591 20.2595ZM53.9138 19.9285C54.1447 19.9528 54.3749 19.9469 54.5709 19.9192C54.7578 19.8928 54.9437 19.8426 55.0629 19.7572L54.8298 19.4321C54.7924 19.4589 54.6873 19.4988 54.515 19.5231C54.3517 19.5462 54.1543 19.5516 53.9556 19.5307L53.9138 19.9285ZM55.146 19.6059C55.2214 18.275 55.3071 16.6982 55.3884 15.9247L54.9906 15.8829C54.908 16.6688 54.8216 18.2594 54.7467 19.5833L55.146 19.6059ZM55.2971 15.7353C55.1163 15.6198 54.7929 15.5009 54.4283 15.4519C54.0614 15.4026 53.627 15.4205 53.2337 15.607L53.4051 15.9684C53.706 15.8257 54.0558 15.8054 54.375 15.8483C54.6966 15.8915 54.9611 15.9953 55.0818 16.0724L55.2971 15.7353ZM53.235 15.6064C52.7406 15.8365 52.4596 16.3369 52.3354 16.7015L52.7141 16.8305C52.8226 16.5117 53.0523 16.1326 53.4038 15.969L53.235 15.6064ZM52.3351 16.7024C52.0837 17.4527 52.1691 18.4183 52.5015 19.062L52.8569 18.8785C52.5744 18.3314 52.4971 17.4779 52.7144 16.8296L52.3351 16.7024ZM52.4997 19.0585C52.6365 19.3365 52.88 19.541 53.1343 19.6802C53.3896 19.8199 53.6727 19.9032 53.9138 19.9285L53.9556 19.5307C53.7671 19.5109 53.5351 19.4435 53.3264 19.3293C53.1167 19.2146 52.9473 19.062 52.8587 18.8819L52.4997 19.0585ZM53.9799 25.1287C54.3085 24.9503 54.6042 24.5901 54.816 24.0256C55.0283 23.4601 55.162 22.6759 55.1584 21.6223L54.7584 21.6237C54.7619 22.6462 54.6316 23.3787 54.4416 23.885C54.2511 24.3924 54.0064 24.6591 53.789 24.7772L53.9799 25.1287ZM55.1583 21.6306C55.1676 21.3865 55.1734 20.8692 55.175 20.5478L54.775 20.5458C54.7734 20.8677 54.7676 21.3788 54.7585 21.6154L55.1583 21.6306ZM54.9959 20.3479L54.9322 20.3412L54.8904 20.739L54.9541 20.7457L54.9959 20.3479ZM54.7733 20.3954C54.4702 20.6844 54.0733 21.0645 53.8168 21.3313L54.1051 21.6085C54.3544 21.3493 54.7445 20.9755 55.0493 20.6849L54.7733 20.3954ZM53.8189 21.3291C52.7877 22.3691 52.322 23.1161 52.2038 23.7295L52.5966 23.8052C52.6911 23.3148 53.0827 22.6396 54.103 21.6107L53.8189 21.3291ZM52.2049 23.7246C52.1005 24.2018 52.2017 24.7722 52.6917 25.116L52.9215 24.7886C52.6024 24.5647 52.5142 24.1821 52.5956 23.8101L52.2049 23.7246ZM52.693 25.1169C53.107 25.4026 53.6509 25.3127 53.9821 25.1275L53.7868 24.7784C53.5368 24.9183 53.1662 24.9575 52.9202 24.7877L52.693 25.1169ZM61.7978 20.6043L61.988 20.5409L61.9829 20.5284L61.7978 20.6043ZM61.6614 21.137L61.5792 20.9545L61.5714 20.9584L61.6614 21.137ZM61.1589 21.0198L61.0035 21.1457L61.1589 21.0198ZM60.962 20.5969L61.1493 20.5267L61.1059 20.4109L60.9829 20.398L60.962 20.5969ZM60.9302 20.5936L60.9511 20.3947L60.8318 20.3821L60.7646 20.4815L60.9302 20.5936ZM60.329 21.1096L60.4167 21.2894L60.4219 21.2867L60.329 21.1096ZM58.7671 21.1224L58.6916 21.3076L58.6956 21.3092L58.7671 21.1224ZM57.7575 18.3295L57.9435 18.403L57.9438 18.4023L57.7575 18.3295ZM60.7538 17.3735L60.7079 17.5682L60.929 17.6203L60.9527 17.3944L60.7538 17.3735ZM60.8048 16.4297L60.6051 16.4417L60.6056 16.4497L60.6067 16.4576L60.8048 16.4297ZM60.1347 15.764L60.2049 15.5766L60.2002 15.575L60.1347 15.764ZM58.6331 16.121L58.7755 16.2616L58.7797 16.257L58.6331 16.121ZM58.0628 16.1897L57.922 16.3323L57.9316 16.3407L58.0628 16.1897ZM58.0385 15.6563L57.8885 15.5239L57.8875 15.5251L58.0385 15.6563ZM60.4227 15.1668L60.3606 15.3569L60.3608 15.357L60.4227 15.1668ZM61.5593 16.4446L61.3595 16.4557L61.3602 16.4631L61.5593 16.4446ZM61.4987 19.6237L61.2995 19.6414L61.2996 19.6422L61.4987 19.6237ZM59.0584 20.4934L58.9842 20.6791L58.987 20.6802L59.0584 20.4934ZM60.7903 19.9353L60.9571 20.0457L61.0015 19.9785L60.987 19.8993L60.7903 19.9353ZM60.7472 18.0485L60.9472 18.0541L60.9516 17.8944L60.7969 17.8548L60.7472 18.0485ZM58.4359 18.61L58.6229 18.6808L58.6235 18.6793L58.4359 18.61ZM61.6081 20.6676C61.6317 20.7384 61.6409 20.8148 61.6313 20.8724C61.6227 20.9241 61.604 20.9435 61.5793 20.9546L61.7436 21.3193C61.9214 21.2392 62.0016 21.0839 62.0259 20.938C62.0491 20.798 62.0251 20.6537 61.9876 20.5411L61.6081 20.6676ZM61.5714 20.9584C61.5084 20.9901 61.4598 20.985 61.4191 20.9695C61.3716 20.9513 61.3327 20.9167 61.3143 20.894L61.0035 21.1457C61.0563 21.2109 61.1497 21.2947 61.2762 21.3431C61.4096 21.3941 61.5766 21.4037 61.7514 21.3156L61.5714 20.9584ZM61.3143 20.894C61.2962 20.8716 61.2713 20.828 61.2404 20.7577C61.2106 20.6899 61.1812 20.6117 61.1493 20.5267L60.7748 20.6672C60.8057 20.7497 60.8391 20.8389 60.8743 20.9187C60.9083 20.996 60.9504 21.0802 61.0035 21.1457L61.3143 20.894ZM60.9829 20.398L60.9511 20.3947L60.9093 20.7925L60.9411 20.7958L60.9829 20.398ZM60.7646 20.4815C60.6362 20.6713 60.4213 20.8353 60.2361 20.9325L60.4219 21.2867C60.6453 21.1694 60.9195 20.9664 61.0959 20.7056L60.7646 20.4815ZM60.2413 20.9298C60.0148 21.0403 59.7224 21.0667 59.4443 21.0489C59.1675 21.0312 58.9329 20.9717 58.8385 20.9356L58.6956 21.3092C58.8333 21.3618 59.1083 21.4282 59.4188 21.4481C59.728 21.4679 60.1006 21.4435 60.4167 21.2893L60.2413 20.9298ZM58.8425 20.9371C58.361 20.741 58.0298 20.3892 57.8701 19.9523C57.7098 19.5136 57.7176 18.9748 57.9435 18.403L57.5715 18.256C57.3152 18.9046 57.2955 19.5454 57.4944 20.0896C57.694 20.6356 58.1087 21.0701 58.6916 21.3076L58.8425 20.9371ZM57.9438 18.4023C58.1059 17.9872 58.4344 17.6996 58.9026 17.5525C59.3761 17.4036 59.9931 17.3995 60.7079 17.5682L60.7998 17.1788C60.0388 16.9993 59.3449 16.9942 58.7826 17.1709C58.2151 17.3492 57.7833 17.7137 57.5712 18.2568L57.9438 18.4023ZM60.9527 17.3944C60.9545 17.3779 60.9744 17.1887 60.9904 16.9783C60.9983 16.8732 61.0055 16.7612 61.0088 16.6621C61.012 16.5677 61.0125 16.4701 61.0028 16.4017L60.6067 16.4576C60.6109 16.4872 60.6123 16.5526 60.6091 16.6486C60.606 16.7398 60.5993 16.8456 60.5915 16.948C60.576 17.1525 60.5565 17.3372 60.5549 17.3526L60.9527 17.3944ZM61.0044 16.4176C60.9946 16.2555 60.8983 16.0862 60.7686 15.9466C60.6336 15.8012 60.4428 15.6658 60.2048 15.5767L60.0645 15.9513C60.2445 16.0187 60.3829 16.119 60.4755 16.2187C60.5734 16.3242 60.6032 16.4095 60.6051 16.4417L61.0044 16.4176ZM60.2002 15.575C59.6763 15.3932 58.987 15.4458 58.4866 15.9849L58.7797 16.257C59.1501 15.858 59.6617 15.8116 60.0691 15.9529L60.2002 15.575ZM58.4909 15.9804C58.4535 16.0183 58.3898 16.0503 58.3213 16.06C58.2512 16.0699 58.21 16.0527 58.194 16.0388L57.9316 16.3407C58.0631 16.4549 58.235 16.4762 58.3772 16.4561C58.5211 16.4358 58.6688 16.3694 58.7754 16.2615L58.4909 15.9804ZM58.2034 16.0475C58.1321 15.977 58.131 15.8547 58.1894 15.7875L57.8875 15.5251C57.6897 15.7527 57.702 16.1144 57.9223 16.332L58.2034 16.0475ZM58.1884 15.7886C58.7846 15.1132 59.7354 15.1526 60.3606 15.3569L60.4848 14.9767C59.8034 14.754 58.6438 14.6682 57.8885 15.5239L58.1884 15.7886ZM60.3608 15.357C61.0259 15.5732 61.3372 16.0487 61.3597 16.4556L61.759 16.4336C61.7261 15.8372 61.2818 15.2358 60.4845 14.9766L60.3608 15.357ZM61.3602 16.4631C61.3887 16.7699 61.3585 17.3586 61.3271 17.9877C61.2964 18.6012 61.2648 19.2506 61.2995 19.6414L61.6979 19.606C61.6663 19.2498 61.6952 18.6346 61.7266 18.0077C61.7571 17.3966 61.7904 16.7692 61.7585 16.4261L61.3602 16.4631ZM61.2996 19.6422C61.3408 20.0857 61.5289 20.4757 61.6128 20.6802L61.9829 20.5284C61.8875 20.2959 61.7321 19.974 61.6979 19.6052L61.2996 19.6422ZM58.987 20.6802C59.3949 20.8362 59.8195 20.7795 60.1663 20.6409C60.5096 20.5038 60.8053 20.2753 60.9571 20.0457L60.6234 19.825C60.5266 19.9715 60.3043 20.1551 60.0179 20.2695C59.7349 20.3825 59.4179 20.4167 59.1299 20.3066L58.987 20.6802ZM60.987 19.8993C60.8896 19.3681 60.9293 18.6936 60.9472 18.0541L60.5473 18.0429C60.5302 18.6547 60.4864 19.3871 60.5935 19.9714L60.987 19.8993ZM60.7969 17.8548C60.519 17.7836 60.0007 17.6902 59.5 17.7363C59.0055 17.7818 58.4578 17.9733 58.2483 18.5407L58.6235 18.6793C58.7514 18.333 59.093 18.1755 59.5367 18.1346C59.9741 18.0943 60.4428 18.177 60.6976 18.2423L60.7969 17.8548ZM58.2489 18.5391C58.0704 19.0104 58.0389 19.4591 58.1659 19.8393C58.2945 20.2245 58.5788 20.5171 58.9842 20.6791L59.1326 20.3077C58.8279 20.1859 58.6338 19.9777 58.5453 19.7126C58.4551 19.4426 58.4674 19.0915 58.6229 18.6808L58.2489 18.5391ZM66.2074 16.9331L66.4036 16.8937L66.4019 16.8867L66.2074 16.9331ZM66.8621 21.2653L66.6653 21.3014L66.6668 21.3084L66.8621 21.2653ZM66.5892 21.7193L66.5988 21.9192L66.6077 21.9184L66.5892 21.7193ZM66.1737 21.386L65.9818 21.4424L65.9827 21.4452L66.1737 21.386ZM65.7369 18.3477L65.5385 18.3726L65.5386 18.3734L65.7369 18.3477ZM65.5902 17.1418L65.7888 17.1181L65.7699 16.9596L65.6111 16.9429L65.5902 17.1418ZM65.5584 17.1384L65.5793 16.9395L65.453 16.9263L65.3873 17.0348L65.5584 17.1384ZM64.9221 18.2942L65.0972 18.3908L65.0979 18.3896L64.9221 18.2942ZM63.4753 21.0381L63.2917 20.9588L63.2875 20.9685L63.2844 20.9785L63.4753 21.0381ZM63.0206 21.2316L62.9296 21.4099L62.9379 21.4137L63.0206 21.2316ZM62.8748 20.7819L62.6874 20.7115L62.6852 20.7183L62.8748 20.7819ZM64.9386 16.9124L64.7678 16.8084L64.7673 16.8091L64.9386 16.9124ZM65.6395 16.6724C65.8396 16.6934 65.9686 16.7943 66.0128 16.9796L66.4019 16.8867C66.3121 16.5109 66.0223 16.3104 65.6813 16.2745L65.6395 16.6724ZM66.0113 16.9725C66.0364 17.0974 66.186 18.1019 66.3375 19.1226C66.4877 20.1341 66.639 21.1575 66.6654 21.3014L67.0588 21.2292C67.0341 21.0943 66.8845 20.0831 66.7332 19.0639C66.5833 18.054 66.4312 17.0319 66.4035 16.8938L66.0113 16.9725ZM66.6668 21.3084C66.6809 21.3723 66.6731 21.4315 66.6547 21.4681C66.6463 21.4848 66.6365 21.4954 66.6264 21.5025C66.6166 21.5093 66.6 21.5174 66.5707 21.5201L66.6077 21.9184C66.8012 21.9004 66.9393 21.7926 67.0121 21.6478C67.0801 21.5124 67.0869 21.3559 67.0574 21.2222L66.6668 21.3084ZM66.5796 21.5195C66.5138 21.5227 66.4789 21.5072 66.4554 21.4882C66.4281 21.4661 66.3938 21.4206 66.3648 21.3269L65.9827 21.4452C66.0257 21.5842 66.094 21.7104 66.2039 21.7992C66.3175 21.8912 66.4543 21.926 66.5988 21.919L66.5796 21.5195ZM66.3656 21.3296C66.3495 21.2748 66.3194 21.108 66.2806 20.8579C66.243 20.6151 66.1995 20.3097 66.1557 19.9907C66.0681 19.353 65.9798 18.6649 65.9353 18.322L65.5386 18.3734C65.583 18.7156 65.6716 19.4055 65.7594 20.0451C65.8033 20.3649 65.8472 20.6729 65.8853 20.9192C65.9224 21.1583 65.9565 21.3562 65.9818 21.4424L66.3656 21.3296ZM65.9354 18.3229C65.8742 17.8344 65.8315 17.4765 65.7888 17.1181L65.3916 17.1655C65.4344 17.5239 65.4772 17.8829 65.5385 18.3726L65.9354 18.3229ZM65.6111 16.9429L65.5793 16.9395L65.5375 17.3373L65.5693 17.3407L65.6111 16.9429ZM65.3873 17.0348C65.2283 17.2974 64.983 17.7625 64.7463 18.1989L65.0979 18.3896C65.34 17.9432 65.577 17.4938 65.7294 17.242L65.3873 17.0348ZM64.7469 18.1977C64.2131 19.1658 63.5092 20.455 63.2917 20.9588L63.6589 21.1173C63.8667 20.6362 64.5577 19.3692 65.0972 18.3908L64.7469 18.1977ZM63.2844 20.9785C63.2804 20.9912 63.2599 21.0221 63.2144 21.0433C63.1721 21.063 63.1324 21.0627 63.1033 21.0495L62.9379 21.4137C63.093 21.4842 63.2564 21.465 63.3833 21.4059C63.507 21.3484 63.6217 21.2407 63.6663 21.0976L63.2844 20.9785ZM63.1115 21.0534C63.0704 21.0324 63.0573 21.0079 63.0513 20.9796C63.0435 20.9427 63.0484 20.8932 63.0644 20.8454L62.6852 20.7183C62.6543 20.8104 62.6329 20.9351 62.6601 21.0628C62.689 21.199 62.7724 21.3294 62.9297 21.4097L63.1115 21.0534ZM63.0621 20.8522C63.2014 20.481 63.6025 19.7045 64.0305 18.9193C64.4557 18.1392 64.8975 17.368 65.1099 17.0157L64.7673 16.8091C64.551 17.1679 64.1062 17.9445 63.6793 18.7279C63.2551 19.5062 62.8387 20.3089 62.6876 20.7116L63.0621 20.8522ZM65.1094 17.0164C65.266 16.7594 65.4325 16.6506 65.6395 16.6724L65.6813 16.2745C65.2518 16.2294 64.9612 16.4909 64.7678 16.8084L65.1094 17.0164ZM68.3726 20.9575L68.1725 20.9562L68.1726 20.9614L68.3726 20.9575ZM68.8041 16.8521L69.0023 16.8791L69.003 16.873L68.8041 16.8521ZM69.5168 16.9592L69.7161 16.9802L69.7166 16.9668L69.5168 16.9592ZM69.3085 18.4818L69.1114 18.4477L69.0484 18.812L69.3878 18.6654L69.3085 18.4818ZM69.8377 18.3443L69.8221 18.145L69.8216 18.145L69.8377 18.3443ZM71.0304 18.6306L70.9227 18.7991L70.9242 18.8001L71.0304 18.6306ZM71.7317 20.6831L71.5399 20.6264L71.5395 20.6276L71.7317 20.6831ZM69.2332 19.1978L69.1253 19.0295L69.0444 19.0813L69.0343 19.1769L69.2332 19.1978ZM69.0844 20.9197L68.8853 20.9382L68.8856 20.9409L69.0844 20.9197ZM71.1211 20.5224L71.3149 20.5721L71.3154 20.5698L71.1211 20.5224ZM70.6661 19.1876L70.7761 19.0205L70.7738 19.019L70.6661 19.1876ZM69.5636 21.7182C69.1364 21.6733 68.8961 21.5699 68.7619 21.4477C68.6352 21.3324 68.5769 21.1763 68.5725 20.9536L68.1726 20.9614C68.1784 21.2546 68.2596 21.5314 68.4926 21.7435C68.7181 21.9488 69.0579 22.0672 69.5218 22.116L69.5636 21.7182ZM68.5726 20.9588C68.5757 20.482 68.6819 19.4679 68.7894 18.5606C68.8428 18.1096 68.896 17.6892 68.9359 17.3814C68.9558 17.2275 68.9724 17.1019 68.984 17.0147C68.9898 16.9711 68.9944 16.9372 68.9975 16.9141C68.999 16.9026 69.0002 16.8938 69.001 16.8879C69.0014 16.885 69.0017 16.8828 69.0019 16.8813C69.002 16.8805 69.0021 16.88 69.0022 16.8796C69.0022 16.8794 69.0022 16.8793 69.0022 16.8792C69.0022 16.8792 69.0022 16.8791 69.0022 16.8791C69.0022 16.8791 69.0022 16.8791 68.8041 16.8521C68.6059 16.8252 68.6059 16.8252 68.6059 16.8252C68.6059 16.8252 68.6059 16.8253 68.6059 16.8253C68.6059 16.8254 68.6058 16.8256 68.6058 16.8258C68.6058 16.8262 68.6057 16.8267 68.6056 16.8275C68.6054 16.829 68.6051 16.8313 68.6046 16.8343C68.6038 16.8403 68.6026 16.8492 68.6011 16.8608C68.5979 16.884 68.5934 16.9181 68.5875 16.9619C68.5759 17.0495 68.5592 17.1756 68.5392 17.33C68.4992 17.6387 68.4458 18.0607 68.3922 18.5135C68.2855 19.4137 68.1759 20.4523 68.1726 20.9562L68.5726 20.9588ZM69.003 16.873C69.0103 16.8031 69.0933 16.7297 69.1859 16.7394L69.2277 16.3416C68.9385 16.3112 68.6379 16.5192 68.6052 16.8312L69.003 16.873ZM69.1859 16.7394C69.2288 16.7439 69.2576 16.7619 69.2776 16.7882C69.299 16.8164 69.3201 16.868 69.3169 16.9516L69.7166 16.9668C69.7226 16.81 69.6842 16.6623 69.5961 16.5463C69.5066 16.4284 69.3758 16.3572 69.2277 16.3416L69.1859 16.7394ZM69.3179 16.9383C69.2915 17.1891 69.1516 18.2156 69.1114 18.4477L69.5056 18.5159C69.5474 18.2739 69.6885 17.2385 69.7157 16.9801L69.3179 16.9383ZM69.3085 18.4818C69.3878 18.6654 69.3878 18.6654 69.3877 18.6654C69.3877 18.6654 69.3877 18.6654 69.3877 18.6654C69.3877 18.6654 69.3876 18.6654 69.3876 18.6655C69.3876 18.6655 69.3876 18.6655 69.3876 18.6655C69.3876 18.6655 69.3876 18.6655 69.3877 18.6654C69.388 18.6653 69.3884 18.6651 69.3892 18.6648C69.3906 18.6642 69.393 18.6632 69.3963 18.6618C69.4029 18.6591 69.4131 18.6551 69.4263 18.65C69.4526 18.6399 69.4907 18.626 69.5363 18.6115C69.6294 18.582 69.7454 18.5525 69.8539 18.5437L69.8216 18.145C69.6704 18.1572 69.5219 18.1964 69.4152 18.2303C69.3609 18.2476 69.3154 18.2641 69.2831 18.2765C69.2669 18.2827 69.254 18.2879 69.2448 18.2916C69.2402 18.2935 69.2366 18.295 69.234 18.2961C69.2327 18.2967 69.2316 18.2971 69.2308 18.2975C69.2304 18.2976 69.2301 18.2978 69.2298 18.2979C69.2297 18.298 69.2295 18.298 69.2294 18.2981C69.2294 18.2981 69.2293 18.2981 69.2293 18.2981C69.2293 18.2981 69.2292 18.2981 69.2292 18.2981C69.2292 18.2982 69.2292 18.2982 69.3085 18.4818ZM69.8534 18.5437C70.2515 18.5125 70.6004 18.5933 70.9227 18.7991L71.138 18.462C70.7367 18.2057 70.2999 18.1074 69.8221 18.145L69.8534 18.5437ZM70.9242 18.8001C71.5186 19.1723 71.7669 19.8596 71.5399 20.6264L71.9234 20.7399C72.1953 19.8216 71.9006 18.9395 71.1365 18.4611L70.9242 18.8001ZM71.5395 20.6276C71.4316 21.001 71.1553 21.2947 70.7896 21.4866C70.4231 21.679 69.9787 21.7618 69.5636 21.7182L69.5218 22.116C70.0136 22.1677 70.5374 22.0707 70.9754 21.8408C71.4143 21.6105 71.779 21.2396 71.9238 20.7387L71.5395 20.6276ZM69.0343 19.1769C69.001 19.4939 68.957 19.7991 68.9214 20.117C68.8878 20.4183 68.8643 20.7123 68.8853 20.9382L69.2836 20.9012C69.2668 20.7209 69.2851 20.4643 69.319 20.1614C69.351 19.875 69.4002 19.5223 69.4321 19.2187L69.0343 19.1769ZM68.8856 20.9409C68.9091 21.1619 69.0847 21.2836 69.2125 21.3442C69.3483 21.4084 69.498 21.4378 69.592 21.4477L69.6338 21.0499C69.5687 21.043 69.4663 21.0217 69.3837 20.9826C69.2931 20.9397 69.284 20.9053 69.2833 20.8985L68.8856 20.9409ZM69.592 21.4477C69.9197 21.4821 70.2971 21.4288 70.6154 21.2924C70.93 21.1576 71.2248 20.9236 71.3148 20.5721L70.9274 20.4728C70.881 20.6539 70.7161 20.814 70.4579 20.9247C70.2034 21.0338 69.8948 21.0773 69.6338 21.0499L69.592 21.4477ZM71.3154 20.5698C71.3931 20.2511 71.3913 19.9493 71.2996 19.6804C71.2072 19.4098 71.0282 19.1864 70.7761 19.0205L70.5562 19.3546C70.7404 19.4759 70.8596 19.6298 70.921 19.8096C70.983 19.9913 70.9906 20.2134 70.9268 20.4751L71.3154 20.5698ZM70.7738 19.019C70.2516 18.6855 69.618 18.7137 69.1253 19.0295L69.3411 19.3662C69.711 19.1291 70.1761 19.1119 70.5585 19.3561L70.7738 19.019ZM78.8066 22.2955L78.6199 22.3675L78.6226 22.3738L78.8066 22.2955ZM78.6928 22.7662L78.5998 22.589L78.5959 22.5912L78.6928 22.7662ZM78.2523 22.6716L78.0968 22.7975L78.2523 22.6716ZM78.1358 22.402L78.3283 22.3475L78.2914 22.2172L78.1567 22.2031L78.1358 22.402ZM78.0881 22.3969L78.109 22.198L78.0459 22.1914L77.9905 22.2224L78.0881 22.3969ZM75.7456 22.1829L75.8961 22.0512L75.8445 21.9922L75.7665 21.984L75.7456 22.1829ZM75.6979 22.1779L75.7188 21.979L75.6391 21.9706L75.5757 22.0196L75.6979 22.1779ZM73.2389 21.3885L73.4293 21.3273L73.4289 21.3261L73.2389 21.3885ZM73.4126 18.2053L73.6032 18.2663L73.6054 18.2586L73.4126 18.2053ZM73.8615 17.9146L73.9124 17.7212L73.905 17.7192L73.8976 17.7179L73.8615 17.9146ZM74.1379 18.3458L74.3321 18.3956L74.3346 18.3819L74.1379 18.3458ZM73.9323 21.2201L74.1248 21.1656L74.1241 21.1632L73.9323 21.2201ZM75.4491 21.6369L75.5044 21.8291L75.6848 21.7772L75.6444 21.5939L75.4491 21.6369ZM75.3987 21.1973L75.1988 21.2012L75.1989 21.2047L75.3987 21.1973ZM75.8681 18.4151L75.6772 18.3556L75.6767 18.3573L75.8681 18.4151ZM76.2977 18.1546L76.3466 17.9603L76.3351 17.9581L76.2977 18.1546ZM76.5566 18.6001L76.3631 18.5491L76.3621 18.5534L76.5566 18.6001ZM76.0964 21.1419L76.2966 21.1394L76.296 21.1298L76.0964 21.1419ZM76.697 22.0094L76.7327 21.8126L76.7302 21.8122L76.697 22.0094ZM77.959 21.7881L78.0412 21.9705L78.1608 21.9166L78.159 21.7854L77.959 21.7881ZM78.2885 18.6534L78.0982 18.5912L78.0957 18.6001L78.2885 18.6534ZM78.9886 18.727L78.7921 18.6896L78.7916 18.6929L78.9886 18.727ZM78.6226 22.3738C78.6383 22.4106 78.6452 22.4673 78.6351 22.5191C78.6248 22.5716 78.6048 22.5865 78.5999 22.5891L78.7857 22.9433C78.9341 22.8654 79.0032 22.7208 79.0276 22.596C79.0522 22.4704 79.0395 22.3319 78.9906 22.2172L78.6226 22.3738ZM78.5959 22.5912C78.5695 22.6058 78.536 22.6091 78.4938 22.5961C78.4475 22.5819 78.4154 22.5553 78.4077 22.5457L78.0968 22.7975C78.1603 22.8758 78.2631 22.9438 78.3766 22.9786C78.4941 23.0146 78.6452 23.0212 78.7897 22.9411L78.5959 22.5912ZM78.4077 22.5457C78.4091 22.5475 78.4051 22.5426 78.3967 22.5265C78.3891 22.5119 78.3805 22.4932 78.3717 22.4717C78.3538 22.4285 78.3379 22.3815 78.3283 22.3475L77.9434 22.4564C77.9572 22.5053 77.9782 22.5668 78.002 22.6244C78.0233 22.6762 78.0557 22.7467 78.0968 22.7975L78.4077 22.5457ZM78.1567 22.2031L78.109 22.198L78.0672 22.5958L78.1149 22.6009L78.1567 22.2031ZM77.9905 22.2224C77.716 22.3759 77.3046 22.5479 76.8227 22.4972L76.7809 22.895C77.3809 22.9581 77.879 22.743 78.1857 22.5715L77.9905 22.2224ZM76.8227 22.4972C76.7456 22.4891 76.2289 22.4313 75.8961 22.0512L75.5951 22.3147C76.038 22.8205 76.6988 22.8864 76.7809 22.895L76.8227 22.4972ZM75.7665 21.984L75.7188 21.979L75.677 22.3768L75.7247 22.3818L75.7665 21.984ZM75.5757 22.0196C75.4246 22.1362 75.2141 22.1957 75.0021 22.2202C74.7934 22.2443 74.6052 22.232 74.5187 22.2229L74.4769 22.6207C74.5813 22.6317 74.8007 22.6461 75.0479 22.6176C75.2919 22.5894 75.586 22.5169 75.8201 22.3362L75.5757 22.0196ZM74.5187 22.2229C74.2904 22.1989 74.0691 22.1287 73.8817 21.992C73.6962 21.8567 73.5326 21.6482 73.4293 21.3273L73.0485 21.4498C73.1757 21.8449 73.3869 22.1262 73.646 22.3152C73.9031 22.5027 74.196 22.5912 74.4769 22.6207L74.5187 22.2229ZM73.4289 21.3261C73.3713 21.1506 73.3416 20.8967 73.3361 20.5956C73.3306 20.298 73.3489 19.9686 73.3794 19.6499C73.4411 19.0064 73.55 18.432 73.6031 18.2663L73.2222 18.1442C73.1556 18.352 73.0436 18.9611 72.9812 19.6117C72.9498 19.94 72.9303 20.2854 72.9362 20.6029C72.9419 20.9168 72.9725 21.2183 73.0489 21.4509L73.4289 21.3261ZM73.6054 18.2586C73.6329 18.1592 73.7336 18.0945 73.8254 18.1113L73.8976 17.7179C73.579 17.6594 73.2961 17.8762 73.2199 18.1519L73.6054 18.2586ZM73.8106 18.108C73.8689 18.1233 73.9031 18.1522 73.9217 18.1813C73.9403 18.2102 73.9517 18.2523 73.9412 18.3097L74.3346 18.3819C74.3617 18.2342 74.3367 18.0874 74.2585 17.9654C74.1804 17.8436 74.0576 17.7594 73.9124 17.7212L73.8106 18.108ZM73.9441 18.2962C73.873 18.5739 73.7697 19.1321 73.7093 19.7065C73.6791 19.9944 73.6592 20.2901 73.6601 20.5593C73.6609 20.8252 73.6819 21.0793 73.7406 21.277L74.1241 21.1632C74.0817 21.0205 74.0609 20.8117 74.0601 20.558C74.0592 20.3078 74.0778 20.0273 74.1071 19.7483C74.1659 19.189 74.2663 18.6505 74.3316 18.3955L73.9441 18.2962ZM73.7399 21.2746C73.7799 21.4159 73.8726 21.674 74.1616 21.8303C74.4452 21.9837 74.8685 22.0123 75.5044 21.8291L75.3937 21.4447C74.802 21.6152 74.502 21.5597 74.3518 21.4785C74.207 21.4001 74.1552 21.2731 74.1248 21.1656L73.7399 21.2746ZM75.6444 21.5939C75.6148 21.4598 75.6067 21.4067 75.5986 21.1898L75.1989 21.2047C75.2076 21.4401 75.218 21.5176 75.2538 21.68L75.6444 21.5939ZM75.5987 21.1933C75.5865 20.5735 75.6692 19.7671 76.0596 18.4728L75.6767 18.3573C75.2769 19.6828 75.1856 20.5313 75.1988 21.2012L75.5987 21.1933ZM76.0591 18.4746C76.0672 18.4485 76.0936 18.41 76.1387 18.3809C76.1823 18.3528 76.2259 18.3445 76.2604 18.351L76.3351 17.9581C76.1802 17.9286 76.0334 17.9728 75.9217 18.0449C75.8114 18.1161 75.7176 18.2259 75.6772 18.3556L76.0591 18.4746ZM76.2489 18.3485C76.3112 18.3642 76.3405 18.3934 76.3548 18.419C76.3699 18.4462 76.3789 18.4895 76.3632 18.5492L76.75 18.651C76.7878 18.5071 76.7771 18.3552 76.7043 18.2245C76.6305 18.0919 76.5036 18.0002 76.3465 17.9606L76.2489 18.3485ZM76.3621 18.5534C76.2192 19.1486 76.0957 19.6671 76.0118 20.0978C75.9286 20.5246 75.8804 20.8836 75.8967 21.154L76.296 21.1298C76.283 20.9144 76.3217 20.5988 76.4044 20.1743C76.4864 19.7537 76.6077 19.2441 76.751 18.6467L76.3621 18.5534ZM75.8964 21.1444C75.8983 21.2972 75.9241 21.5266 76.0296 21.7362C76.1391 21.954 76.3367 22.1515 76.6637 22.2066L76.7302 21.8122C76.5514 21.782 76.4504 21.6826 76.3869 21.5565C76.3193 21.4221 76.2978 21.2604 76.2963 21.1394L75.8964 21.1444ZM76.6612 22.2062C77.3633 22.3336 77.8478 22.0576 78.0412 21.9705L77.8768 21.6058C77.665 21.7013 77.2936 21.9144 76.7327 21.8126L76.6612 22.2062ZM78.159 21.7854C78.1545 21.4623 78.2221 20.739 78.2995 20.06C78.3379 19.7235 78.3781 19.4024 78.412 19.1542C78.4289 19.03 78.4441 18.9248 78.4566 18.8453C78.4629 18.8054 78.4683 18.7729 78.4729 18.748C78.4751 18.7356 78.4771 18.7257 78.4787 18.7181C78.4795 18.7144 78.4801 18.7115 78.4806 18.7094C78.4811 18.7072 78.4813 18.7064 78.4812 18.7067L78.0957 18.6001C78.0782 18.6635 78.0486 18.8581 78.0156 19.1002C77.9814 19.3516 77.9407 19.6756 77.9021 20.0147C77.8254 20.687 77.7542 21.4373 77.759 21.7909L78.159 21.7854ZM78.4786 18.7155C78.5058 18.6322 78.5403 18.5878 78.5682 18.5659C78.5925 18.5469 78.6228 18.5357 78.6704 18.5407L78.7122 18.1429C78.5688 18.1278 78.4333 18.1635 78.3216 18.2509C78.2138 18.3354 78.1423 18.4568 78.0984 18.5913L78.4786 18.7155ZM78.6704 18.5407C78.7645 18.5506 78.8056 18.6189 78.7921 18.6896L79.1851 18.7643C79.2436 18.4565 79.0317 18.1765 78.7122 18.1429L78.6704 18.5407ZM78.7916 18.6929C78.7705 18.8147 78.6546 19.5317 78.5789 20.3104C78.541 20.6995 78.5128 21.1078 78.5119 21.4666C78.5111 21.8163 78.5356 22.1488 78.62 22.3675L78.9932 22.2235C78.9385 22.0817 78.9111 21.8175 78.9119 21.4675C78.9127 21.1266 78.9397 20.7323 78.977 20.3491C79.0515 19.583 79.1658 18.8763 79.1857 18.7611L78.7916 18.6929ZM82.1124 23.2382L82.0954 23.4375L82.0964 23.4376L82.1124 23.2382ZM80.4364 21.8876L80.6307 21.8401L80.6298 21.8365L80.4364 21.8876ZM80.8004 19.4966L80.6395 19.3777L80.6376 19.3803L80.8004 19.4966ZM82.4668 18.6421L82.4558 18.4423L82.4492 18.4428L82.4668 18.6421ZM84.5238 19.8879L84.7124 19.8209L84.7104 19.8158L84.5238 19.8879ZM84.3774 20.8217L84.24 20.6764L84.2364 20.6799L84.3774 20.8217ZM81.175 21.5952L81.165 21.3955L80.9813 21.4047L80.9751 21.5885L81.175 21.5952ZM81.8837 22.5063L81.8242 22.6973L81.8295 22.6988L81.8837 22.5063ZM83.6365 22.2079L83.7414 22.3781L83.7421 22.3777L83.6365 22.2079ZM84.1775 22.2647L84.3401 22.1482L84.3336 22.1392L84.3261 22.1309L84.1775 22.2647ZM84.0746 22.7848L83.9775 22.6097L83.969 22.615L84.0746 22.7848ZM82.4761 19.3188L82.464 19.1191L82.4605 19.1194L82.4761 19.3188ZM81.3875 19.88L81.2267 19.7607L81.2215 19.7685L81.3875 19.88ZM81.0862 20.9102L80.8862 20.9059L80.8821 21.0975L81.0734 21.1098L81.0862 20.9102ZM83.7543 20.3219L83.6612 20.1445L83.6517 20.1502L83.7543 20.3219ZM83.8062 20.1343L83.9934 20.064L83.9907 20.0568L83.9875 20.0498L83.8062 20.1343ZM83.6294 19.8261L83.4708 19.948L83.474 19.952L83.6294 19.8261ZM82.1295 23.0389C81.3827 22.9749 80.7671 22.3977 80.6307 21.8401L80.2422 21.9352C80.4208 22.6656 81.1839 23.3594 82.0954 23.4375L82.1295 23.0389ZM80.6298 21.8365C80.3372 20.7307 80.6694 20.024 80.9631 19.6128L80.6376 19.3803C80.29 19.867 79.9139 20.6947 80.2431 21.9388L80.6298 21.8365ZM80.9612 19.6154C81.2943 19.1648 81.8607 18.8963 82.4844 18.8413L82.4492 18.4428C81.7413 18.5053 81.0567 18.8132 80.6395 19.3777L80.9612 19.6154ZM82.4778 18.8418C83.3907 18.7913 84.1141 19.3832 84.3373 19.9601L84.7104 19.8158C84.4275 19.0846 83.5495 18.382 82.4558 18.4424L82.4778 18.8418ZM84.3354 19.9549C84.4533 20.2866 84.3816 20.5425 84.24 20.6764L84.5148 20.9671C84.802 20.6955 84.8676 20.258 84.7123 19.821L84.3354 19.9549ZM84.2364 20.6799C84.1708 20.7451 84.0222 20.8274 83.7873 20.9131C83.5605 20.9959 83.2788 21.0732 82.9729 21.141C82.3609 21.2766 81.6703 21.3701 81.165 21.3955L81.1851 21.795C81.7149 21.7683 82.4279 21.6715 83.0595 21.5315C83.3754 21.4615 83.6755 21.3798 83.9245 21.2889C84.1653 21.2009 84.3865 21.0948 84.5184 20.9636L84.2364 20.6799ZM80.9751 21.5885C80.9652 21.8873 81.1218 22.1459 81.2891 22.3273C81.4555 22.5079 81.665 22.6476 81.8242 22.6972L81.9432 22.3154C81.8687 22.2921 81.7164 22.2007 81.5832 22.0562C81.4507 21.9125 81.3699 21.752 81.3749 21.6019L80.9751 21.5885ZM81.8295 22.6988C82.4359 22.8696 83.097 22.7753 83.7414 22.3781L83.5315 22.0376C82.9718 22.3826 82.4253 22.451 81.9379 22.3138L81.8295 22.6988ZM83.7421 22.3777C83.8384 22.3178 83.9667 22.3295 84.0289 22.3986L84.3261 22.1309C84.1002 21.8801 83.7444 21.9053 83.5309 22.038L83.7421 22.3777ZM84.0149 22.3813C84.0334 22.407 84.046 22.4553 84.0356 22.5113C84.0252 22.5671 83.9983 22.5985 83.9776 22.6099L84.1715 22.9598C84.3217 22.8765 84.4024 22.7262 84.4288 22.5847C84.4552 22.4434 84.4339 22.2791 84.3401 22.1482L84.0149 22.3813ZM83.969 22.615C83.3913 22.9742 82.7471 23.0887 82.1285 23.0389L82.0964 23.4376C82.786 23.4931 83.5185 23.3661 84.1802 22.9547L83.969 22.615ZM82.4605 19.1194C81.9755 19.1575 81.5109 19.3781 81.2269 19.7609L81.5481 19.9992C81.7514 19.7253 82.1007 19.5489 82.4918 19.5181L82.4605 19.1194ZM81.2215 19.7685C81.0259 20.0596 80.8952 20.4873 80.8862 20.9059L81.2861 20.9145C81.2937 20.5626 81.4058 20.2114 81.5535 19.9916L81.2215 19.7685ZM81.0734 21.1098C81.4953 21.1368 82.0827 21.0456 82.6054 20.9218C83.1246 20.7989 83.6223 20.6337 83.8569 20.4935L83.6517 20.1502C83.4742 20.2563 83.0294 20.4104 82.5133 20.5326C82.0007 20.6539 81.4601 20.7337 81.0989 20.7106L81.0734 21.1098ZM83.8472 20.499C83.941 20.4497 83.9841 20.3594 84.0016 20.2964C84.0204 20.2285 84.0235 20.1442 83.9934 20.064L83.6189 20.2045C83.616 20.1967 83.6159 20.192 83.6159 20.1913C83.6159 20.1905 83.6159 20.1903 83.616 20.1898C83.6161 20.1896 83.6172 20.1854 83.6219 20.1785C83.6263 20.1719 83.6382 20.1569 83.6613 20.1448L83.8472 20.499ZM83.9875 20.0498C83.9506 19.9707 83.8887 19.8285 83.7848 19.7002L83.474 19.952C83.541 20.0347 83.5829 20.1286 83.6249 20.2187L83.9875 20.0498ZM83.788 19.7042C83.4774 19.2999 83.0139 19.0859 82.464 19.1191L82.4882 19.5184C82.9098 19.4929 83.2437 19.6523 83.4708 19.9479L83.788 19.7042Z" fill="#F3AADB" mask="url(#path-7-outside-1_2046_13392)"/>
<path d="M85.5625 8.61702C86.8577 9.55868 88.095 10.429 88.7535 11.8774C89.0676 12.5684 89.2278 13.26 89.3125 14M85 3C86.9729 4.22116 89.0499 5.388 90.6875 7.01123C91.637 7.95241 92.4221 9.03268 93.0486 10.1838C93.5286 11.0657 94 11.9436 94 12.9468" stroke="#F3AADB" stroke-linecap="round"/>
<path d="M9.4375 22.383C8.14234 21.4413 6.90504 20.571 6.24653 19.1226C5.93236 18.4316 5.7722 17.74 5.6875 17M10 28C8.0271 26.7788 5.95007 25.612 4.3125 23.9888C3.363 23.0476 2.57791 21.9673 1.95139 20.8162C1.47141 19.9343 1 19.0564 1 18.0532" stroke="#F3AADB" stroke-linecap="round"/>
<defs>
<clipPath id="clip0_2046_13392">
<rect width="36" height="36" fill="white" transform="translate(103)"/>
</clipPath>
</defs>
</svg>
