<svg width="106" height="40" viewBox="0 0 106 40" fill="none" xmlns="http://www.w3.org/2000/svg">
<mask id="path-1-outside-1_2046_14720" maskUnits="userSpaceOnUse" x="21.9892" y="5.18714" width="56.5802" height="23.6505" fill="black">
<rect fill="white" x="21.9892" y="5.18714" width="56.5802" height="23.6505"/>
<path d="M23.4891 17.2373C23.2504 17.2122 22.9815 17.015 23.0242 16.6092C23.1722 15.201 23.8494 8.29796 24.0213 6.43371C24.0313 6.33823 24.1933 5.94501 24.5777 5.96128C24.9621 5.97755 28.3539 6.30992 28.3539 6.30992C28.6642 6.34253 28.8853 6.5347 28.8477 6.89272C28.8176 7.17915 28.535 7.3425 28.2247 7.30989L25.1168 7.03149C24.9237 9.32789 24.284 15.4144 24.1485 16.7033C24.1033 17.1329 23.7277 17.2623 23.4891 17.2373ZM36.0429 17.7362C36.1346 18.0113 36.1422 18.3982 35.8382 18.5352C35.4815 18.7149 35.1913 18.4913 35.0845 18.3595C34.9777 18.2276 34.8834 17.9763 34.7892 17.7251L34.7414 17.7201C34.5128 18.0581 34.1461 18.3332 33.8396 18.4941C33.0256 18.8912 31.8447 18.6464 31.4967 18.5133C29.9 17.8628 29.259 16.1545 29.9823 14.324C30.5436 12.8868 32.2633 12.3677 34.4769 12.89C34.4819 12.8422 34.5948 11.7682 34.5533 11.4742C34.5356 11.1828 34.175 10.7105 33.5481 10.4757C32.8496 10.2333 31.9489 10.3076 31.2958 11.0112C31.0798 11.2298 30.6615 11.3065 30.4404 11.1143C30.2217 10.8983 30.2116 10.5352 30.4038 10.3141C31.4174 9.16578 33.0002 9.25975 33.9801 9.57993C35.0769 9.93652 35.6435 10.7442 35.6851 11.4966C35.7757 12.4715 35.4947 15.1447 35.5942 16.2653C35.6508 16.8745 35.9084 17.4084 36.0429 17.7362ZM31.9338 17.5698C32.9777 17.9691 34.1585 17.2968 34.5315 16.7327C34.3781 15.8961 34.4407 14.8409 34.467 13.9025C33.668 13.6979 31.506 13.3741 30.9999 14.7447C30.4989 16.0676 30.8684 17.1441 31.9338 17.5698ZM41.8367 11.5399C42.2425 11.5826 42.5566 11.8086 42.6572 12.2294C42.7364 12.6239 43.5626 18.3094 43.6393 18.7277C43.7047 19.0242 43.5954 19.3747 43.2299 19.4086C42.9146 19.4238 42.7148 19.258 42.6067 18.9088C42.4823 18.4854 42.0848 15.3789 41.9515 14.3513C41.8597 13.6177 41.7955 13.08 41.7314 12.5424L41.6836 12.5374C41.45 12.9231 41.0884 13.609 40.7292 14.2711C39.9242 15.7309 38.878 17.6481 38.5591 18.3868C38.4863 18.6205 38.1534 18.8027 37.877 18.6771C37.5793 18.5251 37.588 18.2123 37.6583 18.0025C38.094 16.8417 40.111 13.265 40.754 12.1983C41.0165 11.7674 41.3594 11.4897 41.8367 11.5399ZM48.591 19.8032C47.3473 19.6966 46.3133 18.7433 46.077 17.7773C45.6106 16.0149 46.1418 14.8641 46.6229 14.1907C47.1855 13.4294 48.1239 12.9971 49.1225 12.909C50.6275 12.8258 51.8286 13.7967 52.2081 14.7777C52.413 15.3543 52.31 15.8744 51.9885 16.1785C51.3956 16.7677 48.7376 17.2606 47.1849 17.3387C47.1624 18.012 47.8974 18.5961 48.2479 18.7053C49.0682 18.9363 49.9739 18.8143 50.8771 18.2577C51.1094 18.1132 51.4725 18.1031 51.6886 18.343C51.857 18.5779 51.7904 18.9811 51.5342 19.1231C50.6047 19.7011 49.5721 19.8822 48.591 19.8032ZM49.1365 13.924C48.4795 13.9756 47.8691 14.2734 47.5036 14.7659C47.2461 15.1491 47.064 15.7333 47.0516 16.3111C48.2261 16.3863 50.4357 15.7981 51.0537 15.4286C51.1304 15.3884 51.1693 15.2477 51.1316 15.1472C51.0725 15.0204 50.9946 14.8433 50.8665 14.685C50.4631 14.16 49.8651 13.8799 49.1365 13.924ZM55.3964 25.8275C55.0308 25.8615 54.8725 25.5312 54.8712 25.3138C54.7089 23.873 54.6634 22.01 54.6154 20.1709C54.5334 17.9663 54.4702 15.8119 54.2477 14.9439C54.1773 14.6951 54.2602 14.366 54.5403 14.2265C54.7174 14.1486 54.98 14.1762 55.1345 14.3131C55.2463 14.3972 55.2765 14.5693 55.2765 14.5693C55.5955 14.2892 56.3229 14.0277 56.7625 13.9774C57.2788 13.8869 57.873 13.9735 58.3881 14.1241C59.3039 14.3652 60.3794 15.1539 60.5429 16.3536C60.646 17.2091 60.4288 18.1274 59.8071 18.7619C58.7533 19.8336 56.8766 20.2397 55.6831 20.1142C55.6834 21.9483 55.8181 23.6517 55.9176 25.2308C55.9566 25.5486 55.7355 25.8149 55.3964 25.8275ZM55.6378 19.1683C56.5686 19.2661 58.1275 18.8991 58.9151 18.0648C59.3233 17.6251 59.5053 17.0409 59.3934 16.4982C59.2275 15.781 58.578 15.3025 57.9511 15.0676C56.9712 14.7475 55.9336 14.9762 55.401 15.4512C55.4991 16.3544 55.6262 17.6709 55.6378 19.1683ZM65.1162 21.5401C63.8725 21.4335 62.8385 20.4802 62.6022 19.5142C62.1359 17.7518 62.6671 16.601 63.1481 15.9276C63.7108 15.1662 64.6491 14.7339 65.6478 14.6458C67.1527 14.5627 68.3538 15.5336 68.7333 16.5146C68.9382 17.0912 68.8353 17.6113 68.5137 17.9153C67.9209 18.5046 65.2628 18.9974 63.7101 19.0756C63.6876 19.7489 64.4226 20.3329 64.7731 20.4422C65.5934 20.6732 66.4992 20.5512 67.4023 19.9945C67.6347 19.85 67.9977 19.8399 68.2138 20.0798C68.3822 20.3147 68.3157 20.718 68.0594 20.86C67.1299 21.438 66.0973 21.619 65.1162 21.5401ZM65.6617 15.6609C65.0048 15.7125 64.3943 16.0103 64.0288 16.5028C63.7713 16.886 63.5893 17.4701 63.5768 18.048C64.7514 18.1232 66.961 17.5349 67.579 17.1655C67.6556 17.1253 67.6945 16.9846 67.6568 16.8841C67.5977 16.7572 67.5198 16.5801 67.3917 16.4219C66.9883 15.8968 66.3903 15.6168 65.6617 15.6609ZM76.9797 15.2577C77.2663 16.6634 76.9996 22.1857 76.9168 22.9734C76.8817 23.3076 76.5891 23.5664 76.3026 23.5363C76.0162 23.5062 75.7574 23.2135 75.795 22.8555C75.8251 22.5691 75.8664 21.4875 75.9076 19.9473C75.2381 20.1183 73.968 20.0331 73.1288 19.7518C72.1403 20.6615 71.6832 21.3374 71.2073 22.4216C71.0817 22.698 70.7677 22.9304 70.446 22.7759C70.1006 22.619 70.1093 22.3062 70.2135 22.0034C70.702 20.7999 71.6126 19.7131 72.1188 19.2595C71.1401 18.6982 70.5621 17.7686 70.6461 16.7398C70.7112 15.6607 71.1759 14.9132 72.0024 14.3967C73.0375 13.7333 75.3929 14.0532 76.2887 14.4852C76.7032 14.6736 76.903 14.8394 76.9797 15.2577ZM72.2555 18.188C73.0634 18.9968 74.9628 19.293 75.9314 19.0328C75.945 17.7552 75.9234 16.3533 75.8868 15.5531C75.8755 15.4312 75.8139 15.3282 75.7235 15.2705C75.4232 15.1424 74.927 15.042 74.2348 14.9692C73.5188 14.894 72.9258 15.0247 72.5402 15.2496C72.0252 15.5575 71.7025 16.1027 71.6825 16.7522C71.6914 17.3564 71.8422 17.7584 72.2555 18.188Z"/>
</mask>
<path d="M23.4891 17.2373C23.2504 17.2122 22.9815 17.015 23.0242 16.6092C23.1722 15.201 23.8494 8.29796 24.0213 6.43371C24.0313 6.33823 24.1933 5.94501 24.5777 5.96128C24.9621 5.97755 28.3539 6.30992 28.3539 6.30992C28.6642 6.34253 28.8853 6.5347 28.8477 6.89272C28.8176 7.17915 28.535 7.3425 28.2247 7.30989L25.1168 7.03149C24.9237 9.32789 24.284 15.4144 24.1485 16.7033C24.1033 17.1329 23.7277 17.2623 23.4891 17.2373ZM36.0429 17.7362C36.1346 18.0113 36.1422 18.3982 35.8382 18.5352C35.4815 18.7149 35.1913 18.4913 35.0845 18.3595C34.9777 18.2276 34.8834 17.9763 34.7892 17.7251L34.7414 17.7201C34.5128 18.0581 34.1461 18.3332 33.8396 18.4941C33.0256 18.8912 31.8447 18.6464 31.4967 18.5133C29.9 17.8628 29.259 16.1545 29.9823 14.324C30.5436 12.8868 32.2633 12.3677 34.4769 12.89C34.4819 12.8422 34.5948 11.7682 34.5533 11.4742C34.5356 11.1828 34.175 10.7105 33.5481 10.4757C32.8496 10.2333 31.9489 10.3076 31.2958 11.0112C31.0798 11.2298 30.6615 11.3065 30.4404 11.1143C30.2217 10.8983 30.2116 10.5352 30.4038 10.3141C31.4174 9.16578 33.0002 9.25975 33.9801 9.57993C35.0769 9.93652 35.6435 10.7442 35.6851 11.4966C35.7757 12.4715 35.4947 15.1447 35.5942 16.2653C35.6508 16.8745 35.9084 17.4084 36.0429 17.7362ZM31.9338 17.5698C32.9777 17.9691 34.1585 17.2968 34.5315 16.7327C34.3781 15.8961 34.4407 14.8409 34.467 13.9025C33.668 13.6979 31.506 13.3741 30.9999 14.7447C30.4989 16.0676 30.8684 17.1441 31.9338 17.5698ZM41.8367 11.5399C42.2425 11.5826 42.5566 11.8086 42.6572 12.2294C42.7364 12.6239 43.5626 18.3094 43.6393 18.7277C43.7047 19.0242 43.5954 19.3747 43.2299 19.4086C42.9146 19.4238 42.7148 19.258 42.6067 18.9088C42.4823 18.4854 42.0848 15.3789 41.9515 14.3513C41.8597 13.6177 41.7955 13.08 41.7314 12.5424L41.6836 12.5374C41.45 12.9231 41.0884 13.609 40.7292 14.2711C39.9242 15.7309 38.878 17.6481 38.5591 18.3868C38.4863 18.6205 38.1534 18.8027 37.877 18.6771C37.5793 18.5251 37.588 18.2123 37.6583 18.0025C38.094 16.8417 40.111 13.265 40.754 12.1983C41.0165 11.7674 41.3594 11.4897 41.8367 11.5399ZM48.591 19.8032C47.3473 19.6966 46.3133 18.7433 46.077 17.7773C45.6106 16.0149 46.1418 14.8641 46.6229 14.1907C47.1855 13.4294 48.1239 12.9971 49.1225 12.909C50.6275 12.8258 51.8286 13.7967 52.2081 14.7777C52.413 15.3543 52.31 15.8744 51.9885 16.1785C51.3956 16.7677 48.7376 17.2606 47.1849 17.3387C47.1624 18.012 47.8974 18.5961 48.2479 18.7053C49.0682 18.9363 49.9739 18.8143 50.8771 18.2577C51.1094 18.1132 51.4725 18.1031 51.6886 18.343C51.857 18.5779 51.7904 18.9811 51.5342 19.1231C50.6047 19.7011 49.5721 19.8822 48.591 19.8032ZM49.1365 13.924C48.4795 13.9756 47.8691 14.2734 47.5036 14.7659C47.2461 15.1491 47.064 15.7333 47.0516 16.3111C48.2261 16.3863 50.4357 15.7981 51.0537 15.4286C51.1304 15.3884 51.1693 15.2477 51.1316 15.1472C51.0725 15.0204 50.9946 14.8433 50.8665 14.685C50.4631 14.16 49.8651 13.8799 49.1365 13.924ZM55.3964 25.8275C55.0308 25.8615 54.8725 25.5312 54.8712 25.3138C54.7089 23.873 54.6634 22.01 54.6154 20.1709C54.5334 17.9663 54.4702 15.8119 54.2477 14.9439C54.1773 14.6951 54.2602 14.366 54.5403 14.2265C54.7174 14.1486 54.98 14.1762 55.1345 14.3131C55.2463 14.3972 55.2765 14.5693 55.2765 14.5693C55.5955 14.2892 56.3229 14.0277 56.7625 13.9774C57.2788 13.8869 57.873 13.9735 58.3881 14.1241C59.3039 14.3652 60.3794 15.1539 60.5429 16.3536C60.646 17.2091 60.4288 18.1274 59.8071 18.7619C58.7533 19.8336 56.8766 20.2397 55.6831 20.1142C55.6834 21.9483 55.8181 23.6517 55.9176 25.2308C55.9566 25.5486 55.7355 25.8149 55.3964 25.8275ZM55.6378 19.1683C56.5686 19.2661 58.1275 18.8991 58.9151 18.0648C59.3233 17.6251 59.5053 17.0409 59.3934 16.4982C59.2275 15.781 58.578 15.3025 57.9511 15.0676C56.9712 14.7475 55.9336 14.9762 55.401 15.4512C55.4991 16.3544 55.6262 17.6709 55.6378 19.1683ZM65.1162 21.5401C63.8725 21.4335 62.8385 20.4802 62.6022 19.5142C62.1359 17.7518 62.6671 16.601 63.1481 15.9276C63.7108 15.1662 64.6491 14.7339 65.6478 14.6458C67.1527 14.5627 68.3538 15.5336 68.7333 16.5146C68.9382 17.0912 68.8353 17.6113 68.5137 17.9153C67.9209 18.5046 65.2628 18.9974 63.7101 19.0756C63.6876 19.7489 64.4226 20.3329 64.7731 20.4422C65.5934 20.6732 66.4992 20.5512 67.4023 19.9945C67.6347 19.85 67.9977 19.8399 68.2138 20.0798C68.3822 20.3147 68.3157 20.718 68.0594 20.86C67.1299 21.438 66.0973 21.619 65.1162 21.5401ZM65.6617 15.6609C65.0048 15.7125 64.3943 16.0103 64.0288 16.5028C63.7713 16.886 63.5893 17.4701 63.5768 18.048C64.7514 18.1232 66.961 17.5349 67.579 17.1655C67.6556 17.1253 67.6945 16.9846 67.6568 16.8841C67.5977 16.7572 67.5198 16.5801 67.3917 16.4219C66.9883 15.8968 66.3903 15.6168 65.6617 15.6609ZM76.9797 15.2577C77.2663 16.6634 76.9996 22.1857 76.9168 22.9734C76.8817 23.3076 76.5891 23.5664 76.3026 23.5363C76.0162 23.5062 75.7574 23.2135 75.795 22.8555C75.8251 22.5691 75.8664 21.4875 75.9076 19.9473C75.2381 20.1183 73.968 20.0331 73.1288 19.7518C72.1403 20.6615 71.6832 21.3374 71.2073 22.4216C71.0817 22.698 70.7677 22.9304 70.446 22.7759C70.1006 22.619 70.1093 22.3062 70.2135 22.0034C70.702 20.7999 71.6126 19.7131 72.1188 19.2595C71.1401 18.6982 70.5621 17.7686 70.6461 16.7398C70.7112 15.6607 71.1759 14.9132 72.0024 14.3967C73.0375 13.7333 75.3929 14.0532 76.2887 14.4852C76.7032 14.6736 76.903 14.8394 76.9797 15.2577ZM72.2555 18.188C73.0634 18.9968 74.9628 19.293 75.9314 19.0328C75.945 17.7552 75.9234 16.3533 75.8868 15.5531C75.8755 15.4312 75.8139 15.3282 75.7235 15.2705C75.4232 15.1424 74.927 15.042 74.2348 14.9692C73.5188 14.894 72.9258 15.0247 72.5402 15.2496C72.0252 15.5575 71.7025 16.1027 71.6825 16.7522C71.6914 17.3564 71.8422 17.7584 72.2555 18.188Z" fill="#F3AADB"/>
<path d="M24.0213 6.43371L23.8223 6.4128L23.8221 6.41535L24.0213 6.43371ZM24.5777 5.96128L24.5692 6.1611L24.5692 6.1611L24.5777 5.96128ZM28.3539 6.30992L28.3748 6.11101L28.3734 6.11087L28.3539 6.30992ZM28.2247 7.30989L28.2456 7.11096L28.2425 7.11068L28.2247 7.30989ZM25.1168 7.03149L25.1346 6.83229L24.9343 6.81435L24.9175 7.01474L25.1168 7.03149ZM23.51 17.0384C23.4343 17.0304 23.3554 16.9948 23.3006 16.9331C23.2496 16.8758 23.2071 16.7823 23.2231 16.6301L22.8253 16.5883C22.7986 16.8419 22.8692 17.0499 23.0017 17.1989C23.1303 17.3435 23.3052 17.419 23.4682 17.4362L23.51 17.0384ZM23.2231 16.6301C23.3712 15.2209 24.0485 8.317 24.2204 6.45206L23.8221 6.41535C23.6504 8.27892 22.9732 15.1811 22.8253 16.5883L23.2231 16.6301ZM24.2202 6.45461C24.2196 6.46044 24.2225 6.43991 24.2406 6.39966C24.2571 6.36331 24.2812 6.32156 24.313 6.28332C24.3753 6.20825 24.4566 6.15633 24.5692 6.1611L24.5861 5.76146C24.3144 5.74996 24.1225 5.88652 24.0052 6.02786C23.9471 6.09782 23.9049 6.17126 23.8761 6.23499C23.8491 6.29481 23.828 6.35924 23.8224 6.4128L24.2202 6.45461ZM24.5692 6.1611C24.7546 6.16895 25.6906 6.25526 26.591 6.3408C27.0389 6.38335 27.4747 6.42539 27.7987 6.4568C27.9606 6.4725 28.0946 6.48554 28.188 6.49466C28.2348 6.49922 28.2714 6.50279 28.2963 6.50523C28.3087 6.50645 28.3183 6.50738 28.3247 6.50801C28.3279 6.50833 28.3303 6.50856 28.332 6.50872C28.3328 6.5088 28.3334 6.50886 28.3338 6.5089C28.334 6.50892 28.3342 6.50894 28.3343 6.50895C28.3343 6.50895 28.3344 6.50896 28.3344 6.50896C28.3344 6.50896 28.3344 6.50896 28.3539 6.30992C28.3734 6.11087 28.3734 6.11087 28.3734 6.11087C28.3734 6.11086 28.3733 6.11086 28.3733 6.11085C28.3732 6.11084 28.373 6.11083 28.3728 6.11081C28.3724 6.11077 28.3718 6.11071 28.371 6.11063C28.3693 6.11047 28.3669 6.11023 28.3637 6.10991C28.3572 6.10928 28.3477 6.10835 28.3352 6.10713C28.3103 6.10469 28.2736 6.10111 28.2269 6.09655C28.1333 6.08743 27.9993 6.07437 27.8373 6.05866C27.5132 6.02724 27.0771 5.98518 26.6289 5.9426C25.7373 5.85789 24.7852 5.76989 24.5861 5.76146L24.5692 6.1611ZM28.333 6.50882C28.4546 6.5216 28.5367 6.56333 28.5843 6.6149C28.6282 6.6625 28.6627 6.73983 28.6488 6.87182L29.0466 6.91363C29.0704 6.68759 29.0131 6.48982 28.8783 6.34368C28.7471 6.20151 28.5635 6.13085 28.3748 6.11101L28.333 6.50882ZM28.6488 6.87182C28.6344 7.00926 28.4898 7.13664 28.2456 7.11098L28.2038 7.50879C28.5802 7.54835 29.0009 7.34903 29.0466 6.91363L28.6488 6.87182ZM28.2425 7.11068L25.1346 6.83229L25.0989 7.2307L28.2069 7.50909L28.2425 7.11068ZM24.9175 7.01474C24.7246 9.30848 24.0852 15.3922 23.9496 16.6824L24.3474 16.7242C24.4827 15.4365 25.1228 9.3473 25.3161 7.04825L24.9175 7.01474ZM23.9496 16.6824C23.9336 16.8345 23.8636 16.921 23.7834 16.9724C23.6959 17.0285 23.5886 17.0466 23.51 17.0384L23.4682 17.4362C23.6282 17.453 23.828 17.4189 23.9993 17.3092C24.1779 17.1947 24.3182 17.0017 24.3474 16.7242L23.9496 16.6824ZM36.0429 17.7362L36.233 17.6728L36.2279 17.6603L36.0429 17.7362ZM35.8382 18.5352L35.756 18.3527L35.7483 18.3566L35.8382 18.5352ZM35.0845 18.3595L34.929 18.4853L35.0845 18.3595ZM34.7892 17.7251L34.9764 17.6549L34.933 17.5391L34.8101 17.5262L34.7892 17.7251ZM34.7414 17.7201L34.7623 17.5212L34.643 17.5087L34.5758 17.608L34.7414 17.7201ZM33.8396 18.4941L33.9273 18.6739L33.9325 18.6712L33.8396 18.4941ZM31.4967 18.5133L31.4213 18.6985L31.4253 18.7001L31.4967 18.5133ZM29.9823 14.324L30.1683 14.3975L30.1686 14.3968L29.9823 14.324ZM34.4769 12.89L34.4309 13.0846L34.652 13.1368L34.6758 12.9109L34.4769 12.89ZM34.5533 11.4742L34.3536 11.4863L34.3541 11.4943L34.3552 11.5022L34.5533 11.4742ZM33.5481 10.4757L33.6183 10.2883L33.6137 10.2867L33.5481 10.4757ZM31.2958 11.0112L31.4381 11.1518L31.4424 11.1472L31.2958 11.0112ZM30.4404 11.1143L30.2995 11.2569L30.3092 11.2653L30.4404 11.1143ZM30.4038 10.3141L30.2538 10.1818L30.2528 10.1829L30.4038 10.3141ZM33.9801 9.57993L33.918 9.77004L33.9183 9.77013L33.9801 9.57993ZM35.6851 11.4966L35.4853 11.5077L35.486 11.5152L35.6851 11.4966ZM35.5942 16.2653L35.3949 16.2829L35.395 16.2838L35.5942 16.2653ZM31.9338 17.5698L31.8595 17.7555L31.8623 17.7566L31.9338 17.5698ZM34.5315 16.7327L34.6983 16.8431L34.7427 16.7759L34.7282 16.6967L34.5315 16.7327ZM34.467 13.9025L34.6669 13.9081L34.6714 13.7484L34.5166 13.7088L34.467 13.9025ZM30.9999 14.7447L31.187 14.8155L31.1876 14.814L30.9999 14.7447ZM35.8531 17.7995C35.892 17.9161 35.9094 18.0477 35.8917 18.1547C35.8749 18.2558 35.8315 18.3189 35.7561 18.3529L35.9204 18.7176C36.1489 18.6146 36.2538 18.4157 36.2862 18.2203C36.3177 18.0309 36.2854 17.8314 36.2326 17.6729L35.8531 17.7995ZM35.7483 18.3566C35.6258 18.4183 35.5232 18.4096 35.4391 18.3774C35.3481 18.3426 35.2761 18.2783 35.2399 18.2336L34.929 18.4853C34.9997 18.5725 35.1262 18.686 35.2962 18.751C35.473 18.8186 35.6939 18.8318 35.9282 18.7138L35.7483 18.3566ZM35.2399 18.2336C35.204 18.1892 35.1623 18.1137 35.1152 18.0065C35.0691 17.9019 35.024 17.7817 34.9764 17.6549L34.6019 17.7954C34.6486 17.9197 34.6977 18.0508 34.749 18.1676C34.7993 18.2818 34.8582 18.3978 34.929 18.4853L35.2399 18.2336ZM34.8101 17.5262L34.7623 17.5212L34.7205 17.919L34.7683 17.924L34.8101 17.5262ZM34.5758 17.608C34.3712 17.9105 34.034 18.1661 33.7466 18.317L33.9325 18.6712C34.2581 18.5003 34.6545 18.2056 34.9071 17.8321L34.5758 17.608ZM33.7519 18.3143C33.3897 18.491 32.9311 18.5301 32.5062 18.5029C32.0825 18.4758 31.7205 18.3848 31.5682 18.3265L31.4253 18.7001C31.6209 18.7749 32.0234 18.8728 32.4806 18.9021C32.9366 18.9313 33.4755 18.8942 33.9273 18.6738L33.7519 18.3143ZM31.5722 18.3281C30.8245 18.0235 30.3069 17.4752 30.0574 16.7925C29.8072 16.108 29.8219 15.2743 30.1683 14.3975L29.7963 14.2505C29.4195 15.2042 29.393 16.1399 29.6817 16.9298C29.971 17.7215 30.5723 18.3526 31.4213 18.6985L31.5722 18.3281ZM30.1686 14.3968C30.4243 13.7422 30.9429 13.2916 31.67 13.063C32.4024 12.8328 33.3472 12.829 34.4309 13.0846L34.5228 12.6953C33.3929 12.4288 32.3712 12.4233 31.55 12.6814C30.7236 12.9412 30.1017 13.4687 29.796 14.2513L30.1686 14.3968ZM34.6758 12.9109C34.6783 12.8865 34.708 12.6037 34.7319 12.2896C34.7439 12.1326 34.7545 11.9662 34.7594 11.8195C34.7642 11.6775 34.7644 11.5391 34.7513 11.4463L34.3552 11.5022C34.3629 11.5563 34.3645 11.6624 34.3597 11.806C34.355 11.9448 34.3448 12.105 34.3331 12.2593C34.3096 12.5676 34.2804 12.8458 34.278 12.8691L34.6758 12.9109ZM34.7529 11.4621C34.7402 11.2515 34.6123 11.0186 34.4257 10.8176C34.2338 10.6109 33.9607 10.4167 33.6183 10.2884L33.478 10.663C33.7624 10.7695 33.9831 10.9288 34.1326 11.0898C34.2875 11.2566 34.3487 11.4055 34.3536 11.4863L34.7529 11.4621ZM33.6137 10.2867C32.8569 10.0242 31.8674 10.1015 31.1492 10.8751L31.4424 11.1472C32.0305 10.5137 32.8423 10.4425 33.4826 10.6646L33.6137 10.2867ZM31.1536 10.8706C31.0801 10.9449 30.9636 11.0016 30.842 11.0188C30.7189 11.0362 30.6244 11.0093 30.5715 10.9634L30.3092 11.2653C30.4774 11.4115 30.7027 11.4424 30.898 11.4148C31.0949 11.387 31.2955 11.2961 31.4381 11.1518L31.1536 10.8706ZM30.5809 10.9721C30.4368 10.8296 30.4323 10.5862 30.5548 10.4453L30.2528 10.1829C29.991 10.4843 30.0067 10.967 30.2998 11.2566L30.5809 10.9721ZM30.5537 10.4465C31.4878 9.38826 32.9662 9.45905 33.918 9.77004L34.0422 9.38982C33.0342 9.06044 31.347 8.94329 30.2539 10.1818L30.5537 10.4465ZM33.9183 9.77013C34.9489 10.1052 35.4491 10.85 35.4854 11.5077L35.8848 11.4856C35.838 10.6384 35.2048 9.76783 34.042 9.38973L33.9183 9.77013ZM35.486 11.5152C35.5296 11.9844 35.4835 12.8771 35.4366 13.8163C35.3904 14.7398 35.3437 15.7054 35.3949 16.2829L35.7934 16.2476C35.7452 15.7046 35.7893 14.7733 35.8361 13.8363C35.8821 12.9151 35.9313 11.9837 35.8843 11.4781L35.486 11.5152ZM35.395 16.2838C35.4551 16.9304 35.7291 17.4983 35.8578 17.8121L36.2279 17.6603C36.0877 17.3185 35.8465 16.8187 35.7933 16.2468L35.395 16.2838ZM31.8623 17.7566C32.4443 17.9792 33.0542 17.8997 33.5584 17.6983C34.0592 17.4983 34.4843 17.1667 34.6983 16.8431L34.3647 16.6224C34.2056 16.8629 33.8539 17.1495 33.41 17.3268C32.9696 17.5027 32.4672 17.5597 32.0052 17.383L31.8623 17.7566ZM34.7282 16.6967C34.5797 15.8866 34.6403 14.8603 34.6669 13.9081L34.267 13.8969C34.2412 14.8214 34.1765 15.9057 34.3348 16.7688L34.7282 16.6967ZM34.5166 13.7088C34.1056 13.6035 33.3405 13.466 32.6053 13.5337C31.8763 13.6009 31.1062 13.8796 30.8123 14.6754L31.1876 14.814C31.3998 14.2392 31.9637 13.9945 32.6419 13.932C33.3139 13.8701 34.0294 13.9969 34.4173 14.0962L34.5166 13.7088ZM30.8129 14.6739C30.5509 15.3656 30.5084 16.0143 30.6898 16.5571C30.8727 17.1048 31.2765 17.5226 31.8595 17.7555L32.008 17.3841C31.5256 17.1913 31.212 16.858 31.0692 16.4303C30.9247 15.9977 30.9479 15.4467 31.187 14.8155L30.8129 14.6739ZM42.6572 12.2294L42.8534 12.19L42.8517 12.183L42.6572 12.2294ZM43.6393 18.7277L43.4424 18.7638L43.444 18.7708L43.6393 18.7277ZM43.2299 19.4086L43.2395 19.6086L43.2484 19.6078L43.2299 19.4086ZM42.6067 18.9088L42.4148 18.9652L42.4156 18.9679L42.6067 18.9088ZM41.9515 14.3513L41.753 14.3761L41.7532 14.377L41.9515 14.3513ZM41.7314 12.5424L41.93 12.5187L41.911 12.3602L41.7523 12.3435L41.7314 12.5424ZM41.6836 12.5374L41.7045 12.3385L41.5783 12.3252L41.5126 12.4338L41.6836 12.5374ZM40.7292 14.2711L40.9043 14.3677L40.905 14.3665L40.7292 14.2711ZM38.5591 18.3868L38.3755 18.3075L38.3713 18.3172L38.3681 18.3273L38.5591 18.3868ZM37.877 18.6771L37.786 18.8554L37.7943 18.8592L37.877 18.6771ZM37.6583 18.0025L37.471 17.9322L37.4687 17.939L37.6583 18.0025ZM40.754 12.1983L40.5832 12.0943L40.5827 12.0951L40.754 12.1983ZM41.8158 11.7388C42.1511 11.774 42.3848 11.9504 42.4626 12.2759L42.8517 12.183C42.7283 11.6669 42.3339 11.3911 41.8576 11.341L41.8158 11.7388ZM42.4611 12.2688C42.4993 12.4594 42.7245 13.9706 42.9513 15.499C43.1768 17.0181 43.4034 18.5502 43.4426 18.7638L43.836 18.6916C43.7985 18.4869 43.5736 16.9671 43.347 15.4403C43.1218 13.9227 42.8942 12.3939 42.8532 12.1901L42.4611 12.2688ZM43.444 18.7708C43.469 18.8841 43.4575 18.9972 43.4175 19.0767C43.3822 19.1468 43.3224 19.1992 43.2114 19.2095L43.2484 19.6078C43.5028 19.5841 43.6804 19.4442 43.7748 19.2564C43.8645 19.0781 43.875 18.8677 43.8346 18.6846L43.444 18.7708ZM43.2203 19.2089C43.102 19.2145 43.0242 19.1866 42.9664 19.1398C42.9047 19.09 42.8448 19.0016 42.7978 18.8496L42.4156 18.9679C42.4767 19.1652 42.5707 19.3342 42.7148 19.4508C42.8627 19.5705 43.0424 19.6179 43.2394 19.6084L43.2203 19.2089ZM42.7986 18.8524C42.7721 18.7622 42.7259 18.5042 42.6682 18.1319C42.6116 17.7668 42.5463 17.308 42.4806 16.8294C42.3491 15.8723 42.2165 14.8397 42.1498 14.3256L41.7532 14.377C41.8198 14.8904 41.9526 15.9249 42.0843 16.8838C42.1501 17.3632 42.2158 17.8247 42.2729 18.1932C42.3289 18.5545 42.3791 18.8436 42.4148 18.9652L42.7986 18.8524ZM42.1499 14.3265C42.0582 13.5935 41.9941 13.0563 41.93 12.5187L41.5328 12.5661C41.5969 13.1038 41.6611 13.6419 41.753 14.3761L42.1499 14.3265ZM41.7523 12.3435L41.7045 12.3385L41.6627 12.7363L41.7105 12.7413L41.7523 12.3435ZM41.5126 12.4338C41.2757 12.8249 40.9098 13.5187 40.5534 14.1757L40.905 14.3665C41.2669 13.6993 41.6244 13.0213 41.8547 12.641L41.5126 12.4338ZM40.554 14.1745C39.7519 15.6292 38.6993 17.5575 38.3755 18.3075L38.7427 18.4661C39.0568 17.7387 40.0965 15.8327 40.9043 14.3677L40.554 14.1745ZM38.3681 18.3273C38.3521 18.3789 38.2977 18.4445 38.21 18.4854C38.1254 18.5247 38.0349 18.5292 37.9597 18.495L37.7943 18.8592C37.9955 18.9506 38.2097 18.9267 38.3788 18.848C38.5448 18.7707 38.6933 18.6284 38.75 18.4463L38.3681 18.3273ZM37.9679 18.499C37.8771 18.4526 37.84 18.3894 37.8253 18.3199C37.8087 18.2419 37.8202 18.1489 37.8479 18.0661L37.4687 17.939C37.4261 18.066 37.3981 18.2343 37.434 18.4031C37.4717 18.5805 37.5791 18.7496 37.7861 18.8552L37.9679 18.499ZM37.8456 18.0728C38.0575 17.5082 38.6631 16.3369 39.304 15.1608C39.9422 13.9898 40.6057 12.8317 40.9253 12.3016L40.5827 12.0951C40.2592 12.6316 39.5928 13.7952 38.9528 14.9694C38.3156 16.1386 37.6949 17.3361 37.4711 17.9323L37.8456 18.0728ZM40.9248 12.3024C41.1689 11.9016 41.4497 11.7003 41.8158 11.7388L41.8576 11.341C41.269 11.2791 40.864 11.6332 40.5832 12.0943L40.9248 12.3024ZM48.591 19.8032L48.5739 20.0025L48.5749 20.0025L48.591 19.8032ZM46.077 17.7773L46.2713 17.7298L46.2703 17.7261L46.077 17.7773ZM46.6229 14.1907L46.462 14.0718L46.4601 14.0745L46.6229 14.1907ZM49.1225 12.909L49.1115 12.7092L49.105 12.7098L49.1225 12.909ZM52.2081 14.7777L52.3966 14.7108L52.3946 14.7056L52.2081 14.7777ZM51.9885 16.1785L51.851 16.0331L51.8475 16.0366L51.9885 16.1785ZM47.1849 17.3387L47.1748 17.139L46.9912 17.1482L46.985 17.332L47.1849 17.3387ZM48.2479 18.7053L48.1883 18.8963L48.1937 18.8978L48.2479 18.7053ZM50.8771 18.2577L50.982 18.4279L50.9827 18.4275L50.8771 18.2577ZM51.6886 18.343L51.8511 18.2265L51.8447 18.2174L51.8372 18.2091L51.6886 18.343ZM51.5342 19.1231L51.4371 18.9479L51.4286 18.9533L51.5342 19.1231ZM49.1365 13.924L49.1244 13.7243L49.1209 13.7246L49.1365 13.924ZM47.5036 14.7659L47.3428 14.6466L47.3376 14.6544L47.5036 14.7659ZM47.0516 16.3111L46.8516 16.3068L46.8475 16.4985L47.0388 16.5107L47.0516 16.3111ZM51.0537 15.4286L50.9607 15.2513L50.9511 15.257L51.0537 15.4286ZM51.1316 15.1472L51.3188 15.077L51.3161 15.0698L51.3129 15.0628L51.1316 15.1472ZM50.8665 14.685L50.7078 14.8069L50.711 14.8109L50.8665 14.685ZM48.6081 19.6039C47.4467 19.5044 46.4864 18.6093 46.2713 17.7298L45.8827 17.8248C46.1402 18.8773 47.2479 19.8888 48.5739 20.0025L48.6081 19.6039ZM46.2703 17.7261C45.8223 16.0329 46.3316 14.9426 46.7856 14.307L46.4601 14.0745C45.9521 14.7856 45.399 15.9969 45.8836 17.8285L46.2703 17.7261ZM46.7837 14.3096C47.3043 13.6051 48.1836 13.1926 49.1401 13.1082L49.105 12.7098C48.0642 12.8016 47.0667 13.2536 46.462 14.0718L46.7837 14.3096ZM49.1336 13.1087C50.5481 13.0305 51.6719 13.946 52.0216 14.8499L52.3946 14.7056C51.9853 13.6474 50.7068 12.6211 49.1115 12.7093L49.1336 13.1087ZM52.0196 14.8447C52.2058 15.3686 52.0999 15.7979 51.8511 16.0331L52.1259 16.3238C52.5202 15.9509 52.6201 15.34 52.3966 14.7108L52.0196 14.8447ZM51.8475 16.0366C51.7324 16.151 51.4914 16.2803 51.1376 16.4095C50.7919 16.5357 50.3647 16.6528 49.9034 16.755C48.9805 16.9595 47.9389 17.1005 47.1748 17.139L47.1949 17.5385C47.9836 17.4988 49.0474 17.3543 49.9899 17.1455C50.4613 17.0411 50.9068 16.9196 51.2748 16.7852C51.6346 16.6538 51.9481 16.5006 52.1295 16.3203L51.8475 16.0366ZM46.985 17.332C46.9713 17.743 47.1873 18.1064 47.4294 18.3691C47.6708 18.631 47.9707 18.8284 48.1884 18.8962L48.3074 18.5144C48.1745 18.473 47.9317 18.3238 47.7236 18.098C47.5162 17.873 47.376 17.6077 47.3848 17.3454L46.985 17.332ZM48.1937 18.8978C49.0735 19.1456 50.0365 19.0107 50.982 18.4279L50.7721 18.0874C49.9113 18.618 49.0629 18.727 48.3021 18.5128L48.1937 18.8978ZM50.9827 18.4275C51.1564 18.3195 51.4057 18.3278 51.54 18.4768L51.8372 18.2091C51.5392 17.8783 51.0624 17.9069 50.7714 18.0878L50.9827 18.4275ZM51.526 18.4595C51.5725 18.5243 51.5937 18.6259 51.574 18.7312C51.5544 18.8363 51.5006 18.9131 51.4373 18.9482L51.6311 19.298C51.824 19.1912 51.9316 18.9953 51.9672 18.8046C52.0028 18.614 51.973 18.3965 51.8511 18.2265L51.526 18.4595ZM51.4286 18.9533C50.5411 19.5051 49.5527 19.68 48.607 19.6038L48.5749 20.0025C49.5916 20.0844 50.6683 19.8971 51.6398 19.2929L51.4286 18.9533ZM49.1209 13.7246C48.4169 13.7799 47.7488 14.0998 47.343 14.6467L47.6642 14.8851C47.9893 14.447 48.5421 14.1713 49.1522 14.1234L49.1209 13.7246ZM47.3376 14.6544C47.0562 15.0732 46.8648 15.6956 46.8516 16.3068L47.2515 16.3155C47.2633 15.7709 47.436 15.225 47.6696 14.8775L47.3376 14.6544ZM47.0388 16.5107C47.6565 16.5503 48.5259 16.4163 49.3075 16.2312C50.0855 16.047 50.8188 15.8021 51.1564 15.6003L50.9511 15.257C50.6707 15.4246 49.9902 15.6585 49.2153 15.842C48.4439 16.0246 47.6213 16.1472 47.0644 16.1115L47.0388 16.5107ZM51.1467 15.6057C51.2533 15.5498 51.306 15.4444 51.3283 15.3639C51.352 15.2783 51.3552 15.1739 51.3188 15.077L50.9443 15.2175C50.9446 15.2181 50.946 15.2226 50.9461 15.2312C50.9463 15.2397 50.9451 15.2489 50.9428 15.2572C50.9404 15.2658 50.9379 15.2698 50.938 15.2696C50.9382 15.2694 50.9397 15.2672 50.943 15.264C50.9464 15.2608 50.9522 15.2561 50.9608 15.2516L51.1467 15.6057ZM51.3129 15.0628C51.2564 14.9414 51.1685 14.7402 51.0219 14.5591L50.711 14.8109C50.8207 14.9464 50.8887 15.0993 50.9503 15.2317L51.3129 15.0628ZM51.0251 14.5632C50.58 13.9838 49.9172 13.6764 49.1244 13.7244L49.1486 14.1236C49.8131 14.0834 50.3463 14.3362 50.7078 14.8068L51.0251 14.5632ZM55.3964 25.8275L55.3889 25.6274L55.3779 25.6284L55.3964 25.8275ZM54.8712 25.3138L55.0712 25.3126L55.0711 25.302L55.0699 25.2914L54.8712 25.3138ZM54.6154 20.1709L54.8153 20.1657L54.8152 20.1635L54.6154 20.1709ZM54.2477 14.9439L54.4415 14.8942L54.4402 14.8894L54.2477 14.9439ZM54.5403 14.2265L54.4597 14.0432L54.4512 14.0475L54.5403 14.2265ZM55.1345 14.3131L55.0019 14.4628L55.0079 14.4681L55.0143 14.4729L55.1345 14.3131ZM55.2765 14.5693L55.0795 14.6039L55.141 14.9545L55.4085 14.7196L55.2765 14.5693ZM56.7625 13.9774L56.7853 14.1765L56.7971 14.1744L56.7625 13.9774ZM58.3881 14.1241L58.3319 14.3162L58.3372 14.3176L58.3881 14.1241ZM60.5429 16.3536L60.7414 16.3297L60.741 16.3266L60.5429 16.3536ZM59.8071 18.7619L59.9497 18.9021L59.9499 18.9019L59.8071 18.7619ZM55.6831 20.1142L55.704 19.9153L55.4831 19.8921L55.4831 20.1142L55.6831 20.1142ZM55.9176 25.2308L55.7176 25.2434L55.7191 25.2551L55.9176 25.2308ZM55.6378 19.1683L55.4378 19.1698L55.4392 19.3485L55.6169 19.3672L55.6378 19.1683ZM58.9151 18.0648L59.0605 18.2021L59.0616 18.2009L58.9151 18.0648ZM59.3934 16.4982L59.5894 16.4578L59.5883 16.4532L59.3934 16.4982ZM57.9511 15.0676L58.0213 14.8802L58.0132 14.8775L57.9511 15.0676ZM55.401 15.4512L55.2679 15.3019L55.1911 15.3704L55.2022 15.4728L55.401 15.4512ZM55.3779 25.6284C55.2679 25.6386 55.2001 25.5977 55.1526 25.5391C55.0985 25.4722 55.0716 25.3804 55.0712 25.3126L54.6712 25.315C54.6721 25.4646 54.725 25.6466 54.8417 25.7908C54.9652 25.9432 55.1592 26.0504 55.4149 26.0267L55.3779 25.6284ZM55.0699 25.2914C54.9088 23.8611 54.8634 22.0081 54.8153 20.1657L54.4154 20.1761C54.4634 22.0119 54.509 23.8848 54.6724 25.3362L55.0699 25.2914ZM54.8152 20.1635C54.7743 19.0627 54.7379 17.9699 54.6839 17.0445C54.6302 16.1249 54.5583 15.35 54.4415 14.8942L54.054 14.9935C54.1597 15.4058 54.2305 16.1421 54.2846 17.0678C54.3383 17.9878 54.3744 19.0745 54.4155 20.1783L54.8152 20.1635ZM54.4402 14.8894C54.3889 14.7082 54.4568 14.4915 54.6295 14.4055L54.4512 14.0475C54.0636 14.2405 53.9658 14.6821 54.0553 14.9983L54.4402 14.8894ZM54.6208 14.4096C54.6706 14.3877 54.7426 14.3772 54.8195 14.3875C54.8962 14.3977 54.9606 14.4262 55.0019 14.4628L55.2671 14.1634C55.1539 14.0631 55.0098 14.0093 54.8723 13.991C54.735 13.9727 54.5872 13.9874 54.4598 14.0434L54.6208 14.4096ZM55.0143 14.4729C55.0278 14.4831 55.0461 14.508 55.0619 14.5474C55.0688 14.5647 55.0736 14.5806 55.0766 14.5919C55.078 14.5974 55.079 14.6015 55.0794 14.6037C55.0797 14.6048 55.0798 14.6054 55.0798 14.6054C55.0798 14.6055 55.0798 14.6054 55.0797 14.6051C55.0797 14.605 55.0797 14.6048 55.0796 14.6046C55.0796 14.6045 55.0796 14.6044 55.0796 14.6043C55.0796 14.6042 55.0796 14.6041 55.0795 14.6041C55.0795 14.6041 55.0795 14.604 55.0795 14.604C55.0795 14.6039 55.0795 14.6039 55.2765 14.5693C55.4735 14.5348 55.4735 14.5347 55.4735 14.5347C55.4735 14.5347 55.4735 14.5346 55.4735 14.5346C55.4735 14.5345 55.4734 14.5344 55.4734 14.5343C55.4734 14.5342 55.4734 14.534 55.4733 14.5338C55.4733 14.5335 55.4732 14.533 55.4731 14.5326C55.4729 14.5317 55.4727 14.5306 55.4725 14.5293C55.472 14.5268 55.4714 14.5236 55.4706 14.5199C55.4689 14.5123 55.4666 14.5023 55.4635 14.4904C55.4573 14.4667 55.4476 14.4344 55.433 14.3982C55.4058 14.3305 55.353 14.2272 55.2548 14.1533L55.0143 14.4729ZM55.4085 14.7196C55.5416 14.6027 55.7773 14.4775 56.0462 14.3738C56.3123 14.2712 56.5871 14.1988 56.7853 14.1761L56.7398 13.7787C56.4983 13.8064 56.1896 13.8898 55.9023 14.0006C55.6179 14.1102 55.3304 14.2558 55.1445 14.4191L55.4085 14.7196ZM56.7971 14.1744C57.2713 14.0913 57.832 14.1699 58.3319 14.3161L58.4442 13.9322C57.914 13.7771 57.2864 13.6825 56.728 13.7804L56.7971 14.1744ZM58.3372 14.3176C59.2063 14.5463 60.1959 15.289 60.3447 16.3806L60.741 16.3266C60.5628 15.0188 59.4016 14.1841 58.439 13.9307L58.3372 14.3176ZM60.3443 16.3775C60.442 17.1877 60.2339 18.0405 59.6642 18.6219L59.9499 18.9019C60.6237 18.2143 60.85 17.2304 60.7414 16.3297L60.3443 16.3775ZM59.6645 18.6217C59.1687 19.1259 58.4701 19.4815 57.7412 19.6951C57.0128 19.9085 56.2715 19.975 55.704 19.9153L55.6622 20.3131C56.2882 20.3789 57.082 20.305 57.8537 20.0789C58.625 19.8529 59.3917 19.4696 59.9497 18.9021L59.6645 18.6217ZM55.4831 20.1142C55.4834 21.9564 55.6188 23.6683 55.718 25.2433L56.1172 25.2182C56.0175 23.6352 55.8834 21.9402 55.8831 20.1142L55.4831 20.1142ZM55.7191 25.2551C55.7436 25.4549 55.6128 25.6194 55.3889 25.6277L55.4038 26.0274C55.8583 26.0105 56.1696 25.6422 56.1161 25.2064L55.7191 25.2551ZM55.6169 19.3672C56.1142 19.4195 56.7639 19.3473 57.3884 19.1574C58.012 18.9678 58.6344 18.6535 59.0605 18.2021L58.7696 17.9275C58.4082 18.3104 57.8574 18.5967 57.272 18.7747C56.6874 18.9525 56.0922 19.015 55.6587 18.9694L55.6169 19.3672ZM59.0616 18.2009C59.5085 17.7195 59.7158 17.0712 59.5893 16.4579L59.1976 16.5386C59.2949 17.0107 59.138 17.5307 58.7685 17.9288L59.0616 18.2009ZM59.5883 16.4532C59.4005 15.6413 58.6762 15.1257 58.0212 14.8803L57.8809 15.2549C58.4797 15.4792 59.0545 15.9207 59.1986 16.5433L59.5883 16.4532ZM58.0132 14.8775C56.9768 14.5389 55.8619 14.7722 55.2679 15.3019L55.5341 15.6005C56.0053 15.1803 56.9655 14.956 57.889 15.2577L58.0132 14.8775ZM55.2022 15.4728C55.3001 16.3736 55.4263 17.6824 55.4378 19.1698L55.8378 19.1668C55.8261 17.6594 55.6982 16.3352 55.5998 15.4296L55.2022 15.4728ZM65.1162 21.5401L65.0991 21.7393L65.1002 21.7394L65.1162 21.5401ZM62.6022 19.5142L62.7965 19.4666L62.7956 19.463L62.6022 19.5142ZM63.1481 15.9276L62.9872 15.8087L62.9854 15.8113L63.1481 15.9276ZM65.6478 14.6458L65.6367 14.446L65.6302 14.4466L65.6478 14.6458ZM68.7333 16.5146L68.9219 16.4476L68.9199 16.4425L68.7333 16.5146ZM68.5137 17.9153L68.3763 17.77L68.3727 17.7735L68.5137 17.9153ZM63.7101 19.0756L63.7001 18.8758L63.5164 18.8851L63.5102 19.0689L63.7101 19.0756ZM64.7731 20.4422L64.7136 20.6332L64.7189 20.6347L64.7731 20.4422ZM67.4023 19.9945L67.5072 20.1648L67.5079 20.1644L67.4023 19.9945ZM68.2138 20.0798L68.3764 19.9633L68.3699 19.9543L68.3624 19.946L68.2138 20.0798ZM68.0594 20.86L67.9624 20.6848L67.9538 20.6901L68.0594 20.86ZM65.6617 15.6609L65.6497 15.4612L65.6461 15.4615L65.6617 15.6609ZM64.0288 16.5028L63.868 16.3835L63.8628 16.3913L64.0288 16.5028ZM63.5768 18.048L63.3768 18.0437L63.3727 18.2354L63.564 18.2476L63.5768 18.048ZM67.579 17.1655L67.4859 16.9882L67.4764 16.9939L67.579 17.1655ZM67.6568 16.8841L67.8441 16.8139L67.8414 16.8067L67.8381 16.7997L67.6568 16.8841ZM67.3917 16.4219L67.233 16.5437L67.2362 16.5477L67.3917 16.4219ZM65.1333 21.3408C63.9719 21.2413 63.0117 20.3462 62.7965 19.4666L62.4079 19.5617C62.6654 20.6141 63.7732 21.6257 65.0991 21.7393L65.1333 21.3408ZM62.7956 19.463C62.3475 17.7698 62.8568 16.6795 63.3108 16.0438L62.9854 15.8113C62.4774 16.5225 61.9242 17.7337 62.4089 19.5653L62.7956 19.463ZM63.3089 16.0465C63.8296 15.342 64.7088 14.9295 65.6653 14.8451L65.6302 14.4466C64.5894 14.5384 63.592 14.9905 62.9873 15.8087L63.3089 16.0465ZM65.6588 14.8455C67.0733 14.7674 68.1971 15.6829 68.5468 16.5868L68.9199 16.4425C68.5105 15.3843 67.2321 14.358 65.6367 14.4462L65.6588 14.8455ZM68.5449 16.5816C68.731 17.1055 68.6251 17.5348 68.3763 17.77L68.6511 18.0607C69.0454 17.6878 69.1454 17.0769 68.9218 16.4477L68.5449 16.5816ZM68.3727 17.7735C68.2577 17.8878 68.0166 18.0172 67.6628 18.1464C67.3171 18.2726 66.8899 18.3897 66.4286 18.4919C65.5057 18.6963 64.4641 18.8374 63.7001 18.8758L63.7202 19.2753C64.5088 19.2356 65.5726 19.0912 66.5151 18.8824C66.9865 18.778 67.432 18.6564 67.8 18.5221C68.1598 18.3907 68.4733 18.2375 68.6547 18.0572L68.3727 17.7735ZM63.5102 19.0689C63.4965 19.4799 63.7125 19.8433 63.9547 20.106C64.196 20.3678 64.4959 20.5653 64.7136 20.6331L64.8326 20.2512C64.6997 20.2098 64.4569 20.0606 64.2488 19.8349C64.0414 19.6099 63.9012 19.3446 63.91 19.0823L63.5102 19.0689ZM64.7189 20.6347C65.5988 20.8825 66.5618 20.7475 67.5072 20.1648L67.2973 19.8243C66.4365 20.3549 65.5881 20.4639 64.8273 20.2497L64.7189 20.6347ZM67.5079 20.1644C67.6817 20.0563 67.931 20.0647 68.0652 20.2137L68.3624 19.946C68.0645 19.6152 67.5877 19.6438 67.2967 19.8247L67.5079 20.1644ZM68.0513 20.1964C68.0978 20.2612 68.1189 20.3628 68.0993 20.468C68.0796 20.5731 68.0258 20.6499 67.9625 20.685L68.1564 21.0349C68.3493 20.928 68.4568 20.7322 68.4925 20.5414C68.528 20.3509 68.4983 20.1334 68.3764 19.9633L68.0513 20.1964ZM67.9538 20.6901C67.0663 21.242 66.0779 21.4168 65.1323 21.3407L65.1002 21.7394C66.1168 21.8213 67.1935 21.634 68.165 21.0298L67.9538 20.6901ZM65.6461 15.4615C64.9422 15.5168 64.274 15.8367 63.8682 16.3836L64.1894 16.622C64.5145 16.1839 65.0673 15.9082 65.6774 15.8603L65.6461 15.4615ZM63.8628 16.3913C63.5814 16.81 63.39 17.4325 63.3768 18.0437L63.7768 18.0523C63.7885 17.5078 63.9613 16.9619 64.1948 16.6143L63.8628 16.3913ZM63.564 18.2476C64.1817 18.2871 65.0511 18.1532 65.8327 17.9681C66.6107 17.7839 67.344 17.539 67.6816 17.3372L67.4764 16.9939C67.1959 17.1615 66.5154 17.3954 65.7405 17.5789C64.9691 17.7615 64.1465 17.8841 63.5896 17.8484L63.564 18.2476ZM67.6719 17.3426C67.7785 17.2867 67.8312 17.1813 67.8535 17.1007C67.8772 17.0152 67.8804 16.9108 67.8441 16.8139L67.4696 16.9544C67.4698 16.955 67.4712 16.9595 67.4714 16.9681C67.4715 16.9765 67.4703 16.9858 67.468 16.9941C67.4656 17.0027 67.4631 17.0067 67.4632 17.0065C67.4634 17.0062 67.4649 17.0041 67.4683 17.0009C67.4717 16.9976 67.4774 16.9929 67.486 16.9884L67.6719 17.3426ZM67.8381 16.7997C67.7816 16.6783 67.6937 16.477 67.5471 16.296L67.2362 16.5477C67.346 16.6832 67.4139 16.8362 67.4755 16.9685L67.8381 16.7997ZM67.5503 16.3C67.1052 15.7206 66.4424 15.4133 65.6497 15.4612L65.6738 15.8605C66.3383 15.8203 66.8715 16.073 67.2331 16.5437L67.5503 16.3ZM76.9797 15.2577L76.7829 15.2938L76.7837 15.2977L76.9797 15.2577ZM75.9076 19.9473L76.1076 19.9527L76.1146 19.6881L75.8582 19.7536L75.9076 19.9473ZM73.1288 19.7518L73.1924 19.5622L73.0804 19.5246L72.9934 19.6046L73.1288 19.7518ZM71.2073 22.4216L71.3894 22.5043L71.3904 22.502L71.2073 22.4216ZM70.446 22.7759L70.5326 22.5956L70.5288 22.5939L70.446 22.7759ZM70.2135 22.0034L70.0279 21.9281L70.0244 21.9383L70.2135 22.0034ZM72.1188 19.2595L72.2522 19.4085L72.4584 19.2238L72.2183 19.086L72.1188 19.2595ZM70.6461 16.7398L70.8455 16.7561L70.8457 16.7518L70.6461 16.7398ZM72.0024 14.3967L72.1084 14.5664L72.1104 14.5651L72.0024 14.3967ZM76.2887 14.4852L76.2018 14.6654L76.2059 14.6673L76.2887 14.4852ZM72.2555 18.188L72.1114 18.3267L72.114 18.3293L72.2555 18.188ZM75.9314 19.0328L75.9832 19.226L76.1297 19.1866L76.1313 19.0349L75.9314 19.0328ZM75.8868 15.5531L76.0868 15.544L76.086 15.5346L75.8868 15.5531ZM75.7235 15.2705L75.8311 15.1019L75.8172 15.093L75.802 15.0865L75.7235 15.2705ZM72.5402 15.2496L72.4395 15.0768L72.4376 15.0779L72.5402 15.2496ZM71.6825 16.7522L71.4824 16.746L71.4825 16.7551L71.6825 16.7522ZM76.7837 15.2977C76.8513 15.6289 76.8885 16.2205 76.9025 16.9494C76.9164 17.673 76.9074 18.5165 76.8869 19.3423C76.8457 20.9967 76.7584 22.5673 76.7179 22.9525L77.1158 22.9943C77.158 22.5919 77.2455 21.0075 77.2867 19.3523C77.3074 18.5234 77.3165 17.6735 77.3024 16.9417C77.2884 16.2152 77.2514 15.5894 77.1757 15.2177L76.7837 15.2977ZM76.7179 22.9525C76.6921 23.1982 76.4799 23.3538 76.3236 23.3374L76.2817 23.7352C76.6982 23.779 77.0713 23.4169 77.1158 22.9943L76.7179 22.9525ZM76.3236 23.3374C76.1521 23.3194 75.9673 23.1298 75.9939 22.8764L75.5961 22.8346C75.5475 23.2973 75.8804 23.693 76.2817 23.7352L76.3236 23.3374ZM75.9939 22.8764C76.0251 22.5801 76.0665 21.4882 76.1076 19.9527L75.7077 19.942C75.6664 21.4867 75.6252 22.558 75.5961 22.8346L75.9939 22.8764ZM75.8582 19.7536C75.553 19.8315 75.0923 19.8541 74.5957 19.8196C74.1017 19.7854 73.5919 19.6961 73.1924 19.5622L73.0653 19.9414C73.505 20.0888 74.0499 20.1827 74.568 20.2187C75.0836 20.2544 75.5927 20.2342 75.9571 20.1411L75.8582 19.7536ZM72.9934 19.6046C71.9841 20.5334 71.5109 21.2322 71.0241 22.3412L71.3904 22.502C71.8554 21.4425 72.2966 20.7895 73.2643 19.899L72.9934 19.6046ZM71.0252 22.3388C70.9781 22.4425 70.8962 22.5347 70.8043 22.5848C70.718 22.6319 70.6272 22.6411 70.5326 22.5957L70.3595 22.9562C70.5865 23.0653 70.8136 23.0354 70.996 22.9359C71.173 22.8393 71.3109 22.677 71.3893 22.5043L71.0252 22.3388ZM70.5288 22.5939C70.4103 22.54 70.3712 22.4729 70.357 22.404C70.3397 22.3201 70.355 22.2068 70.4026 22.0685L70.0244 21.9383C69.9678 22.1028 69.9266 22.2973 69.9653 22.4847C70.007 22.6871 70.1363 22.8549 70.3633 22.958L70.5288 22.5939ZM70.3988 22.0786C70.8738 20.9084 71.7642 19.8458 72.2522 19.4085L71.9853 19.1106C71.4609 19.5804 70.5302 20.6914 70.0282 21.9282L70.3988 22.0786ZM72.2183 19.086C71.292 18.5547 70.769 17.6919 70.8454 16.7561L70.4467 16.7235C70.3551 17.8453 70.9882 18.8416 72.0193 19.433L72.2183 19.086ZM70.8457 16.7518C70.907 15.7362 71.3377 15.0479 72.1084 14.5663L71.8965 14.2271C71.0141 14.7784 70.5154 15.5852 70.4464 16.7277L70.8457 16.7518ZM72.1104 14.5651C72.5711 14.2698 73.363 14.1792 74.1855 14.2298C75.0009 14.28 75.7856 14.4647 76.2018 14.6654L76.3755 14.3051C75.896 14.0738 75.055 13.8825 74.21 13.8306C73.3722 13.779 72.4688 13.8602 71.8945 14.2283L72.1104 14.5651ZM76.2059 14.6673C76.408 14.7591 76.5321 14.8348 76.6158 14.923C76.6942 15.0055 76.7498 15.1128 76.783 15.2938L77.1764 15.2216C77.1329 14.9844 77.0503 14.7996 76.9059 14.6475C76.7669 14.5012 76.5839 14.3997 76.3714 14.3032L76.2059 14.6673ZM72.114 18.3293C72.5582 18.7741 73.28 19.0613 73.9931 19.2072C74.7082 19.3536 75.4588 19.3668 75.9832 19.226L75.8795 18.8397C75.4354 18.959 74.752 18.9542 74.0733 18.8153C73.3926 18.676 72.7607 18.4107 72.397 18.0466L72.114 18.3293ZM76.1313 19.0349C76.145 17.7547 76.1234 16.3489 76.0866 15.544L75.687 15.5622C75.7234 16.3577 75.745 17.7557 75.7314 19.0307L76.1313 19.0349ZM76.086 15.5346C76.0695 15.3572 75.9784 15.196 75.8311 15.1019L75.6158 15.439C75.6495 15.4605 75.6815 15.5053 75.6877 15.5716L76.086 15.5346ZM75.802 15.0865C75.4723 14.9459 74.9506 14.8433 74.2557 14.7703L74.2139 15.1681C74.9035 15.2406 75.3741 15.3389 75.645 15.4544L75.802 15.0865ZM74.2557 14.7703C73.5073 14.6916 72.8696 14.826 72.4395 15.0769L72.641 15.4224C72.9821 15.2234 73.5302 15.0963 74.2139 15.1681L74.2557 14.7703ZM72.4376 15.0779C71.8619 15.4221 71.5046 16.031 71.4826 16.746L71.8824 16.7583C71.9003 16.1744 72.1886 15.6928 72.6428 15.4213L72.4376 15.0779ZM71.4825 16.7551C71.4872 17.0733 71.5294 17.3503 71.6312 17.6089C71.7334 17.8681 71.891 18.0975 72.1114 18.3266L72.3996 18.0493C72.2067 17.8488 72.0822 17.6624 72.0034 17.4623C71.9243 17.2614 71.8867 17.0353 71.8824 16.7492L71.4825 16.7551Z" fill="#F3AADB" mask="url(#path-1-outside-1_2046_14720)"/>
<path d="M91.8125 9.90155C93.6833 11.3569 95.4705 12.7019 96.4217 14.9403C96.8755 16.0082 97.1068 17.077 97.2292 18.2207M91 1.2207C93.8497 3.10796 96.8499 4.91125 99.2153 7.41988C100.587 8.87443 101.721 10.5439 102.626 12.323C103.319 13.6859 104 15.0426 104 16.593" stroke="#F3AADB" stroke-width="2" stroke-linecap="round"/>
<path d="M14.1875 29.5399C12.3167 28.0846 10.5295 26.7395 9.57832 24.5011C9.12452 23.4332 8.89318 22.3644 8.77084 21.2207M15 38.2207C12.1503 36.3334 9.15011 34.5302 6.78472 32.0215C5.41323 30.567 4.2792 28.8975 3.37423 27.1185C2.68093 25.7555 2 24.3988 2 22.8484" stroke="#F3AADB" stroke-width="2" stroke-linecap="round"/>
</svg>
