<svg width="28" height="28" viewBox="0 0 28 28" fill="none" xmlns="http://www.w3.org/2000/svg">
<path d="M19.365 7.29393L14.0001 12.6587L8.63522 7.29381C8.26512 6.92371 7.66418 6.92371 7.29396 7.29393C6.92386 7.66403 6.92386 8.26498 7.29396 8.63507L12.6589 14L7.29396 19.3649C6.92386 19.735 6.92386 20.336 7.29396 20.7061C7.66418 21.0763 8.26512 21.0763 8.63522 20.7062L14.0001 15.3413L19.365 20.7061C19.7352 21.0763 20.3361 21.0763 20.7062 20.7062C21.0764 20.336 21.0764 19.735 20.7062 19.3648L15.3414 14L20.7062 8.6352C21.0764 8.26498 21.0764 7.66403 20.7062 7.29381C20.3361 6.92371 19.7352 6.92371 19.365 7.29393Z" fill="#EAE9E3"/>
</svg>
