<svg width="32" height="32" viewBox="0 0 32 32" fill="none" xmlns="http://www.w3.org/2000/svg">
<rect x="1" y="1" width="30" height="30" rx="7" stroke="#EAE9E3" stroke-width="2"/>
<path d="M17.17 17.5775C16.8217 17.8097 16.4171 17.9324 16 17.9324C15.5829 17.9324 15.1783 17.8097 14.83 17.5775L9.09321 13.7528C9.06139 13.7316 9.03038 13.7095 9 13.6867V19.9538C9 20.6724 9.58311 21.2426 10.2888 21.2426H21.7112C22.4297 21.2426 23 20.6595 23 19.9538V13.6867C22.9695 13.7095 22.9385 13.7317 22.9066 13.7529L17.17 17.5775Z" fill="#F3AADB"/>
<path d="M9.54824 13.0703L15.285 16.895C15.5022 17.0398 15.7511 17.1122 16 17.1122C16.2489 17.1122 16.4978 17.0398 16.715 16.895L22.4518 13.0703C22.7951 12.8416 23 12.4588 23 12.0456C23 11.3352 22.422 10.7573 21.7116 10.7573H10.2884C9.57796 10.7573 9 11.3352 9 12.0463C9 12.4588 9.20497 12.8416 9.54824 13.0703Z" fill="#F3AADB"/>
</svg>
