<svg width="32" height="32" viewBox="0 0 32 32" fill="none" xmlns="http://www.w3.org/2000/svg">
<rect x="1" y="1" width="30" height="30" rx="7" stroke="#EAE9E3" stroke-width="2"/>
<path d="M15.9999 9.09692C13.2428 9.09692 10.9998 11.3399 10.9998 14.097C10.9998 17.5185 15.4744 22.5416 15.6649 22.7538C15.8438 22.9531 16.1563 22.9527 16.3349 22.7538C16.5254 22.5416 21 17.5185 21 14.097C20.9999 11.3399 18.7569 9.09692 15.9999 9.09692ZM15.9999 16.6126C14.6128 16.6126 13.4843 15.4841 13.4843 14.097C13.4843 12.7098 14.6128 11.5813 15.9999 11.5813C17.387 11.5813 18.5155 12.7099 18.5155 14.097C18.5155 15.4841 17.387 16.6126 15.9999 16.6126Z" fill="#F3AADB"/>
</svg>
