<svg width="40" height="40" viewBox="0 0 40 40" fill="none" xmlns="http://www.w3.org/2000/svg">
<rect x="1" y="1" width="38" height="38" rx="11" stroke="#EAE9E3" stroke-width="2"/>
<path d="M10 26.75V13.25C10 12.6533 10.2305 12.081 10.6407 11.659C11.0509 11.2371 11.6073 11 12.1875 11H23.125C23.3571 11 23.5796 11.0948 23.7437 11.2636C23.9078 11.4324 24 11.6613 24 11.9V13M10 26.75C10 27.3467 10.2305 27.919 10.6407 28.341C11.0509 28.7629 11.6073 29 12.1875 29H23.125C23.3571 29 23.5796 28.9052 23.7437 28.7364C23.9078 28.5676 24 28.3387 24 28.1M10 26.75C10 26.1533 10.2305 25.581 10.6407 25.159C11.0509 24.7371 11.6073 24.5 12.1875 24.5H19.1875" stroke="#F3AADB" stroke-width="2" stroke-linecap="round" stroke-linejoin="round"/>
<path d="M30 17.35C30 18.0956 28.2091 18.7 26 18.7C23.7909 18.7 22 18.0956 22 17.35M30 17.35C30 16.6044 28.2091 16 26 16C23.7909 16 22 16.6044 22 17.35M30 17.35V23.65C30 24.008 29.5786 24.3514 28.8284 24.6046C28.0783 24.8578 27.0609 25 26 25C24.9391 25 23.9217 24.8578 23.1716 24.6046C22.4214 24.3514 22 24.008 22 23.65V17.35M22 20.5C22 20.858 22.4214 21.2014 23.1716 21.4546C23.9217 21.7078 24.9391 21.85 26 21.85C27.0609 21.85 28.0783 21.7078 28.8284 21.4546C29.5786 21.2014 30 20.858 30 20.5" stroke="#F3AADB" stroke-width="2" stroke-linecap="round" stroke-linejoin="round"/>
</svg>
