<svg width="40" height="40" viewBox="0 0 40 40" fill="none" xmlns="http://www.w3.org/2000/svg">
<rect x="1" y="1" width="38" height="38" rx="11" stroke="#EAE9E3" stroke-width="2"/>
<path d="M13 24V21C13 20.7348 13.1054 20.4804 13.2929 20.2929C13.4804 20.1054 13.7348 20 14 20H26C26.2652 20 26.5196 20.1054 26.7071 20.2929C26.8946 20.4804 27 20.7348 27 21V24M20 20V16M25 24H29C29.5523 24 30 24.4477 30 25V29C30 29.5523 29.5523 30 29 30H25C24.4477 30 24 29.5523 24 29V25C24 24.4477 24.4477 24 25 24ZM11 24H15C15.5523 24 16 24.4477 16 25V29C16 29.5523 15.5523 30 15 30H11C10.4477 30 10 29.5523 10 29V25C10 24.4477 10.4477 24 11 24ZM18 10H22C22.5523 10 23 10.4477 23 11V15C23 15.5523 22.5523 16 22 16H18C17.4477 16 17 15.5523 17 15V11C17 10.4477 17.4477 10 18 10Z" stroke="#94D388" stroke-width="2" stroke-linecap="round" stroke-linejoin="round"/>
</svg>
