<svg width="40" height="40" viewBox="0 0 40 40" fill="none" xmlns="http://www.w3.org/2000/svg">
<rect x="1" y="1" width="38" height="38" rx="11" stroke="#EAE9E3" stroke-width="2"/>
<path d="M25 22H25.01M15 15H27C27.5304 15 28.0391 15.2107 28.4142 15.5858C28.7893 15.9609 29 16.4696 29 17V27C29 27.5304 28.7893 28.0391 28.4142 28.4142C28.0391 28.7893 27.5304 29 27 29H13C12.4696 29 11.9609 28.7893 11.5858 28.4142C11.2107 28.0391 11 27.5304 11 27V13C11 12.4696 11.2107 11.9609 11.5858 11.5858C11.9609 11.2107 12.4696 11 13 11H27" stroke="#F5C356" stroke-width="2" stroke-linecap="round" stroke-linejoin="round"/>
</svg>
