<svg width="40" height="40" viewBox="0 0 40 40" fill="none" xmlns="http://www.w3.org/2000/svg">
<rect x="1" y="1" width="38" height="38" rx="11" stroke="#EAE9E3" stroke-width="2"/>
<path d="M10 29C10.0001 27.741 10.2974 26.4997 10.8677 25.3772C11.4379 24.2548 12.2651 23.2827 13.2818 22.5402C14.2986 21.7976 15.4762 21.3056 16.719 21.104C17.9618 20.9024 19.2347 20.9969 20.434 21.38M30 30L28.1 28.1M23 16C23 18.7614 20.7614 21 18 21C15.2386 21 13 18.7614 13 16C13 13.2386 15.2386 11 18 11C20.7614 11 23 13.2386 23 16ZM29 26C29 27.6569 27.6569 29 26 29C24.3431 29 23 27.6569 23 26C23 24.3431 24.3431 23 26 23C27.6569 23 29 24.3431 29 26Z" stroke="#ABB8DA" stroke-width="2" stroke-linecap="round" stroke-linejoin="round"/>
</svg>
