<svg width="40" height="40" viewBox="0 0 40 40" fill="none" xmlns="http://www.w3.org/2000/svg">
<rect x="1" y="1" width="38" height="38" rx="11" stroke="#EAE9E3" stroke-width="2"/>
<path d="M29 15H26C25.4696 15 24.9609 14.7893 24.5858 14.4142C24.2107 14.0391 24 13.5304 24 13V10M15 16V24.8C15 25.1 15.2 25.4 15.4 25.6C15.6 25.8 15.9 26 16.2 26H23M11 20V28.8C11 29.1 11.2 29.4 11.4 29.6C11.6 29.8 11.9 30 12.2 30H19M29 14V20.5C29 21.3 28.3 22 27.5 22H20.5C19.7 22 19 21.3 19 20.5V11.5C19 10.7 19.7 10 20.5 10H25L29 14Z" stroke="#ABB8DA" stroke-width="2" stroke-linecap="round" stroke-linejoin="round"/>
</svg>
