<svg width="40" height="40" viewBox="0 0 40 40" fill="none" xmlns="http://www.w3.org/2000/svg">
<rect x="1" y="1" width="38" height="38" rx="11" stroke="#EAE9E3" stroke-width="2"/>
<path d="M26 29C26 26.8783 25.1571 24.8434 23.6569 23.3431C22.1566 21.8429 20.1217 21 18 21M18 21C15.8783 21 13.8434 21.8429 12.3431 23.3431C10.8429 24.8434 10 26.8783 10 29M18 21C20.7614 21 23 18.7614 23 16C23 13.2386 20.7614 11 18 11C15.2386 11 13 13.2386 13 16C13 18.7614 15.2386 21 18 21ZM30 28C30 24.63 28 21.5 26 20C26.6574 19.5068 27.1831 18.8591 27.5306 18.1143C27.878 17.3695 28.0365 16.5505 27.992 15.7298C27.9475 14.9091 27.7014 14.1121 27.2755 13.4092C26.8495 12.7063 26.2569 12.1193 25.55 11.7" stroke="#F3AADB" stroke-width="2" stroke-linecap="round" stroke-linejoin="round"/>
</svg>
