<svg width="40" height="40" viewBox="0 0 40 40" fill="none" xmlns="http://www.w3.org/2000/svg">
<rect x="1" y="1" width="38" height="38" rx="11" stroke="#EAE9E3" stroke-width="2"/>
<path d="M24 18H26M24 22H26M14.17 23C14.3761 22.414 14.7591 21.9065 15.266 21.5474C15.7729 21.1884 16.3788 20.9955 17 20.9955C17.6212 20.9955 18.2271 21.1884 18.734 21.5474C19.2409 21.9065 19.6239 22.414 19.83 23M19 19C19 20.1046 18.1046 21 17 21C15.8954 21 15 20.1046 15 19C15 17.8954 15.8954 17 17 17C18.1046 17 19 17.8954 19 19ZM12 13H28C29.1046 13 30 13.8954 30 15V25C30 26.1046 29.1046 27 28 27H12C10.8954 27 10 26.1046 10 25V15C10 13.8954 10.8954 13 12 13Z" stroke="#ABB8DA" stroke-width="2" stroke-linecap="round" stroke-linejoin="round"/>
</svg>
