<svg width="40" height="40" viewBox="0 0 40 40" fill="none" xmlns="http://www.w3.org/2000/svg">
<rect x="1" y="1" width="38" height="38" rx="11" stroke="#EAE9E3" stroke-width="2"/>
<path d="M14.08 17.5L10.58 19.1C10.4082 19.1807 10.263 19.3087 10.1612 19.469C10.0595 19.6293 10.0054 19.8152 10.0054 20.005C10.0054 20.1948 10.0595 20.3807 10.1612 20.541C10.263 20.7012 10.4082 20.8292 10.58 20.91L19.18 24.82C19.4392 24.9374 19.7205 24.9981 20.005 24.9981C20.2896 24.9981 20.5708 24.9374 20.83 24.82L29.41 20.92C29.5875 20.8417 29.7383 20.7136 29.8443 20.5511C29.9502 20.3887 30.0066 20.1989 30.0066 20.005C30.0066 19.8111 29.9502 19.6213 29.8443 19.4588C29.7383 19.2964 29.5875 19.1682 29.41 19.09L25.91 17.5M14.08 22.5L10.58 24.1C10.4082 24.1807 10.263 24.3087 10.1612 24.469C10.0595 24.6293 10.0054 24.8152 10.0054 25.005C10.0054 25.1948 10.0595 25.3807 10.1612 25.541C10.263 25.7012 10.4082 25.8292 10.58 25.91L19.18 29.82C19.4392 29.9374 19.7205 29.9981 20.005 29.9981C20.2896 29.9981 20.5708 29.9374 20.83 29.82L29.41 25.92C29.5875 25.8417 29.7383 25.7136 29.8443 25.5511C29.9502 25.3887 30.0066 25.1989 30.0066 25.005C30.0066 24.8111 29.9502 24.6213 29.8443 24.4588C29.7383 24.2964 29.5875 24.1682 29.41 24.09L25.91 22.5M20.83 10.18C20.5695 10.0611 20.2864 9.99963 20 9.99963C19.7136 9.99963 19.4306 10.0611 19.17 10.18L10.6 14.08C10.4226 14.1582 10.2717 14.2864 10.1658 14.4488C10.0599 14.6113 10.0035 14.8011 10.0035 14.995C10.0035 15.1889 10.0599 15.3787 10.1658 15.5411C10.2717 15.7036 10.4226 15.8317 10.6 15.91L19.18 19.82C19.4406 19.9388 19.7236 20.0003 20.01 20.0003C20.2964 20.0003 20.5795 19.9388 20.84 19.82L29.42 15.92C29.5975 15.8417 29.7483 15.7136 29.8543 15.5511C29.9602 15.3887 30.0166 15.1989 30.0166 15.005C30.0166 14.8111 29.9602 14.6213 29.8543 14.4588C29.7483 14.2964 29.5975 14.1682 29.42 14.09L20.83 10.18Z" stroke="#ABB8DA" stroke-width="2" stroke-linecap="round" stroke-linejoin="round"/>
</svg>
