<svg width="40" height="40" viewBox="0 0 40 40" fill="none" xmlns="http://www.w3.org/2000/svg">
<rect x="1" y="1" width="38" height="38" rx="11" stroke="#EAE9E3" stroke-width="2"/>
<path d="M20 16V20M20 24H20.01M15.9 28C17.8086 28.979 20.0041 29.2442 22.0909 28.7478C24.1777 28.2513 26.0186 27.0258 27.2818 25.2922C28.545 23.5585 29.1474 21.4307 28.9806 19.2921C28.8137 17.1536 27.8886 15.145 26.3718 13.6282C24.855 12.1114 22.8464 11.1862 20.7078 11.0194C18.5693 10.8526 16.4415 11.455 14.7078 12.7182C12.9742 13.9814 11.7487 15.8223 11.2522 17.9091C10.7558 19.9959 11.0209 22.1914 12 24.1L10 30L15.9 28Z" stroke="#F5C356" stroke-width="2" stroke-linecap="round" stroke-linejoin="round"/>
</svg>
