<svg width="40" height="40" viewBox="0 0 40 40" fill="none" xmlns="http://www.w3.org/2000/svg">
<rect x="1" y="1" width="38" height="38" rx="11" stroke="#EAE9E3" stroke-width="2"/>
<path d="M20 21C20.5523 21 21 20.5523 21 20C21 19.4477 20.5523 19 20 19C19.4477 19 19 19.4477 19 20C19 20.5523 19.4477 21 20 21Z" stroke="#94D388" stroke-width="2" stroke-linecap="round" stroke-linejoin="round"/>
<path d="M28.2 28.2C30.24 26.17 28.22 20.84 23.7 16.3C19.16 11.78 13.83 9.76001 11.8 11.8C9.76001 13.83 11.78 19.16 16.3 23.7C20.84 28.22 26.17 30.24 28.2 28.2Z" stroke="#94D388" stroke-width="2" stroke-linecap="round" stroke-linejoin="round"/>
<path d="M23.7 23.7C28.22 19.16 30.24 13.83 28.2 11.8C26.17 9.76001 20.84 11.78 16.3 16.3C11.78 20.84 9.76001 26.17 11.8 28.2C13.83 30.24 19.16 28.22 23.7 23.7Z" stroke="#94D388" stroke-width="2" stroke-linecap="round" stroke-linejoin="round"/>
</svg>
