<svg width="24" height="32" viewBox="0 0 24 32" fill="none" xmlns="http://www.w3.org/2000/svg">
<path d="M23.8047 6.86212L17.138 0.195435C17.013 0.0704346 16.8438 0.00012207 16.6666 0.00012207H2.66663C1.19594 0.00012207 0 1.19606 0 2.66681V29.3335C0 30.8042 1.19594 32.0001 2.66669 32.0001H21.3334C22.8041 32.0001 24 30.8042 24 29.3334V7.33343C24 7.15637 23.9297 6.98712 23.8047 6.86212ZM17.3333 2.27618L21.7239 6.66681H18.6666C17.9316 6.66681 17.3333 6.0685 17.3333 5.3335V2.27618ZM22.6667 29.3334C22.6667 30.0684 22.0684 30.6667 21.3334 30.6667H2.66669C1.93169 30.6667 1.33337 30.0684 1.33337 29.3334V2.66681C1.33337 1.93181 1.93169 1.3335 2.66669 1.3335H16V5.3335C16 6.80418 17.1959 8.00012 18.6667 8.00012H22.6667V29.3334Z" fill="#EE7CC9"/>
<path d="M15.3991 19.5711C14.7819 19.0854 14.1953 18.5861 13.8047 18.1954C13.2969 17.6876 12.8444 17.1954 12.4512 16.7267C13.0645 14.8315 13.3334 13.8543 13.3334 13.3334C13.3334 11.1206 12.5339 10.6667 11.3334 10.6667C10.4212 10.6667 9.33337 11.1407 9.33337 13.3972C9.33337 14.3921 9.87831 15.5997 10.9584 17.0034C10.6941 17.81 10.3835 18.7404 10.0346 19.7892C9.86656 20.2924 9.68431 20.7586 9.49156 21.1896C9.33469 21.2592 9.18231 21.3302 9.03519 21.4037C8.50525 21.6687 8.002 21.907 7.53519 22.1284C5.40625 23.1362 4 23.8029 4 25.1192C4 26.075 5.03844 26.6667 6 26.6667C7.23956 26.6667 9.11131 25.0111 10.4785 22.2221C11.8978 21.6622 13.6621 21.2474 15.0547 20.9877C16.1706 21.8457 17.403 22.6667 18 22.6667C19.653 22.6667 20 21.711 20 20.9096C20 19.3334 18.1992 19.3334 17.3333 19.3334C17.0644 19.3334 16.3431 19.4129 15.3991 19.5711ZM6 25.3334C5.61913 25.3334 5.36131 25.1537 5.33331 25.1192C5.33331 24.6466 6.74281 23.9786 8.10612 23.3328C8.19269 23.2918 8.28063 23.2507 8.36981 23.2084C7.3685 24.6603 6.37825 25.3334 6 25.3334ZM10.6667 13.3972C10.6667 12.0001 11.1003 12.0001 11.3334 12.0001C11.8047 12.0001 12.0001 12.0001 12.0001 13.3334C12.0001 13.6147 11.8126 14.3178 11.4694 15.4155C10.9459 14.6095 10.6667 13.9187 10.6667 13.3972ZM11.1777 20.5626C11.2194 20.4467 11.2598 20.3296 11.2989 20.2111C11.5462 19.4689 11.7689 18.8022 11.9675 18.2019C12.2442 18.5066 12.5424 18.8185 12.8621 19.1381C12.9871 19.2631 13.2969 19.5444 13.7097 19.8966C12.888 20.0756 12.0137 20.2976 11.1777 20.5626ZM18.6667 20.9096C18.6667 21.2091 18.6667 21.3334 18.0482 21.3374C17.8666 21.2983 17.4466 21.0509 16.9284 20.6981C17.1165 20.6772 17.2552 20.6668 17.3333 20.6668C18.3184 20.6668 18.5977 20.7631 18.6667 20.9096Z" fill="#EE7CC9"/>
</svg>
